<svg width="14" height="16" viewBox="0 0 14 16" fill="none" xmlns="http://www.w3.org/2000/svg">
<path d="M13.75 4.24998V11.75C13.7488 12.7442 13.3534 13.6974 12.6504 14.4004C11.9473 15.1034 10.9942 15.4988 9.99999 15.5H7C6.80109 15.5 6.61033 15.421 6.46968 15.2803C6.32903 15.1397 6.25001 14.9489 6.25001 14.75C6.25001 14.5511 6.32903 14.3603 6.46968 14.2197C6.61033 14.079 6.80109 14 7 14H9.99999C10.5965 13.9994 11.1684 13.7621 11.5903 13.3403C12.0121 12.9185 12.2493 12.3465 12.25 11.75V4.24998C12.2493 3.65344 12.0121 3.08152 11.5903 2.65971C11.1684 2.23789 10.5965 2.00063 9.99999 1.99998H7C6.80109 1.99998 6.61033 1.92096 6.46968 1.78031C6.32903 1.63966 6.25001 1.4489 6.25001 1.24999C6.25001 1.05108 6.32903 0.860317 6.46968 0.719667C6.61033 0.579016 6.80109 0.5 7 0.5H9.99999C10.9942 0.501163 11.9473 0.896621 12.6504 1.59963C13.3534 2.30263 13.7488 3.25577 13.75 4.24998ZM9.19213 8.28655C9.24863 8.14944 9.26335 7.99869 9.23444 7.85325C9.20553 7.7078 9.13428 7.57414 9.02964 7.46906L6.03029 4.4697C5.88965 4.32906 5.6989 4.25005 5.50001 4.25005C5.30111 4.25005 5.11037 4.32907 4.96973 4.4697C4.82909 4.61034 4.75008 4.80109 4.75008 4.99998C4.75008 5.19888 4.82909 5.38962 4.96973 5.53026L6.68947 7.25H0.999988C0.801079 7.25 0.610317 7.32902 0.469666 7.46967C0.329016 7.61032 0.25 7.80108 0.25 7.99999C0.25 8.1989 0.329016 8.38966 0.469666 8.53031C0.610317 8.67096 0.801079 8.74998 0.999988 8.74998H6.68947L4.96973 10.4697C4.90009 10.5394 4.84485 10.622 4.80716 10.713C4.76948 10.804 4.75008 10.9015 4.75008 11C4.75008 11.0985 4.76948 11.196 4.80716 11.287C4.84485 11.378 4.90009 11.4606 4.96973 11.5303C5.03936 11.5999 5.12204 11.6552 5.21302 11.6928C5.30401 11.7305 5.40152 11.7499 5.50001 11.7499C5.59849 11.7499 5.69601 11.7305 5.78699 11.6928C5.87798 11.6552 5.96065 11.5999 6.03029 11.5303L9.02964 8.53085C9.09939 8.46093 9.15462 8.3779 9.19213 8.28655Z" fill="#4BA5F8"/>
</svg>
