<svg width="22" height="22" viewBox="0 0 22 22" fill="none" xmlns="http://www.w3.org/2000/svg">
<path d="M8.25014 11.9165C8.75703 11.9165 9.16674 12.3272 9.16674 12.8331V16.4998C9.16674 17.0049 9.57746 17.4164 10.0835 17.4164H12.8335V3.66658C12.8335 2.88375 13.3321 2.18434 14.0819 1.92401L14.3533 1.8332H10.0835C9.57746 1.8332 9.16674 2.24476 9.16674 2.74997V5.49995C9.16674 6.00583 8.75703 6.41655 8.25014 6.41655C7.74325 6.41655 7.33354 6.00583 7.33354 5.49995V2.74997C7.33354 1.23383 8.56737 0 10.0835 0H19.9375C19.9724 0 20.0016 0.0156096 20.0355 0.0201414C20.0797 0.0164488 20.1218 0 20.1666 0C21.1777 0 22 0.822105 22 1.8332V18.333C22 19.1159 21.5013 19.8153 20.7516 20.0756L15.235 21.9145C15.048 21.9723 14.8621 21.9998 14.6667 21.9998C13.6556 21.9998 12.8335 21.1775 12.8335 20.1664V19.2498H10.0835C8.56737 19.2498 7.33354 18.016 7.33354 16.4998V12.8331C7.33354 12.3272 7.74325 11.9165 8.25014 11.9165V11.9165Z" fill="#A0A0A0"/>
<path d="M0.268763 8.51841L3.9355 4.85184C4.19751 4.58966 4.59178 4.51078 4.93452 4.65277C5.27642 4.79494 5.50015 5.12945 5.50015 5.49989V8.24986H9.16673C9.67278 8.24986 10.0835 8.66041 10.0835 9.16646C10.0835 9.67252 9.67278 10.0831 9.16673 10.0831H5.50015V12.833C5.50015 13.2035 5.27642 13.538 4.93452 13.6802C4.59178 13.8221 4.19751 13.7433 3.9355 13.4813L0.268763 9.81451C-0.0895862 9.45616 -0.0895862 8.87676 0.268763 8.51841V8.51841Z" fill="#A0A0A0"/>
</svg>
