<svg xmlns="http://www.w3.org/2000/svg" id="Layer_1" height="512" viewBox="0 0 34 34" width="512"><g id="XMLID_81_"><path id="XMLID_1060_" d="m21 18.49c0 2.48-2.01 4.5-4.5 4.5-2.48 0-4.5-2.02-4.5-4.5s2.02-4.5 4.5-4.5c2.49 0 4.5 2.02 4.5 4.5z" fill="#c4c4c4"/><path id="XMLID_1054_" d="m29.5 7h-5.92l-.66-1.98c-.2-.61-.77-1.02-1.42-1.02h-10c-.65 0-1.22.41-1.42 1.02l-.66 1.98h-4.92c-1.93 0-3.5 1.57-3.5 3.5v16c0 1.93 1.57 3.5 3.5 3.5h25c1.93 0 3.5-1.57 3.5-3.5v-16c0-1.93-1.57-3.5-3.5-3.5zm-13 18.99c-4.13 0-7.5-3.36-7.5-7.5 0-4.13 3.37-7.5 7.5-7.5 4.14 0 7.5 3.37 7.5 7.5 0 4.14-3.36 7.5-7.5 7.5zm12.07-12.44c-.617.595-1.533.576-2.13 0-.584-.606-.56-1.539 0-2.12.56-.56 1.57-.56 2.13 0 .575.575.597 1.523 0 2.12z" fill="#c4c4c4"/></g></svg>