<svg width="22" height="22" viewBox="0 0 22 22" fill="none" xmlns="http://www.w3.org/2000/svg">
<path d="M21.0827 17.4167C21.0827 17.9029 20.8895 18.3692 20.5457 18.713C20.2019 19.0568 19.7356 19.25 19.2494 19.25H2.74935C2.26312 19.25 1.7968 19.0568 1.45299 18.713C1.10917 18.3692 0.916016 17.9029 0.916016 17.4167V7.33333C0.916016 6.8471 1.10917 6.38079 1.45299 6.03697C1.7968 5.69315 2.26312 5.5 2.74935 5.5H6.41602L8.24935 2.75H13.7494L15.5827 5.5H19.2494C19.7356 5.5 20.2019 5.69315 20.5457 6.03697C20.8895 6.38079 21.0827 6.8471 21.0827 7.33333V17.4167Z" stroke="#1F1F1F" stroke-width="1.5" stroke-linecap="round" stroke-linejoin="round"/>
<path d="M11.0007 15.5833C13.0257 15.5833 14.6673 13.9417 14.6673 11.9167C14.6673 9.89162 13.0257 8.25 11.0007 8.25C8.97561 8.25 7.33398 9.89162 7.33398 11.9167C7.33398 13.9417 8.97561 15.5833 11.0007 15.5833Z" stroke="#1F1F1F" stroke-width="1.5" stroke-linecap="round" stroke-linejoin="round"/>
</svg>
