<svg width="42" height="42" viewBox="0 0 42 42" fill="none" xmlns="http://www.w3.org/2000/svg">
<path d="M21 0.902344C9.90035 0.902344 0.902344 9.90035 0.902344 21C0.902344 32.0996 9.90035 41.0977 21 41.0977C32.0996 41.0977 41.0977 32.0996 41.0977 21C41.0977 9.90035 32.0996 0.902344 21 0.902344ZM18.5248 9.74113C18.5248 9.08705 18.7847 8.45976 19.2472 7.99725C19.7097 7.53474 20.337 7.27491 20.9911 7.27491C21.6451 7.27491 22.2724 7.53474 22.7349 7.99725C23.1975 8.45975 23.4573 9.08705 23.4573 9.74113V24.0202C23.4573 24.6743 23.1975 25.3016 22.735 25.7641C22.2724 26.2266 21.6452 26.4865 20.9911 26.4865C20.337 26.4865 19.7097 26.2266 19.2472 25.7641C18.7847 25.3016 18.5248 24.6743 18.5248 24.0202V9.74113ZM23.1624 33.8226C22.6637 34.3146 22.0099 34.6186 21.3123 34.683C20.6147 34.7473 19.9163 34.5681 19.336 34.1756C18.7556 33.7832 18.3291 33.2019 18.129 32.5305C17.9288 31.8591 17.9675 31.1392 18.2382 30.4931C18.509 29.8469 18.9953 29.3146 19.6143 28.9865C20.2332 28.6584 20.9468 28.5548 21.6335 28.6934C22.3202 28.832 22.9377 29.2042 23.381 29.7467C23.8243 30.2892 24.0659 30.9685 24.0649 31.6691C24.0683 32.0705 23.99 32.4684 23.8349 32.8386C23.6797 33.2087 23.4509 33.5435 23.1624 33.8226Z" fill="#F4505B"/>
</svg>
