<svg width="93" height="93" viewBox="0 0 93 93" fill="none" xmlns="http://www.w3.org/2000/svg">
<path d="M24.2204 75.5626C18.0165 75.5626 12.4985 71.5907 10.4951 65.6774L10.3595 65.2318C9.88675 63.6663 9.68913 62.3488 9.68913 61.0313V34.6116L0.288375 65.9913C-0.920625 70.6064 1.8345 75.3921 6.45738 76.6669L66.3765 92.7133C67.1244 92.9071 67.8722 93.0001 68.6085 93.0001C72.468 93.0001 75.9942 90.4387 76.9824 86.6644L80.4737 75.5626H24.2204Z" fill="#2563EB" fill-opacity="0.2"/>
<path d="M34.875 34.875C39.1491 34.875 42.625 31.3991 42.625 27.125C42.625 22.8509 39.1491 19.375 34.875 19.375C30.6009 19.375 27.125 22.8509 27.125 27.125C27.125 31.3991 30.6009 34.875 34.875 34.875Z" fill="#2563EB" fill-opacity="0.2"/>
<path d="M83.3125 7.75H25.1875C19.8477 7.75 15.5 12.0977 15.5 17.4375V60.0625C15.5 65.4022 19.8477 69.75 25.1875 69.75H83.3125C88.6523 69.75 93 65.4022 93 60.0625V17.4375C93 12.0977 88.6523 7.75 83.3125 7.75ZM25.1875 15.5H83.3125C84.382 15.5 85.25 16.368 85.25 17.4375V44.9461L73.0089 30.6629C71.7107 29.14 69.8314 28.3263 67.8125 28.2797C65.8052 28.2914 63.922 29.1826 62.6355 30.7249L48.2437 47.9996L43.555 43.3225C40.9045 40.672 36.5916 40.672 33.945 43.3225L23.25 54.0136V17.4375C23.25 16.368 24.118 15.5 25.1875 15.5Z" fill="#2563EB" fill-opacity="0.2"/>
</svg>
