<svg width="25" height="22" viewBox="0 0 25 22" fill="none" xmlns="http://www.w3.org/2000/svg">
<path d="M6.74941 17.4999C5.14841 17.4999 3.72441 16.4749 3.20741 14.9489L3.17241 14.8339C3.05041 14.4299 2.99941 14.0899 2.99941 13.7499V6.93188L0.573411 15.0299C0.261411 16.2209 0.972411 17.4559 2.16541 17.7849L17.6284 21.9259C17.8214 21.9759 18.0144 21.9999 18.2044 21.9999C19.2004 21.9999 20.1104 21.3389 20.3654 20.3649L21.2664 17.4999H6.74941Z" fill="white"/>
<path d="M9.5 7C10.603 7 11.5 6.103 11.5 5C11.5 3.897 10.603 3 9.5 3C8.397 3 7.5 3.897 7.5 5C7.5 6.103 8.397 7 9.5 7Z" fill="white"/>
<path d="M22 0H7C5.622 0 4.5 1.122 4.5 2.5V13.5C4.5 14.878 5.622 16 7 16H22C23.378 16 24.5 14.878 24.5 13.5V2.5C24.5 1.122 23.378 0 22 0ZM7 2H22C22.276 2 22.5 2.224 22.5 2.5V9.599L19.341 5.913C19.006 5.52 18.521 5.31 18 5.298C17.482 5.301 16.996 5.531 16.664 5.929L12.95 10.387L11.74 9.18C11.056 8.496 9.943 8.496 9.26 9.18L6.5 11.939V2.5C6.5 2.224 6.724 2 7 2Z" fill="white"/>
</svg>
