<svg width="18" height="16" viewBox="0 0 18 16" fill="none" xmlns="http://www.w3.org/2000/svg">
<path d="M8.38759 2.54728L8.99971 3.41206L9.61189 2.54732C10.3871 1.45231 11.6286 0.75 13.0226 0.75C15.3373 0.75 17.25 2.6868 17.25 5.12C17.25 6.06447 16.7864 7.17599 15.9738 8.36936C15.1718 9.54705 14.0885 10.7196 12.9835 11.7685C11.8818 12.8143 10.7771 13.7198 9.94618 14.3647C9.55761 14.6663 9.23017 14.9099 8.99257 15.0832C8.75584 14.9159 8.43084 14.6812 8.04564 14.3902C7.21587 13.7633 6.11272 12.8796 5.01265 11.849C3.90937 10.8154 2.82819 9.65156 2.02778 8.46617C1.21909 7.26851 0.75 6.12648 0.75 5.11996C0.75 3.52488 1.24964 2.45967 1.96936 1.78845C2.69876 1.1082 3.74305 0.75 4.97683 0.75C6.37131 0.75 7.61254 1.45231 8.38759 2.54728Z" fill="white" fill-opacity="0.5" stroke="#4BA5F8" stroke-width="1.5"/>
</svg>
