<svg width="22" height="21" viewBox="0 0 22 21" fill="none" xmlns="http://www.w3.org/2000/svg">
<path d="M10.383 3.56929L10.9997 4.46028L11.6164 3.56933C12.5959 2.15426 14.1621 1.25 15.9166 1.25C18.8265 1.25 21.25 3.74379 21.25 6.9C21.25 8.14142 20.6573 9.57133 19.6569 11.0737C18.6665 12.5611 17.3325 14.0369 15.9774 15.3524C14.6255 16.6649 13.2706 17.8006 12.2522 18.609C11.7436 19.0128 11.3203 19.3338 11.025 19.5533C11.0139 19.5615 11.0031 19.5696 10.9924 19.5775C10.9834 19.5711 10.9744 19.5646 10.9652 19.5579C10.6704 19.3458 10.2476 19.0348 9.73958 18.6423C8.7223 17.8563 7.36902 16.7477 6.01874 15.4539C4.66539 14.1572 3.33345 12.6919 2.3446 11.1941C1.34806 9.68471 0.75 8.21731 0.75 6.89995C0.75 4.85971 1.37685 3.47264 2.29945 2.59267C3.22955 1.70553 4.54814 1.25 6.08281 1.25C7.83779 1.25 9.40368 2.15426 10.383 3.56929Z" fill="white" fill-opacity="0.5" stroke="#4BA5F8" stroke-width="1.5"/>
</svg>
