<svg width="20" height="22" viewBox="0 0 20 22" fill="none" xmlns="http://www.w3.org/2000/svg">
<path fill-rule="evenodd" clip-rule="evenodd" d="M10.0011 21.0832C10.0011 21.0832 18.5725 15.5832 18.5725 9.1665C18.5725 6.97847 17.6695 4.88005 16.062 3.33287C14.4546 1.7857 12.2744 0.916504 10.0011 0.916504C7.72783 0.916504 5.54766 1.7857 3.9402 3.33287C2.33275 4.88005 1.42969 6.97847 1.42969 9.1665C1.42969 15.5832 10.0011 21.0832 10.0011 21.0832ZM12.8588 9.1665C12.8588 10.6853 11.5796 11.9165 10.0017 11.9165C8.42372 11.9165 7.14453 10.6853 7.14453 9.1665C7.14453 7.64772 8.42372 6.4165 10.0017 6.4165C11.5796 6.4165 12.8588 7.64772 12.8588 9.1665Z" fill="#A0A0A0"/>
</svg>
