<svg width="14" height="14" viewBox="0 0 14 14" fill="none" xmlns="http://www.w3.org/2000/svg">
<g clip-path="url(#clip0_3392_4569)">
<path d="M13.7677 13.138C13.7071 13.138 13.6475 13.1142 13.6029 13.0697L9.22842 8.69512C9.18201 8.64885 9.15734 8.58525 9.16041 8.51977C9.16335 8.4543 9.19362 8.39323 9.24389 8.35136L13.6185 4.70578C13.6881 4.64777 13.7853 4.63577 13.8665 4.67364C13.9484 4.71204 14.0008 4.79432 14.0008 4.88473V12.9049C14.0008 12.999 13.9441 13.0841 13.8569 13.1201C13.8281 13.1321 13.7977 13.138 13.7677 13.138ZM9.73847 8.54604L13.5346 12.3423V5.38238L9.73847 8.54604Z" fill="white"/>
<path d="M11.0105 13.8897H3.24089C3.14275 13.8897 3.05514 13.8283 3.02181 13.736C2.98834 13.6436 3.0162 13.5405 3.09155 13.4776L7.32959 9.94601C7.42266 9.86893 7.55854 9.8752 7.64362 9.96027L11.1752 13.4918C11.2419 13.5585 11.2619 13.6587 11.2257 13.7457C11.1897 13.8329 11.1046 13.8897 11.0105 13.8897ZM3.88456 13.4236H10.4479L7.46453 10.4403L3.88456 13.4236Z" fill="white"/>
<path d="M13.7662 3.63184H10.2575L7.11327 6.25211L5.19934 7.84694L0.232422 11.9862V13.657H3.23993L7.47784 10.1254L11.0094 13.657H13.7662V12.9051L9.39164 8.53048L13.7662 4.88503V3.63184Z" fill="#4BA5F8"/>
<path d="M13.7669 13.8898H11.0101C10.9482 13.8898 10.889 13.8651 10.8453 13.8214L7.46411 10.4404L3.38982 13.8357C3.34781 13.8706 3.29514 13.8898 3.24047 13.8898H0.233091C0.104278 13.8898 0 13.7854 0 13.6567V11.9857C0 11.9165 0.0306699 11.851 0.083742 11.8068L10.1088 3.45258C10.1507 3.41751 10.2035 3.39844 10.258 3.39844H13.7669C13.8957 3.39844 14 3.50285 14 3.63153V4.88472C14 4.95393 13.9692 5.01941 13.9161 5.06368L9.73754 8.5459L13.9316 12.7399C13.9753 12.7837 13.9999 12.843 13.9999 12.9048V13.6567C14 13.7854 13.8957 13.8898 13.7669 13.8898ZM11.1065 13.4236H13.5338V13.0013L9.22762 8.69499C9.18122 8.64872 9.15655 8.58511 9.15962 8.51964C9.16255 8.45416 9.19282 8.39309 9.24309 8.35122L13.5338 4.77551V3.86449H10.3425L0.466048 12.0949V13.4236H3.15606L7.32916 9.94618C7.42224 9.86898 7.55812 9.87524 7.64333 9.96032L11.1065 13.4236Z" fill="white"/>
<path d="M0.233091 12.2188C0.199354 12.2188 0.165751 12.2115 0.134281 12.1968C0.0524054 12.1585 0 12.0763 0 11.9857V3.63153C0 3.50285 0.104277 3.39844 0.233091 3.39844H10.2581C10.3563 3.39844 10.4439 3.45991 10.4774 3.55219C10.5107 3.64446 10.4828 3.74767 10.4075 3.81048L0.382306 12.1648C0.339502 12.2004 0.286563 12.2188 0.233091 12.2188ZM0.466048 3.86449V11.4882L9.61446 3.86449H0.466048Z" fill="white"/>
<path d="M7.00093 3.25583C7.00093 4.8476 4.11863 7.3912 4.11863 7.3912C4.11863 7.3912 1.23633 4.8476 1.23633 3.25583C1.23633 1.66407 2.52686 0.373535 4.11863 0.373535C5.71053 0.373535 7.00093 1.66394 7.00093 3.25583Z" fill="#4BA5F8"/>
<path d="M4.11721 7.62433C4.06214 7.62433 4.00707 7.60487 3.96293 7.56606C3.84211 7.45925 1.00195 4.93352 1.00195 3.25588C1.00195 1.5381 2.39943 0.140625 4.11721 0.140625C5.83499 0.140625 7.2326 1.5381 7.2326 3.25588C7.2326 4.93366 4.39244 7.45925 4.27149 7.56606C4.22735 7.60487 4.17228 7.62433 4.11721 7.62433ZM4.11721 0.606673C2.65639 0.606673 1.468 1.79506 1.468 3.25588C1.468 4.4008 3.25445 6.283 4.11721 7.07734C4.97997 6.283 6.76655 4.40093 6.76655 3.25588C6.76655 1.79506 5.57816 0.606673 4.11721 0.606673Z" fill="white"/>
<path d="M5.71844 3.25571C5.71844 4.13953 5.00197 4.85614 4.11801 4.85614C3.23405 4.85614 2.51758 4.13953 2.51758 3.25571C2.51758 2.37175 3.23405 1.65527 4.11801 1.65527C5.00197 1.65527 5.71844 2.37175 5.71844 3.25571Z" fill="#4BA5F8"/>
<path d="M4.11686 5.08928C3.10582 5.08928 2.2832 4.26679 2.2832 3.25589C2.2832 2.24485 3.10569 1.42236 4.11686 1.42236C5.12776 1.42236 5.95025 2.24485 5.95025 3.25589C5.95025 4.26679 5.12776 5.08928 4.11686 5.08928ZM4.11686 1.88854C3.36292 1.88854 2.74938 2.50194 2.74938 3.25589C2.74938 4.00996 3.36292 4.62323 4.11686 4.62323C4.87094 4.62323 5.4842 4.00996 5.4842 3.25589C5.4842 2.50194 4.87094 1.88854 4.11686 1.88854Z" fill="white"/>
<path d="M1.63086 12.7243L3.26223 11.3262L1.63086 12.7243Z" fill="#5C9EFF"/>
<path d="M1.63144 12.9574C1.56596 12.9574 1.50062 12.9297 1.45462 12.8761C1.37074 12.7784 1.38208 12.6313 1.47996 12.5475L3.11119 11.1493C3.20893 11.0656 3.35615 11.077 3.43963 11.1745C3.52363 11.2722 3.5123 11.4194 3.41442 11.5032L1.78305 12.9014C1.73905 12.939 1.68518 12.9574 1.63144 12.9574Z" fill="white"/>
<path d="M4.19531 10.6273L5.82668 9.229L4.19531 10.6273Z" fill="#5C9EFF"/>
<path d="M4.19394 10.8603C4.12846 10.8603 4.06312 10.8327 4.01712 10.7789C3.93324 10.6812 3.94458 10.5341 4.04246 10.4503L5.67369 9.05207C5.77143 8.96859 5.91838 8.97966 6.00213 9.0774C6.08613 9.17515 6.0748 9.32223 5.97679 9.40597L4.34555 10.8042C4.30155 10.8419 4.24768 10.8603 4.19394 10.8603Z" fill="white"/>
<path d="M6.99219 8.29702L8.39047 7.13184L6.99219 8.29702Z" fill="#5C9EFF"/>
<path d="M6.99121 8.52971C6.92427 8.52971 6.858 8.50118 6.81186 8.44584C6.72945 8.34703 6.74279 8.20008 6.8416 8.11767L8.23987 6.95248C8.33935 6.86994 8.4859 6.88354 8.56831 6.98235C8.65072 7.08116 8.63725 7.22811 8.53844 7.31052L7.14029 8.47571C7.09642 8.51198 7.04375 8.52971 6.99121 8.52971Z" fill="white"/>
<path d="M9.55469 6.19937L10.9528 5.03418L9.55469 6.19937Z" fill="#5C9EFF"/>
<path d="M9.55553 6.43252C9.48872 6.43252 9.42245 6.40399 9.37631 6.34878C9.2939 6.24984 9.30724 6.10289 9.40605 6.02061L10.8043 4.85543C10.9038 4.77275 11.0504 4.78635 11.1328 4.88516C11.2152 4.98411 11.2017 5.13105 11.1029 5.21333L9.70461 6.37852C9.66087 6.41479 9.6082 6.43252 9.55553 6.43252Z" fill="white"/>
<path d="M11.8848 4.33537L12.8169 3.63623L11.8848 4.33537Z" fill="#5C9EFF"/>
<path d="M11.8857 4.56814C11.8146 4.56814 11.7448 4.536 11.699 4.47493C11.6217 4.37198 11.6426 4.22597 11.7457 4.14876L12.6779 3.44962C12.7807 3.37215 12.9266 3.39308 13.0041 3.49616C13.0814 3.5991 13.0605 3.74525 12.9574 3.82246L12.0252 4.52147C11.9833 4.55307 11.9344 4.56814 11.8857 4.56814Z" fill="white"/>
</g>
<defs>
<clipPath id="clip0_3392_4569">
<rect width="14" height="14" fill="white"/>
</clipPath>
</defs>
</svg>
