<svg width="12" height="12" viewBox="0 0 12 12" fill="none" xmlns="http://www.w3.org/2000/svg">
<rect width="12" height="12" rx="6" fill="#F4505B"/>
<path d="M8.34757 3.65235C8.14443 3.44922 7.81504 3.44922 7.61224 3.65235L6 5.26473L4.38776 3.65235C4.18462 3.44922 3.85557 3.44922 3.65243 3.65235C3.44928 3.85548 3.44928 4.18452 3.65243 4.38765L5.26467 5.99996L3.65236 7.61234C3.44921 7.81547 3.44921 8.1445 3.65236 8.34763C3.75389 8.44916 3.88697 8.5 4.02006 8.5C4.15314 8.5 4.28636 8.44923 4.38776 8.34763L6 6.73532L7.61224 8.34763C7.71378 8.44916 7.84686 8.5 7.97994 8.5C8.11303 8.5 8.24604 8.44923 8.34764 8.34763C8.55079 8.1445 8.55079 7.81547 8.34764 7.61234L6.73533 6.00003L8.34757 4.38772C8.55072 4.18459 8.55072 3.85548 8.34757 3.65235Z" fill="white"/>
</svg>
