<svg width="19" height="19" viewBox="0 0 19 19" fill="none" xmlns="http://www.w3.org/2000/svg">
<path d="M18.1172 9.03049C18.1205 10.2957 17.8249 11.5438 17.2544 12.6732C16.5781 14.0265 15.5383 15.1648 14.2516 15.9605C12.9648 16.7563 11.482 17.178 9.96904 17.1786C8.70381 17.1819 7.45569 16.8863 6.32635 16.3159L0.862305 18.1372L2.68365 12.6732C2.11322 11.5438 1.81761 10.2957 1.82091 9.03049C1.82149 7.51758 2.24328 6.03471 3.03903 4.74797C3.83477 3.46124 4.97304 2.42146 6.32635 1.7451C7.45569 1.17466 8.70381 0.879053 9.96904 0.882352H10.4483C12.4464 0.992583 14.3336 1.83593 15.7486 3.25093C17.1636 4.66592 18.0069 6.55312 18.1172 8.55119V9.03049Z" stroke="#A0A0A0" stroke-width="1.2" stroke-linecap="round" stroke-linejoin="round"/>
</svg>
