<svg width="22" height="23" viewBox="0 0 22 23" fill="none" xmlns="http://www.w3.org/2000/svg">
<path d="M21 10.9445C21.0038 12.411 20.6612 13.8577 20 15.1667C19.216 16.7353 18.0108 18.0546 16.5194 18.977C15.0279 19.8993 13.3091 20.3882 11.5555 20.3889C10.089 20.3927 8.64234 20.0501 7.33332 19.3889L1 21.5L3.11111 15.1667C2.44992 13.8577 2.10729 12.411 2.11111 10.9445C2.11179 9.19086 2.60068 7.47208 3.52302 5.98064C4.44536 4.48919 5.76472 3.28399 7.33332 2.50003C8.64234 1.83884 10.089 1.49621 11.5555 1.50003H12.1111C14.427 1.6278 16.6145 2.60532 18.2546 4.24543C19.8947 5.88553 20.8722 8.07297 21 10.3889V10.9445Z" stroke="#4BA5F8" stroke-width="1.6" stroke-linecap="round" stroke-linejoin="round"/>
</svg>
