<svg width="17" height="4" viewBox="0 0 17 4" fill="none" xmlns="http://www.w3.org/2000/svg">
<path d="M0 1.75697C0 1.51527 0.0418326 1.28752 0.125498 1.07371C0.218459 0.859894 0.339309 0.673971 0.488048 0.515936C0.646082 0.357902 0.832005 0.232404 1.04582 0.139442C1.25963 0.0464808 1.48738 0 1.72908 0C1.97078 0 2.19854 0.0464808 2.41235 0.139442C2.62616 0.232404 2.81208 0.357902 2.97012 0.515936C3.12815 0.673971 3.25365 0.859894 3.34661 1.07371C3.43957 1.28752 3.48606 1.51527 3.48606 1.75697C3.48606 2.00797 3.43957 2.24037 3.34661 2.45418C3.25365 2.6587 3.12815 2.83997 2.97012 2.99801C2.81208 3.15604 2.62616 3.27689 2.41235 3.36056C2.19854 3.45352 1.97078 3.5 1.72908 3.5C1.48738 3.5 1.25963 3.45352 1.04582 3.36056C0.832005 3.27689 0.646082 3.15604 0.488048 2.99801C0.339309 2.83997 0.218459 2.6587 0.125498 2.45418C0.0418326 2.24037 0 2.00797 0 1.75697Z" fill="#C4C4C4"/>
<path d="M6.59082 1.75697C6.59082 1.51527 6.63266 1.28752 6.71632 1.07371C6.80928 0.859894 6.93013 0.673971 7.07887 0.515936C7.23691 0.357902 7.42283 0.232404 7.63664 0.139442C7.85045 0.0464808 8.07821 0 8.31991 0C8.56161 0 8.78936 0.0464808 9.00317 0.139442C9.21698 0.232404 9.40291 0.357902 9.56094 0.515936C9.71898 0.673971 9.84447 0.859894 9.93744 1.07371C10.0304 1.28752 10.0769 1.51527 10.0769 1.75697C10.0769 2.00797 10.0304 2.24037 9.93744 2.45418C9.84447 2.6587 9.71898 2.83997 9.56094 2.99801C9.40291 3.15604 9.21698 3.27689 9.00317 3.36056C8.78936 3.45352 8.56161 3.5 8.31991 3.5C8.07821 3.5 7.85045 3.45352 7.63664 3.36056C7.42283 3.27689 7.23691 3.15604 7.07887 2.99801C6.93013 2.83997 6.80928 2.6587 6.71632 2.45418C6.63266 2.24037 6.59082 2.00797 6.59082 1.75697Z" fill="#C4C4C4"/>
<path d="M13.1816 1.75697C13.1816 1.51527 13.2235 1.28752 13.3071 1.07371C13.4001 0.859894 13.521 0.673971 13.6697 0.515936C13.8277 0.357902 14.0137 0.232404 14.2275 0.139442C14.4413 0.0464808 14.669 0 14.9107 0C15.1524 0 15.3802 0.0464808 15.594 0.139442C15.8078 0.232404 15.9937 0.357902 16.1518 0.515936C16.3098 0.673971 16.4353 0.859894 16.5283 1.07371C16.6212 1.28752 16.6677 1.51527 16.6677 1.75697C16.6677 2.00797 16.6212 2.24037 16.5283 2.45418C16.4353 2.6587 16.3098 2.83997 16.1518 2.99801C15.9937 3.15604 15.8078 3.27689 15.594 3.36056C15.3802 3.45352 15.1524 3.5 14.9107 3.5C14.669 3.5 14.4413 3.45352 14.2275 3.36056C14.0137 3.27689 13.8277 3.15604 13.6697 2.99801C13.521 2.83997 13.4001 2.6587 13.3071 2.45418C13.2235 2.24037 13.1816 2.00797 13.1816 1.75697Z" fill="#C4C4C4"/>
</svg>
