<svg width="15" height="3" viewBox="0 0 15 3" fill="none" xmlns="http://www.w3.org/2000/svg">
<path d="M0 1.50598C0 1.2988 0.0358566 1.10359 0.10757 0.920319C0.187251 0.737052 0.290837 0.577689 0.418327 0.442231C0.553785 0.306773 0.713147 0.199203 0.896414 0.119522C1.07968 0.0398407 1.2749 0 1.48207 0C1.68924 0 1.88446 0.0398407 2.06773 0.119522C2.251 0.199203 2.41036 0.306773 2.54582 0.442231C2.68127 0.577689 2.78884 0.737052 2.86853 0.920319C2.94821 1.10359 2.98805 1.2988 2.98805 1.50598C2.98805 1.72112 2.94821 1.92032 2.86853 2.10359C2.78884 2.27888 2.68127 2.43426 2.54582 2.56972C2.41036 2.70518 2.251 2.80876 2.06773 2.88048C1.88446 2.96016 1.68924 3 1.48207 3C1.2749 3 1.07968 2.96016 0.896414 2.88048C0.713147 2.80876 0.553785 2.70518 0.418327 2.56972C0.290837 2.43426 0.187251 2.27888 0.10757 2.10359C0.0358566 1.92032 0 1.72112 0 1.50598Z" fill="#C4C4C4"/>
<path d="M5.64928 1.50598C5.64928 1.2988 5.68513 1.10359 5.75685 0.920319C5.83653 0.737052 5.94011 0.577689 6.0676 0.442231C6.20306 0.306773 6.36242 0.199203 6.54569 0.119522C6.72896 0.0398407 6.92418 0 7.13135 0C7.33852 0 7.53374 0.0398407 7.71701 0.119522C7.90027 0.199203 8.05964 0.306773 8.19509 0.442231C8.33055 0.577689 8.43812 0.737052 8.5178 0.920319C8.59748 1.10359 8.63732 1.2988 8.63732 1.50598C8.63732 1.72112 8.59748 1.92032 8.5178 2.10359C8.43812 2.27888 8.33055 2.43426 8.19509 2.56972C8.05964 2.70518 7.90027 2.80876 7.71701 2.88048C7.53374 2.96016 7.33852 3 7.13135 3C6.92418 3 6.72896 2.96016 6.54569 2.88048C6.36242 2.80876 6.20306 2.70518 6.0676 2.56972C5.94011 2.43426 5.83653 2.27888 5.75685 2.10359C5.68513 1.92032 5.64928 1.72112 5.64928 1.50598Z" fill="#C4C4C4"/>
<path d="M11.2986 1.50598C11.2986 1.2988 11.3344 1.10359 11.4061 0.920319C11.4858 0.737052 11.5894 0.577689 11.7169 0.442231C11.8523 0.306773 12.0117 0.199203 12.195 0.119522C12.3782 0.0398407 12.5735 0 12.7806 0C12.9878 0 13.183 0.0398407 13.3663 0.119522C13.5495 0.199203 13.7089 0.306773 13.8444 0.442231C13.9798 0.577689 14.0874 0.737052 14.1671 0.920319C14.2468 1.10359 14.2866 1.2988 14.2866 1.50598C14.2866 1.72112 14.2468 1.92032 14.1671 2.10359C14.0874 2.27888 13.9798 2.43426 13.8444 2.56972C13.7089 2.70518 13.5495 2.80876 13.3663 2.88048C13.183 2.96016 12.9878 3 12.7806 3C12.5735 3 12.3782 2.96016 12.195 2.88048C12.0117 2.80876 11.8523 2.70518 11.7169 2.56972C11.5894 2.43426 11.4858 2.27888 11.4061 2.10359C11.3344 1.92032 11.2986 1.72112 11.2986 1.50598Z" fill="#C4C4C4"/>
</svg>
