<svg width="22" height="23" viewBox="0 0 22 23" fill="none" xmlns="http://www.w3.org/2000/svg">
<path fill-rule="evenodd" clip-rule="evenodd" d="M7.40667 19.5667C7.74694 21.2394 9.22753 22.5 11 22.5C12.7725 22.5 14.2531 21.2394 14.5933 19.5667H19.8C20.3837 19.5667 20.9433 19.3349 21.3554 18.9221C21.7683 18.5099 22 17.9504 22 17.3667C22 16.7829 21.7683 16.2234 21.3554 15.8113C21.1919 15.647 20.3749 15.0266 19.6922 14.5213C19.3013 14.2104 19.0696 13.7301 19.0696 13.2219C19.0696 13.2211 19.0696 13.2211 19.0696 13.2204C19.0667 12.1131 19.0667 10.3773 19.0667 8.56667C19.0667 4.11167 15.455 0.5 11 0.5C6.545 0.5 2.93333 4.11167 2.93333 8.56667V13.2226C2.93333 13.7271 2.70527 14.2038 2.31294 14.5206C1.61994 15.0303 0.807398 15.6477 0.644598 15.8113C0.231732 16.2234 0 16.7829 0 17.3667C0 17.9504 0.231732 18.5099 0.644598 18.9221C1.05673 19.3349 1.61627 19.5667 2.2 19.5667H7.40667ZM8.9254 19.5667H13.0746C12.7725 20.421 11.957 21.0333 11 21.0333C10.043 21.0333 9.22754 20.421 8.9254 19.5667ZM17.6 8.56667C17.6 4.92127 14.6454 1.96667 11 1.96667C7.3546 1.96667 4.4 4.92127 4.4 8.56667V13.2226C4.4 14.184 3.95927 15.0919 3.20394 15.6859C3.19734 15.691 3.19073 15.6961 3.18413 15.7005C2.5696 16.1515 1.8282 16.7008 1.68153 16.8482C1.54367 16.9853 1.46667 17.1723 1.46667 17.3667C1.46667 17.561 1.54367 17.748 1.68153 17.8851C1.81867 18.023 2.00567 18.1 2.2 18.1H19.8C19.9943 18.1 20.1813 18.023 20.3185 17.8851C20.4563 17.748 20.5333 17.561 20.5333 17.3667C20.5333 17.1723 20.4563 16.9853 20.3185 16.8482C20.1711 16.7008 19.4297 16.1508 18.8159 15.6969C18.81 15.6925 18.8041 15.6881 18.7983 15.6837C18.0437 15.0897 17.6029 14.1825 17.6029 13.2241C17.6 12.1167 17.6 10.3787 17.6 8.56667Z" fill="#4BA5F8"/>
</svg>
