<svg width="17" height="17" viewBox="0 0 17 17" fill="none" xmlns="http://www.w3.org/2000/svg">
<path d="M16.8512 16.133L12.7199 12.0018C13.8281 10.7277 14.4991 9.06541 14.4991 7.24856C14.4991 3.24922 11.2461 0 7.2505 0C3.25117 0 0.00195312 3.25299 0.00195312 7.24856C0.00195312 11.2441 3.25494 14.4971 7.2505 14.4971C9.06736 14.4971 10.7297 13.8262 12.0037 12.718L16.135 16.8492C16.233 16.9472 16.3649 17 16.4931 17C16.6212 17 16.7532 16.951 16.8512 16.8492C17.0472 16.6532 17.0472 16.329 16.8512 16.133ZM1.01592 7.24856C1.01592 3.81087 3.81281 1.01774 7.24674 1.01774C10.6844 1.01774 13.4776 3.81463 13.4776 7.24856C13.4776 10.6825 10.6844 13.4831 7.24674 13.4831C3.81281 13.4831 1.01592 10.6863 1.01592 7.24856Z" fill="#666666"/>
</svg>
