<svg width="36" height="36" viewBox="0 0 36 36" fill="none" xmlns="http://www.w3.org/2000/svg">
<rect width="36" height="36" rx="6" fill="#F8FAFC"/>
<path d="M16.1528 18.9231C16.5492 19.453 17.055 19.8916 17.6358 20.2089C18.2166 20.5262 18.8588 20.7149 19.519 20.7622C20.1791 20.8094 20.8417 20.7142 21.4618 20.4829C22.0818 20.2516 22.6449 19.8896 23.1128 19.4215L25.8821 16.6523C26.7228 15.7818 27.188 14.616 27.1775 13.4058C27.167 12.1957 26.6816 11.0381 25.8258 10.1824C24.9701 9.32665 23.8125 8.84126 22.6024 8.83074C21.3922 8.82023 20.2264 9.28543 19.3559 10.1262L17.7682 11.7046M19.8451 17.0769C19.4487 16.547 18.943 16.1085 18.3622 15.7911C17.7814 15.4738 17.1391 15.2851 16.479 15.2379C15.8189 15.1906 15.1563 15.2858 14.5362 15.5171C13.9161 15.7484 13.353 16.1104 12.8851 16.5785L10.1159 19.3477C9.27518 20.2182 8.80997 21.384 8.82049 22.5942C8.831 23.8043 9.3164 24.9619 10.1721 25.8176C11.0279 26.6734 12.1855 27.1588 13.3956 27.1693C14.6057 27.1798 15.7716 26.7146 16.6421 25.8739L18.2205 24.2954" stroke="#4BA5F8" stroke-width="1.5" stroke-linecap="round" stroke-linejoin="round"/>
</svg>
