<svg width="14" height="15" viewBox="0 0 14 15" fill="none" xmlns="http://www.w3.org/2000/svg">
<path d="M4.78389 8.4815L9.22339 11.0685M9.21689 3.9315L4.78389 6.5185M12.8504 2.95C12.8504 4.02696 11.9773 4.9 10.9004 4.9C9.82344 4.9 8.95039 4.02696 8.95039 2.95C8.95039 1.87304 9.82344 1 10.9004 1C11.9773 1 12.8504 1.87304 12.8504 2.95ZM5.05039 7.5C5.05039 8.57695 4.17735 9.45 3.10039 9.45C2.02344 9.45 1.15039 8.57695 1.15039 7.5C1.15039 6.42304 2.02344 5.55 3.10039 5.55C4.17735 5.55 5.05039 6.42304 5.05039 7.5ZM12.8504 12.05C12.8504 13.127 11.9773 14 10.9004 14C9.82344 14 8.95039 13.127 8.95039 12.05C8.95039 10.973 9.82344 10.1 10.9004 10.1C11.9773 10.1 12.8504 10.973 12.8504 12.05Z" stroke="#4BA5F8" stroke-linecap="round" stroke-linejoin="round"/>
</svg>
