<svg width="20" height="20" viewBox="0 0 20 20" fill="none" xmlns="http://www.w3.org/2000/svg">
<path d="M17.5013 2.91669H10.0013C9.78029 2.91669 9.56833 3.00448 9.41205 3.16076C9.25577 3.31705 9.16797 3.52901 9.16797 3.75002C9.16797 3.97104 9.25577 4.183 9.41205 4.33928C9.56833 4.49556 9.78029 4.58336 10.0013 4.58336H17.5013C17.7223 4.58336 17.9343 4.49556 18.0906 4.33928C18.2468 4.183 18.3346 3.97104 18.3346 3.75002C18.3346 3.52901 18.2468 3.31705 18.0906 3.16076C17.9343 3.00448 17.7223 2.91669 17.5013 2.91669Z" fill="black"/>
<path d="M17.4987 7.08331H11.6654C11.4444 7.08331 11.2324 7.17111 11.0761 7.32739C10.9198 7.48367 10.832 7.69563 10.832 7.91665C10.832 8.13766 10.9198 8.34962 11.0761 8.5059C11.2324 8.66218 11.4444 8.74998 11.6654 8.74998H17.4987C17.7197 8.74998 17.9317 8.66218 18.088 8.5059C18.2442 8.34962 18.332 8.13766 18.332 7.91665C18.332 7.69563 18.2442 7.48367 18.088 7.32739C17.9317 7.17111 17.7197 7.08331 17.4987 7.08331Z" fill="black"/>
<path d="M17.5 11.25H13.3333C13.1123 11.25 12.9004 11.3378 12.7441 11.4941C12.5878 11.6504 12.5 11.8623 12.5 12.0833C12.5 12.3044 12.5878 12.5163 12.7441 12.6726C12.9004 12.8289 13.1123 12.9167 13.3333 12.9167H17.5C17.721 12.9167 17.933 12.8289 18.0893 12.6726C18.2455 12.5163 18.3333 12.3044 18.3333 12.0833C18.3333 11.8623 18.2455 11.6504 18.0893 11.4941C17.933 11.3378 17.721 11.25 17.5 11.25Z" fill="black"/>
<path d="M17.5013 15.4167H15.0013C14.7803 15.4167 14.5683 15.5045 14.412 15.6608C14.2558 15.817 14.168 16.029 14.168 16.25C14.168 16.471 14.2558 16.683 14.412 16.8393C14.5683 16.9956 14.7803 17.0834 15.0013 17.0834H17.5013C17.7223 17.0834 17.9343 16.9956 18.0906 16.8393C18.2468 16.683 18.3346 16.471 18.3346 16.25C18.3346 16.029 18.2468 15.817 18.0906 15.6608C17.9343 15.5045 17.7223 15.4167 17.5013 15.4167Z" fill="black"/>
<path d="M4.99888 1.66669C4.77786 1.66669 4.5659 1.75448 4.40962 1.91076C4.25334 2.06704 4.16554 2.27901 4.16554 2.50002V15.4884L3.08804 14.4109C2.93087 14.2591 2.72037 14.1751 2.50187 14.177C2.28338 14.1789 2.07437 14.2665 1.91986 14.421C1.76535 14.5755 1.67771 14.7845 1.67581 15.003C1.67391 15.2215 1.75791 15.432 1.90971 15.5892L4.40971 18.0892C4.48712 18.1668 4.57908 18.2284 4.68032 18.2704C4.78156 18.3124 4.8901 18.334 4.99971 18.334C5.10932 18.334 5.21786 18.3124 5.3191 18.2704C5.42034 18.2284 5.5123 18.1668 5.58971 18.0892L8.08971 15.5892C8.24151 15.432 8.3255 15.2215 8.3236 15.003C8.32171 14.7845 8.23407 14.5755 8.07956 14.421C7.92505 14.2665 7.71604 14.1789 7.49754 14.177C7.27905 14.1751 7.06854 14.2591 6.91138 14.4109L5.83221 15.4884V2.50002C5.83221 2.27901 5.74441 2.06704 5.58813 1.91076C5.43185 1.75448 5.21989 1.66669 4.99888 1.66669Z" fill="black"/>
</svg>
