<svg width="36" height="36" viewBox="0 0 36 36" fill="none" xmlns="http://www.w3.org/2000/svg">
<path d="M29.25 36H6.75C3.02175 36 0 32.9782 0 29.25V6.75C0 3.02175 3.02175 0 6.75 0H29.25C32.9782 0 36 3.02175 36 6.75V29.25C36 32.9782 32.9782 36 29.25 36Z" fill="#2F8ED4"/>
<path d="M16.0623 20.3862L15.7653 24.5746C16.1917 24.5746 16.375 24.3912 16.5967 24.1718L18.5935 22.2627L22.7324 25.2935C23.4907 25.7165 24.0262 25.4937 24.2309 24.5948L26.9478 11.8666L26.9489 11.8655C27.1897 10.7438 26.5439 10.3051 25.8037 10.5807L9.83542 16.6928C8.74642 17.1158 8.76217 17.7233 9.64979 17.999L13.7313 19.2691L23.2139 13.3358C23.6605 13.04 24.0655 13.2042 23.7325 13.499L16.0623 20.3862Z" fill="white"/>
</svg>
