<svg width="18" height="18" viewBox="0 0 18 18" fill="none" xmlns="http://www.w3.org/2000/svg">
<path d="M17.619 11.4438C17.53 11.3545 17.4162 11.2942 17.2924 11.2708C17.1686 11.2474 17.0406 11.2619 16.9252 11.3125C15.5024 11.9329 13.9257 12.1103 12.4006 11.8216C10.8755 11.5329 9.47275 10.7914 8.37519 9.69382C7.27763 8.59626 6.53615 7.19351 6.24742 5.66841C5.95869 4.14331 6.13608 2.5666 6.75648 1.14379C6.80781 1.02834 6.82294 0.900045 6.79988 0.775825C6.77682 0.651604 6.71665 0.537289 6.62732 0.447951C6.53798 0.358614 6.42366 0.298449 6.29944 0.27539C6.17522 0.252332 6.04693 0.267462 5.93148 0.318786C4.59448 0.90487 3.42074 1.80846 2.51219 2.95109C1.60364 4.09373 0.987735 5.44087 0.717957 6.87554C0.448179 8.31022 0.532682 9.78907 0.964128 11.1837C1.39557 12.5783 2.16092 13.8465 3.19372 14.8782C4.22651 15.9099 5.49554 16.6739 6.8906 17.1039C8.28567 17.5339 9.7646 17.6168 11.199 17.3455C12.6334 17.0742 13.9799 16.4569 15.1215 15.5471C16.2632 14.6373 17.1656 13.4627 17.7502 12.125C17.7981 12.0112 17.8112 11.8858 17.7878 11.7645C17.7644 11.6433 17.7057 11.5317 17.619 11.4438Z" fill="#1F1F1F"/>
</svg>
