<svg width="22" height="22" viewBox="0 0 22 22" fill="none" xmlns="http://www.w3.org/2000/svg">
<path d="M2.29165 3.66699H0.458348C0.205004 3.66699 0 3.872 0 4.12534V5.95869C0 6.21203 0.205004 6.41703 0.458348 6.41703H2.2917C2.54504 6.41703 2.75004 6.21203 2.75004 5.95869V4.12534C2.75 3.872 2.545 3.66699 2.29165 3.66699Z" fill="#A0A0A0"/>
<path d="M2.29165 9.625H0.458348C0.205004 9.625 0 9.83 0 10.0833V11.9167C0 12.17 0.205004 12.375 0.458348 12.375H2.2917C2.545 12.375 2.75 12.17 2.75 11.9167V10.0833C2.75 9.83 2.545 9.625 2.29165 9.625Z" fill="#A0A0A0"/>
<path d="M2.29165 15.584H0.458348C0.205004 15.584 0 15.789 0 16.0423V17.8756C0 18.129 0.205004 18.334 0.458348 18.334H2.2917C2.545 18.334 2.75 18.129 2.75 17.8756V16.0423C2.75 15.789 2.545 15.584 2.29165 15.584Z" fill="#A0A0A0"/>
<path d="M21.5413 4.58398H5.04136C4.78801 4.58398 4.58301 4.78899 4.58301 5.04233V5.95898C4.58301 6.21233 4.78801 6.41733 5.04136 6.41733H21.5413C21.7947 6.41733 21.9997 6.21233 21.9997 5.95898V5.04233C21.9997 4.78899 21.7947 4.58398 21.5413 4.58398Z" fill="#A0A0A0"/>
<path d="M21.5413 10.084H5.04136C4.78801 10.084 4.58301 10.289 4.58301 10.5423V11.459C4.58301 11.7123 4.78801 11.9173 5.04136 11.9173H21.5413C21.7947 11.9173 21.9997 11.7123 21.9997 11.459V10.5423C21.9997 10.289 21.7947 10.084 21.5413 10.084Z" fill="#A0A0A0"/>
<path d="M21.5413 15.584H5.04136C4.78801 15.584 4.58301 15.789 4.58301 16.0423V16.959C4.58301 17.2123 4.78801 17.4173 5.04136 17.4173H21.5413C21.7947 17.4173 21.9997 17.2123 21.9997 16.959V16.0423C21.9997 15.789 21.7947 15.584 21.5413 15.584Z" fill="#A0A0A0"/>
</svg>
