<svg width="120" height="120" viewBox="0 0 120 120" fill="none" xmlns="http://www.w3.org/2000/svg">
<circle cx="60" cy="60" r="60" fill="#F0F6FE"/>
<g clip-path="url(#clip0_2880_4501)">
<path d="M80.6075 68.5357C77.4333 65.3616 73.6552 63.0119 69.5331 61.5895C73.948 58.5487 76.8485 53.4597 76.8485 47.7054C76.8485 38.4153 69.2904 30.8572 60.0003 30.8572C50.7102 30.8572 43.1521 38.4153 43.1521 47.7054C43.1521 53.4597 46.0526 58.5487 50.4676 61.5895C46.3455 63.0119 42.5674 65.3616 39.3932 68.5357C33.8888 74.0402 30.8574 81.3586 30.8574 89.1429H35.411C35.411 75.5843 46.4417 64.5536 60.0003 64.5536C73.5589 64.5536 84.5896 75.5843 84.5896 89.1429H89.1431C89.1431 81.3586 86.1117 74.0402 80.6075 68.5357ZM60.0003 60C53.221 60 47.7056 54.4847 47.7056 47.7054C47.7056 40.926 53.221 35.4107 60.0003 35.4107C66.7795 35.4107 72.2949 40.926 72.2949 47.7054C72.2949 54.4847 66.7795 60 60.0003 60Z" fill="#4BA5F8"/>
</g>
<defs>
<clipPath id="clip0_2880_4501">
<rect width="58.2857" height="58.2857" fill="white" transform="translate(30.8574 30.8572)"/>
</clipPath>
</defs>
</svg>
