<svg width="14" height="15" viewBox="0 0 14 15" fill="none" xmlns="http://www.w3.org/2000/svg">
<path d="M9.33301 13.1773V11.7256C9.33301 10.9556 9.08718 10.2171 8.64959 9.67263C8.21201 9.12815 7.61851 8.82227 6.99967 8.82227H2.91634C2.2975 8.82227 1.70401 9.12815 1.26643 9.67263C0.82884 10.2171 0.583008 10.9556 0.583008 11.7256V13.1773" stroke="#1F1F1F" stroke-linecap="round" stroke-linejoin="round"/>
<path d="M4.95833 6.48893C6.247 6.48893 7.29167 5.44426 7.29167 4.1556C7.29167 2.86693 6.247 1.82227 4.95833 1.82227C3.66967 1.82227 2.625 2.86693 2.625 4.1556C2.625 5.44426 3.66967 6.48893 4.95833 6.48893Z" stroke="#1F1F1F" stroke-linecap="round" stroke-linejoin="round"/>
<path d="M10.5 5.1665L13.4167 8.08317" stroke="#1F1F1F" stroke-linecap="round" stroke-linejoin="round"/>
<path d="M13.4167 5.1665L10.5 8.08317" stroke="#1F1F1F" stroke-linecap="round" stroke-linejoin="round"/>
</svg>
