<svg width="18" height="20" viewBox="0 0 18 20" fill="none" xmlns="http://www.w3.org/2000/svg">
<path d="M9 0.625C6.24304 0.625 4 2.86804 4 5.625C4 8.38196 6.24304 10.625 9 10.625C11.757 10.625 14 8.38196 14 5.625C14 2.86804 11.757 0.625 9 0.625ZM12.1812 11.2689C12.0188 11.2 11.8311 11.2 11.6749 11.275C9.98114 12.0685 8.01886 12.0685 6.32513 11.275C6.16888 11.2 5.9812 11.2 5.81885 11.2689C2.81256 12.55 0.875 15.4877 0.875 18.75C0.875 19.0936 1.15637 19.375 1.5 19.375H16.5C16.8436 19.375 17.125 19.0936 17.125 18.75C17.125 15.4877 15.1874 12.55 12.1812 11.2689Z" fill="#4BA5F8"/>
</svg>
