<svg width="22" height="22" viewBox="0 0 22 22" fill="none" xmlns="http://www.w3.org/2000/svg">
<path d="M21.3411 13.4108L19.3189 11.8296C19.3446 11.5858 19.3666 11.3007 19.3666 10.9991C19.3666 10.6975 19.3455 10.4124 19.3189 10.1686L21.3429 8.58645C21.7188 8.28944 21.8214 7.76235 21.5822 7.32329L19.4793 3.685C19.2547 3.27435 18.7625 3.0635 18.2629 3.24775L15.8768 4.20565C15.4194 3.87565 14.94 3.597 14.4441 3.37425L14.0811 0.843348C14.0215 0.363 13.6035 0 13.1094 0H8.89276C8.39866 0 7.9816 0.363 7.92291 0.836L7.559 3.3761C7.07866 3.59245 6.6066 3.86745 6.129 4.2075L3.7365 3.24685C3.28821 3.0736 2.75196 3.2679 2.52921 3.67675L0.423656 7.3196C0.175254 7.73945 0.277906 8.28485 0.662004 8.5892L2.68416 10.1704C2.65206 10.4793 2.6365 10.7479 2.6365 11C2.6365 11.2521 2.6521 11.5207 2.68416 11.8305L0.660156 13.4127C0.284309 13.7106 0.182559 14.2377 0.421809 14.6758L2.52466 18.3141C2.74925 18.7238 3.23691 18.9365 3.74106 18.7513L6.12716 17.7934C6.58366 18.1225 7.06306 18.4012 7.559 18.6248L7.922 21.1548C7.98156 21.637 8.39866 22 8.89366 22H13.1103C13.6044 22 14.0224 21.637 14.0811 21.164L14.445 18.6248C14.9253 18.4076 15.3965 18.1335 15.875 17.7925L18.2675 18.7532C18.383 18.7981 18.5031 18.821 18.6268 18.821C18.9825 18.821 19.3097 18.6267 19.4747 18.3242L21.5867 14.6667C21.8214 14.2377 21.7187 13.7106 21.3411 13.4108ZM11.0011 14.6667C8.97891 14.6667 7.33441 13.0222 7.33441 11C7.33441 8.97785 8.97891 7.33335 11.0011 7.33335C13.0232 7.33335 14.6677 8.97785 14.6677 11C14.6677 13.0222 13.0232 14.6667 11.0011 14.6667Z" fill="#A0A0A0"/>
</svg>
