<svg width="18" height="20" viewBox="0 0 18 20" fill="none" xmlns="http://www.w3.org/2000/svg">
<path d="M9 0.625C6.24304 0.625 4 2.86804 4 5.625C4 8.38196 6.24304 10.625 9 10.625C11.757 10.625 14 8.38196 14 5.625C14 2.86804 11.757 0.625 9 0.625ZM9 9.375C6.93213 9.375 5.25 7.69287 5.25 5.625C5.25 3.55713 6.93213 1.875 9 1.875C11.0679 1.875 12.75 3.55713 12.75 5.625C12.75 7.69287 11.0679 9.375 9 9.375ZM12.1812 11.2689C12.0188 11.2 11.8311 11.2 11.6749 11.275C9.98114 12.0685 8.01886 12.0685 6.32513 11.275C6.16888 11.2 5.9812 11.2 5.81885 11.2689C2.81256 12.55 0.875 15.4877 0.875 18.75C0.875 19.0936 1.15637 19.375 1.5 19.375H16.5C16.8436 19.375 17.125 19.0936 17.125 18.75C17.125 15.4877 15.1874 12.55 12.1812 11.2689ZM2.15002 18.125C2.37494 15.7062 3.84985 13.5748 6.06238 12.5311C7.93127 13.3185 10.0687 13.3185 11.9376 12.5311C14.1501 13.5748 15.6251 15.7062 15.85 18.125H2.15002Z" fill="#A0A0A0"/>
</svg>
