<svg width="20" height="17" viewBox="0 0 20 17" fill="none" xmlns="http://www.w3.org/2000/svg">
<path fill-rule="evenodd" clip-rule="evenodd" d="M2.3385 3.18976L13.619 0.167508C14.7197 -0.12743 15.8506 0.525697 16.1449 1.6257L16.5636 3.1877H17.5625C18.7017 3.1877 19.625 4.11101 19.625 5.2502V7.3127H13.4375C13.0731 7.3127 12.7232 7.45776 12.4654 7.71557C12.2076 7.97338 12.0625 8.32332 12.0625 8.6877V10.7502C12.0625 11.1146 12.2076 11.4645 12.4654 11.7223C12.7232 11.9801 13.0731 12.1252 13.4375 12.1252H19.625V14.1877C19.625 15.3269 18.7017 16.2502 17.5625 16.2502C14.2329 16.2502 5.76706 16.2502 2.4375 16.2502C1.29831 16.2502 0.375 15.3269 0.375 14.1877C0.375 11.9389 0.375 7.49901 0.375 5.2502C0.375 4.1447 1.24537 3.24201 2.3385 3.18976ZM19.625 8.6877V10.7502H13.4375V8.6877H19.625ZM15.1404 3.1877L14.8173 1.98183C14.719 1.6147 14.3416 1.39745 13.9751 1.49576L7.65975 3.1877H15.1404Z" fill="#A0A0A0"/>
</svg>
