<svg width="22" height="22" viewBox="0 0 22 22" fill="none" xmlns="http://www.w3.org/2000/svg">
<path d="M11 0C4.93436 0 0 4.93436 0 11C0 17.0656 4.93436 22 11 22C17.0656 22 22 17.0656 22 11C22 4.93436 17.0656 0 11 0ZM11 17.4166C10.4939 17.4166 10.0834 17.0061 10.0834 16.5C10.0834 15.9939 10.4939 15.5834 11 15.5834C11.5061 15.5834 11.9166 15.9939 11.9166 16.5C11.9166 17.0061 11.5061 17.4166 11 17.4166ZM12.451 11.5885C12.1266 11.7379 11.9166 12.0652 11.9166 12.4218V12.8334C11.9166 13.3393 11.5069 13.75 11 13.75C10.4931 13.75 10.0834 13.3393 10.0834 12.8334V12.4218C10.0834 11.352 10.7121 10.3712 11.683 9.92293C12.617 9.49307 13.2916 8.35172 13.2916 7.79161C13.2916 6.52856 12.2641 5.5 11 5.5C9.73595 5.5 8.70839 6.52856 8.70839 7.79161C8.70839 8.29767 8.29851 8.70839 7.79161 8.70839C7.28471 8.70839 6.875 8.29767 6.875 7.79161C6.875 5.51746 8.72568 3.66661 11 3.66661C13.2743 3.66661 15.125 5.51746 15.125 7.79161C15.125 9.03015 14.0506 10.8506 12.451 11.5885Z" fill="#A0A0A0"/>
</svg>
