<svg width="36" height="36" viewBox="0 0 36 36" fill="none" xmlns="http://www.w3.org/2000/svg">
<path d="M29.25 36H6.75C3.02175 36 0 32.9782 0 29.25V6.75C0 3.02175 3.02175 0 6.75 0H29.25C32.9782 0 36 3.02175 36 6.75V29.25C36 32.9782 32.9782 36 29.25 36Z" fill="#3D79CF"/>
<path d="M23.9366 18.7707C23.6453 18.4028 23.7296 18.2397 23.9366 17.9112C23.94 17.9078 26.343 14.5879 26.5894 13.4618L26.5905 13.4607C26.7142 13.05 26.5905 12.7485 25.9954 12.7485H24.0266C23.526 12.7485 23.2943 13.0073 23.1716 13.2964C23.1716 13.2964 22.1692 15.6949 20.7517 17.2497C20.2939 17.6985 20.0835 17.8437 19.8326 17.8437C19.7089 17.8437 19.5188 17.6997 19.5188 17.289V13.4607C19.5188 12.969 19.3781 12.7485 18.9641 12.7485H15.8692C15.5554 12.7485 15.3686 12.978 15.3686 13.1918C15.3686 13.6575 16.0774 13.7655 16.1505 15.0784V17.9269C16.1505 18.5502 16.0369 18.6649 15.786 18.6649C15.1177 18.6649 13.4932 16.2563 12.5314 13.5012C12.3379 12.9668 12.1466 12.7497 11.6426 12.7497H9.675C9.11363 12.7497 9 13.0084 9 13.2975C9 13.8094 9.66825 16.3519 12.1106 19.7123C13.7385 22.0062 16.0301 23.2493 18.1147 23.2493C19.368 23.2493 19.521 22.9737 19.521 22.4978C19.521 20.3063 19.4074 20.0993 20.0351 20.0993C20.3265 20.0993 20.8271 20.2433 21.9971 21.3492C23.3336 22.662 23.5541 23.2493 24.3022 23.2493H26.271C26.8324 23.2493 27.117 22.9737 26.9528 22.4292C26.5793 21.285 24.0503 18.9282 23.9366 18.7707V18.7707Z" fill="white"/>
</svg>
