<svg width="22" height="22" viewBox="0 0 22 22" fill="none" xmlns="http://www.w3.org/2000/svg">
<path fill-rule="evenodd" clip-rule="evenodd" d="M3.3385 6.18976L14.619 3.16751C15.7197 2.87257 16.8506 3.5257 17.1449 4.6257L17.5636 6.1877H18.5625C19.7017 6.1877 20.625 7.11101 20.625 8.2502V10.3127H14.4375C14.0731 10.3127 13.7232 10.4578 13.4654 10.7156C13.2076 10.9734 13.0625 11.3233 13.0625 11.6877V13.7502C13.0625 14.1146 13.2076 14.4645 13.4654 14.7223C13.7232 14.9801 14.0731 15.1252 14.4375 15.1252H20.625V17.1877C20.625 18.3269 19.7017 19.2502 18.5625 19.2502C15.2329 19.2502 6.76706 19.2502 3.4375 19.2502C2.29831 19.2502 1.375 18.3269 1.375 17.1877C1.375 14.9389 1.375 10.499 1.375 8.2502C1.375 7.1447 2.24537 6.24201 3.3385 6.18976ZM20.625 11.6877V13.7502H14.4375V11.6877H20.625ZM16.1404 6.1877L15.8173 4.98183C15.719 4.6147 15.3416 4.39745 14.9751 4.49576L8.65975 6.1877H16.1404Z" fill="white"/>
</svg>
