<svg width="36" height="36" viewBox="0 0 36 36" fill="none" xmlns="http://www.w3.org/2000/svg">
<path d="M29.25 36H6.75C3.02175 36 0 32.9782 0 29.25V6.75C0 3.02175 3.02175 0 6.75 0H29.25C32.9782 0 36 3.02175 36 6.75V29.25C36 32.9782 32.9782 36 29.25 36Z" fill="#4DBD37"/>
<path fill-rule="evenodd" clip-rule="evenodd" d="M9.07538 17.9201C9.07875 10.0552 18.6233 6.01194 24.39 11.5863L24.3788 11.6167C26.0696 13.3008 27 15.5429 27 17.9246C26.9966 24.7117 19.6796 28.9631 13.7509 25.7613L9 26.9999L10.2713 22.3784C9.48713 21.0251 9.07538 19.4917 9.07538 17.9201ZM22.1237 19.7865L22.1304 19.7302C22.1545 19.7411 22.1778 19.7514 22.2001 19.7613C22.3859 19.844 22.5085 19.8986 22.5557 19.989C22.6119 20.0902 22.6119 20.529 22.4207 21.0577C22.2339 21.5865 21.3395 22.059 20.9087 22.1276C20.5228 22.1827 20.0345 22.2063 19.499 22.0365C17.5157 21.3558 16.4312 20.8653 14.396 18.2013C13.3599 16.7411 13.055 15.3697 14.2655 14.0388C14.5434 13.7497 14.8595 13.7441 15.2915 13.7812C15.3051 13.7812 15.319 13.7807 15.3334 13.7801C15.4661 13.7751 15.6331 13.7688 15.7955 14.1637C15.8786 14.3582 16.0125 14.6823 16.1409 14.9931C16.3028 15.3851 16.456 15.7558 16.4874 15.8186C16.5437 15.93 16.5819 16.0537 16.5065 16.2112C16.3301 16.5451 16.1463 16.7478 16.0092 16.899C15.8211 17.1065 15.7209 17.217 15.8484 17.4363C15.9812 17.6613 16.4278 18.3926 17.0938 18.9888C17.8094 19.6291 18.432 19.899 18.7479 20.0359C18.8094 20.0626 18.8594 20.0842 18.896 20.1026C19.1188 20.2038 19.2493 20.1926 19.3809 20.0463C19.5103 19.8978 19.9412 19.3961 20.0885 19.1745C20.2907 18.8723 20.4557 18.9545 21.8685 19.6593C21.9494 19.6996 22.0344 19.742 22.1237 19.7865Z" fill="white"/>
</svg>
