<svg width="380" height="381" viewBox="0 0 380 381" fill="none" xmlns="http://www.w3.org/2000/svg">
<g clip-path="url(#clip0_2529_12238)">
<path d="M380 0.833496H0V380.833H380V0.833496Z" fill="white"/>
<path d="M9.26829 0.833496H0V10.1018H9.26829V0.833496Z" fill="black"/>
<path d="M18.5359 0.833496H9.26758V10.1018H18.5359V0.833496Z" fill="black"/>
<path d="M27.8054 0.833496H18.5371V10.1018H27.8054V0.833496Z" fill="black"/>
<path d="M37.073 0.833496H27.8047V10.1018H37.073V0.833496Z" fill="black"/>
<path d="M46.3406 0.833496H37.0723V10.1018H46.3406V0.833496Z" fill="black"/>
<path d="M55.6101 0.833496H46.3418V10.1018H55.6101V0.833496Z" fill="black"/>
<path d="M64.8777 0.833496H55.6094V10.1018H64.8777V0.833496Z" fill="black"/>
<path d="M92.6824 0.833496H83.4141V10.1018H92.6824V0.833496Z" fill="black"/>
<path d="M101.952 0.833496H92.6836V10.1018H101.952V0.833496Z" fill="black"/>
<path d="M111.219 0.833496H101.951V10.1018H111.219V0.833496Z" fill="black"/>
<path d="M129.757 0.833496H120.488V10.1018H129.757V0.833496Z" fill="black"/>
<path d="M139.024 0.833496H129.756V10.1018H139.024V0.833496Z" fill="black"/>
<path d="M148.292 0.833496H139.023V10.1018H148.292V0.833496Z" fill="black"/>
<path d="M157.561 0.833496H148.293V10.1018H157.561V0.833496Z" fill="black"/>
<path d="M176.098 0.833496H166.83V10.1018H176.098V0.833496Z" fill="black"/>
<path d="M203.903 0.833496H194.635V10.1018H203.903V0.833496Z" fill="black"/>
<path d="M222.438 0.833496H213.17V10.1018H222.438V0.833496Z" fill="black"/>
<path d="M231.708 0.833496H222.439V10.1018H231.708V0.833496Z" fill="black"/>
<path d="M240.975 0.833496H231.707V10.1018H240.975V0.833496Z" fill="black"/>
<path d="M250.245 0.833496H240.977V10.1018H250.245V0.833496Z" fill="black"/>
<path d="M259.512 0.833496H250.244V10.1018H259.512V0.833496Z" fill="black"/>
<path d="M268.78 0.833496H259.512V10.1018H268.78V0.833496Z" fill="black"/>
<path d="M296.585 0.833496H287.316V10.1018H296.585V0.833496Z" fill="black"/>
<path d="M305.854 0.833496H296.586V10.1018H305.854V0.833496Z" fill="black"/>
<path d="M324.389 0.833496H315.121V10.1018H324.389V0.833496Z" fill="black"/>
<path d="M333.659 0.833496H324.391V10.1018H333.659V0.833496Z" fill="black"/>
<path d="M342.926 0.833496H333.658V10.1018H342.926V0.833496Z" fill="black"/>
<path d="M352.196 0.833496H342.928V10.1018H352.196V0.833496Z" fill="black"/>
<path d="M361.464 0.833496H352.195V10.1018H361.464V0.833496Z" fill="black"/>
<path d="M370.731 0.833496H361.463V10.1018H370.731V0.833496Z" fill="black"/>
<path d="M380.001 0.833496H370.732V10.1018H380.001V0.833496Z" fill="black"/>
<path d="M9.26829 10.1016H0V19.3699H9.26829V10.1016Z" fill="black"/>
<path d="M64.8777 10.1016H55.6094V19.3699H64.8777V10.1016Z" fill="black"/>
<path d="M83.4148 10.1016H74.1465V19.3699H83.4148V10.1016Z" fill="black"/>
<path d="M92.6824 10.1016H83.4141V19.3699H92.6824V10.1016Z" fill="black"/>
<path d="M101.952 10.1016H92.6836V19.3699H101.952V10.1016Z" fill="black"/>
<path d="M120.487 10.1016H111.219V19.3699H120.487V10.1016Z" fill="black"/>
<path d="M157.561 10.1016H148.293V19.3699H157.561V10.1016Z" fill="black"/>
<path d="M185.366 10.1016H176.098V19.3699H185.366V10.1016Z" fill="black"/>
<path d="M194.634 10.1016H185.365V19.3699H194.634V10.1016Z" fill="black"/>
<path d="M203.903 10.1016H194.635V19.3699H203.903V10.1016Z" fill="black"/>
<path d="M213.171 10.1016H203.902V19.3699H213.171V10.1016Z" fill="black"/>
<path d="M231.708 10.1016H222.439V19.3699H231.708V10.1016Z" fill="black"/>
<path d="M259.512 10.1016H250.244V19.3699H259.512V10.1016Z" fill="black"/>
<path d="M268.78 10.1016H259.512V19.3699H268.78V10.1016Z" fill="black"/>
<path d="M278.05 10.1016H268.781V19.3699H278.05V10.1016Z" fill="black"/>
<path d="M287.317 10.1016H278.049V19.3699H287.317V10.1016Z" fill="black"/>
<path d="M296.585 10.1016H287.316V19.3699H296.585V10.1016Z" fill="black"/>
<path d="M324.389 10.1016H315.121V19.3699H324.389V10.1016Z" fill="black"/>
<path d="M380.001 10.1016H370.732V19.3699H380.001V10.1016Z" fill="black"/>
<path d="M9.26829 19.3701H0V28.6384H9.26829V19.3701Z" fill="black"/>
<path d="M27.8054 19.3701H18.5371V28.6384H27.8054V19.3701Z" fill="black"/>
<path d="M37.073 19.3701H27.8047V28.6384H37.073V19.3701Z" fill="black"/>
<path d="M46.3406 19.3701H37.0723V28.6384H46.3406V19.3701Z" fill="black"/>
<path d="M64.8777 19.3701H55.6094V28.6384H64.8777V19.3701Z" fill="black"/>
<path d="M83.4148 19.3701H74.1465V28.6384H83.4148V19.3701Z" fill="black"/>
<path d="M92.6824 19.3701H83.4141V28.6384H92.6824V19.3701Z" fill="black"/>
<path d="M111.219 19.3701H101.951V28.6384H111.219V19.3701Z" fill="black"/>
<path d="M120.487 19.3701H111.219V28.6384H120.487V19.3701Z" fill="black"/>
<path d="M139.024 19.3701H129.756V28.6384H139.024V19.3701Z" fill="black"/>
<path d="M157.561 19.3701H148.293V28.6384H157.561V19.3701Z" fill="black"/>
<path d="M185.366 19.3701H176.098V28.6384H185.366V19.3701Z" fill="black"/>
<path d="M194.634 19.3701H185.365V28.6384H194.634V19.3701Z" fill="black"/>
<path d="M203.903 19.3701H194.635V28.6384H203.903V19.3701Z" fill="black"/>
<path d="M222.438 19.3701H213.17V28.6384H222.438V19.3701Z" fill="black"/>
<path d="M240.975 19.3701H231.707V28.6384H240.975V19.3701Z" fill="black"/>
<path d="M268.78 19.3701H259.512V28.6384H268.78V19.3701Z" fill="black"/>
<path d="M287.317 19.3701H278.049V28.6384H287.317V19.3701Z" fill="black"/>
<path d="M324.389 19.3701H315.121V28.6384H324.389V19.3701Z" fill="black"/>
<path d="M342.926 19.3701H333.658V28.6384H342.926V19.3701Z" fill="black"/>
<path d="M352.196 19.3701H342.928V28.6384H352.196V19.3701Z" fill="black"/>
<path d="M361.464 19.3701H352.195V28.6384H361.464V19.3701Z" fill="black"/>
<path d="M380.001 19.3701H370.732V28.6384H380.001V19.3701Z" fill="black"/>
<path d="M9.26829 28.6382H0V37.9065H9.26829V28.6382Z" fill="black"/>
<path d="M27.8054 28.6382H18.5371V37.9065H27.8054V28.6382Z" fill="black"/>
<path d="M37.073 28.6382H27.8047V37.9065H37.073V28.6382Z" fill="black"/>
<path d="M46.3406 28.6382H37.0723V37.9065H46.3406V28.6382Z" fill="black"/>
<path d="M64.8777 28.6382H55.6094V37.9065H64.8777V28.6382Z" fill="black"/>
<path d="M83.4148 28.6382H74.1465V37.9065H83.4148V28.6382Z" fill="black"/>
<path d="M129.757 28.6382H120.488V37.9065H129.757V28.6382Z" fill="black"/>
<path d="M157.561 28.6382H148.293V37.9065H157.561V28.6382Z" fill="black"/>
<path d="M176.098 28.6382H166.83V37.9065H176.098V28.6382Z" fill="black"/>
<path d="M213.171 28.6382H203.902V37.9065H213.171V28.6382Z" fill="black"/>
<path d="M231.708 28.6382H222.439V37.9065H231.708V28.6382Z" fill="black"/>
<path d="M268.78 28.6382H259.512V37.9065H268.78V28.6382Z" fill="black"/>
<path d="M287.317 28.6382H278.049V37.9065H287.317V28.6382Z" fill="black"/>
<path d="M305.854 28.6382H296.586V37.9065H305.854V28.6382Z" fill="black"/>
<path d="M324.389 28.6382H315.121V37.9065H324.389V28.6382Z" fill="black"/>
<path d="M342.926 28.6382H333.658V37.9065H342.926V28.6382Z" fill="black"/>
<path d="M352.196 28.6382H342.928V37.9065H352.196V28.6382Z" fill="black"/>
<path d="M361.464 28.6382H352.195V37.9065H361.464V28.6382Z" fill="black"/>
<path d="M380.001 28.6382H370.732V37.9065H380.001V28.6382Z" fill="black"/>
<path d="M9.26829 37.9067H0V47.175H9.26829V37.9067Z" fill="black"/>
<path d="M27.8054 37.9067H18.5371V47.175H27.8054V37.9067Z" fill="black"/>
<path d="M37.073 37.9067H27.8047V47.175H37.073V37.9067Z" fill="black"/>
<path d="M46.3406 37.9067H37.0723V47.175H46.3406V37.9067Z" fill="black"/>
<path d="M64.8777 37.9067H55.6094V47.175H64.8777V37.9067Z" fill="black"/>
<path d="M83.4148 37.9067H74.1465V47.175H83.4148V37.9067Z" fill="black"/>
<path d="M92.6824 37.9067H83.4141V47.175H92.6824V37.9067Z" fill="black"/>
<path d="M111.219 37.9067H101.951V47.175H111.219V37.9067Z" fill="black"/>
<path d="M139.024 37.9067H129.756V47.175H139.024V37.9067Z" fill="black"/>
<path d="M157.561 37.9067H148.293V47.175H157.561V37.9067Z" fill="black"/>
<path d="M176.098 37.9067H166.83V47.175H176.098V37.9067Z" fill="black"/>
<path d="M185.366 37.9067H176.098V47.175H185.366V37.9067Z" fill="black"/>
<path d="M194.634 37.9067H185.365V47.175H194.634V37.9067Z" fill="black"/>
<path d="M203.903 37.9067H194.635V47.175H203.903V37.9067Z" fill="black"/>
<path d="M213.171 37.9067H203.902V47.175H213.171V37.9067Z" fill="black"/>
<path d="M231.708 37.9067H222.439V47.175H231.708V37.9067Z" fill="black"/>
<path d="M240.975 37.9067H231.707V47.175H240.975V37.9067Z" fill="black"/>
<path d="M259.512 37.9067H250.244V47.175H259.512V37.9067Z" fill="black"/>
<path d="M268.78 37.9067H259.512V47.175H268.78V37.9067Z" fill="black"/>
<path d="M278.05 37.9067H268.781V47.175H278.05V37.9067Z" fill="black"/>
<path d="M287.317 37.9067H278.049V47.175H287.317V37.9067Z" fill="black"/>
<path d="M296.585 37.9067H287.316V47.175H296.585V37.9067Z" fill="black"/>
<path d="M324.389 37.9067H315.121V47.175H324.389V37.9067Z" fill="black"/>
<path d="M342.926 37.9067H333.658V47.175H342.926V37.9067Z" fill="black"/>
<path d="M352.196 37.9067H342.928V47.175H352.196V37.9067Z" fill="black"/>
<path d="M361.464 37.9067H352.195V47.175H361.464V37.9067Z" fill="black"/>
<path d="M380.001 37.9067H370.732V47.175H380.001V37.9067Z" fill="black"/>
<path d="M9.26829 47.1748H0V56.4431H9.26829V47.1748Z" fill="black"/>
<path d="M64.8777 47.1748H55.6094V56.4431H64.8777V47.1748Z" fill="black"/>
<path d="M83.4148 47.1748H74.1465V56.4431H83.4148V47.1748Z" fill="black"/>
<path d="M92.6824 47.1748H83.4141V56.4431H92.6824V47.1748Z" fill="black"/>
<path d="M111.219 47.1748H101.951V56.4431H111.219V47.1748Z" fill="black"/>
<path d="M120.487 47.1748H111.219V56.4431H120.487V47.1748Z" fill="black"/>
<path d="M129.757 47.1748H120.488V56.4431H129.757V47.1748Z" fill="black"/>
<path d="M139.024 47.1748H129.756V56.4431H139.024V47.1748Z" fill="black"/>
<path d="M148.292 47.1748H139.023V56.4431H148.292V47.1748Z" fill="black"/>
<path d="M157.561 47.1748H148.293V56.4431H157.561V47.1748Z" fill="black"/>
<path d="M166.829 47.1748H157.561V56.4431H166.829V47.1748Z" fill="black"/>
<path d="M185.366 47.1748H176.098V56.4431H185.366V47.1748Z" fill="black"/>
<path d="M194.634 47.1748H185.365V56.4431H194.634V47.1748Z" fill="black"/>
<path d="M222.438 47.1748H213.17V56.4431H222.438V47.1748Z" fill="black"/>
<path d="M278.05 47.1748H268.781V56.4431H278.05V47.1748Z" fill="black"/>
<path d="M296.585 47.1748H287.316V56.4431H296.585V47.1748Z" fill="black"/>
<path d="M324.389 47.1748H315.121V56.4431H324.389V47.1748Z" fill="black"/>
<path d="M380.001 47.1748H370.732V56.4431H380.001V47.1748Z" fill="black"/>
<path d="M9.26829 56.4434H0V65.7117H9.26829V56.4434Z" fill="black"/>
<path d="M18.5359 56.4434H9.26758V65.7117H18.5359V56.4434Z" fill="black"/>
<path d="M27.8054 56.4434H18.5371V65.7117H27.8054V56.4434Z" fill="black"/>
<path d="M37.073 56.4434H27.8047V65.7117H37.073V56.4434Z" fill="black"/>
<path d="M46.3406 56.4434H37.0723V65.7117H46.3406V56.4434Z" fill="black"/>
<path d="M55.6101 56.4434H46.3418V65.7117H55.6101V56.4434Z" fill="black"/>
<path d="M64.8777 56.4434H55.6094V65.7117H64.8777V56.4434Z" fill="black"/>
<path d="M83.4148 56.4434H74.1465V65.7117H83.4148V56.4434Z" fill="black"/>
<path d="M101.952 56.4434H92.6836V65.7117H101.952V56.4434Z" fill="black"/>
<path d="M120.487 56.4434H111.219V65.7117H120.487V56.4434Z" fill="black"/>
<path d="M139.024 56.4434H129.756V65.7117H139.024V56.4434Z" fill="black"/>
<path d="M157.561 56.4434H148.293V65.7117H157.561V56.4434Z" fill="black"/>
<path d="M176.098 56.4434H166.83V65.7117H176.098V56.4434Z" fill="black"/>
<path d="M194.634 56.4434H185.365V65.7117H194.634V56.4434Z" fill="black"/>
<path d="M213.171 56.4434H203.902V65.7117H213.171V56.4434Z" fill="black"/>
<path d="M231.708 56.4434H222.439V65.7117H231.708V56.4434Z" fill="black"/>
<path d="M250.245 56.4434H240.977V65.7117H250.245V56.4434Z" fill="black"/>
<path d="M268.78 56.4434H259.512V65.7117H268.78V56.4434Z" fill="black"/>
<path d="M287.317 56.4434H278.049V65.7117H287.317V56.4434Z" fill="black"/>
<path d="M305.854 56.4434H296.586V65.7117H305.854V56.4434Z" fill="black"/>
<path d="M324.389 56.4434H315.121V65.7117H324.389V56.4434Z" fill="black"/>
<path d="M333.659 56.4434H324.391V65.7117H333.659V56.4434Z" fill="black"/>
<path d="M342.926 56.4434H333.658V65.7117H342.926V56.4434Z" fill="black"/>
<path d="M352.196 56.4434H342.928V65.7117H352.196V56.4434Z" fill="black"/>
<path d="M361.464 56.4434H352.195V65.7117H361.464V56.4434Z" fill="black"/>
<path d="M370.731 56.4434H361.463V65.7117H370.731V56.4434Z" fill="black"/>
<path d="M380.001 56.4434H370.732V65.7117H380.001V56.4434Z" fill="black"/>
<path d="M92.6824 65.7114H83.4141V74.9797H92.6824V65.7114Z" fill="black"/>
<path d="M101.952 65.7114H92.6836V74.9797H101.952V65.7114Z" fill="black"/>
<path d="M111.219 65.7114H101.951V74.9797H111.219V65.7114Z" fill="black"/>
<path d="M139.024 65.7114H129.756V74.9797H139.024V65.7114Z" fill="black"/>
<path d="M157.561 65.7114H148.293V74.9797H157.561V65.7114Z" fill="black"/>
<path d="M176.098 65.7114H166.83V74.9797H176.098V65.7114Z" fill="black"/>
<path d="M185.366 65.7114H176.098V74.9797H185.366V65.7114Z" fill="black"/>
<path d="M203.903 65.7114H194.635V74.9797H203.903V65.7114Z" fill="black"/>
<path d="M213.171 65.7114H203.902V74.9797H213.171V65.7114Z" fill="black"/>
<path d="M240.975 65.7114H231.707V74.9797H240.975V65.7114Z" fill="black"/>
<path d="M250.245 65.7114H240.977V74.9797H250.245V65.7114Z" fill="black"/>
<path d="M259.512 65.7114H250.244V74.9797H259.512V65.7114Z" fill="black"/>
<path d="M268.78 65.7114H259.512V74.9797H268.78V65.7114Z" fill="black"/>
<path d="M278.05 65.7114H268.781V74.9797H278.05V65.7114Z" fill="black"/>
<path d="M296.585 65.7114H287.316V74.9797H296.585V65.7114Z" fill="black"/>
<path d="M305.854 65.7114H296.586V74.9797H305.854V65.7114Z" fill="black"/>
<path d="M27.8054 74.98H18.5371V84.2483H27.8054V74.98Z" fill="black"/>
<path d="M55.6101 74.98H46.3418V84.2483H55.6101V74.98Z" fill="black"/>
<path d="M64.8777 74.98H55.6094V84.2483H64.8777V74.98Z" fill="black"/>
<path d="M74.1472 74.98H64.8789V84.2483H74.1472V74.98Z" fill="black"/>
<path d="M83.4148 74.98H74.1465V84.2483H83.4148V74.98Z" fill="black"/>
<path d="M92.6824 74.98H83.4141V84.2483H92.6824V74.98Z" fill="black"/>
<path d="M101.952 74.98H92.6836V84.2483H101.952V74.98Z" fill="black"/>
<path d="M120.487 74.98H111.219V84.2483H120.487V74.98Z" fill="black"/>
<path d="M139.024 74.98H129.756V84.2483H139.024V74.98Z" fill="black"/>
<path d="M148.292 74.98H139.023V84.2483H148.292V74.98Z" fill="black"/>
<path d="M157.561 74.98H148.293V84.2483H157.561V74.98Z" fill="black"/>
<path d="M166.829 74.98H157.561V84.2483H166.829V74.98Z" fill="black"/>
<path d="M176.098 74.98H166.83V84.2483H176.098V74.98Z" fill="black"/>
<path d="M185.366 74.98H176.098V84.2483H185.366V74.98Z" fill="black"/>
<path d="M194.634 74.98H185.365V84.2483H194.634V74.98Z" fill="black"/>
<path d="M203.903 74.98H194.635V84.2483H203.903V74.98Z" fill="black"/>
<path d="M231.708 74.98H222.439V84.2483H231.708V74.98Z" fill="black"/>
<path d="M259.512 74.98H250.244V84.2483H259.512V74.98Z" fill="black"/>
<path d="M296.585 74.98H287.316V84.2483H296.585V74.98Z" fill="black"/>
<path d="M315.122 74.98H305.854V84.2483H315.122V74.98Z" fill="black"/>
<path d="M333.659 74.98H324.391V84.2483H333.659V74.98Z" fill="black"/>
<path d="M342.926 74.98H333.658V84.2483H342.926V74.98Z" fill="black"/>
<path d="M352.196 74.98H342.928V84.2483H352.196V74.98Z" fill="black"/>
<path d="M361.464 74.98H352.195V84.2483H361.464V74.98Z" fill="black"/>
<path d="M370.731 74.98H361.463V84.2483H370.731V74.98Z" fill="black"/>
<path d="M9.26829 84.248H0V93.5163H9.26829V84.248Z" fill="black"/>
<path d="M27.8054 84.248H18.5371V93.5163H27.8054V84.248Z" fill="black"/>
<path d="M46.3406 84.248H37.0723V93.5163H46.3406V84.248Z" fill="black"/>
<path d="M55.6101 84.248H46.3418V93.5163H55.6101V84.248Z" fill="black"/>
<path d="M83.4148 84.248H74.1465V93.5163H83.4148V84.248Z" fill="black"/>
<path d="M139.024 84.248H129.756V93.5163H139.024V84.248Z" fill="black"/>
<path d="M148.292 84.248H139.023V93.5163H148.292V84.248Z" fill="black"/>
<path d="M185.366 84.248H176.098V93.5163H185.366V84.248Z" fill="black"/>
<path d="M194.634 84.248H185.365V93.5163H194.634V84.248Z" fill="black"/>
<path d="M213.171 84.248H203.902V93.5163H213.171V84.248Z" fill="black"/>
<path d="M222.438 84.248H213.17V93.5163H222.438V84.248Z" fill="black"/>
<path d="M231.708 84.248H222.439V93.5163H231.708V84.248Z" fill="black"/>
<path d="M259.512 84.248H250.244V93.5163H259.512V84.248Z" fill="black"/>
<path d="M287.317 84.248H278.049V93.5163H287.317V84.248Z" fill="black"/>
<path d="M296.585 84.248H287.316V93.5163H296.585V84.248Z" fill="black"/>
<path d="M305.854 84.248H296.586V93.5163H305.854V84.248Z" fill="black"/>
<path d="M315.122 84.248H305.854V93.5163H315.122V84.248Z" fill="black"/>
<path d="M370.731 84.248H361.463V93.5163H370.731V84.248Z" fill="black"/>
<path d="M380.001 84.248H370.732V93.5163H380.001V84.248Z" fill="black"/>
<path d="M9.26829 93.5166H0V102.785H9.26829V93.5166Z" fill="black"/>
<path d="M27.8054 93.5166H18.5371V102.785H27.8054V93.5166Z" fill="black"/>
<path d="M37.073 93.5166H27.8047V102.785H37.073V93.5166Z" fill="black"/>
<path d="M55.6101 93.5166H46.3418V102.785H55.6101V93.5166Z" fill="black"/>
<path d="M64.8777 93.5166H55.6094V102.785H64.8777V93.5166Z" fill="black"/>
<path d="M83.4148 93.5166H74.1465V102.785H83.4148V93.5166Z" fill="black"/>
<path d="M92.6824 93.5166H83.4141V102.785H92.6824V93.5166Z" fill="black"/>
<path d="M111.219 93.5166H101.951V102.785H111.219V93.5166Z" fill="black"/>
<path d="M129.757 93.5166H120.488V102.785H129.757V93.5166Z" fill="black"/>
<path d="M139.024 93.5166H129.756V102.785H139.024V93.5166Z" fill="black"/>
<path d="M148.292 93.5166H139.023V102.785H148.292V93.5166Z" fill="black"/>
<path d="M166.829 93.5166H157.561V102.785H166.829V93.5166Z" fill="black"/>
<path d="M176.098 93.5166H166.83V102.785H176.098V93.5166Z" fill="black"/>
<path d="M213.171 93.5166H203.902V102.785H213.171V93.5166Z" fill="black"/>
<path d="M222.438 93.5166H213.17V102.785H222.438V93.5166Z" fill="black"/>
<path d="M231.708 93.5166H222.439V102.785H231.708V93.5166Z" fill="black"/>
<path d="M259.512 93.5166H250.244V102.785H259.512V93.5166Z" fill="black"/>
<path d="M287.317 93.5166H278.049V102.785H287.317V93.5166Z" fill="black"/>
<path d="M305.854 93.5166H296.586V102.785H305.854V93.5166Z" fill="black"/>
<path d="M315.122 93.5166H305.854V102.785H315.122V93.5166Z" fill="black"/>
<path d="M324.389 93.5166H315.121V102.785H324.389V93.5166Z" fill="black"/>
<path d="M333.659 93.5166H324.391V102.785H333.659V93.5166Z" fill="black"/>
<path d="M370.731 93.5166H361.463V102.785H370.731V93.5166Z" fill="black"/>
<path d="M380.001 93.5166H370.732V102.785H380.001V93.5166Z" fill="black"/>
<path d="M9.26829 102.785H0V112.053H9.26829V102.785Z" fill="black"/>
<path d="M27.8054 102.785H18.5371V112.053H27.8054V102.785Z" fill="black"/>
<path d="M37.073 102.785H27.8047V112.053H37.073V102.785Z" fill="black"/>
<path d="M46.3406 102.785H37.0723V112.053H46.3406V102.785Z" fill="black"/>
<path d="M55.6101 102.785H46.3418V112.053H55.6101V102.785Z" fill="black"/>
<path d="M74.1472 102.785H64.8789V112.053H74.1472V102.785Z" fill="black"/>
<path d="M92.6824 102.785H83.4141V112.053H92.6824V102.785Z" fill="black"/>
<path d="M120.487 102.785H111.219V112.053H120.487V102.785Z" fill="black"/>
<path d="M129.757 102.785H120.488V112.053H129.757V102.785Z" fill="black"/>
<path d="M166.829 102.785H157.561V112.053H166.829V102.785Z" fill="black"/>
<path d="M222.438 102.785H213.17V112.053H222.438V102.785Z" fill="black"/>
<path d="M259.512 102.785H250.244V112.053H259.512V102.785Z" fill="black"/>
<path d="M268.78 102.785H259.512V112.053H268.78V102.785Z" fill="black"/>
<path d="M278.05 102.785H268.781V112.053H278.05V102.785Z" fill="black"/>
<path d="M296.585 102.785H287.316V112.053H296.585V102.785Z" fill="black"/>
<path d="M315.122 102.785H305.854V112.053H315.122V102.785Z" fill="black"/>
<path d="M324.389 102.785H315.121V112.053H324.389V102.785Z" fill="black"/>
<path d="M333.659 102.785H324.391V112.053H333.659V102.785Z" fill="black"/>
<path d="M370.731 102.785H361.463V112.053H370.731V102.785Z" fill="black"/>
<path d="M380.001 102.785H370.732V112.053H380.001V102.785Z" fill="black"/>
<path d="M27.8054 112.053H18.5371V121.322H27.8054V112.053Z" fill="black"/>
<path d="M37.073 112.053H27.8047V121.322H37.073V112.053Z" fill="black"/>
<path d="M46.3406 112.053H37.0723V121.322H46.3406V112.053Z" fill="black"/>
<path d="M64.8777 112.053H55.6094V121.322H64.8777V112.053Z" fill="black"/>
<path d="M83.4148 112.053H74.1465V121.322H83.4148V112.053Z" fill="black"/>
<path d="M101.952 112.053H92.6836V121.322H101.952V112.053Z" fill="black"/>
<path d="M111.219 112.053H101.951V121.322H111.219V112.053Z" fill="black"/>
<path d="M120.487 112.053H111.219V121.322H120.487V112.053Z" fill="black"/>
<path d="M139.024 112.053H129.756V121.322H139.024V112.053Z" fill="black"/>
<path d="M148.292 112.053H139.023V121.322H148.292V112.053Z" fill="black"/>
<path d="M157.561 112.053H148.293V121.322H157.561V112.053Z" fill="black"/>
<path d="M213.171 112.053H203.902V121.322H213.171V112.053Z" fill="black"/>
<path d="M231.708 112.053H222.439V121.322H231.708V112.053Z" fill="black"/>
<path d="M240.975 112.053H231.707V121.322H240.975V112.053Z" fill="black"/>
<path d="M259.512 112.053H250.244V121.322H259.512V112.053Z" fill="black"/>
<path d="M268.78 112.053H259.512V121.322H268.78V112.053Z" fill="black"/>
<path d="M296.585 112.053H287.316V121.322H296.585V112.053Z" fill="black"/>
<path d="M324.389 112.053H315.121V121.322H324.389V112.053Z" fill="black"/>
<path d="M342.926 112.053H333.658V121.322H342.926V112.053Z" fill="black"/>
<path d="M352.196 112.053H342.928V121.322H352.196V112.053Z" fill="black"/>
<path d="M361.464 112.053H352.195V121.322H361.464V112.053Z" fill="black"/>
<path d="M370.731 112.053H361.463V121.322H370.731V112.053Z" fill="black"/>
<path d="M380.001 112.053H370.732V121.322H380.001V112.053Z" fill="black"/>
<path d="M18.5359 121.321H9.26758V130.59H18.5359V121.321Z" fill="black"/>
<path d="M37.073 121.321H27.8047V130.59H37.073V121.321Z" fill="black"/>
<path d="M46.3406 121.321H37.0723V130.59H46.3406V121.321Z" fill="black"/>
<path d="M74.1472 121.321H64.8789V130.59H74.1472V121.321Z" fill="black"/>
<path d="M83.4148 121.321H74.1465V130.59H83.4148V121.321Z" fill="black"/>
<path d="M92.6824 121.321H83.4141V130.59H92.6824V121.321Z" fill="black"/>
<path d="M120.487 121.321H111.219V130.59H120.487V121.321Z" fill="black"/>
<path d="M148.292 121.321H139.023V130.59H148.292V121.321Z" fill="black"/>
<path d="M157.561 121.321H148.293V130.59H157.561V121.321Z" fill="black"/>
<path d="M185.366 121.321H176.098V130.59H185.366V121.321Z" fill="black"/>
<path d="M213.171 121.321H203.902V130.59H213.171V121.321Z" fill="black"/>
<path d="M222.438 121.321H213.17V130.59H222.438V121.321Z" fill="black"/>
<path d="M240.975 121.321H231.707V130.59H240.975V121.321Z" fill="black"/>
<path d="M250.245 121.321H240.977V130.59H250.245V121.321Z" fill="black"/>
<path d="M268.78 121.321H259.512V130.59H268.78V121.321Z" fill="black"/>
<path d="M287.317 121.321H278.049V130.59H287.317V121.321Z" fill="black"/>
<path d="M333.659 121.321H324.391V130.59H333.659V121.321Z" fill="black"/>
<path d="M352.196 121.321H342.928V130.59H352.196V121.321Z" fill="black"/>
<path d="M9.26829 130.589H0V139.858H9.26829V130.589Z" fill="black"/>
<path d="M27.8054 130.589H18.5371V139.858H27.8054V130.589Z" fill="black"/>
<path d="M37.073 130.589H27.8047V139.858H37.073V130.589Z" fill="black"/>
<path d="M46.3406 130.589H37.0723V139.858H46.3406V130.589Z" fill="black"/>
<path d="M55.6101 130.589H46.3418V139.858H55.6101V130.589Z" fill="black"/>
<path d="M64.8777 130.589H55.6094V139.858H64.8777V130.589Z" fill="black"/>
<path d="M83.4148 130.589H74.1465V139.858H83.4148V130.589Z" fill="black"/>
<path d="M101.952 130.589H92.6836V139.858H101.952V130.589Z" fill="black"/>
<path d="M157.561 130.589H148.293V139.858H157.561V130.589Z" fill="black"/>
<path d="M176.098 130.589H166.83V139.858H176.098V130.589Z" fill="black"/>
<path d="M185.366 130.589H176.098V139.858H185.366V130.589Z" fill="black"/>
<path d="M194.634 130.589H185.365V139.858H194.634V130.589Z" fill="black"/>
<path d="M213.171 130.589H203.902V139.858H213.171V130.589Z" fill="black"/>
<path d="M231.708 130.589H222.439V139.858H231.708V130.589Z" fill="black"/>
<path d="M250.245 130.589H240.977V139.858H250.245V130.589Z" fill="black"/>
<path d="M268.78 130.589H259.512V139.858H268.78V130.589Z" fill="black"/>
<path d="M296.585 130.589H287.316V139.858H296.585V130.589Z" fill="black"/>
<path d="M324.389 130.589H315.121V139.858H324.389V130.589Z" fill="black"/>
<path d="M333.659 130.589H324.391V139.858H333.659V130.589Z" fill="black"/>
<path d="M370.731 130.589H361.463V139.858H370.731V130.589Z" fill="black"/>
<path d="M380.001 130.589H370.732V139.858H380.001V130.589Z" fill="black"/>
<path d="M9.26829 139.858H0V149.126H9.26829V139.858Z" fill="black"/>
<path d="M18.5359 139.858H9.26758V149.126H18.5359V139.858Z" fill="black"/>
<path d="M27.8054 139.858H18.5371V149.126H27.8054V139.858Z" fill="black"/>
<path d="M74.1472 139.858H64.8789V149.126H74.1472V139.858Z" fill="black"/>
<path d="M111.219 139.858H101.951V149.126H111.219V139.858Z" fill="black"/>
<path d="M120.487 139.858H111.219V149.126H120.487V139.858Z" fill="black"/>
<path d="M157.561 139.858H148.293V149.126H157.561V139.858Z" fill="black"/>
<path d="M176.098 139.858H166.83V149.126H176.098V139.858Z" fill="black"/>
<path d="M185.366 139.858H176.098V149.126H185.366V139.858Z" fill="black"/>
<path d="M203.903 139.858H194.635V149.126H203.903V139.858Z" fill="black"/>
<path d="M213.171 139.858H203.902V149.126H213.171V139.858Z" fill="black"/>
<path d="M240.975 139.858H231.707V149.126H240.975V139.858Z" fill="black"/>
<path d="M250.245 139.858H240.977V149.126H250.245V139.858Z" fill="black"/>
<path d="M259.512 139.858H250.244V149.126H259.512V139.858Z" fill="black"/>
<path d="M268.78 139.858H259.512V149.126H268.78V139.858Z" fill="black"/>
<path d="M315.122 139.858H305.854V149.126H315.122V139.858Z" fill="black"/>
<path d="M324.389 139.858H315.121V149.126H324.389V139.858Z" fill="black"/>
<path d="M333.659 139.858H324.391V149.126H333.659V139.858Z" fill="black"/>
<path d="M370.731 139.858H361.463V149.126H370.731V139.858Z" fill="black"/>
<path d="M380.001 139.858H370.732V149.126H380.001V139.858Z" fill="black"/>
<path d="M9.26829 149.126H0V158.394H9.26829V149.126Z" fill="black"/>
<path d="M27.8054 149.126H18.5371V158.394H27.8054V149.126Z" fill="black"/>
<path d="M37.073 149.126H27.8047V158.394H37.073V149.126Z" fill="black"/>
<path d="M64.8777 149.126H55.6094V158.394H64.8777V149.126Z" fill="black"/>
<path d="M101.952 149.126H92.6836V158.394H101.952V149.126Z" fill="black"/>
<path d="M129.757 149.126H120.488V158.394H129.757V149.126Z" fill="black"/>
<path d="M166.829 149.126H157.561V158.394H166.829V149.126Z" fill="black"/>
<path d="M185.366 149.126H176.098V158.394H185.366V149.126Z" fill="black"/>
<path d="M222.438 149.126H213.17V158.394H222.438V149.126Z" fill="black"/>
<path d="M240.975 149.126H231.707V158.394H240.975V149.126Z" fill="black"/>
<path d="M250.245 149.126H240.977V158.394H250.245V149.126Z" fill="black"/>
<path d="M278.05 149.126H268.781V158.394H278.05V149.126Z" fill="black"/>
<path d="M296.585 149.126H287.316V158.394H296.585V149.126Z" fill="black"/>
<path d="M315.122 149.126H305.854V158.394H315.122V149.126Z" fill="black"/>
<path d="M324.389 149.126H315.121V158.394H324.389V149.126Z" fill="black"/>
<path d="M333.659 149.126H324.391V158.394H333.659V149.126Z" fill="black"/>
<path d="M342.926 149.126H333.658V158.394H342.926V149.126Z" fill="black"/>
<path d="M352.196 149.126H342.928V158.394H352.196V149.126Z" fill="black"/>
<path d="M361.464 149.126H352.195V158.394H361.464V149.126Z" fill="black"/>
<path d="M380.001 149.126H370.732V158.394H380.001V149.126Z" fill="black"/>
<path d="M9.26829 158.395H0V167.663H9.26829V158.395Z" fill="black"/>
<path d="M37.073 158.395H27.8047V167.663H37.073V158.395Z" fill="black"/>
<path d="M46.3406 158.395H37.0723V167.663H46.3406V158.395Z" fill="black"/>
<path d="M83.4148 158.395H74.1465V167.663H83.4148V158.395Z" fill="black"/>
<path d="M92.6824 158.395H83.4141V167.663H92.6824V158.395Z" fill="black"/>
<path d="M120.487 158.395H111.219V167.663H120.487V158.395Z" fill="black"/>
<path d="M129.757 158.395H120.488V167.663H129.757V158.395Z" fill="black"/>
<path d="M176.098 158.395H166.83V167.663H176.098V158.395Z" fill="black"/>
<path d="M194.634 158.395H185.365V167.663H194.634V158.395Z" fill="black"/>
<path d="M222.438 158.395H213.17V167.663H222.438V158.395Z" fill="black"/>
<path d="M240.975 158.395H231.707V167.663H240.975V158.395Z" fill="black"/>
<path d="M250.245 158.395H240.977V167.663H250.245V158.395Z" fill="black"/>
<path d="M268.78 158.395H259.512V167.663H268.78V158.395Z" fill="black"/>
<path d="M296.585 158.395H287.316V167.663H296.585V158.395Z" fill="black"/>
<path d="M305.854 158.395H296.586V167.663H305.854V158.395Z" fill="black"/>
<path d="M333.659 158.395H324.391V167.663H333.659V158.395Z" fill="black"/>
<path d="M370.731 158.395H361.463V167.663H370.731V158.395Z" fill="black"/>
<path d="M27.8054 167.663H18.5371V176.931H27.8054V167.663Z" fill="black"/>
<path d="M37.073 167.663H27.8047V176.931H37.073V167.663Z" fill="black"/>
<path d="M46.3406 167.663H37.0723V176.931H46.3406V167.663Z" fill="black"/>
<path d="M64.8777 167.663H55.6094V176.931H64.8777V167.663Z" fill="black"/>
<path d="M83.4148 167.663H74.1465V176.931H83.4148V167.663Z" fill="black"/>
<path d="M139.024 167.663H129.756V176.931H139.024V167.663Z" fill="black"/>
<path d="M148.292 167.663H139.023V176.931H148.292V167.663Z" fill="black"/>
<path d="M166.829 167.663H157.561V176.931H166.829V167.663Z" fill="black"/>
<path d="M185.366 167.663H176.098V176.931H185.366V167.663Z" fill="black"/>
<path d="M194.634 167.663H185.365V176.931H194.634V167.663Z" fill="black"/>
<path d="M213.171 167.663H203.902V176.931H213.171V167.663Z" fill="black"/>
<path d="M222.438 167.663H213.17V176.931H222.438V167.663Z" fill="black"/>
<path d="M231.708 167.663H222.439V176.931H231.708V167.663Z" fill="black"/>
<path d="M240.975 167.663H231.707V176.931H240.975V167.663Z" fill="black"/>
<path d="M250.245 167.663H240.977V176.931H250.245V167.663Z" fill="black"/>
<path d="M259.512 167.663H250.244V176.931H259.512V167.663Z" fill="black"/>
<path d="M278.05 167.663H268.781V176.931H278.05V167.663Z" fill="black"/>
<path d="M287.317 167.663H278.049V176.931H287.317V167.663Z" fill="black"/>
<path d="M305.854 167.663H296.586V176.931H305.854V167.663Z" fill="black"/>
<path d="M315.122 167.663H305.854V176.931H315.122V167.663Z" fill="black"/>
<path d="M324.389 167.663H315.121V176.931H324.389V167.663Z" fill="black"/>
<path d="M352.196 167.663H342.928V176.931H352.196V167.663Z" fill="black"/>
<path d="M370.731 167.663H361.463V176.931H370.731V167.663Z" fill="black"/>
<path d="M380.001 167.663H370.732V176.931H380.001V167.663Z" fill="black"/>
<path d="M18.5359 176.931H9.26758V186.199H18.5359V176.931Z" fill="black"/>
<path d="M37.073 176.931H27.8047V186.199H37.073V176.931Z" fill="black"/>
<path d="M55.6101 176.931H46.3418V186.199H55.6101V176.931Z" fill="black"/>
<path d="M74.1472 176.931H64.8789V186.199H74.1472V176.931Z" fill="black"/>
<path d="M92.6824 176.931H83.4141V186.199H92.6824V176.931Z" fill="black"/>
<path d="M120.487 176.931H111.219V186.199H120.487V176.931Z" fill="black"/>
<path d="M139.024 176.931H129.756V186.199H139.024V176.931Z" fill="black"/>
<path d="M148.292 176.931H139.023V186.199H148.292V176.931Z" fill="black"/>
<path d="M157.561 176.931H148.293V186.199H157.561V176.931Z" fill="black"/>
<path d="M166.829 176.931H157.561V186.199H166.829V176.931Z" fill="black"/>
<path d="M176.098 176.931H166.83V186.199H176.098V176.931Z" fill="black"/>
<path d="M185.366 176.931H176.098V186.199H185.366V176.931Z" fill="black"/>
<path d="M194.634 176.931H185.365V186.199H194.634V176.931Z" fill="black"/>
<path d="M203.903 176.931H194.635V186.199H203.903V176.931Z" fill="black"/>
<path d="M213.171 176.931H203.902V186.199H213.171V176.931Z" fill="black"/>
<path d="M222.438 176.931H213.17V186.199H222.438V176.931Z" fill="black"/>
<path d="M240.975 176.931H231.707V186.199H240.975V176.931Z" fill="black"/>
<path d="M250.245 176.931H240.977V186.199H250.245V176.931Z" fill="black"/>
<path d="M259.512 176.931H250.244V186.199H259.512V176.931Z" fill="black"/>
<path d="M287.317 176.931H278.049V186.199H287.317V176.931Z" fill="black"/>
<path d="M296.585 176.931H287.316V186.199H296.585V176.931Z" fill="black"/>
<path d="M324.389 176.931H315.121V186.199H324.389V176.931Z" fill="black"/>
<path d="M333.659 176.931H324.391V186.199H333.659V176.931Z" fill="black"/>
<path d="M352.196 176.931H342.928V186.199H352.196V176.931Z" fill="black"/>
<path d="M361.464 176.931H352.195V186.199H361.464V176.931Z" fill="black"/>
<path d="M380.001 176.931H370.732V186.199H380.001V176.931Z" fill="black"/>
<path d="M18.5359 186.199H9.26758V195.468H18.5359V186.199Z" fill="black"/>
<path d="M27.8054 186.199H18.5371V195.468H27.8054V186.199Z" fill="black"/>
<path d="M64.8777 186.199H55.6094V195.468H64.8777V186.199Z" fill="black"/>
<path d="M74.1472 186.199H64.8789V195.468H74.1472V186.199Z" fill="black"/>
<path d="M83.4148 186.199H74.1465V195.468H83.4148V186.199Z" fill="black"/>
<path d="M111.219 186.199H101.951V195.468H111.219V186.199Z" fill="black"/>
<path d="M120.487 186.199H111.219V195.468H120.487V186.199Z" fill="black"/>
<path d="M129.757 186.199H120.488V195.468H129.757V186.199Z" fill="black"/>
<path d="M139.024 186.199H129.756V195.468H139.024V186.199Z" fill="black"/>
<path d="M148.292 186.199H139.023V195.468H148.292V186.199Z" fill="black"/>
<path d="M185.366 186.199H176.098V195.468H185.366V186.199Z" fill="black"/>
<path d="M203.903 186.199H194.635V195.468H203.903V186.199Z" fill="black"/>
<path d="M250.245 186.199H240.977V195.468H250.245V186.199Z" fill="black"/>
<path d="M259.512 186.199H250.244V195.468H259.512V186.199Z" fill="black"/>
<path d="M278.05 186.199H268.781V195.468H278.05V186.199Z" fill="black"/>
<path d="M287.317 186.199H278.049V195.468H287.317V186.199Z" fill="black"/>
<path d="M296.585 186.199H287.316V195.468H296.585V186.199Z" fill="black"/>
<path d="M342.926 186.199H333.658V195.468H342.926V186.199Z" fill="black"/>
<path d="M380.001 186.199H370.732V195.468H380.001V186.199Z" fill="black"/>
<path d="M37.073 195.468H27.8047V204.736H37.073V195.468Z" fill="black"/>
<path d="M83.4148 195.468H74.1465V204.736H83.4148V195.468Z" fill="black"/>
<path d="M101.952 195.468H92.6836V204.736H101.952V195.468Z" fill="black"/>
<path d="M120.487 195.468H111.219V204.736H120.487V195.468Z" fill="black"/>
<path d="M148.292 195.468H139.023V204.736H148.292V195.468Z" fill="black"/>
<path d="M157.561 195.468H148.293V204.736H157.561V195.468Z" fill="black"/>
<path d="M166.829 195.468H157.561V204.736H166.829V195.468Z" fill="black"/>
<path d="M185.366 195.468H176.098V204.736H185.366V195.468Z" fill="black"/>
<path d="M203.903 195.468H194.635V204.736H203.903V195.468Z" fill="black"/>
<path d="M213.171 195.468H203.902V204.736H213.171V195.468Z" fill="black"/>
<path d="M259.512 195.468H250.244V204.736H259.512V195.468Z" fill="black"/>
<path d="M268.78 195.468H259.512V204.736H268.78V195.468Z" fill="black"/>
<path d="M287.317 195.468H278.049V204.736H287.317V195.468Z" fill="black"/>
<path d="M296.585 195.468H287.316V204.736H296.585V195.468Z" fill="black"/>
<path d="M305.854 195.468H296.586V204.736H305.854V195.468Z" fill="black"/>
<path d="M324.389 195.468H315.121V204.736H324.389V195.468Z" fill="black"/>
<path d="M333.659 195.468H324.391V204.736H333.659V195.468Z" fill="black"/>
<path d="M9.26829 204.736H0V214.004H9.26829V204.736Z" fill="black"/>
<path d="M27.8054 204.736H18.5371V214.004H27.8054V204.736Z" fill="black"/>
<path d="M64.8777 204.736H55.6094V214.004H64.8777V204.736Z" fill="black"/>
<path d="M83.4148 204.736H74.1465V214.004H83.4148V204.736Z" fill="black"/>
<path d="M92.6824 204.736H83.4141V214.004H92.6824V204.736Z" fill="black"/>
<path d="M111.219 204.736H101.951V214.004H111.219V204.736Z" fill="black"/>
<path d="M120.487 204.736H111.219V214.004H120.487V204.736Z" fill="black"/>
<path d="M129.757 204.736H120.488V214.004H129.757V204.736Z" fill="black"/>
<path d="M166.829 204.736H157.561V214.004H166.829V204.736Z" fill="black"/>
<path d="M176.098 204.736H166.83V214.004H176.098V204.736Z" fill="black"/>
<path d="M185.366 204.736H176.098V214.004H185.366V204.736Z" fill="black"/>
<path d="M231.708 204.736H222.439V214.004H231.708V204.736Z" fill="black"/>
<path d="M240.975 204.736H231.707V214.004H240.975V204.736Z" fill="black"/>
<path d="M268.78 204.736H259.512V214.004H268.78V204.736Z" fill="black"/>
<path d="M305.854 204.736H296.586V214.004H305.854V204.736Z" fill="black"/>
<path d="M324.389 204.736H315.121V214.004H324.389V204.736Z" fill="black"/>
<path d="M380.001 204.736H370.732V214.004H380.001V204.736Z" fill="black"/>
<path d="M9.26829 214.004H0V223.273H9.26829V214.004Z" fill="black"/>
<path d="M46.3406 214.004H37.0723V223.273H46.3406V214.004Z" fill="black"/>
<path d="M83.4148 214.004H74.1465V223.273H83.4148V214.004Z" fill="black"/>
<path d="M92.6824 214.004H83.4141V223.273H92.6824V214.004Z" fill="black"/>
<path d="M111.219 214.004H101.951V223.273H111.219V214.004Z" fill="black"/>
<path d="M129.757 214.004H120.488V223.273H129.757V214.004Z" fill="black"/>
<path d="M148.292 214.004H139.023V223.273H148.292V214.004Z" fill="black"/>
<path d="M157.561 214.004H148.293V223.273H157.561V214.004Z" fill="black"/>
<path d="M166.829 214.004H157.561V223.273H166.829V214.004Z" fill="black"/>
<path d="M176.098 214.004H166.83V223.273H176.098V214.004Z" fill="black"/>
<path d="M185.366 214.004H176.098V223.273H185.366V214.004Z" fill="black"/>
<path d="M194.634 214.004H185.365V223.273H194.634V214.004Z" fill="black"/>
<path d="M203.903 214.004H194.635V223.273H203.903V214.004Z" fill="black"/>
<path d="M222.438 214.004H213.17V223.273H222.438V214.004Z" fill="black"/>
<path d="M250.245 214.004H240.977V223.273H250.245V214.004Z" fill="black"/>
<path d="M259.512 214.004H250.244V223.273H259.512V214.004Z" fill="black"/>
<path d="M296.585 214.004H287.316V223.273H296.585V214.004Z" fill="black"/>
<path d="M305.854 214.004H296.586V223.273H305.854V214.004Z" fill="black"/>
<path d="M315.122 214.004H305.854V223.273H315.122V214.004Z" fill="black"/>
<path d="M324.389 214.004H315.121V223.273H324.389V214.004Z" fill="black"/>
<path d="M361.464 214.004H352.195V223.273H361.464V214.004Z" fill="black"/>
<path d="M380.001 214.004H370.732V223.273H380.001V214.004Z" fill="black"/>
<path d="M9.26829 223.272H0V232.541H9.26829V223.272Z" fill="black"/>
<path d="M18.5359 223.272H9.26758V232.541H18.5359V223.272Z" fill="black"/>
<path d="M27.8054 223.272H18.5371V232.541H27.8054V223.272Z" fill="black"/>
<path d="M55.6101 223.272H46.3418V232.541H55.6101V223.272Z" fill="black"/>
<path d="M64.8777 223.272H55.6094V232.541H64.8777V223.272Z" fill="black"/>
<path d="M74.1472 223.272H64.8789V232.541H74.1472V223.272Z" fill="black"/>
<path d="M83.4148 223.272H74.1465V232.541H83.4148V223.272Z" fill="black"/>
<path d="M92.6824 223.272H83.4141V232.541H92.6824V223.272Z" fill="black"/>
<path d="M120.487 223.272H111.219V232.541H120.487V223.272Z" fill="black"/>
<path d="M129.757 223.272H120.488V232.541H129.757V223.272Z" fill="black"/>
<path d="M185.366 223.272H176.098V232.541H185.366V223.272Z" fill="black"/>
<path d="M194.634 223.272H185.365V232.541H194.634V223.272Z" fill="black"/>
<path d="M203.903 223.272H194.635V232.541H203.903V223.272Z" fill="black"/>
<path d="M222.438 223.272H213.17V232.541H222.438V223.272Z" fill="black"/>
<path d="M231.708 223.272H222.439V232.541H231.708V223.272Z" fill="black"/>
<path d="M259.512 223.272H250.244V232.541H259.512V223.272Z" fill="black"/>
<path d="M268.78 223.272H259.512V232.541H268.78V223.272Z" fill="black"/>
<path d="M278.05 223.272H268.781V232.541H278.05V223.272Z" fill="black"/>
<path d="M287.317 223.272H278.049V232.541H287.317V223.272Z" fill="black"/>
<path d="M296.585 223.272H287.316V232.541H296.585V223.272Z" fill="black"/>
<path d="M305.854 223.272H296.586V232.541H305.854V223.272Z" fill="black"/>
<path d="M324.389 223.272H315.121V232.541H324.389V223.272Z" fill="black"/>
<path d="M333.659 223.272H324.391V232.541H333.659V223.272Z" fill="black"/>
<path d="M342.926 223.272H333.658V232.541H342.926V223.272Z" fill="black"/>
<path d="M352.196 223.272H342.928V232.541H352.196V223.272Z" fill="black"/>
<path d="M361.464 223.272H352.195V232.541H361.464V223.272Z" fill="black"/>
<path d="M370.731 223.272H361.463V232.541H370.731V223.272Z" fill="black"/>
<path d="M9.26829 232.541H0V241.809H9.26829V232.541Z" fill="black"/>
<path d="M18.5359 232.541H9.26758V241.809H18.5359V232.541Z" fill="black"/>
<path d="M27.8054 232.541H18.5371V241.809H27.8054V232.541Z" fill="black"/>
<path d="M55.6101 232.541H46.3418V241.809H55.6101V232.541Z" fill="black"/>
<path d="M74.1472 232.541H64.8789V241.809H74.1472V232.541Z" fill="black"/>
<path d="M83.4148 232.541H74.1465V241.809H83.4148V232.541Z" fill="black"/>
<path d="M101.952 232.541H92.6836V241.809H101.952V232.541Z" fill="black"/>
<path d="M111.219 232.541H101.951V241.809H111.219V232.541Z" fill="black"/>
<path d="M129.757 232.541H120.488V241.809H129.757V232.541Z" fill="black"/>
<path d="M139.024 232.541H129.756V241.809H139.024V232.541Z" fill="black"/>
<path d="M148.292 232.541H139.023V241.809H148.292V232.541Z" fill="black"/>
<path d="M157.561 232.541H148.293V241.809H157.561V232.541Z" fill="black"/>
<path d="M166.829 232.541H157.561V241.809H166.829V232.541Z" fill="black"/>
<path d="M194.634 232.541H185.365V241.809H194.634V232.541Z" fill="black"/>
<path d="M213.171 232.541H203.902V241.809H213.171V232.541Z" fill="black"/>
<path d="M231.708 232.541H222.439V241.809H231.708V232.541Z" fill="black"/>
<path d="M250.245 232.541H240.977V241.809H250.245V232.541Z" fill="black"/>
<path d="M287.317 232.541H278.049V241.809H287.317V232.541Z" fill="black"/>
<path d="M296.585 232.541H287.316V241.809H296.585V232.541Z" fill="black"/>
<path d="M333.659 232.541H324.391V241.809H333.659V232.541Z" fill="black"/>
<path d="M342.926 232.541H333.658V241.809H342.926V232.541Z" fill="black"/>
<path d="M352.196 232.541H342.928V241.809H352.196V232.541Z" fill="black"/>
<path d="M370.731 232.541H361.463V241.809H370.731V232.541Z" fill="black"/>
<path d="M380.001 232.541H370.732V241.809H380.001V232.541Z" fill="black"/>
<path d="M9.26829 241.809H0V251.077H9.26829V241.809Z" fill="black"/>
<path d="M27.8054 241.809H18.5371V251.077H27.8054V241.809Z" fill="black"/>
<path d="M37.073 241.809H27.8047V251.077H37.073V241.809Z" fill="black"/>
<path d="M55.6101 241.809H46.3418V251.077H55.6101V241.809Z" fill="black"/>
<path d="M64.8777 241.809H55.6094V251.077H64.8777V241.809Z" fill="black"/>
<path d="M83.4148 241.809H74.1465V251.077H83.4148V241.809Z" fill="black"/>
<path d="M92.6824 241.809H83.4141V251.077H92.6824V241.809Z" fill="black"/>
<path d="M101.952 241.809H92.6836V251.077H101.952V241.809Z" fill="black"/>
<path d="M111.219 241.809H101.951V251.077H111.219V241.809Z" fill="black"/>
<path d="M120.487 241.809H111.219V251.077H120.487V241.809Z" fill="black"/>
<path d="M148.292 241.809H139.023V251.077H148.292V241.809Z" fill="black"/>
<path d="M157.561 241.809H148.293V251.077H157.561V241.809Z" fill="black"/>
<path d="M176.098 241.809H166.83V251.077H176.098V241.809Z" fill="black"/>
<path d="M203.903 241.809H194.635V251.077H203.903V241.809Z" fill="black"/>
<path d="M213.171 241.809H203.902V251.077H213.171V241.809Z" fill="black"/>
<path d="M222.438 241.809H213.17V251.077H222.438V241.809Z" fill="black"/>
<path d="M240.975 241.809H231.707V251.077H240.975V241.809Z" fill="black"/>
<path d="M259.512 241.809H250.244V251.077H259.512V241.809Z" fill="black"/>
<path d="M315.122 241.809H305.854V251.077H315.122V241.809Z" fill="black"/>
<path d="M324.389 241.809H315.121V251.077H324.389V241.809Z" fill="black"/>
<path d="M333.659 241.809H324.391V251.077H333.659V241.809Z" fill="black"/>
<path d="M352.196 241.809H342.928V251.077H352.196V241.809Z" fill="black"/>
<path d="M380.001 241.809H370.732V251.077H380.001V241.809Z" fill="black"/>
<path d="M37.073 251.077H27.8047V260.345H37.073V251.077Z" fill="black"/>
<path d="M55.6101 251.077H46.3418V260.345H55.6101V251.077Z" fill="black"/>
<path d="M92.6824 251.077H83.4141V260.345H92.6824V251.077Z" fill="black"/>
<path d="M120.487 251.077H111.219V260.345H120.487V251.077Z" fill="black"/>
<path d="M166.829 251.077H157.561V260.345H166.829V251.077Z" fill="black"/>
<path d="M222.438 251.077H213.17V260.345H222.438V251.077Z" fill="black"/>
<path d="M240.975 251.077H231.707V260.345H240.975V251.077Z" fill="black"/>
<path d="M259.512 251.077H250.244V260.345H259.512V251.077Z" fill="black"/>
<path d="M268.78 251.077H259.512V260.345H268.78V251.077Z" fill="black"/>
<path d="M287.317 251.077H278.049V260.345H287.317V251.077Z" fill="black"/>
<path d="M296.585 251.077H287.316V260.345H296.585V251.077Z" fill="black"/>
<path d="M333.659 251.077H324.391V260.345H333.659V251.077Z" fill="black"/>
<path d="M361.464 251.077H352.195V260.345H361.464V251.077Z" fill="black"/>
<path d="M370.731 251.077H361.463V260.345H370.731V251.077Z" fill="black"/>
<path d="M380.001 251.077H370.732V260.345H380.001V251.077Z" fill="black"/>
<path d="M9.26829 260.346H0V269.614H9.26829V260.346Z" fill="black"/>
<path d="M27.8054 260.346H18.5371V269.614H27.8054V260.346Z" fill="black"/>
<path d="M37.073 260.346H27.8047V269.614H37.073V260.346Z" fill="black"/>
<path d="M64.8777 260.346H55.6094V269.614H64.8777V260.346Z" fill="black"/>
<path d="M74.1472 260.346H64.8789V269.614H74.1472V260.346Z" fill="black"/>
<path d="M83.4148 260.346H74.1465V269.614H83.4148V260.346Z" fill="black"/>
<path d="M111.219 260.346H101.951V269.614H111.219V260.346Z" fill="black"/>
<path d="M120.487 260.346H111.219V269.614H120.487V260.346Z" fill="black"/>
<path d="M129.757 260.346H120.488V269.614H129.757V260.346Z" fill="black"/>
<path d="M148.292 260.346H139.023V269.614H148.292V260.346Z" fill="black"/>
<path d="M157.561 260.346H148.293V269.614H157.561V260.346Z" fill="black"/>
<path d="M185.366 260.346H176.098V269.614H185.366V260.346Z" fill="black"/>
<path d="M194.634 260.346H185.365V269.614H194.634V260.346Z" fill="black"/>
<path d="M203.903 260.346H194.635V269.614H203.903V260.346Z" fill="black"/>
<path d="M231.708 260.346H222.439V269.614H231.708V260.346Z" fill="black"/>
<path d="M250.245 260.346H240.977V269.614H250.245V260.346Z" fill="black"/>
<path d="M259.512 260.346H250.244V269.614H259.512V260.346Z" fill="black"/>
<path d="M287.317 260.346H278.049V269.614H287.317V260.346Z" fill="black"/>
<path d="M296.585 260.346H287.316V269.614H296.585V260.346Z" fill="black"/>
<path d="M305.854 260.346H296.586V269.614H305.854V260.346Z" fill="black"/>
<path d="M315.122 260.346H305.854V269.614H315.122V260.346Z" fill="black"/>
<path d="M324.389 260.346H315.121V269.614H324.389V260.346Z" fill="black"/>
<path d="M333.659 260.346H324.391V269.614H333.659V260.346Z" fill="black"/>
<path d="M342.926 260.346H333.658V269.614H342.926V260.346Z" fill="black"/>
<path d="M352.196 260.346H342.928V269.614H352.196V260.346Z" fill="black"/>
<path d="M361.464 260.346H352.195V269.614H361.464V260.346Z" fill="black"/>
<path d="M370.731 260.346H361.463V269.614H370.731V260.346Z" fill="black"/>
<path d="M380.001 260.346H370.732V269.614H380.001V260.346Z" fill="black"/>
<path d="M37.073 269.614H27.8047V278.883H37.073V269.614Z" fill="black"/>
<path d="M46.3406 269.614H37.0723V278.883H46.3406V269.614Z" fill="black"/>
<path d="M55.6101 269.614H46.3418V278.883H55.6101V269.614Z" fill="black"/>
<path d="M74.1472 269.614H64.8789V278.883H74.1472V269.614Z" fill="black"/>
<path d="M83.4148 269.614H74.1465V278.883H83.4148V269.614Z" fill="black"/>
<path d="M120.487 269.614H111.219V278.883H120.487V269.614Z" fill="black"/>
<path d="M139.024 269.614H129.756V278.883H139.024V269.614Z" fill="black"/>
<path d="M148.292 269.614H139.023V278.883H148.292V269.614Z" fill="black"/>
<path d="M176.098 269.614H166.83V278.883H176.098V269.614Z" fill="black"/>
<path d="M194.634 269.614H185.365V278.883H194.634V269.614Z" fill="black"/>
<path d="M240.975 269.614H231.707V278.883H240.975V269.614Z" fill="black"/>
<path d="M305.854 269.614H296.586V278.883H305.854V269.614Z" fill="black"/>
<path d="M333.659 269.614H324.391V278.883H333.659V269.614Z" fill="black"/>
<path d="M342.926 269.614H333.658V278.883H342.926V269.614Z" fill="black"/>
<path d="M352.196 269.614H342.928V278.883H352.196V269.614Z" fill="black"/>
<path d="M9.26829 278.882H0V288.151H9.26829V278.882Z" fill="black"/>
<path d="M18.5359 278.882H9.26758V288.151H18.5359V278.882Z" fill="black"/>
<path d="M27.8054 278.882H18.5371V288.151H27.8054V278.882Z" fill="black"/>
<path d="M37.073 278.882H27.8047V288.151H37.073V278.882Z" fill="black"/>
<path d="M46.3406 278.882H37.0723V288.151H46.3406V278.882Z" fill="black"/>
<path d="M64.8777 278.882H55.6094V288.151H64.8777V278.882Z" fill="black"/>
<path d="M92.6824 278.882H83.4141V288.151H92.6824V278.882Z" fill="black"/>
<path d="M101.952 278.882H92.6836V288.151H101.952V278.882Z" fill="black"/>
<path d="M129.757 278.882H120.488V288.151H129.757V278.882Z" fill="black"/>
<path d="M166.829 278.882H157.561V288.151H166.829V278.882Z" fill="black"/>
<path d="M176.098 278.882H166.83V288.151H176.098V278.882Z" fill="black"/>
<path d="M185.366 278.882H176.098V288.151H185.366V278.882Z" fill="black"/>
<path d="M194.634 278.882H185.365V288.151H194.634V278.882Z" fill="black"/>
<path d="M213.171 278.882H203.902V288.151H213.171V278.882Z" fill="black"/>
<path d="M231.708 278.882H222.439V288.151H231.708V278.882Z" fill="black"/>
<path d="M259.512 278.882H250.244V288.151H259.512V278.882Z" fill="black"/>
<path d="M287.317 278.882H278.049V288.151H287.317V278.882Z" fill="black"/>
<path d="M305.854 278.882H296.586V288.151H305.854V278.882Z" fill="black"/>
<path d="M324.389 278.882H315.121V288.151H324.389V278.882Z" fill="black"/>
<path d="M333.659 278.882H324.391V288.151H333.659V278.882Z" fill="black"/>
<path d="M370.731 278.882H361.463V288.151H370.731V278.882Z" fill="black"/>
<path d="M380.001 278.882H370.732V288.151H380.001V278.882Z" fill="black"/>
<path d="M27.8054 288.15H18.5371V297.419H27.8054V288.15Z" fill="black"/>
<path d="M74.1472 288.15H64.8789V297.419H74.1472V288.15Z" fill="black"/>
<path d="M101.952 288.15H92.6836V297.419H101.952V288.15Z" fill="black"/>
<path d="M111.219 288.15H101.951V297.419H111.219V288.15Z" fill="black"/>
<path d="M120.487 288.15H111.219V297.419H120.487V288.15Z" fill="black"/>
<path d="M129.757 288.15H120.488V297.419H129.757V288.15Z" fill="black"/>
<path d="M139.024 288.15H129.756V297.419H139.024V288.15Z" fill="black"/>
<path d="M157.561 288.15H148.293V297.419H157.561V288.15Z" fill="black"/>
<path d="M194.634 288.15H185.365V297.419H194.634V288.15Z" fill="black"/>
<path d="M213.171 288.15H203.902V297.419H213.171V288.15Z" fill="black"/>
<path d="M240.975 288.15H231.707V297.419H240.975V288.15Z" fill="black"/>
<path d="M250.245 288.15H240.977V297.419H250.245V288.15Z" fill="black"/>
<path d="M287.317 288.15H278.049V297.419H287.317V288.15Z" fill="black"/>
<path d="M296.585 288.15H287.316V297.419H296.585V288.15Z" fill="black"/>
<path d="M305.854 288.15H296.586V297.419H305.854V288.15Z" fill="black"/>
<path d="M315.122 288.15H305.854V297.419H315.122V288.15Z" fill="black"/>
<path d="M324.389 288.15H315.121V297.419H324.389V288.15Z" fill="black"/>
<path d="M333.659 288.15H324.391V297.419H333.659V288.15Z" fill="black"/>
<path d="M370.731 288.15H361.463V297.419H370.731V288.15Z" fill="black"/>
<path d="M380.001 288.15H370.732V297.419H380.001V288.15Z" fill="black"/>
<path d="M9.26829 297.419H0V306.687H9.26829V297.419Z" fill="black"/>
<path d="M18.5359 297.419H9.26758V306.687H18.5359V297.419Z" fill="black"/>
<path d="M27.8054 297.419H18.5371V306.687H27.8054V297.419Z" fill="black"/>
<path d="M37.073 297.419H27.8047V306.687H37.073V297.419Z" fill="black"/>
<path d="M46.3406 297.419H37.0723V306.687H46.3406V297.419Z" fill="black"/>
<path d="M55.6101 297.419H46.3418V306.687H55.6101V297.419Z" fill="black"/>
<path d="M64.8777 297.419H55.6094V306.687H64.8777V297.419Z" fill="black"/>
<path d="M74.1472 297.419H64.8789V306.687H74.1472V297.419Z" fill="black"/>
<path d="M101.952 297.419H92.6836V306.687H101.952V297.419Z" fill="black"/>
<path d="M111.219 297.419H101.951V306.687H111.219V297.419Z" fill="black"/>
<path d="M157.561 297.419H148.293V306.687H157.561V297.419Z" fill="black"/>
<path d="M166.829 297.419H157.561V306.687H166.829V297.419Z" fill="black"/>
<path d="M176.098 297.419H166.83V306.687H176.098V297.419Z" fill="black"/>
<path d="M194.634 297.419H185.365V306.687H194.634V297.419Z" fill="black"/>
<path d="M203.903 297.419H194.635V306.687H203.903V297.419Z" fill="black"/>
<path d="M231.708 297.419H222.439V306.687H231.708V297.419Z" fill="black"/>
<path d="M240.975 297.419H231.707V306.687H240.975V297.419Z" fill="black"/>
<path d="M259.512 297.419H250.244V306.687H259.512V297.419Z" fill="black"/>
<path d="M268.78 297.419H259.512V306.687H268.78V297.419Z" fill="black"/>
<path d="M305.854 297.419H296.586V306.687H305.854V297.419Z" fill="black"/>
<path d="M315.122 297.419H305.854V306.687H315.122V297.419Z" fill="black"/>
<path d="M324.389 297.419H315.121V306.687H324.389V297.419Z" fill="black"/>
<path d="M333.659 297.419H324.391V306.687H333.659V297.419Z" fill="black"/>
<path d="M342.926 297.419H333.658V306.687H342.926V297.419Z" fill="black"/>
<path d="M352.196 297.419H342.928V306.687H352.196V297.419Z" fill="black"/>
<path d="M361.464 297.419H352.195V306.687H361.464V297.419Z" fill="black"/>
<path d="M380.001 297.419H370.732V306.687H380.001V297.419Z" fill="black"/>
<path d="M83.4148 306.687H74.1465V315.955H83.4148V306.687Z" fill="black"/>
<path d="M111.219 306.687H101.951V315.955H111.219V306.687Z" fill="black"/>
<path d="M120.487 306.687H111.219V315.955H120.487V306.687Z" fill="black"/>
<path d="M129.757 306.687H120.488V315.955H129.757V306.687Z" fill="black"/>
<path d="M139.024 306.687H129.756V315.955H139.024V306.687Z" fill="black"/>
<path d="M148.292 306.687H139.023V315.955H148.292V306.687Z" fill="black"/>
<path d="M157.561 306.687H148.293V315.955H157.561V306.687Z" fill="black"/>
<path d="M176.098 306.687H166.83V315.955H176.098V306.687Z" fill="black"/>
<path d="M194.634 306.687H185.365V315.955H194.634V306.687Z" fill="black"/>
<path d="M213.171 306.687H203.902V315.955H213.171V306.687Z" fill="black"/>
<path d="M231.708 306.687H222.439V315.955H231.708V306.687Z" fill="black"/>
<path d="M240.975 306.687H231.707V315.955H240.975V306.687Z" fill="black"/>
<path d="M250.245 306.687H240.977V315.955H250.245V306.687Z" fill="black"/>
<path d="M268.78 306.687H259.512V315.955H268.78V306.687Z" fill="black"/>
<path d="M278.05 306.687H268.781V315.955H278.05V306.687Z" fill="black"/>
<path d="M296.585 306.687H287.316V315.955H296.585V306.687Z" fill="black"/>
<path d="M305.854 306.687H296.586V315.955H305.854V306.687Z" fill="black"/>
<path d="M342.926 306.687H333.658V315.955H342.926V306.687Z" fill="black"/>
<path d="M352.196 306.687H342.928V315.955H352.196V306.687Z" fill="black"/>
<path d="M380.001 306.687H370.732V315.955H380.001V306.687Z" fill="black"/>
<path d="M9.26829 315.956H0V325.224H9.26829V315.956Z" fill="black"/>
<path d="M18.5359 315.956H9.26758V325.224H18.5359V315.956Z" fill="black"/>
<path d="M27.8054 315.956H18.5371V325.224H27.8054V315.956Z" fill="black"/>
<path d="M37.073 315.956H27.8047V325.224H37.073V315.956Z" fill="black"/>
<path d="M46.3406 315.956H37.0723V325.224H46.3406V315.956Z" fill="black"/>
<path d="M55.6101 315.956H46.3418V325.224H55.6101V315.956Z" fill="black"/>
<path d="M64.8777 315.956H55.6094V325.224H64.8777V315.956Z" fill="black"/>
<path d="M83.4148 315.956H74.1465V325.224H83.4148V315.956Z" fill="black"/>
<path d="M92.6824 315.956H83.4141V325.224H92.6824V315.956Z" fill="black"/>
<path d="M111.219 315.956H101.951V325.224H111.219V315.956Z" fill="black"/>
<path d="M139.024 315.956H129.756V325.224H139.024V315.956Z" fill="black"/>
<path d="M148.292 315.956H139.023V325.224H148.292V315.956Z" fill="black"/>
<path d="M166.829 315.956H157.561V325.224H166.829V315.956Z" fill="black"/>
<path d="M185.366 315.956H176.098V325.224H185.366V315.956Z" fill="black"/>
<path d="M203.903 315.956H194.635V325.224H203.903V315.956Z" fill="black"/>
<path d="M259.512 315.956H250.244V325.224H259.512V315.956Z" fill="black"/>
<path d="M296.585 315.956H287.316V325.224H296.585V315.956Z" fill="black"/>
<path d="M305.854 315.956H296.586V325.224H305.854V315.956Z" fill="black"/>
<path d="M324.389 315.956H315.121V325.224H324.389V315.956Z" fill="black"/>
<path d="M342.926 315.956H333.658V325.224H342.926V315.956Z" fill="black"/>
<path d="M352.196 315.956H342.928V325.224H352.196V315.956Z" fill="black"/>
<path d="M9.26829 325.224H0V334.492H9.26829V325.224Z" fill="black"/>
<path d="M64.8777 325.224H55.6094V334.492H64.8777V325.224Z" fill="black"/>
<path d="M83.4148 325.224H74.1465V334.492H83.4148V325.224Z" fill="black"/>
<path d="M92.6824 325.224H83.4141V334.492H92.6824V325.224Z" fill="black"/>
<path d="M129.757 325.224H120.488V334.492H129.757V325.224Z" fill="black"/>
<path d="M139.024 325.224H129.756V334.492H139.024V325.224Z" fill="black"/>
<path d="M176.098 325.224H166.83V334.492H176.098V325.224Z" fill="black"/>
<path d="M185.366 325.224H176.098V334.492H185.366V325.224Z" fill="black"/>
<path d="M194.634 325.224H185.365V334.492H194.634V325.224Z" fill="black"/>
<path d="M231.708 325.224H222.439V334.492H231.708V325.224Z" fill="black"/>
<path d="M240.975 325.224H231.707V334.492H240.975V325.224Z" fill="black"/>
<path d="M250.245 325.224H240.977V334.492H250.245V325.224Z" fill="black"/>
<path d="M259.512 325.224H250.244V334.492H259.512V325.224Z" fill="black"/>
<path d="M278.05 325.224H268.781V334.492H278.05V325.224Z" fill="black"/>
<path d="M296.585 325.224H287.316V334.492H296.585V325.224Z" fill="black"/>
<path d="M305.854 325.224H296.586V334.492H305.854V325.224Z" fill="black"/>
<path d="M342.926 325.224H333.658V334.492H342.926V325.224Z" fill="black"/>
<path d="M352.196 325.224H342.928V334.492H352.196V325.224Z" fill="black"/>
<path d="M380.001 325.224H370.732V334.492H380.001V325.224Z" fill="black"/>
<path d="M9.26829 334.492H0V343.76H9.26829V334.492Z" fill="black"/>
<path d="M27.8054 334.492H18.5371V343.76H27.8054V334.492Z" fill="black"/>
<path d="M37.073 334.492H27.8047V343.76H37.073V334.492Z" fill="black"/>
<path d="M46.3406 334.492H37.0723V343.76H46.3406V334.492Z" fill="black"/>
<path d="M64.8777 334.492H55.6094V343.76H64.8777V334.492Z" fill="black"/>
<path d="M101.952 334.492H92.6836V343.76H101.952V334.492Z" fill="black"/>
<path d="M139.024 334.492H129.756V343.76H139.024V334.492Z" fill="black"/>
<path d="M148.292 334.492H139.023V343.76H148.292V334.492Z" fill="black"/>
<path d="M157.561 334.492H148.293V343.76H157.561V334.492Z" fill="black"/>
<path d="M176.098 334.492H166.83V343.76H176.098V334.492Z" fill="black"/>
<path d="M185.366 334.492H176.098V343.76H185.366V334.492Z" fill="black"/>
<path d="M194.634 334.492H185.365V343.76H194.634V334.492Z" fill="black"/>
<path d="M222.438 334.492H213.17V343.76H222.438V334.492Z" fill="black"/>
<path d="M240.975 334.492H231.707V343.76H240.975V334.492Z" fill="black"/>
<path d="M259.512 334.492H250.244V343.76H259.512V334.492Z" fill="black"/>
<path d="M278.05 334.492H268.781V343.76H278.05V334.492Z" fill="black"/>
<path d="M296.585 334.492H287.316V343.76H296.585V334.492Z" fill="black"/>
<path d="M305.854 334.492H296.586V343.76H305.854V334.492Z" fill="black"/>
<path d="M315.122 334.492H305.854V343.76H315.122V334.492Z" fill="black"/>
<path d="M324.389 334.492H315.121V343.76H324.389V334.492Z" fill="black"/>
<path d="M333.659 334.492H324.391V343.76H333.659V334.492Z" fill="black"/>
<path d="M342.926 334.492H333.658V343.76H342.926V334.492Z" fill="black"/>
<path d="M352.196 334.492H342.928V343.76H352.196V334.492Z" fill="black"/>
<path d="M370.731 334.492H361.463V343.76H370.731V334.492Z" fill="black"/>
<path d="M380.001 334.492H370.732V343.76H380.001V334.492Z" fill="black"/>
<path d="M9.26829 343.76H0V353.029H9.26829V343.76Z" fill="black"/>
<path d="M27.8054 343.76H18.5371V353.029H27.8054V343.76Z" fill="black"/>
<path d="M37.073 343.76H27.8047V353.029H37.073V343.76Z" fill="black"/>
<path d="M46.3406 343.76H37.0723V353.029H46.3406V343.76Z" fill="black"/>
<path d="M64.8777 343.76H55.6094V353.029H64.8777V343.76Z" fill="black"/>
<path d="M92.6824 343.76H83.4141V353.029H92.6824V343.76Z" fill="black"/>
<path d="M120.487 343.76H111.219V353.029H120.487V343.76Z" fill="black"/>
<path d="M139.024 343.76H129.756V353.029H139.024V343.76Z" fill="black"/>
<path d="M166.829 343.76H157.561V353.029H166.829V343.76Z" fill="black"/>
<path d="M185.366 343.76H176.098V353.029H185.366V343.76Z" fill="black"/>
<path d="M194.634 343.76H185.365V353.029H194.634V343.76Z" fill="black"/>
<path d="M213.171 343.76H203.902V353.029H213.171V343.76Z" fill="black"/>
<path d="M222.438 343.76H213.17V353.029H222.438V343.76Z" fill="black"/>
<path d="M231.708 343.76H222.439V353.029H231.708V343.76Z" fill="black"/>
<path d="M268.78 343.76H259.512V353.029H268.78V343.76Z" fill="black"/>
<path d="M305.854 343.76H296.586V353.029H305.854V343.76Z" fill="black"/>
<path d="M370.731 343.76H361.463V353.029H370.731V343.76Z" fill="black"/>
<path d="M9.26829 353.029H0V362.297H9.26829V353.029Z" fill="black"/>
<path d="M27.8054 353.029H18.5371V362.297H27.8054V353.029Z" fill="black"/>
<path d="M37.073 353.029H27.8047V362.297H37.073V353.029Z" fill="black"/>
<path d="M46.3406 353.029H37.0723V362.297H46.3406V353.029Z" fill="black"/>
<path d="M64.8777 353.029H55.6094V362.297H64.8777V353.029Z" fill="black"/>
<path d="M83.4148 353.029H74.1465V362.297H83.4148V353.029Z" fill="black"/>
<path d="M92.6824 353.029H83.4141V362.297H92.6824V353.029Z" fill="black"/>
<path d="M101.952 353.029H92.6836V362.297H101.952V353.029Z" fill="black"/>
<path d="M111.219 353.029H101.951V362.297H111.219V353.029Z" fill="black"/>
<path d="M148.292 353.029H139.023V362.297H148.292V353.029Z" fill="black"/>
<path d="M157.561 353.029H148.293V362.297H157.561V353.029Z" fill="black"/>
<path d="M166.829 353.029H157.561V362.297H166.829V353.029Z" fill="black"/>
<path d="M213.171 353.029H203.902V362.297H213.171V353.029Z" fill="black"/>
<path d="M222.438 353.029H213.17V362.297H222.438V353.029Z" fill="black"/>
<path d="M231.708 353.029H222.439V362.297H231.708V353.029Z" fill="black"/>
<path d="M240.975 353.029H231.707V362.297H240.975V353.029Z" fill="black"/>
<path d="M250.245 353.029H240.977V362.297H250.245V353.029Z" fill="black"/>
<path d="M259.512 353.029H250.244V362.297H259.512V353.029Z" fill="black"/>
<path d="M305.854 353.029H296.586V362.297H305.854V353.029Z" fill="black"/>
<path d="M342.926 353.029H333.658V362.297H342.926V353.029Z" fill="black"/>
<path d="M370.731 353.029H361.463V362.297H370.731V353.029Z" fill="black"/>
<path d="M380.001 353.029H370.732V362.297H380.001V353.029Z" fill="black"/>
<path d="M9.26829 362.297H0V371.565H9.26829V362.297Z" fill="black"/>
<path d="M64.8777 362.297H55.6094V371.565H64.8777V362.297Z" fill="black"/>
<path d="M92.6824 362.297H83.4141V371.565H92.6824V362.297Z" fill="black"/>
<path d="M101.952 362.297H92.6836V371.565H101.952V362.297Z" fill="black"/>
<path d="M129.757 362.297H120.488V371.565H129.757V362.297Z" fill="black"/>
<path d="M139.024 362.297H129.756V371.565H139.024V362.297Z" fill="black"/>
<path d="M148.292 362.297H139.023V371.565H148.292V362.297Z" fill="black"/>
<path d="M176.098 362.297H166.83V371.565H176.098V362.297Z" fill="black"/>
<path d="M194.634 362.297H185.365V371.565H194.634V362.297Z" fill="black"/>
<path d="M213.171 362.297H203.902V371.565H213.171V362.297Z" fill="black"/>
<path d="M222.438 362.297H213.17V371.565H222.438V362.297Z" fill="black"/>
<path d="M231.708 362.297H222.439V371.565H231.708V362.297Z" fill="black"/>
<path d="M240.975 362.297H231.707V371.565H240.975V362.297Z" fill="black"/>
<path d="M250.245 362.297H240.977V371.565H250.245V362.297Z" fill="black"/>
<path d="M259.512 362.297H250.244V371.565H259.512V362.297Z" fill="black"/>
<path d="M268.78 362.297H259.512V371.565H268.78V362.297Z" fill="black"/>
<path d="M287.317 362.297H278.049V371.565H287.317V362.297Z" fill="black"/>
<path d="M296.585 362.297H287.316V371.565H296.585V362.297Z" fill="black"/>
<path d="M305.854 362.297H296.586V371.565H305.854V362.297Z" fill="black"/>
<path d="M315.122 362.297H305.854V371.565H315.122V362.297Z" fill="black"/>
<path d="M333.659 362.297H324.391V371.565H333.659V362.297Z" fill="black"/>
<path d="M342.926 362.297H333.658V371.565H342.926V362.297Z" fill="black"/>
<path d="M361.464 362.297H352.195V371.565H361.464V362.297Z" fill="black"/>
<path d="M370.731 362.297H361.463V371.565H370.731V362.297Z" fill="black"/>
<path d="M380.001 362.297H370.732V371.565H380.001V362.297Z" fill="black"/>
<path d="M9.26829 371.565H0V380.834H9.26829V371.565Z" fill="black"/>
<path d="M18.5359 371.565H9.26758V380.834H18.5359V371.565Z" fill="black"/>
<path d="M27.8054 371.565H18.5371V380.834H27.8054V371.565Z" fill="black"/>
<path d="M37.073 371.565H27.8047V380.834H37.073V371.565Z" fill="black"/>
<path d="M46.3406 371.565H37.0723V380.834H46.3406V371.565Z" fill="black"/>
<path d="M55.6101 371.565H46.3418V380.834H55.6101V371.565Z" fill="black"/>
<path d="M64.8777 371.565H55.6094V380.834H64.8777V371.565Z" fill="black"/>
<path d="M92.6824 371.565H83.4141V380.834H92.6824V371.565Z" fill="black"/>
<path d="M101.952 371.565H92.6836V380.834H101.952V371.565Z" fill="black"/>
<path d="M111.219 371.565H101.951V380.834H111.219V371.565Z" fill="black"/>
<path d="M157.561 371.565H148.293V380.834H157.561V371.565Z" fill="black"/>
<path d="M166.829 371.565H157.561V380.834H166.829V371.565Z" fill="black"/>
<path d="M185.366 371.565H176.098V380.834H185.366V371.565Z" fill="black"/>
<path d="M203.903 371.565H194.635V380.834H203.903V371.565Z" fill="black"/>
<path d="M213.171 371.565H203.902V380.834H213.171V371.565Z" fill="black"/>
<path d="M222.438 371.565H213.17V380.834H222.438V371.565Z" fill="black"/>
<path d="M240.975 371.565H231.707V380.834H240.975V371.565Z" fill="black"/>
<path d="M259.512 371.565H250.244V380.834H259.512V371.565Z" fill="black"/>
<path d="M268.78 371.565H259.512V380.834H268.78V371.565Z" fill="black"/>
<path d="M278.05 371.565H268.781V380.834H278.05V371.565Z" fill="black"/>
<path d="M287.317 371.565H278.049V380.834H287.317V371.565Z" fill="black"/>
<path d="M296.585 371.565H287.316V380.834H296.585V371.565Z" fill="black"/>
<path d="M305.854 371.565H296.586V380.834H305.854V371.565Z" fill="black"/>
<path d="M315.122 371.565H305.854V380.834H315.122V371.565Z" fill="black"/>
<path d="M342.926 371.565H333.658V380.834H342.926V371.565Z" fill="black"/>
<path d="M352.196 371.565H342.928V380.834H352.196V371.565Z" fill="black"/>
<path d="M361.464 371.565H352.195V380.834H361.464V371.565Z" fill="black"/>
<path d="M380.001 371.565H370.732V380.834H380.001V371.565Z" fill="black"/>
</g>
<defs>
<clipPath id="clip0_2529_12238">
<rect width="380" height="380" fill="white" transform="translate(0 0.833496)"/>
</clipPath>
</defs>
</svg>
