<svg width="200" height="46" viewBox="0 0 200 46" fill="none" xmlns="http://www.w3.org/2000/svg">
<path d="M30.4489 24.378C30.4956 20.8082 32.3245 17.5104 35.2966 15.6396C33.4116 12.8858 30.3696 11.2011 27.085 11.0961C23.6277 10.7239 20.2824 13.2103 18.5188 13.2103C16.7225 13.2103 14.0117 11.1295 11.0956 11.1916C7.25577 11.3204 3.76117 13.5015 1.89023 16.9329C-2.0896 23.9819 0.877775 34.3383 4.68965 40.0367C6.59791 42.8286 8.82811 45.9403 11.7442 45.8305C14.5996 45.7112 15.6633 43.9692 19.1113 43.9692C22.5219 43.9692 23.525 45.8305 26.5017 45.7589C29.5624 45.7112 31.494 42.9575 33.3323 40.1417C34.704 38.1515 35.7585 35.9562 36.4583 33.632C32.8191 32.0618 30.4536 28.4156 30.4489 24.378ZM24.8314 7.34969C26.5018 5.2975 27.3229 2.66307 27.1269 0C24.5748 0.272034 22.2186 1.52244 20.525 3.49349C18.8547 5.44068 18.0055 7.98443 18.1735 10.5664C20.7536 10.595 23.2078 9.40664 24.8314 7.34969Z" fill="#1A1F25"/>
<path d="M66.6691 32.0868H57.2782L55.0182 38.8H51.041L59.9359 13.9519H64.0676L72.9672 38.8H68.9198L66.6691 32.0868ZM58.2468 28.9872H65.6912L62.0181 18.0894H61.9152C61.9199 18.0894 58.2468 28.9872 58.2468 28.9872ZM92.1841 29.7421C92.1841 35.3703 89.1942 38.9887 84.6836 38.9887C82.3534 39.1114 80.1589 37.8801 79.0312 35.8185H78.947V44.7915H75.2599V20.6841H78.83V23.6987H78.8955C80.07 21.6512 82.2691 20.4199 84.618 20.4954C89.1801 20.5001 92.1841 24.1327 92.1841 29.7421ZM88.3941 29.7421C88.3941 26.0764 86.5131 23.6657 83.6448 23.6657C80.828 23.6657 78.933 26.1283 78.933 29.7468C78.933 33.3983 80.828 35.842 83.6448 35.842C86.5131 35.842 88.3941 33.4455 88.3941 29.7421ZM111.958 29.7421C111.958 35.3703 108.968 38.9887 104.457 38.9887C102.127 39.1114 99.9327 37.8801 98.805 35.8185H98.7208V44.7915H95.0337V20.6841H98.6038V23.6987H98.6693C99.8484 21.6512 102.043 20.4199 104.392 20.4954C108.954 20.5001 111.958 24.1327 111.958 29.7421ZM108.168 29.7421C108.168 26.0764 106.287 23.6657 103.419 23.6657C100.602 23.6657 98.7067 26.1283 98.7067 29.7468C98.7067 33.3983 100.602 35.842 103.419 35.842C106.287 35.842 108.168 33.4455 108.168 29.7421ZM125.027 31.8792C125.303 34.3418 127.675 35.96 130.917 35.96C134.024 35.96 136.261 34.3418 136.261 32.1198C136.261 30.1902 134.913 29.0391 131.718 28.2466L128.522 27.4729C123.997 26.3689 121.896 24.2365 121.896 20.7737C121.896 16.4853 125.602 13.5415 130.861 13.5415C136.069 13.5415 139.639 16.4853 139.761 20.7737H136.036C135.812 18.2922 133.781 16.7967 130.81 16.7967C127.839 16.7967 125.808 18.3111 125.808 20.5143C125.808 22.274 127.109 23.3024 130.286 24.095L133 24.7696C138.058 25.9726 140.154 28.0248 140.154 31.6574C140.154 36.3044 136.481 39.2199 130.641 39.2199C125.176 39.2199 121.484 36.3751 121.246 31.8839C121.251 31.8792 125.027 31.8792 125.027 31.8792ZM148.122 16.4004V20.6888H151.538V23.6327H148.122V33.62C148.122 35.1721 148.806 35.8939 150.308 35.8939C150.715 35.8845 151.117 35.8562 151.519 35.809V38.734C150.841 38.8614 150.158 38.918 149.47 38.9085C145.834 38.9085 144.412 37.531 144.412 34.021V23.6374H141.796V20.6935H144.412V16.4004H148.122ZM153.513 29.7421C153.513 24.0431 156.844 20.4624 162.033 20.4624C167.241 20.4624 170.559 24.0431 170.559 29.7421C170.559 35.4599 167.26 39.0218 162.033 39.0218C156.811 39.0265 153.513 35.4599 153.513 29.7421ZM166.801 29.7421C166.801 25.8311 165.023 23.5241 162.033 23.5241C159.048 23.5241 157.27 25.85 157.27 29.7421C157.27 33.6672 159.048 35.9553 162.033 35.9553C165.023 35.96 166.801 33.6719 166.801 29.7421ZM173.6 20.6841H177.119V23.7647H177.203C177.694 21.7786 179.496 20.4152 181.522 20.4907C181.947 20.4907 182.373 20.5378 182.785 20.6275V24.1044C182.247 23.9393 181.69 23.8638 181.129 23.878C180.043 23.8355 178.995 24.2695 178.256 25.0715C177.516 25.8736 177.161 26.9586 177.287 28.0484V38.7906H173.595V20.6841H173.6ZM199.793 33.4785C199.297 36.7667 196.12 39.0218 192.059 39.0218C186.832 39.0218 183.59 35.4929 183.59 29.827C183.59 24.1469 186.851 20.4576 191.905 20.4576C196.874 20.4576 199.999 23.9016 199.999 29.393V30.6667H187.31V30.8932C187.193 32.2424 187.651 33.5776 188.578 34.5588C189.504 35.5401 190.8 36.0732 192.143 36.026C193.935 36.1959 195.62 35.158 196.294 33.4785H199.793ZM187.324 28.072H196.308C196.373 26.8596 195.938 25.6754 195.1 24.8026C194.263 23.9299 193.102 23.4487 191.9 23.4723C190.688 23.4628 189.523 23.944 188.662 24.8121C187.806 25.6754 187.319 26.8501 187.324 28.072Z" fill="#1A1F25"/>
</svg>
