<svg width="70" height="70" viewBox="0 0 70 70" fill="none" xmlns="http://www.w3.org/2000/svg">
<path d="M10.0813 20.162H59.9187C62.6883 20.162 65.2084 19.0274 67.0364 17.1989C68.865 15.3709 70 12.8508 70 10.0812C70 7.31116 68.865 4.79157 67.0364 2.96307C65.2084 1.13504 62.6883 0 59.9187 0H0V10.0812C0 12.8508 1.13504 15.3709 2.96308 17.1989C4.7916 19.0274 7.31168 20.162 10.0813 20.162Z" fill="url(#paint0_linear_2703_10394)"/>
<path fill-rule="evenodd" clip-rule="evenodd" d="M35.0001 70H69.9996C69.9996 58.3331 69.9996 46.6666 69.9996 35.0002C69.9996 32.2306 68.865 29.7105 67.0365 27.8825C65.2085 26.054 62.6884 24.919 59.9188 24.919C57.1487 24.919 54.6291 26.054 52.8006 27.8825C50.9725 29.7105 49.8375 32.2306 49.8375 35.0002C49.8375 39.946 49.8375 44.8918 49.8375 49.838H34.9713C32.2128 49.8457 29.7042 50.9788 27.8819 52.8006C26.0553 54.6272 24.9207 57.1444 24.9188 59.9116C24.9188 62.5959 25.9849 65.1395 27.8819 67.0365C29.7104 68.865 32.23 70 35.0001 70Z" fill="url(#paint1_linear_2703_10394)"/>
<path d="M45.0808 45.0814V35.0002C45.0808 32.2306 43.9462 29.7105 42.1177 27.8825C40.2897 26.054 37.7696 24.919 35 24.919H10.0813C7.3112 24.919 4.7916 26.054 2.96308 27.8825C1.13504 29.7105 0 32.2306 0 35.0002C0 37.7702 1.13504 40.2898 2.96308 42.1183C4.7916 43.9464 7.3112 45.0814 10.0813 45.0814H45.0808Z" fill="url(#paint2_linear_2703_10394)"/>
<path d="M10.4127 49.175C7.55162 49.175 4.94917 50.3473 3.06078 52.2357C1.1724 54.1241 0 56.7265 0 59.5876V69.9998H10.4127C13.2733 69.9998 15.8757 68.8274 17.7641 66.939C19.6511 65.0525 20.823 62.4525 20.8249 59.5948V59.5799C20.8225 56.7222 19.6511 54.1222 17.7641 52.2357C15.8757 50.3473 13.2733 49.175 10.4127 49.175Z" fill="url(#paint3_linear_2703_10394)"/>
<defs>
<linearGradient id="paint0_linear_2703_10394" x1="-1" y1="6.56582e-07" x2="69.5" y2="70.5" gradientUnits="userSpaceOnUse">
<stop stop-color="#1479F5"/>
<stop offset="1" stop-color="#00CF8A"/>
</linearGradient>
<linearGradient id="paint1_linear_2703_10394" x1="-1" y1="6.56582e-07" x2="69.5" y2="70.5" gradientUnits="userSpaceOnUse">
<stop stop-color="#1479F5"/>
<stop offset="1" stop-color="#00CF8A"/>
</linearGradient>
<linearGradient id="paint2_linear_2703_10394" x1="-1" y1="6.56582e-07" x2="69.5" y2="70.5" gradientUnits="userSpaceOnUse">
<stop stop-color="#1479F5"/>
<stop offset="1" stop-color="#00CF8A"/>
</linearGradient>
<linearGradient id="paint3_linear_2703_10394" x1="-1" y1="6.56582e-07" x2="69.5" y2="70.5" gradientUnits="userSpaceOnUse">
<stop stop-color="#1479F5"/>
<stop offset="1" stop-color="#00CF8A"/>
</linearGradient>
</defs>
</svg>
