<svg width="380" height="381" viewBox="0 0 380 381" fill="none" xmlns="http://www.w3.org/2000/svg">
<g clip-path="url(#clip0_2529_13131)">
<path d="M380 0.833496H0V380.833H380V0.833496Z" fill="white"/>
<path d="M9.26829 0.833496H0V10.1018H9.26829V0.833496Z" fill="black"/>
<path d="M18.5359 0.833496H9.26758V10.1018H18.5359V0.833496Z" fill="black"/>
<path d="M27.8054 0.833496H18.5371V10.1018H27.8054V0.833496Z" fill="black"/>
<path d="M37.073 0.833496H27.8047V10.1018H37.073V0.833496Z" fill="black"/>
<path d="M46.3406 0.833496H37.0723V10.1018H46.3406V0.833496Z" fill="black"/>
<path d="M55.6101 0.833496H46.3418V10.1018H55.6101V0.833496Z" fill="black"/>
<path d="M64.8777 0.833496H55.6094V10.1018H64.8777V0.833496Z" fill="black"/>
<path d="M101.952 0.833496H92.6836V10.1018H101.952V0.833496Z" fill="black"/>
<path d="M111.219 0.833496H101.951V10.1018H111.219V0.833496Z" fill="black"/>
<path d="M129.757 0.833496H120.488V10.1018H129.757V0.833496Z" fill="black"/>
<path d="M166.829 0.833496H157.561V10.1018H166.829V0.833496Z" fill="black"/>
<path d="M176.098 0.833496H166.83V10.1018H176.098V0.833496Z" fill="black"/>
<path d="M185.366 0.833496H176.098V10.1018H185.366V0.833496Z" fill="black"/>
<path d="M194.634 0.833496H185.365V10.1018H194.634V0.833496Z" fill="black"/>
<path d="M213.171 0.833496H203.902V10.1018H213.171V0.833496Z" fill="black"/>
<path d="M222.438 0.833496H213.17V10.1018H222.438V0.833496Z" fill="black"/>
<path d="M240.975 0.833496H231.707V10.1018H240.975V0.833496Z" fill="black"/>
<path d="M250.245 0.833496H240.977V10.1018H250.245V0.833496Z" fill="black"/>
<path d="M305.854 0.833496H296.586V10.1018H305.854V0.833496Z" fill="black"/>
<path d="M324.389 0.833496H315.121V10.1018H324.389V0.833496Z" fill="black"/>
<path d="M333.659 0.833496H324.391V10.1018H333.659V0.833496Z" fill="black"/>
<path d="M342.926 0.833496H333.658V10.1018H342.926V0.833496Z" fill="black"/>
<path d="M352.196 0.833496H342.928V10.1018H352.196V0.833496Z" fill="black"/>
<path d="M361.464 0.833496H352.195V10.1018H361.464V0.833496Z" fill="black"/>
<path d="M370.731 0.833496H361.463V10.1018H370.731V0.833496Z" fill="black"/>
<path d="M380.001 0.833496H370.732V10.1018H380.001V0.833496Z" fill="black"/>
<path d="M9.26829 10.1016H0V19.3699H9.26829V10.1016Z" fill="black"/>
<path d="M64.8777 10.1016H55.6094V19.3699H64.8777V10.1016Z" fill="black"/>
<path d="M101.952 10.1016H92.6836V19.3699H101.952V10.1016Z" fill="black"/>
<path d="M111.219 10.1016H101.951V19.3699H111.219V10.1016Z" fill="black"/>
<path d="M129.757 10.1016H120.488V19.3699H129.757V10.1016Z" fill="black"/>
<path d="M148.292 10.1016H139.023V19.3699H148.292V10.1016Z" fill="black"/>
<path d="M166.829 10.1016H157.561V19.3699H166.829V10.1016Z" fill="black"/>
<path d="M185.366 10.1016H176.098V19.3699H185.366V10.1016Z" fill="black"/>
<path d="M194.634 10.1016H185.365V19.3699H194.634V10.1016Z" fill="black"/>
<path d="M203.903 10.1016H194.635V19.3699H203.903V10.1016Z" fill="black"/>
<path d="M213.171 10.1016H203.902V19.3699H213.171V10.1016Z" fill="black"/>
<path d="M240.975 10.1016H231.707V19.3699H240.975V10.1016Z" fill="black"/>
<path d="M268.78 10.1016H259.512V19.3699H268.78V10.1016Z" fill="black"/>
<path d="M305.854 10.1016H296.586V19.3699H305.854V10.1016Z" fill="black"/>
<path d="M324.389 10.1016H315.121V19.3699H324.389V10.1016Z" fill="black"/>
<path d="M380.001 10.1016H370.732V19.3699H380.001V10.1016Z" fill="black"/>
<path d="M9.26829 19.3701H0V28.6384H9.26829V19.3701Z" fill="black"/>
<path d="M27.8054 19.3701H18.5371V28.6384H27.8054V19.3701Z" fill="black"/>
<path d="M37.073 19.3701H27.8047V28.6384H37.073V19.3701Z" fill="black"/>
<path d="M46.3406 19.3701H37.0723V28.6384H46.3406V19.3701Z" fill="black"/>
<path d="M64.8777 19.3701H55.6094V28.6384H64.8777V19.3701Z" fill="black"/>
<path d="M101.952 19.3701H92.6836V28.6384H101.952V19.3701Z" fill="black"/>
<path d="M111.219 19.3701H101.951V28.6384H111.219V19.3701Z" fill="black"/>
<path d="M120.487 19.3701H111.219V28.6384H120.487V19.3701Z" fill="black"/>
<path d="M129.757 19.3701H120.488V28.6384H129.757V19.3701Z" fill="black"/>
<path d="M148.292 19.3701H139.023V28.6384H148.292V19.3701Z" fill="black"/>
<path d="M157.561 19.3701H148.293V28.6384H157.561V19.3701Z" fill="black"/>
<path d="M176.098 19.3701H166.83V28.6384H176.098V19.3701Z" fill="black"/>
<path d="M185.366 19.3701H176.098V28.6384H185.366V19.3701Z" fill="black"/>
<path d="M213.171 19.3701H203.902V28.6384H213.171V19.3701Z" fill="black"/>
<path d="M231.708 19.3701H222.439V28.6384H231.708V19.3701Z" fill="black"/>
<path d="M259.512 19.3701H250.244V28.6384H259.512V19.3701Z" fill="black"/>
<path d="M278.05 19.3701H268.781V28.6384H278.05V19.3701Z" fill="black"/>
<path d="M305.854 19.3701H296.586V28.6384H305.854V19.3701Z" fill="black"/>
<path d="M324.389 19.3701H315.121V28.6384H324.389V19.3701Z" fill="black"/>
<path d="M342.926 19.3701H333.658V28.6384H342.926V19.3701Z" fill="black"/>
<path d="M352.196 19.3701H342.928V28.6384H352.196V19.3701Z" fill="black"/>
<path d="M361.464 19.3701H352.195V28.6384H361.464V19.3701Z" fill="black"/>
<path d="M380.001 19.3701H370.732V28.6384H380.001V19.3701Z" fill="black"/>
<path d="M9.26829 28.6382H0V37.9065H9.26829V28.6382Z" fill="black"/>
<path d="M27.8054 28.6382H18.5371V37.9065H27.8054V28.6382Z" fill="black"/>
<path d="M37.073 28.6382H27.8047V37.9065H37.073V28.6382Z" fill="black"/>
<path d="M46.3406 28.6382H37.0723V37.9065H46.3406V28.6382Z" fill="black"/>
<path d="M64.8777 28.6382H55.6094V37.9065H64.8777V28.6382Z" fill="black"/>
<path d="M101.952 28.6382H92.6836V37.9065H101.952V28.6382Z" fill="black"/>
<path d="M111.219 28.6382H101.951V37.9065H111.219V28.6382Z" fill="black"/>
<path d="M120.487 28.6382H111.219V37.9065H120.487V28.6382Z" fill="black"/>
<path d="M139.024 28.6382H129.756V37.9065H139.024V28.6382Z" fill="black"/>
<path d="M148.292 28.6382H139.023V37.9065H148.292V28.6382Z" fill="black"/>
<path d="M166.829 28.6382H157.561V37.9065H166.829V28.6382Z" fill="black"/>
<path d="M185.366 28.6382H176.098V37.9065H185.366V28.6382Z" fill="black"/>
<path d="M222.438 28.6382H213.17V37.9065H222.438V28.6382Z" fill="black"/>
<path d="M250.245 28.6382H240.977V37.9065H250.245V28.6382Z" fill="black"/>
<path d="M259.512 28.6382H250.244V37.9065H259.512V28.6382Z" fill="black"/>
<path d="M268.78 28.6382H259.512V37.9065H268.78V28.6382Z" fill="black"/>
<path d="M278.05 28.6382H268.781V37.9065H278.05V28.6382Z" fill="black"/>
<path d="M305.854 28.6382H296.586V37.9065H305.854V28.6382Z" fill="black"/>
<path d="M324.389 28.6382H315.121V37.9065H324.389V28.6382Z" fill="black"/>
<path d="M342.926 28.6382H333.658V37.9065H342.926V28.6382Z" fill="black"/>
<path d="M352.196 28.6382H342.928V37.9065H352.196V28.6382Z" fill="black"/>
<path d="M361.464 28.6382H352.195V37.9065H361.464V28.6382Z" fill="black"/>
<path d="M380.001 28.6382H370.732V37.9065H380.001V28.6382Z" fill="black"/>
<path d="M9.26829 37.9067H0V47.175H9.26829V37.9067Z" fill="black"/>
<path d="M27.8054 37.9067H18.5371V47.175H27.8054V37.9067Z" fill="black"/>
<path d="M37.073 37.9067H27.8047V47.175H37.073V37.9067Z" fill="black"/>
<path d="M46.3406 37.9067H37.0723V47.175H46.3406V37.9067Z" fill="black"/>
<path d="M64.8777 37.9067H55.6094V47.175H64.8777V37.9067Z" fill="black"/>
<path d="M83.4148 37.9067H74.1465V47.175H83.4148V37.9067Z" fill="black"/>
<path d="M111.219 37.9067H101.951V47.175H111.219V37.9067Z" fill="black"/>
<path d="M139.024 37.9067H129.756V47.175H139.024V37.9067Z" fill="black"/>
<path d="M166.829 37.9067H157.561V47.175H166.829V37.9067Z" fill="black"/>
<path d="M203.903 37.9067H194.635V47.175H203.903V37.9067Z" fill="black"/>
<path d="M213.171 37.9067H203.902V47.175H213.171V37.9067Z" fill="black"/>
<path d="M222.438 37.9067H213.17V47.175H222.438V37.9067Z" fill="black"/>
<path d="M231.708 37.9067H222.439V47.175H231.708V37.9067Z" fill="black"/>
<path d="M250.245 37.9067H240.977V47.175H250.245V37.9067Z" fill="black"/>
<path d="M259.512 37.9067H250.244V47.175H259.512V37.9067Z" fill="black"/>
<path d="M268.78 37.9067H259.512V47.175H268.78V37.9067Z" fill="black"/>
<path d="M278.05 37.9067H268.781V47.175H278.05V37.9067Z" fill="black"/>
<path d="M296.585 37.9067H287.316V47.175H296.585V37.9067Z" fill="black"/>
<path d="M324.389 37.9067H315.121V47.175H324.389V37.9067Z" fill="black"/>
<path d="M342.926 37.9067H333.658V47.175H342.926V37.9067Z" fill="black"/>
<path d="M352.196 37.9067H342.928V47.175H352.196V37.9067Z" fill="black"/>
<path d="M361.464 37.9067H352.195V47.175H361.464V37.9067Z" fill="black"/>
<path d="M380.001 37.9067H370.732V47.175H380.001V37.9067Z" fill="black"/>
<path d="M9.26829 47.1748H0V56.4431H9.26829V47.1748Z" fill="black"/>
<path d="M64.8777 47.1748H55.6094V56.4431H64.8777V47.1748Z" fill="black"/>
<path d="M101.952 47.1748H92.6836V56.4431H101.952V47.1748Z" fill="black"/>
<path d="M111.219 47.1748H101.951V56.4431H111.219V47.1748Z" fill="black"/>
<path d="M129.757 47.1748H120.488V56.4431H129.757V47.1748Z" fill="black"/>
<path d="M176.098 47.1748H166.83V56.4431H176.098V47.1748Z" fill="black"/>
<path d="M194.634 47.1748H185.365V56.4431H194.634V47.1748Z" fill="black"/>
<path d="M203.903 47.1748H194.635V56.4431H203.903V47.1748Z" fill="black"/>
<path d="M231.708 47.1748H222.439V56.4431H231.708V47.1748Z" fill="black"/>
<path d="M240.975 47.1748H231.707V56.4431H240.975V47.1748Z" fill="black"/>
<path d="M250.245 47.1748H240.977V56.4431H250.245V47.1748Z" fill="black"/>
<path d="M259.512 47.1748H250.244V56.4431H259.512V47.1748Z" fill="black"/>
<path d="M268.78 47.1748H259.512V56.4431H268.78V47.1748Z" fill="black"/>
<path d="M278.05 47.1748H268.781V56.4431H278.05V47.1748Z" fill="black"/>
<path d="M324.389 47.1748H315.121V56.4431H324.389V47.1748Z" fill="black"/>
<path d="M380.001 47.1748H370.732V56.4431H380.001V47.1748Z" fill="black"/>
<path d="M9.26829 56.4434H0V65.7117H9.26829V56.4434Z" fill="black"/>
<path d="M18.5359 56.4434H9.26758V65.7117H18.5359V56.4434Z" fill="black"/>
<path d="M27.8054 56.4434H18.5371V65.7117H27.8054V56.4434Z" fill="black"/>
<path d="M37.073 56.4434H27.8047V65.7117H37.073V56.4434Z" fill="black"/>
<path d="M46.3406 56.4434H37.0723V65.7117H46.3406V56.4434Z" fill="black"/>
<path d="M55.6101 56.4434H46.3418V65.7117H55.6101V56.4434Z" fill="black"/>
<path d="M64.8777 56.4434H55.6094V65.7117H64.8777V56.4434Z" fill="black"/>
<path d="M83.4148 56.4434H74.1465V65.7117H83.4148V56.4434Z" fill="black"/>
<path d="M101.952 56.4434H92.6836V65.7117H101.952V56.4434Z" fill="black"/>
<path d="M120.487 56.4434H111.219V65.7117H120.487V56.4434Z" fill="black"/>
<path d="M139.024 56.4434H129.756V65.7117H139.024V56.4434Z" fill="black"/>
<path d="M157.561 56.4434H148.293V65.7117H157.561V56.4434Z" fill="black"/>
<path d="M176.098 56.4434H166.83V65.7117H176.098V56.4434Z" fill="black"/>
<path d="M194.634 56.4434H185.365V65.7117H194.634V56.4434Z" fill="black"/>
<path d="M213.171 56.4434H203.902V65.7117H213.171V56.4434Z" fill="black"/>
<path d="M231.708 56.4434H222.439V65.7117H231.708V56.4434Z" fill="black"/>
<path d="M250.245 56.4434H240.977V65.7117H250.245V56.4434Z" fill="black"/>
<path d="M268.78 56.4434H259.512V65.7117H268.78V56.4434Z" fill="black"/>
<path d="M287.317 56.4434H278.049V65.7117H287.317V56.4434Z" fill="black"/>
<path d="M305.854 56.4434H296.586V65.7117H305.854V56.4434Z" fill="black"/>
<path d="M324.389 56.4434H315.121V65.7117H324.389V56.4434Z" fill="black"/>
<path d="M333.659 56.4434H324.391V65.7117H333.659V56.4434Z" fill="black"/>
<path d="M342.926 56.4434H333.658V65.7117H342.926V56.4434Z" fill="black"/>
<path d="M352.196 56.4434H342.928V65.7117H352.196V56.4434Z" fill="black"/>
<path d="M361.464 56.4434H352.195V65.7117H361.464V56.4434Z" fill="black"/>
<path d="M370.731 56.4434H361.463V65.7117H370.731V56.4434Z" fill="black"/>
<path d="M380.001 56.4434H370.732V65.7117H380.001V56.4434Z" fill="black"/>
<path d="M83.4148 65.7114H74.1465V74.9797H83.4148V65.7114Z" fill="black"/>
<path d="M92.6824 65.7114H83.4141V74.9797H92.6824V65.7114Z" fill="black"/>
<path d="M101.952 65.7114H92.6836V74.9797H101.952V65.7114Z" fill="black"/>
<path d="M157.561 65.7114H148.293V74.9797H157.561V65.7114Z" fill="black"/>
<path d="M166.829 65.7114H157.561V74.9797H166.829V65.7114Z" fill="black"/>
<path d="M194.634 65.7114H185.365V74.9797H194.634V65.7114Z" fill="black"/>
<path d="M203.903 65.7114H194.635V74.9797H203.903V65.7114Z" fill="black"/>
<path d="M240.975 65.7114H231.707V74.9797H240.975V65.7114Z" fill="black"/>
<path d="M259.512 65.7114H250.244V74.9797H259.512V65.7114Z" fill="black"/>
<path d="M268.78 65.7114H259.512V74.9797H268.78V65.7114Z" fill="black"/>
<path d="M296.585 65.7114H287.316V74.9797H296.585V65.7114Z" fill="black"/>
<path d="M27.8054 74.98H18.5371V84.2483H27.8054V74.98Z" fill="black"/>
<path d="M37.073 74.98H27.8047V84.2483H37.073V74.98Z" fill="black"/>
<path d="M64.8777 74.98H55.6094V84.2483H64.8777V74.98Z" fill="black"/>
<path d="M74.1472 74.98H64.8789V84.2483H74.1472V74.98Z" fill="black"/>
<path d="M83.4148 74.98H74.1465V84.2483H83.4148V74.98Z" fill="black"/>
<path d="M101.952 74.98H92.6836V84.2483H101.952V74.98Z" fill="black"/>
<path d="M129.757 74.98H120.488V84.2483H129.757V74.98Z" fill="black"/>
<path d="M148.292 74.98H139.023V84.2483H148.292V74.98Z" fill="black"/>
<path d="M166.829 74.98H157.561V84.2483H166.829V74.98Z" fill="black"/>
<path d="M176.098 74.98H166.83V84.2483H176.098V74.98Z" fill="black"/>
<path d="M185.366 74.98H176.098V84.2483H185.366V74.98Z" fill="black"/>
<path d="M203.903 74.98H194.635V84.2483H203.903V74.98Z" fill="black"/>
<path d="M213.171 74.98H203.902V84.2483H213.171V74.98Z" fill="black"/>
<path d="M231.708 74.98H222.439V84.2483H231.708V74.98Z" fill="black"/>
<path d="M278.05 74.98H268.781V84.2483H278.05V74.98Z" fill="black"/>
<path d="M287.317 74.98H278.049V84.2483H287.317V74.98Z" fill="black"/>
<path d="M296.585 74.98H287.316V84.2483H296.585V74.98Z" fill="black"/>
<path d="M305.854 74.98H296.586V84.2483H305.854V74.98Z" fill="black"/>
<path d="M315.122 74.98H305.854V84.2483H315.122V74.98Z" fill="black"/>
<path d="M324.389 74.98H315.121V84.2483H324.389V74.98Z" fill="black"/>
<path d="M342.926 74.98H333.658V84.2483H342.926V74.98Z" fill="black"/>
<path d="M9.26829 84.248H0V93.5163H9.26829V84.248Z" fill="black"/>
<path d="M27.8054 84.248H18.5371V93.5163H27.8054V84.248Z" fill="black"/>
<path d="M83.4148 84.248H74.1465V93.5163H83.4148V84.248Z" fill="black"/>
<path d="M111.219 84.248H101.951V93.5163H111.219V84.248Z" fill="black"/>
<path d="M139.024 84.248H129.756V93.5163H139.024V84.248Z" fill="black"/>
<path d="M157.561 84.248H148.293V93.5163H157.561V84.248Z" fill="black"/>
<path d="M176.098 84.248H166.83V93.5163H176.098V84.248Z" fill="black"/>
<path d="M185.366 84.248H176.098V93.5163H185.366V84.248Z" fill="black"/>
<path d="M194.634 84.248H185.365V93.5163H194.634V84.248Z" fill="black"/>
<path d="M213.171 84.248H203.902V93.5163H213.171V84.248Z" fill="black"/>
<path d="M222.438 84.248H213.17V93.5163H222.438V84.248Z" fill="black"/>
<path d="M250.245 84.248H240.977V93.5163H250.245V84.248Z" fill="black"/>
<path d="M259.512 84.248H250.244V93.5163H259.512V84.248Z" fill="black"/>
<path d="M296.585 84.248H287.316V93.5163H296.585V84.248Z" fill="black"/>
<path d="M305.854 84.248H296.586V93.5163H305.854V84.248Z" fill="black"/>
<path d="M315.122 84.248H305.854V93.5163H315.122V84.248Z" fill="black"/>
<path d="M342.926 84.248H333.658V93.5163H342.926V84.248Z" fill="black"/>
<path d="M9.26829 93.5166H0V102.785H9.26829V93.5166Z" fill="black"/>
<path d="M18.5359 93.5166H9.26758V102.785H18.5359V93.5166Z" fill="black"/>
<path d="M46.3406 93.5166H37.0723V102.785H46.3406V93.5166Z" fill="black"/>
<path d="M64.8777 93.5166H55.6094V102.785H64.8777V93.5166Z" fill="black"/>
<path d="M111.219 93.5166H101.951V102.785H111.219V93.5166Z" fill="black"/>
<path d="M120.487 93.5166H111.219V102.785H120.487V93.5166Z" fill="black"/>
<path d="M129.757 93.5166H120.488V102.785H129.757V93.5166Z" fill="black"/>
<path d="M139.024 93.5166H129.756V102.785H139.024V93.5166Z" fill="black"/>
<path d="M148.292 93.5166H139.023V102.785H148.292V93.5166Z" fill="black"/>
<path d="M157.561 93.5166H148.293V102.785H157.561V93.5166Z" fill="black"/>
<path d="M166.829 93.5166H157.561V102.785H166.829V93.5166Z" fill="black"/>
<path d="M176.098 93.5166H166.83V102.785H176.098V93.5166Z" fill="black"/>
<path d="M213.171 93.5166H203.902V102.785H213.171V93.5166Z" fill="black"/>
<path d="M222.438 93.5166H213.17V102.785H222.438V93.5166Z" fill="black"/>
<path d="M231.708 93.5166H222.439V102.785H231.708V93.5166Z" fill="black"/>
<path d="M259.512 93.5166H250.244V102.785H259.512V93.5166Z" fill="black"/>
<path d="M268.78 93.5166H259.512V102.785H268.78V93.5166Z" fill="black"/>
<path d="M287.317 93.5166H278.049V102.785H287.317V93.5166Z" fill="black"/>
<path d="M296.585 93.5166H287.316V102.785H296.585V93.5166Z" fill="black"/>
<path d="M305.854 93.5166H296.586V102.785H305.854V93.5166Z" fill="black"/>
<path d="M315.122 93.5166H305.854V102.785H315.122V93.5166Z" fill="black"/>
<path d="M342.926 93.5166H333.658V102.785H342.926V93.5166Z" fill="black"/>
<path d="M352.196 93.5166H342.928V102.785H352.196V93.5166Z" fill="black"/>
<path d="M380.001 93.5166H370.732V102.785H380.001V93.5166Z" fill="black"/>
<path d="M9.26829 102.785H0V112.053H9.26829V102.785Z" fill="black"/>
<path d="M37.073 102.785H27.8047V112.053H37.073V102.785Z" fill="black"/>
<path d="M46.3406 102.785H37.0723V112.053H46.3406V102.785Z" fill="black"/>
<path d="M101.952 102.785H92.6836V112.053H101.952V102.785Z" fill="black"/>
<path d="M111.219 102.785H101.951V112.053H111.219V102.785Z" fill="black"/>
<path d="M129.757 102.785H120.488V112.053H129.757V102.785Z" fill="black"/>
<path d="M139.024 102.785H129.756V112.053H139.024V102.785Z" fill="black"/>
<path d="M176.098 102.785H166.83V112.053H176.098V102.785Z" fill="black"/>
<path d="M203.903 102.785H194.635V112.053H203.903V102.785Z" fill="black"/>
<path d="M213.171 102.785H203.902V112.053H213.171V102.785Z" fill="black"/>
<path d="M231.708 102.785H222.439V112.053H231.708V102.785Z" fill="black"/>
<path d="M250.245 102.785H240.977V112.053H250.245V102.785Z" fill="black"/>
<path d="M259.512 102.785H250.244V112.053H259.512V102.785Z" fill="black"/>
<path d="M278.05 102.785H268.781V112.053H278.05V102.785Z" fill="black"/>
<path d="M333.659 102.785H324.391V112.053H333.659V102.785Z" fill="black"/>
<path d="M9.26829 112.053H0V121.322H9.26829V112.053Z" fill="black"/>
<path d="M27.8054 112.053H18.5371V121.322H27.8054V112.053Z" fill="black"/>
<path d="M46.3406 112.053H37.0723V121.322H46.3406V112.053Z" fill="black"/>
<path d="M55.6101 112.053H46.3418V121.322H55.6101V112.053Z" fill="black"/>
<path d="M64.8777 112.053H55.6094V121.322H64.8777V112.053Z" fill="black"/>
<path d="M74.1472 112.053H64.8789V121.322H74.1472V112.053Z" fill="black"/>
<path d="M111.219 112.053H101.951V121.322H111.219V112.053Z" fill="black"/>
<path d="M129.757 112.053H120.488V121.322H129.757V112.053Z" fill="black"/>
<path d="M166.829 112.053H157.561V121.322H166.829V112.053Z" fill="black"/>
<path d="M185.366 112.053H176.098V121.322H185.366V112.053Z" fill="black"/>
<path d="M194.634 112.053H185.365V121.322H194.634V112.053Z" fill="black"/>
<path d="M203.903 112.053H194.635V121.322H203.903V112.053Z" fill="black"/>
<path d="M222.438 112.053H213.17V121.322H222.438V112.053Z" fill="black"/>
<path d="M240.975 112.053H231.707V121.322H240.975V112.053Z" fill="black"/>
<path d="M259.512 112.053H250.244V121.322H259.512V112.053Z" fill="black"/>
<path d="M305.854 112.053H296.586V121.322H305.854V112.053Z" fill="black"/>
<path d="M324.389 112.053H315.121V121.322H324.389V112.053Z" fill="black"/>
<path d="M342.926 112.053H333.658V121.322H342.926V112.053Z" fill="black"/>
<path d="M352.196 112.053H342.928V121.322H352.196V112.053Z" fill="black"/>
<path d="M361.464 112.053H352.195V121.322H361.464V112.053Z" fill="black"/>
<path d="M37.073 121.321H27.8047V130.59H37.073V121.321Z" fill="black"/>
<path d="M74.1472 121.321H64.8789V130.59H74.1472V121.321Z" fill="black"/>
<path d="M83.4148 121.321H74.1465V130.59H83.4148V121.321Z" fill="black"/>
<path d="M101.952 121.321H92.6836V130.59H101.952V121.321Z" fill="black"/>
<path d="M120.487 121.321H111.219V130.59H120.487V121.321Z" fill="black"/>
<path d="M139.024 121.321H129.756V130.59H139.024V121.321Z" fill="black"/>
<path d="M157.561 121.321H148.293V130.59H157.561V121.321Z" fill="black"/>
<path d="M166.829 121.321H157.561V130.59H166.829V121.321Z" fill="black"/>
<path d="M176.098 121.321H166.83V130.59H176.098V121.321Z" fill="black"/>
<path d="M185.366 121.321H176.098V130.59H185.366V121.321Z" fill="black"/>
<path d="M194.634 121.321H185.365V130.59H194.634V121.321Z" fill="black"/>
<path d="M203.903 121.321H194.635V130.59H203.903V121.321Z" fill="black"/>
<path d="M213.171 121.321H203.902V130.59H213.171V121.321Z" fill="black"/>
<path d="M222.438 121.321H213.17V130.59H222.438V121.321Z" fill="black"/>
<path d="M231.708 121.321H222.439V130.59H231.708V121.321Z" fill="black"/>
<path d="M278.05 121.321H268.781V130.59H278.05V121.321Z" fill="black"/>
<path d="M287.317 121.321H278.049V130.59H287.317V121.321Z" fill="black"/>
<path d="M342.926 121.321H333.658V130.59H342.926V121.321Z" fill="black"/>
<path d="M352.196 121.321H342.928V130.59H352.196V121.321Z" fill="black"/>
<path d="M361.464 121.321H352.195V130.59H361.464V121.321Z" fill="black"/>
<path d="M370.731 121.321H361.463V130.59H370.731V121.321Z" fill="black"/>
<path d="M9.26829 130.589H0V139.858H9.26829V130.589Z" fill="black"/>
<path d="M18.5359 130.589H9.26758V139.858H18.5359V130.589Z" fill="black"/>
<path d="M27.8054 130.589H18.5371V139.858H27.8054V130.589Z" fill="black"/>
<path d="M37.073 130.589H27.8047V139.858H37.073V130.589Z" fill="black"/>
<path d="M55.6101 130.589H46.3418V139.858H55.6101V130.589Z" fill="black"/>
<path d="M64.8777 130.589H55.6094V139.858H64.8777V130.589Z" fill="black"/>
<path d="M74.1472 130.589H64.8789V139.858H74.1472V130.589Z" fill="black"/>
<path d="M92.6824 130.589H83.4141V139.858H92.6824V130.589Z" fill="black"/>
<path d="M120.487 130.589H111.219V139.858H120.487V130.589Z" fill="black"/>
<path d="M157.561 130.589H148.293V139.858H157.561V130.589Z" fill="black"/>
<path d="M166.829 130.589H157.561V139.858H166.829V130.589Z" fill="black"/>
<path d="M185.366 130.589H176.098V139.858H185.366V130.589Z" fill="black"/>
<path d="M194.634 130.589H185.365V139.858H194.634V130.589Z" fill="black"/>
<path d="M213.171 130.589H203.902V139.858H213.171V130.589Z" fill="black"/>
<path d="M240.975 130.589H231.707V139.858H240.975V130.589Z" fill="black"/>
<path d="M250.245 130.589H240.977V139.858H250.245V130.589Z" fill="black"/>
<path d="M268.78 130.589H259.512V139.858H268.78V130.589Z" fill="black"/>
<path d="M278.05 130.589H268.781V139.858H278.05V130.589Z" fill="black"/>
<path d="M287.317 130.589H278.049V139.858H287.317V130.589Z" fill="black"/>
<path d="M296.585 130.589H287.316V139.858H296.585V130.589Z" fill="black"/>
<path d="M315.122 130.589H305.854V139.858H315.122V130.589Z" fill="black"/>
<path d="M324.389 130.589H315.121V139.858H324.389V130.589Z" fill="black"/>
<path d="M342.926 130.589H333.658V139.858H342.926V130.589Z" fill="black"/>
<path d="M352.196 130.589H342.928V139.858H352.196V130.589Z" fill="black"/>
<path d="M361.464 130.589H352.195V139.858H361.464V130.589Z" fill="black"/>
<path d="M370.731 130.589H361.463V139.858H370.731V130.589Z" fill="black"/>
<path d="M380.001 130.589H370.732V139.858H380.001V130.589Z" fill="black"/>
<path d="M18.5359 139.858H9.26758V149.126H18.5359V139.858Z" fill="black"/>
<path d="M37.073 139.858H27.8047V149.126H37.073V139.858Z" fill="black"/>
<path d="M74.1472 139.858H64.8789V149.126H74.1472V139.858Z" fill="black"/>
<path d="M83.4148 139.858H74.1465V149.126H83.4148V139.858Z" fill="black"/>
<path d="M92.6824 139.858H83.4141V149.126H92.6824V139.858Z" fill="black"/>
<path d="M111.219 139.858H101.951V149.126H111.219V139.858Z" fill="black"/>
<path d="M120.487 139.858H111.219V149.126H120.487V139.858Z" fill="black"/>
<path d="M139.024 139.858H129.756V149.126H139.024V139.858Z" fill="black"/>
<path d="M148.292 139.858H139.023V149.126H148.292V139.858Z" fill="black"/>
<path d="M166.829 139.858H157.561V149.126H166.829V139.858Z" fill="black"/>
<path d="M185.366 139.858H176.098V149.126H185.366V139.858Z" fill="black"/>
<path d="M203.903 139.858H194.635V149.126H203.903V139.858Z" fill="black"/>
<path d="M231.708 139.858H222.439V149.126H231.708V139.858Z" fill="black"/>
<path d="M259.512 139.858H250.244V149.126H259.512V139.858Z" fill="black"/>
<path d="M296.585 139.858H287.316V149.126H296.585V139.858Z" fill="black"/>
<path d="M305.854 139.858H296.586V149.126H305.854V139.858Z" fill="black"/>
<path d="M324.389 139.858H315.121V149.126H324.389V139.858Z" fill="black"/>
<path d="M333.659 139.858H324.391V149.126H333.659V139.858Z" fill="black"/>
<path d="M342.926 139.858H333.658V149.126H342.926V139.858Z" fill="black"/>
<path d="M352.196 139.858H342.928V149.126H352.196V139.858Z" fill="black"/>
<path d="M361.464 139.858H352.195V149.126H361.464V139.858Z" fill="black"/>
<path d="M370.731 139.858H361.463V149.126H370.731V139.858Z" fill="black"/>
<path d="M380.001 139.858H370.732V149.126H380.001V139.858Z" fill="black"/>
<path d="M9.26829 149.126H0V158.394H9.26829V149.126Z" fill="black"/>
<path d="M27.8054 149.126H18.5371V158.394H27.8054V149.126Z" fill="black"/>
<path d="M37.073 149.126H27.8047V158.394H37.073V149.126Z" fill="black"/>
<path d="M55.6101 149.126H46.3418V158.394H55.6101V149.126Z" fill="black"/>
<path d="M64.8777 149.126H55.6094V158.394H64.8777V149.126Z" fill="black"/>
<path d="M83.4148 149.126H74.1465V158.394H83.4148V149.126Z" fill="black"/>
<path d="M92.6824 149.126H83.4141V158.394H92.6824V149.126Z" fill="black"/>
<path d="M120.487 149.126H111.219V158.394H120.487V149.126Z" fill="black"/>
<path d="M129.757 149.126H120.488V158.394H129.757V149.126Z" fill="black"/>
<path d="M148.292 149.126H139.023V158.394H148.292V149.126Z" fill="black"/>
<path d="M157.561 149.126H148.293V158.394H157.561V149.126Z" fill="black"/>
<path d="M166.829 149.126H157.561V158.394H166.829V149.126Z" fill="black"/>
<path d="M176.098 149.126H166.83V158.394H176.098V149.126Z" fill="black"/>
<path d="M185.366 149.126H176.098V158.394H185.366V149.126Z" fill="black"/>
<path d="M194.634 149.126H185.365V158.394H194.634V149.126Z" fill="black"/>
<path d="M203.903 149.126H194.635V158.394H203.903V149.126Z" fill="black"/>
<path d="M213.171 149.126H203.902V158.394H213.171V149.126Z" fill="black"/>
<path d="M231.708 149.126H222.439V158.394H231.708V149.126Z" fill="black"/>
<path d="M278.05 149.126H268.781V158.394H278.05V149.126Z" fill="black"/>
<path d="M287.317 149.126H278.049V158.394H287.317V149.126Z" fill="black"/>
<path d="M305.854 149.126H296.586V158.394H305.854V149.126Z" fill="black"/>
<path d="M333.659 149.126H324.391V158.394H333.659V149.126Z" fill="black"/>
<path d="M352.196 149.126H342.928V158.394H352.196V149.126Z" fill="black"/>
<path d="M370.731 149.126H361.463V158.394H370.731V149.126Z" fill="black"/>
<path d="M9.26829 158.395H0V167.663H9.26829V158.395Z" fill="black"/>
<path d="M27.8054 158.395H18.5371V167.663H27.8054V158.395Z" fill="black"/>
<path d="M37.073 158.395H27.8047V167.663H37.073V158.395Z" fill="black"/>
<path d="M74.1472 158.395H64.8789V167.663H74.1472V158.395Z" fill="black"/>
<path d="M83.4148 158.395H74.1465V167.663H83.4148V158.395Z" fill="black"/>
<path d="M92.6824 158.395H83.4141V167.663H92.6824V158.395Z" fill="black"/>
<path d="M129.757 158.395H120.488V167.663H129.757V158.395Z" fill="black"/>
<path d="M139.024 158.395H129.756V167.663H139.024V158.395Z" fill="black"/>
<path d="M148.292 158.395H139.023V167.663H148.292V158.395Z" fill="black"/>
<path d="M157.561 158.395H148.293V167.663H157.561V158.395Z" fill="black"/>
<path d="M176.098 158.395H166.83V167.663H176.098V158.395Z" fill="black"/>
<path d="M203.903 158.395H194.635V167.663H203.903V158.395Z" fill="black"/>
<path d="M231.708 158.395H222.439V167.663H231.708V158.395Z" fill="black"/>
<path d="M250.245 158.395H240.977V167.663H250.245V158.395Z" fill="black"/>
<path d="M296.585 158.395H287.316V167.663H296.585V158.395Z" fill="black"/>
<path d="M305.854 158.395H296.586V167.663H305.854V158.395Z" fill="black"/>
<path d="M324.389 158.395H315.121V167.663H324.389V158.395Z" fill="black"/>
<path d="M333.659 158.395H324.391V167.663H333.659V158.395Z" fill="black"/>
<path d="M352.196 158.395H342.928V167.663H352.196V158.395Z" fill="black"/>
<path d="M370.731 158.395H361.463V167.663H370.731V158.395Z" fill="black"/>
<path d="M9.26829 167.663H0V176.931H9.26829V167.663Z" fill="black"/>
<path d="M18.5359 167.663H9.26758V176.931H18.5359V167.663Z" fill="black"/>
<path d="M27.8054 167.663H18.5371V176.931H27.8054V167.663Z" fill="black"/>
<path d="M37.073 167.663H27.8047V176.931H37.073V167.663Z" fill="black"/>
<path d="M55.6101 167.663H46.3418V176.931H55.6101V167.663Z" fill="black"/>
<path d="M64.8777 167.663H55.6094V176.931H64.8777V167.663Z" fill="black"/>
<path d="M83.4148 167.663H74.1465V176.931H83.4148V167.663Z" fill="black"/>
<path d="M101.952 167.663H92.6836V176.931H101.952V167.663Z" fill="black"/>
<path d="M129.757 167.663H120.488V176.931H129.757V167.663Z" fill="black"/>
<path d="M139.024 167.663H129.756V176.931H139.024V167.663Z" fill="black"/>
<path d="M166.829 167.663H157.561V176.931H166.829V167.663Z" fill="black"/>
<path d="M176.098 167.663H166.83V176.931H176.098V167.663Z" fill="black"/>
<path d="M203.903 167.663H194.635V176.931H203.903V167.663Z" fill="black"/>
<path d="M213.171 167.663H203.902V176.931H213.171V167.663Z" fill="black"/>
<path d="M231.708 167.663H222.439V176.931H231.708V167.663Z" fill="black"/>
<path d="M240.975 167.663H231.707V176.931H240.975V167.663Z" fill="black"/>
<path d="M278.05 167.663H268.781V176.931H278.05V167.663Z" fill="black"/>
<path d="M333.659 167.663H324.391V176.931H333.659V167.663Z" fill="black"/>
<path d="M361.464 167.663H352.195V176.931H361.464V167.663Z" fill="black"/>
<path d="M9.26829 176.931H0V186.199H9.26829V176.931Z" fill="black"/>
<path d="M27.8054 176.931H18.5371V186.199H27.8054V176.931Z" fill="black"/>
<path d="M37.073 176.931H27.8047V186.199H37.073V176.931Z" fill="black"/>
<path d="M55.6101 176.931H46.3418V186.199H55.6101V176.931Z" fill="black"/>
<path d="M74.1472 176.931H64.8789V186.199H74.1472V176.931Z" fill="black"/>
<path d="M92.6824 176.931H83.4141V186.199H92.6824V176.931Z" fill="black"/>
<path d="M111.219 176.931H101.951V186.199H111.219V176.931Z" fill="black"/>
<path d="M120.487 176.931H111.219V186.199H120.487V176.931Z" fill="black"/>
<path d="M157.561 176.931H148.293V186.199H157.561V176.931Z" fill="black"/>
<path d="M166.829 176.931H157.561V186.199H166.829V176.931Z" fill="black"/>
<path d="M176.098 176.931H166.83V186.199H176.098V176.931Z" fill="black"/>
<path d="M203.903 176.931H194.635V186.199H203.903V176.931Z" fill="black"/>
<path d="M213.171 176.931H203.902V186.199H213.171V176.931Z" fill="black"/>
<path d="M222.438 176.931H213.17V186.199H222.438V176.931Z" fill="black"/>
<path d="M240.975 176.931H231.707V186.199H240.975V176.931Z" fill="black"/>
<path d="M259.512 176.931H250.244V186.199H259.512V176.931Z" fill="black"/>
<path d="M268.78 176.931H259.512V186.199H268.78V176.931Z" fill="black"/>
<path d="M278.05 176.931H268.781V186.199H278.05V176.931Z" fill="black"/>
<path d="M287.317 176.931H278.049V186.199H287.317V176.931Z" fill="black"/>
<path d="M296.585 176.931H287.316V186.199H296.585V176.931Z" fill="black"/>
<path d="M324.389 176.931H315.121V186.199H324.389V176.931Z" fill="black"/>
<path d="M352.196 176.931H342.928V186.199H352.196V176.931Z" fill="black"/>
<path d="M380.001 176.931H370.732V186.199H380.001V176.931Z" fill="black"/>
<path d="M18.5359 186.199H9.26758V195.468H18.5359V186.199Z" fill="black"/>
<path d="M46.3406 186.199H37.0723V195.468H46.3406V186.199Z" fill="black"/>
<path d="M55.6101 186.199H46.3418V195.468H55.6101V186.199Z" fill="black"/>
<path d="M64.8777 186.199H55.6094V195.468H64.8777V186.199Z" fill="black"/>
<path d="M74.1472 186.199H64.8789V195.468H74.1472V186.199Z" fill="black"/>
<path d="M101.952 186.199H92.6836V195.468H101.952V186.199Z" fill="black"/>
<path d="M120.487 186.199H111.219V195.468H120.487V186.199Z" fill="black"/>
<path d="M129.757 186.199H120.488V195.468H129.757V186.199Z" fill="black"/>
<path d="M139.024 186.199H129.756V195.468H139.024V186.199Z" fill="black"/>
<path d="M148.292 186.199H139.023V195.468H148.292V186.199Z" fill="black"/>
<path d="M176.098 186.199H166.83V195.468H176.098V186.199Z" fill="black"/>
<path d="M185.366 186.199H176.098V195.468H185.366V186.199Z" fill="black"/>
<path d="M203.903 186.199H194.635V195.468H203.903V186.199Z" fill="black"/>
<path d="M231.708 186.199H222.439V195.468H231.708V186.199Z" fill="black"/>
<path d="M250.245 186.199H240.977V195.468H250.245V186.199Z" fill="black"/>
<path d="M268.78 186.199H259.512V195.468H268.78V186.199Z" fill="black"/>
<path d="M296.585 186.199H287.316V195.468H296.585V186.199Z" fill="black"/>
<path d="M305.854 186.199H296.586V195.468H305.854V186.199Z" fill="black"/>
<path d="M315.122 186.199H305.854V195.468H315.122V186.199Z" fill="black"/>
<path d="M324.389 186.199H315.121V195.468H324.389V186.199Z" fill="black"/>
<path d="M342.926 186.199H333.658V195.468H342.926V186.199Z" fill="black"/>
<path d="M361.464 186.199H352.195V195.468H361.464V186.199Z" fill="black"/>
<path d="M370.731 186.199H361.463V195.468H370.731V186.199Z" fill="black"/>
<path d="M380.001 186.199H370.732V195.468H380.001V186.199Z" fill="black"/>
<path d="M9.26829 195.468H0V204.736H9.26829V195.468Z" fill="black"/>
<path d="M18.5359 195.468H9.26758V204.736H18.5359V195.468Z" fill="black"/>
<path d="M27.8054 195.468H18.5371V204.736H27.8054V195.468Z" fill="black"/>
<path d="M37.073 195.468H27.8047V204.736H37.073V195.468Z" fill="black"/>
<path d="M83.4148 195.468H74.1465V204.736H83.4148V195.468Z" fill="black"/>
<path d="M92.6824 195.468H83.4141V204.736H92.6824V195.468Z" fill="black"/>
<path d="M101.952 195.468H92.6836V204.736H101.952V195.468Z" fill="black"/>
<path d="M111.219 195.468H101.951V204.736H111.219V195.468Z" fill="black"/>
<path d="M129.757 195.468H120.488V204.736H129.757V195.468Z" fill="black"/>
<path d="M139.024 195.468H129.756V204.736H139.024V195.468Z" fill="black"/>
<path d="M157.561 195.468H148.293V204.736H157.561V195.468Z" fill="black"/>
<path d="M203.903 195.468H194.635V204.736H203.903V195.468Z" fill="black"/>
<path d="M213.171 195.468H203.902V204.736H213.171V195.468Z" fill="black"/>
<path d="M222.438 195.468H213.17V204.736H222.438V195.468Z" fill="black"/>
<path d="M231.708 195.468H222.439V204.736H231.708V195.468Z" fill="black"/>
<path d="M240.975 195.468H231.707V204.736H240.975V195.468Z" fill="black"/>
<path d="M259.512 195.468H250.244V204.736H259.512V195.468Z" fill="black"/>
<path d="M268.78 195.468H259.512V204.736H268.78V195.468Z" fill="black"/>
<path d="M287.317 195.468H278.049V204.736H287.317V195.468Z" fill="black"/>
<path d="M296.585 195.468H287.316V204.736H296.585V195.468Z" fill="black"/>
<path d="M333.659 195.468H324.391V204.736H333.659V195.468Z" fill="black"/>
<path d="M342.926 195.468H333.658V204.736H342.926V195.468Z" fill="black"/>
<path d="M352.196 195.468H342.928V204.736H352.196V195.468Z" fill="black"/>
<path d="M370.731 195.468H361.463V204.736H370.731V195.468Z" fill="black"/>
<path d="M9.26829 204.736H0V214.004H9.26829V204.736Z" fill="black"/>
<path d="M64.8777 204.736H55.6094V214.004H64.8777V204.736Z" fill="black"/>
<path d="M74.1472 204.736H64.8789V214.004H74.1472V204.736Z" fill="black"/>
<path d="M101.952 204.736H92.6836V214.004H101.952V204.736Z" fill="black"/>
<path d="M129.757 204.736H120.488V214.004H129.757V204.736Z" fill="black"/>
<path d="M139.024 204.736H129.756V214.004H139.024V204.736Z" fill="black"/>
<path d="M148.292 204.736H139.023V214.004H148.292V204.736Z" fill="black"/>
<path d="M157.561 204.736H148.293V214.004H157.561V204.736Z" fill="black"/>
<path d="M166.829 204.736H157.561V214.004H166.829V204.736Z" fill="black"/>
<path d="M176.098 204.736H166.83V214.004H176.098V204.736Z" fill="black"/>
<path d="M185.366 204.736H176.098V214.004H185.366V204.736Z" fill="black"/>
<path d="M203.903 204.736H194.635V214.004H203.903V204.736Z" fill="black"/>
<path d="M231.708 204.736H222.439V214.004H231.708V204.736Z" fill="black"/>
<path d="M240.975 204.736H231.707V214.004H240.975V204.736Z" fill="black"/>
<path d="M268.78 204.736H259.512V214.004H268.78V204.736Z" fill="black"/>
<path d="M287.317 204.736H278.049V214.004H287.317V204.736Z" fill="black"/>
<path d="M305.854 204.736H296.586V214.004H305.854V204.736Z" fill="black"/>
<path d="M315.122 204.736H305.854V214.004H315.122V204.736Z" fill="black"/>
<path d="M333.659 204.736H324.391V214.004H333.659V204.736Z" fill="black"/>
<path d="M342.926 204.736H333.658V214.004H342.926V204.736Z" fill="black"/>
<path d="M370.731 204.736H361.463V214.004H370.731V204.736Z" fill="black"/>
<path d="M18.5359 214.004H9.26758V223.273H18.5359V214.004Z" fill="black"/>
<path d="M46.3406 214.004H37.0723V223.273H46.3406V214.004Z" fill="black"/>
<path d="M74.1472 214.004H64.8789V223.273H74.1472V214.004Z" fill="black"/>
<path d="M101.952 214.004H92.6836V223.273H101.952V214.004Z" fill="black"/>
<path d="M111.219 214.004H101.951V223.273H111.219V214.004Z" fill="black"/>
<path d="M129.757 214.004H120.488V223.273H129.757V214.004Z" fill="black"/>
<path d="M139.024 214.004H129.756V223.273H139.024V214.004Z" fill="black"/>
<path d="M157.561 214.004H148.293V223.273H157.561V214.004Z" fill="black"/>
<path d="M166.829 214.004H157.561V223.273H166.829V214.004Z" fill="black"/>
<path d="M176.098 214.004H166.83V223.273H176.098V214.004Z" fill="black"/>
<path d="M194.634 214.004H185.365V223.273H194.634V214.004Z" fill="black"/>
<path d="M203.903 214.004H194.635V223.273H203.903V214.004Z" fill="black"/>
<path d="M231.708 214.004H222.439V223.273H231.708V214.004Z" fill="black"/>
<path d="M259.512 214.004H250.244V223.273H259.512V214.004Z" fill="black"/>
<path d="M287.317 214.004H278.049V223.273H287.317V214.004Z" fill="black"/>
<path d="M305.854 214.004H296.586V223.273H305.854V214.004Z" fill="black"/>
<path d="M315.122 214.004H305.854V223.273H315.122V214.004Z" fill="black"/>
<path d="M333.659 214.004H324.391V223.273H333.659V214.004Z" fill="black"/>
<path d="M9.26829 223.272H0V232.541H9.26829V223.272Z" fill="black"/>
<path d="M37.073 223.272H27.8047V232.541H37.073V223.272Z" fill="black"/>
<path d="M46.3406 223.272H37.0723V232.541H46.3406V223.272Z" fill="black"/>
<path d="M64.8777 223.272H55.6094V232.541H64.8777V223.272Z" fill="black"/>
<path d="M74.1472 223.272H64.8789V232.541H74.1472V223.272Z" fill="black"/>
<path d="M83.4148 223.272H74.1465V232.541H83.4148V223.272Z" fill="black"/>
<path d="M101.952 223.272H92.6836V232.541H101.952V223.272Z" fill="black"/>
<path d="M129.757 223.272H120.488V232.541H129.757V223.272Z" fill="black"/>
<path d="M139.024 223.272H129.756V232.541H139.024V223.272Z" fill="black"/>
<path d="M166.829 223.272H157.561V232.541H166.829V223.272Z" fill="black"/>
<path d="M176.098 223.272H166.83V232.541H176.098V223.272Z" fill="black"/>
<path d="M240.975 223.272H231.707V232.541H240.975V223.272Z" fill="black"/>
<path d="M259.512 223.272H250.244V232.541H259.512V223.272Z" fill="black"/>
<path d="M268.78 223.272H259.512V232.541H268.78V223.272Z" fill="black"/>
<path d="M287.317 223.272H278.049V232.541H287.317V223.272Z" fill="black"/>
<path d="M315.122 223.272H305.854V232.541H315.122V223.272Z" fill="black"/>
<path d="M342.926 223.272H333.658V232.541H342.926V223.272Z" fill="black"/>
<path d="M370.731 223.272H361.463V232.541H370.731V223.272Z" fill="black"/>
<path d="M380.001 223.272H370.732V232.541H380.001V223.272Z" fill="black"/>
<path d="M9.26829 232.541H0V241.809H9.26829V232.541Z" fill="black"/>
<path d="M18.5359 232.541H9.26758V241.809H18.5359V232.541Z" fill="black"/>
<path d="M27.8054 232.541H18.5371V241.809H27.8054V232.541Z" fill="black"/>
<path d="M46.3406 232.541H37.0723V241.809H46.3406V232.541Z" fill="black"/>
<path d="M74.1472 232.541H64.8789V241.809H74.1472V232.541Z" fill="black"/>
<path d="M101.952 232.541H92.6836V241.809H101.952V232.541Z" fill="black"/>
<path d="M111.219 232.541H101.951V241.809H111.219V232.541Z" fill="black"/>
<path d="M120.487 232.541H111.219V241.809H120.487V232.541Z" fill="black"/>
<path d="M139.024 232.541H129.756V241.809H139.024V232.541Z" fill="black"/>
<path d="M148.292 232.541H139.023V241.809H148.292V232.541Z" fill="black"/>
<path d="M176.098 232.541H166.83V241.809H176.098V232.541Z" fill="black"/>
<path d="M203.903 232.541H194.635V241.809H203.903V232.541Z" fill="black"/>
<path d="M231.708 232.541H222.439V241.809H231.708V232.541Z" fill="black"/>
<path d="M250.245 232.541H240.977V241.809H250.245V232.541Z" fill="black"/>
<path d="M278.05 232.541H268.781V241.809H278.05V232.541Z" fill="black"/>
<path d="M296.585 232.541H287.316V241.809H296.585V232.541Z" fill="black"/>
<path d="M305.854 232.541H296.586V241.809H305.854V232.541Z" fill="black"/>
<path d="M315.122 232.541H305.854V241.809H315.122V232.541Z" fill="black"/>
<path d="M324.389 232.541H315.121V241.809H324.389V232.541Z" fill="black"/>
<path d="M333.659 232.541H324.391V241.809H333.659V232.541Z" fill="black"/>
<path d="M352.196 232.541H342.928V241.809H352.196V232.541Z" fill="black"/>
<path d="M361.464 232.541H352.195V241.809H361.464V232.541Z" fill="black"/>
<path d="M370.731 232.541H361.463V241.809H370.731V232.541Z" fill="black"/>
<path d="M380.001 232.541H370.732V241.809H380.001V232.541Z" fill="black"/>
<path d="M9.26829 241.809H0V251.077H9.26829V241.809Z" fill="black"/>
<path d="M18.5359 241.809H9.26758V251.077H18.5359V241.809Z" fill="black"/>
<path d="M27.8054 241.809H18.5371V251.077H27.8054V241.809Z" fill="black"/>
<path d="M37.073 241.809H27.8047V251.077H37.073V241.809Z" fill="black"/>
<path d="M55.6101 241.809H46.3418V251.077H55.6101V241.809Z" fill="black"/>
<path d="M64.8777 241.809H55.6094V251.077H64.8777V241.809Z" fill="black"/>
<path d="M83.4148 241.809H74.1465V251.077H83.4148V241.809Z" fill="black"/>
<path d="M101.952 241.809H92.6836V251.077H101.952V241.809Z" fill="black"/>
<path d="M120.487 241.809H111.219V251.077H120.487V241.809Z" fill="black"/>
<path d="M129.757 241.809H120.488V251.077H129.757V241.809Z" fill="black"/>
<path d="M148.292 241.809H139.023V251.077H148.292V241.809Z" fill="black"/>
<path d="M166.829 241.809H157.561V251.077H166.829V241.809Z" fill="black"/>
<path d="M176.098 241.809H166.83V251.077H176.098V241.809Z" fill="black"/>
<path d="M185.366 241.809H176.098V251.077H185.366V241.809Z" fill="black"/>
<path d="M213.171 241.809H203.902V251.077H213.171V241.809Z" fill="black"/>
<path d="M222.438 241.809H213.17V251.077H222.438V241.809Z" fill="black"/>
<path d="M231.708 241.809H222.439V251.077H231.708V241.809Z" fill="black"/>
<path d="M240.975 241.809H231.707V251.077H240.975V241.809Z" fill="black"/>
<path d="M268.78 241.809H259.512V251.077H268.78V241.809Z" fill="black"/>
<path d="M278.05 241.809H268.781V251.077H278.05V241.809Z" fill="black"/>
<path d="M305.854 241.809H296.586V251.077H305.854V241.809Z" fill="black"/>
<path d="M315.122 241.809H305.854V251.077H315.122V241.809Z" fill="black"/>
<path d="M324.389 241.809H315.121V251.077H324.389V241.809Z" fill="black"/>
<path d="M333.659 241.809H324.391V251.077H333.659V241.809Z" fill="black"/>
<path d="M342.926 241.809H333.658V251.077H342.926V241.809Z" fill="black"/>
<path d="M352.196 241.809H342.928V251.077H352.196V241.809Z" fill="black"/>
<path d="M361.464 241.809H352.195V251.077H361.464V241.809Z" fill="black"/>
<path d="M370.731 241.809H361.463V251.077H370.731V241.809Z" fill="black"/>
<path d="M9.26829 251.077H0V260.345H9.26829V251.077Z" fill="black"/>
<path d="M46.3406 251.077H37.0723V260.345H46.3406V251.077Z" fill="black"/>
<path d="M74.1472 251.077H64.8789V260.345H74.1472V251.077Z" fill="black"/>
<path d="M83.4148 251.077H74.1465V260.345H83.4148V251.077Z" fill="black"/>
<path d="M92.6824 251.077H83.4141V260.345H92.6824V251.077Z" fill="black"/>
<path d="M101.952 251.077H92.6836V260.345H101.952V251.077Z" fill="black"/>
<path d="M120.487 251.077H111.219V260.345H120.487V251.077Z" fill="black"/>
<path d="M157.561 251.077H148.293V260.345H157.561V251.077Z" fill="black"/>
<path d="M166.829 251.077H157.561V260.345H166.829V251.077Z" fill="black"/>
<path d="M185.366 251.077H176.098V260.345H185.366V251.077Z" fill="black"/>
<path d="M194.634 251.077H185.365V260.345H194.634V251.077Z" fill="black"/>
<path d="M250.245 251.077H240.977V260.345H250.245V251.077Z" fill="black"/>
<path d="M268.78 251.077H259.512V260.345H268.78V251.077Z" fill="black"/>
<path d="M278.05 251.077H268.781V260.345H278.05V251.077Z" fill="black"/>
<path d="M287.317 251.077H278.049V260.345H287.317V251.077Z" fill="black"/>
<path d="M296.585 251.077H287.316V260.345H296.585V251.077Z" fill="black"/>
<path d="M315.122 251.077H305.854V260.345H315.122V251.077Z" fill="black"/>
<path d="M324.389 251.077H315.121V260.345H324.389V251.077Z" fill="black"/>
<path d="M333.659 251.077H324.391V260.345H333.659V251.077Z" fill="black"/>
<path d="M342.926 251.077H333.658V260.345H342.926V251.077Z" fill="black"/>
<path d="M361.464 251.077H352.195V260.345H361.464V251.077Z" fill="black"/>
<path d="M380.001 251.077H370.732V260.345H380.001V251.077Z" fill="black"/>
<path d="M9.26829 260.346H0V269.614H9.26829V260.346Z" fill="black"/>
<path d="M46.3406 260.346H37.0723V269.614H46.3406V260.346Z" fill="black"/>
<path d="M64.8777 260.346H55.6094V269.614H64.8777V260.346Z" fill="black"/>
<path d="M74.1472 260.346H64.8789V269.614H74.1472V260.346Z" fill="black"/>
<path d="M83.4148 260.346H74.1465V269.614H83.4148V260.346Z" fill="black"/>
<path d="M120.487 260.346H111.219V269.614H120.487V260.346Z" fill="black"/>
<path d="M129.757 260.346H120.488V269.614H129.757V260.346Z" fill="black"/>
<path d="M166.829 260.346H157.561V269.614H166.829V260.346Z" fill="black"/>
<path d="M194.634 260.346H185.365V269.614H194.634V260.346Z" fill="black"/>
<path d="M203.903 260.346H194.635V269.614H203.903V260.346Z" fill="black"/>
<path d="M222.438 260.346H213.17V269.614H222.438V260.346Z" fill="black"/>
<path d="M231.708 260.346H222.439V269.614H231.708V260.346Z" fill="black"/>
<path d="M240.975 260.346H231.707V269.614H240.975V260.346Z" fill="black"/>
<path d="M250.245 260.346H240.977V269.614H250.245V260.346Z" fill="black"/>
<path d="M268.78 260.346H259.512V269.614H268.78V260.346Z" fill="black"/>
<path d="M287.317 260.346H278.049V269.614H287.317V260.346Z" fill="black"/>
<path d="M305.854 260.346H296.586V269.614H305.854V260.346Z" fill="black"/>
<path d="M342.926 260.346H333.658V269.614H342.926V260.346Z" fill="black"/>
<path d="M361.464 260.346H352.195V269.614H361.464V260.346Z" fill="black"/>
<path d="M18.5359 269.614H9.26758V278.882H18.5359V269.614Z" fill="black"/>
<path d="M27.8054 269.614H18.5371V278.882H27.8054V269.614Z" fill="black"/>
<path d="M74.1472 269.614H64.8789V278.882H74.1472V269.614Z" fill="black"/>
<path d="M83.4148 269.614H74.1465V278.882H83.4148V269.614Z" fill="black"/>
<path d="M92.6824 269.614H83.4141V278.882H92.6824V269.614Z" fill="black"/>
<path d="M101.952 269.614H92.6836V278.882H101.952V269.614Z" fill="black"/>
<path d="M111.219 269.614H101.951V278.882H111.219V269.614Z" fill="black"/>
<path d="M129.757 269.614H120.488V278.882H129.757V269.614Z" fill="black"/>
<path d="M139.024 269.614H129.756V278.882H139.024V269.614Z" fill="black"/>
<path d="M166.829 269.614H157.561V278.882H166.829V269.614Z" fill="black"/>
<path d="M194.634 269.614H185.365V278.882H194.634V269.614Z" fill="black"/>
<path d="M203.903 269.614H194.635V278.882H203.903V269.614Z" fill="black"/>
<path d="M213.171 269.614H203.902V278.882H213.171V269.614Z" fill="black"/>
<path d="M231.708 269.614H222.439V278.882H231.708V269.614Z" fill="black"/>
<path d="M240.975 269.614H231.707V278.882H240.975V269.614Z" fill="black"/>
<path d="M250.245 269.614H240.977V278.882H250.245V269.614Z" fill="black"/>
<path d="M259.512 269.614H250.244V278.882H259.512V269.614Z" fill="black"/>
<path d="M287.317 269.614H278.049V278.882H287.317V269.614Z" fill="black"/>
<path d="M296.585 269.614H287.316V278.882H296.585V269.614Z" fill="black"/>
<path d="M305.854 269.614H296.586V278.882H305.854V269.614Z" fill="black"/>
<path d="M315.122 269.614H305.854V278.882H315.122V269.614Z" fill="black"/>
<path d="M324.389 269.614H315.121V278.882H324.389V269.614Z" fill="black"/>
<path d="M333.659 269.614H324.391V278.882H333.659V269.614Z" fill="black"/>
<path d="M9.26829 278.882H0V288.151H9.26829V278.882Z" fill="black"/>
<path d="M64.8777 278.882H55.6094V288.151H64.8777V278.882Z" fill="black"/>
<path d="M74.1472 278.882H64.8789V288.151H74.1472V278.882Z" fill="black"/>
<path d="M92.6824 278.882H83.4141V288.151H92.6824V278.882Z" fill="black"/>
<path d="M139.024 278.882H129.756V288.151H139.024V278.882Z" fill="black"/>
<path d="M157.561 278.882H148.293V288.151H157.561V278.882Z" fill="black"/>
<path d="M166.829 278.882H157.561V288.151H166.829V278.882Z" fill="black"/>
<path d="M176.098 278.882H166.83V288.151H176.098V278.882Z" fill="black"/>
<path d="M185.366 278.882H176.098V288.151H185.366V278.882Z" fill="black"/>
<path d="M194.634 278.882H185.365V288.151H194.634V278.882Z" fill="black"/>
<path d="M203.903 278.882H194.635V288.151H203.903V278.882Z" fill="black"/>
<path d="M222.438 278.882H213.17V288.151H222.438V278.882Z" fill="black"/>
<path d="M240.975 278.882H231.707V288.151H240.975V278.882Z" fill="black"/>
<path d="M250.245 278.882H240.977V288.151H250.245V278.882Z" fill="black"/>
<path d="M278.05 278.882H268.781V288.151H278.05V278.882Z" fill="black"/>
<path d="M305.854 278.882H296.586V288.151H305.854V278.882Z" fill="black"/>
<path d="M361.464 278.882H352.195V288.151H361.464V278.882Z" fill="black"/>
<path d="M370.731 278.882H361.463V288.151H370.731V278.882Z" fill="black"/>
<path d="M27.8054 288.15H18.5371V297.419H27.8054V288.15Z" fill="black"/>
<path d="M46.3406 288.15H37.0723V297.419H46.3406V288.15Z" fill="black"/>
<path d="M55.6101 288.15H46.3418V297.419H55.6101V288.15Z" fill="black"/>
<path d="M74.1472 288.15H64.8789V297.419H74.1472V288.15Z" fill="black"/>
<path d="M83.4148 288.15H74.1465V297.419H83.4148V288.15Z" fill="black"/>
<path d="M92.6824 288.15H83.4141V297.419H92.6824V288.15Z" fill="black"/>
<path d="M101.952 288.15H92.6836V297.419H101.952V288.15Z" fill="black"/>
<path d="M111.219 288.15H101.951V297.419H111.219V288.15Z" fill="black"/>
<path d="M120.487 288.15H111.219V297.419H120.487V288.15Z" fill="black"/>
<path d="M148.292 288.15H139.023V297.419H148.292V288.15Z" fill="black"/>
<path d="M157.561 288.15H148.293V297.419H157.561V288.15Z" fill="black"/>
<path d="M203.903 288.15H194.635V297.419H203.903V288.15Z" fill="black"/>
<path d="M213.171 288.15H203.902V297.419H213.171V288.15Z" fill="black"/>
<path d="M231.708 288.15H222.439V297.419H231.708V288.15Z" fill="black"/>
<path d="M259.512 288.15H250.244V297.419H259.512V288.15Z" fill="black"/>
<path d="M268.78 288.15H259.512V297.419H268.78V288.15Z" fill="black"/>
<path d="M278.05 288.15H268.781V297.419H278.05V288.15Z" fill="black"/>
<path d="M296.585 288.15H287.316V297.419H296.585V288.15Z" fill="black"/>
<path d="M315.122 288.15H305.854V297.419H315.122V288.15Z" fill="black"/>
<path d="M324.389 288.15H315.121V297.419H324.389V288.15Z" fill="black"/>
<path d="M352.196 288.15H342.928V297.419H352.196V288.15Z" fill="black"/>
<path d="M370.731 288.15H361.463V297.419H370.731V288.15Z" fill="black"/>
<path d="M380.001 288.15H370.732V297.419H380.001V288.15Z" fill="black"/>
<path d="M18.5359 297.419H9.26758V306.687H18.5359V297.419Z" fill="black"/>
<path d="M27.8054 297.419H18.5371V306.687H27.8054V297.419Z" fill="black"/>
<path d="M37.073 297.419H27.8047V306.687H37.073V297.419Z" fill="black"/>
<path d="M64.8777 297.419H55.6094V306.687H64.8777V297.419Z" fill="black"/>
<path d="M83.4148 297.419H74.1465V306.687H83.4148V297.419Z" fill="black"/>
<path d="M92.6824 297.419H83.4141V306.687H92.6824V297.419Z" fill="black"/>
<path d="M101.952 297.419H92.6836V306.687H101.952V297.419Z" fill="black"/>
<path d="M139.024 297.419H129.756V306.687H139.024V297.419Z" fill="black"/>
<path d="M148.292 297.419H139.023V306.687H148.292V297.419Z" fill="black"/>
<path d="M157.561 297.419H148.293V306.687H157.561V297.419Z" fill="black"/>
<path d="M166.829 297.419H157.561V306.687H166.829V297.419Z" fill="black"/>
<path d="M185.366 297.419H176.098V306.687H185.366V297.419Z" fill="black"/>
<path d="M203.903 297.419H194.635V306.687H203.903V297.419Z" fill="black"/>
<path d="M222.438 297.419H213.17V306.687H222.438V297.419Z" fill="black"/>
<path d="M231.708 297.419H222.439V306.687H231.708V297.419Z" fill="black"/>
<path d="M240.975 297.419H231.707V306.687H240.975V297.419Z" fill="black"/>
<path d="M296.585 297.419H287.316V306.687H296.585V297.419Z" fill="black"/>
<path d="M305.854 297.419H296.586V306.687H305.854V297.419Z" fill="black"/>
<path d="M315.122 297.419H305.854V306.687H315.122V297.419Z" fill="black"/>
<path d="M324.389 297.419H315.121V306.687H324.389V297.419Z" fill="black"/>
<path d="M333.659 297.419H324.391V306.687H333.659V297.419Z" fill="black"/>
<path d="M342.926 297.419H333.658V306.687H342.926V297.419Z" fill="black"/>
<path d="M361.464 297.419H352.195V306.687H361.464V297.419Z" fill="black"/>
<path d="M370.731 297.419H361.463V306.687H370.731V297.419Z" fill="black"/>
<path d="M380.001 297.419H370.732V306.687H380.001V297.419Z" fill="black"/>
<path d="M83.4148 306.687H74.1465V315.955H83.4148V306.687Z" fill="black"/>
<path d="M92.6824 306.687H83.4141V315.955H92.6824V306.687Z" fill="black"/>
<path d="M101.952 306.687H92.6836V315.955H101.952V306.687Z" fill="black"/>
<path d="M120.487 306.687H111.219V315.955H120.487V306.687Z" fill="black"/>
<path d="M139.024 306.687H129.756V315.955H139.024V306.687Z" fill="black"/>
<path d="M157.561 306.687H148.293V315.955H157.561V306.687Z" fill="black"/>
<path d="M166.829 306.687H157.561V315.955H166.829V306.687Z" fill="black"/>
<path d="M185.366 306.687H176.098V315.955H185.366V306.687Z" fill="black"/>
<path d="M203.903 306.687H194.635V315.955H203.903V306.687Z" fill="black"/>
<path d="M222.438 306.687H213.17V315.955H222.438V306.687Z" fill="black"/>
<path d="M259.512 306.687H250.244V315.955H259.512V306.687Z" fill="black"/>
<path d="M296.585 306.687H287.316V315.955H296.585V306.687Z" fill="black"/>
<path d="M305.854 306.687H296.586V315.955H305.854V306.687Z" fill="black"/>
<path d="M342.926 306.687H333.658V315.955H342.926V306.687Z" fill="black"/>
<path d="M352.196 306.687H342.928V315.955H352.196V306.687Z" fill="black"/>
<path d="M370.731 306.687H361.463V315.955H370.731V306.687Z" fill="black"/>
<path d="M380.001 306.687H370.732V315.955H380.001V306.687Z" fill="black"/>
<path d="M9.26829 315.956H0V325.224H9.26829V315.956Z" fill="black"/>
<path d="M18.5359 315.956H9.26758V325.224H18.5359V315.956Z" fill="black"/>
<path d="M27.8054 315.956H18.5371V325.224H27.8054V315.956Z" fill="black"/>
<path d="M37.073 315.956H27.8047V325.224H37.073V315.956Z" fill="black"/>
<path d="M46.3406 315.956H37.0723V325.224H46.3406V315.956Z" fill="black"/>
<path d="M55.6101 315.956H46.3418V325.224H55.6101V315.956Z" fill="black"/>
<path d="M64.8777 315.956H55.6094V325.224H64.8777V315.956Z" fill="black"/>
<path d="M83.4148 315.956H74.1465V325.224H83.4148V315.956Z" fill="black"/>
<path d="M129.757 315.956H120.488V325.224H129.757V315.956Z" fill="black"/>
<path d="M194.634 315.956H185.365V325.224H194.634V315.956Z" fill="black"/>
<path d="M213.171 315.956H203.902V325.224H213.171V315.956Z" fill="black"/>
<path d="M222.438 315.956H213.17V325.224H222.438V315.956Z" fill="black"/>
<path d="M250.245 315.956H240.977V325.224H250.245V315.956Z" fill="black"/>
<path d="M259.512 315.956H250.244V325.224H259.512V315.956Z" fill="black"/>
<path d="M287.317 315.956H278.049V325.224H287.317V315.956Z" fill="black"/>
<path d="M296.585 315.956H287.316V325.224H296.585V315.956Z" fill="black"/>
<path d="M305.854 315.956H296.586V325.224H305.854V315.956Z" fill="black"/>
<path d="M324.389 315.956H315.121V325.224H324.389V315.956Z" fill="black"/>
<path d="M342.926 315.956H333.658V325.224H342.926V315.956Z" fill="black"/>
<path d="M370.731 315.956H361.463V325.224H370.731V315.956Z" fill="black"/>
<path d="M380.001 315.956H370.732V325.224H380.001V315.956Z" fill="black"/>
<path d="M9.26829 325.224H0V334.492H9.26829V325.224Z" fill="black"/>
<path d="M64.8777 325.224H55.6094V334.492H64.8777V325.224Z" fill="black"/>
<path d="M92.6824 325.224H83.4141V334.492H92.6824V325.224Z" fill="black"/>
<path d="M101.952 325.224H92.6836V334.492H101.952V325.224Z" fill="black"/>
<path d="M120.487 325.224H111.219V334.492H120.487V325.224Z" fill="black"/>
<path d="M129.757 325.224H120.488V334.492H129.757V325.224Z" fill="black"/>
<path d="M139.024 325.224H129.756V334.492H139.024V325.224Z" fill="black"/>
<path d="M157.561 325.224H148.293V334.492H157.561V325.224Z" fill="black"/>
<path d="M166.829 325.224H157.561V334.492H166.829V325.224Z" fill="black"/>
<path d="M176.098 325.224H166.83V334.492H176.098V325.224Z" fill="black"/>
<path d="M185.366 325.224H176.098V334.492H185.366V325.224Z" fill="black"/>
<path d="M213.171 325.224H203.902V334.492H213.171V325.224Z" fill="black"/>
<path d="M222.438 325.224H213.17V334.492H222.438V325.224Z" fill="black"/>
<path d="M231.708 325.224H222.439V334.492H231.708V325.224Z" fill="black"/>
<path d="M259.512 325.224H250.244V334.492H259.512V325.224Z" fill="black"/>
<path d="M287.317 325.224H278.049V334.492H287.317V325.224Z" fill="black"/>
<path d="M305.854 325.224H296.586V334.492H305.854V325.224Z" fill="black"/>
<path d="M342.926 325.224H333.658V334.492H342.926V325.224Z" fill="black"/>
<path d="M352.196 325.224H342.928V334.492H352.196V325.224Z" fill="black"/>
<path d="M9.26829 334.492H0V343.76H9.26829V334.492Z" fill="black"/>
<path d="M27.8054 334.492H18.5371V343.76H27.8054V334.492Z" fill="black"/>
<path d="M37.073 334.492H27.8047V343.76H37.073V334.492Z" fill="black"/>
<path d="M46.3406 334.492H37.0723V343.76H46.3406V334.492Z" fill="black"/>
<path d="M64.8777 334.492H55.6094V343.76H64.8777V334.492Z" fill="black"/>
<path d="M101.952 334.492H92.6836V343.76H101.952V334.492Z" fill="black"/>
<path d="M120.487 334.492H111.219V343.76H120.487V334.492Z" fill="black"/>
<path d="M129.757 334.492H120.488V343.76H129.757V334.492Z" fill="black"/>
<path d="M139.024 334.492H129.756V343.76H139.024V334.492Z" fill="black"/>
<path d="M157.561 334.492H148.293V343.76H157.561V334.492Z" fill="black"/>
<path d="M176.098 334.492H166.83V343.76H176.098V334.492Z" fill="black"/>
<path d="M185.366 334.492H176.098V343.76H185.366V334.492Z" fill="black"/>
<path d="M231.708 334.492H222.439V343.76H231.708V334.492Z" fill="black"/>
<path d="M240.975 334.492H231.707V343.76H240.975V334.492Z" fill="black"/>
<path d="M259.512 334.492H250.244V343.76H259.512V334.492Z" fill="black"/>
<path d="M268.78 334.492H259.512V343.76H268.78V334.492Z" fill="black"/>
<path d="M278.05 334.492H268.781V343.76H278.05V334.492Z" fill="black"/>
<path d="M287.317 334.492H278.049V343.76H287.317V334.492Z" fill="black"/>
<path d="M296.585 334.492H287.316V343.76H296.585V334.492Z" fill="black"/>
<path d="M305.854 334.492H296.586V343.76H305.854V334.492Z" fill="black"/>
<path d="M315.122 334.492H305.854V343.76H315.122V334.492Z" fill="black"/>
<path d="M324.389 334.492H315.121V343.76H324.389V334.492Z" fill="black"/>
<path d="M333.659 334.492H324.391V343.76H333.659V334.492Z" fill="black"/>
<path d="M342.926 334.492H333.658V343.76H342.926V334.492Z" fill="black"/>
<path d="M352.196 334.492H342.928V343.76H352.196V334.492Z" fill="black"/>
<path d="M370.731 334.492H361.463V343.76H370.731V334.492Z" fill="black"/>
<path d="M9.26829 343.76H0V353.029H9.26829V343.76Z" fill="black"/>
<path d="M27.8054 343.76H18.5371V353.029H27.8054V343.76Z" fill="black"/>
<path d="M37.073 343.76H27.8047V353.029H37.073V343.76Z" fill="black"/>
<path d="M46.3406 343.76H37.0723V353.029H46.3406V343.76Z" fill="black"/>
<path d="M64.8777 343.76H55.6094V353.029H64.8777V343.76Z" fill="black"/>
<path d="M83.4148 343.76H74.1465V353.029H83.4148V343.76Z" fill="black"/>
<path d="M92.6824 343.76H83.4141V353.029H92.6824V343.76Z" fill="black"/>
<path d="M101.952 343.76H92.6836V353.029H101.952V343.76Z" fill="black"/>
<path d="M120.487 343.76H111.219V353.029H120.487V343.76Z" fill="black"/>
<path d="M139.024 343.76H129.756V353.029H139.024V343.76Z" fill="black"/>
<path d="M148.292 343.76H139.023V353.029H148.292V343.76Z" fill="black"/>
<path d="M157.561 343.76H148.293V353.029H157.561V343.76Z" fill="black"/>
<path d="M176.098 343.76H166.83V353.029H176.098V343.76Z" fill="black"/>
<path d="M185.366 343.76H176.098V353.029H185.366V343.76Z" fill="black"/>
<path d="M194.634 343.76H185.365V353.029H194.634V343.76Z" fill="black"/>
<path d="M213.171 343.76H203.902V353.029H213.171V343.76Z" fill="black"/>
<path d="M250.245 343.76H240.977V353.029H250.245V343.76Z" fill="black"/>
<path d="M259.512 343.76H250.244V353.029H259.512V343.76Z" fill="black"/>
<path d="M278.05 343.76H268.781V353.029H278.05V343.76Z" fill="black"/>
<path d="M333.659 343.76H324.391V353.029H333.659V343.76Z" fill="black"/>
<path d="M361.464 343.76H352.195V353.029H361.464V343.76Z" fill="black"/>
<path d="M370.731 343.76H361.463V353.029H370.731V343.76Z" fill="black"/>
<path d="M9.26829 353.029H0V362.297H9.26829V353.029Z" fill="black"/>
<path d="M27.8054 353.029H18.5371V362.297H27.8054V353.029Z" fill="black"/>
<path d="M37.073 353.029H27.8047V362.297H37.073V353.029Z" fill="black"/>
<path d="M46.3406 353.029H37.0723V362.297H46.3406V353.029Z" fill="black"/>
<path d="M64.8777 353.029H55.6094V362.297H64.8777V353.029Z" fill="black"/>
<path d="M83.4148 353.029H74.1465V362.297H83.4148V353.029Z" fill="black"/>
<path d="M120.487 353.029H111.219V362.297H120.487V353.029Z" fill="black"/>
<path d="M157.561 353.029H148.293V362.297H157.561V353.029Z" fill="black"/>
<path d="M194.634 353.029H185.365V362.297H194.634V353.029Z" fill="black"/>
<path d="M203.903 353.029H194.635V362.297H203.903V353.029Z" fill="black"/>
<path d="M213.171 353.029H203.902V362.297H213.171V353.029Z" fill="black"/>
<path d="M222.438 353.029H213.17V362.297H222.438V353.029Z" fill="black"/>
<path d="M240.975 353.029H231.707V362.297H240.975V353.029Z" fill="black"/>
<path d="M250.245 353.029H240.977V362.297H250.245V353.029Z" fill="black"/>
<path d="M278.05 353.029H268.781V362.297H278.05V353.029Z" fill="black"/>
<path d="M287.317 353.029H278.049V362.297H287.317V353.029Z" fill="black"/>
<path d="M296.585 353.029H287.316V362.297H296.585V353.029Z" fill="black"/>
<path d="M315.122 353.029H305.854V362.297H315.122V353.029Z" fill="black"/>
<path d="M333.659 353.029H324.391V362.297H333.659V353.029Z" fill="black"/>
<path d="M361.464 353.029H352.195V362.297H361.464V353.029Z" fill="black"/>
<path d="M380.001 353.029H370.732V362.297H380.001V353.029Z" fill="black"/>
<path d="M9.26829 362.297H0V371.565H9.26829V362.297Z" fill="black"/>
<path d="M64.8777 362.297H55.6094V371.565H64.8777V362.297Z" fill="black"/>
<path d="M111.219 362.297H101.951V371.565H111.219V362.297Z" fill="black"/>
<path d="M120.487 362.297H111.219V371.565H120.487V362.297Z" fill="black"/>
<path d="M129.757 362.297H120.488V371.565H129.757V362.297Z" fill="black"/>
<path d="M157.561 362.297H148.293V371.565H157.561V362.297Z" fill="black"/>
<path d="M185.366 362.297H176.098V371.565H185.366V362.297Z" fill="black"/>
<path d="M194.634 362.297H185.365V371.565H194.634V362.297Z" fill="black"/>
<path d="M203.903 362.297H194.635V371.565H203.903V362.297Z" fill="black"/>
<path d="M231.708 362.297H222.439V371.565H231.708V362.297Z" fill="black"/>
<path d="M250.245 362.297H240.977V371.565H250.245V362.297Z" fill="black"/>
<path d="M268.78 362.297H259.512V371.565H268.78V362.297Z" fill="black"/>
<path d="M278.05 362.297H268.781V371.565H278.05V362.297Z" fill="black"/>
<path d="M287.317 362.297H278.049V371.565H287.317V362.297Z" fill="black"/>
<path d="M305.854 362.297H296.586V371.565H305.854V362.297Z" fill="black"/>
<path d="M315.122 362.297H305.854V371.565H315.122V362.297Z" fill="black"/>
<path d="M333.659 362.297H324.391V371.565H333.659V362.297Z" fill="black"/>
<path d="M352.196 362.297H342.928V371.565H352.196V362.297Z" fill="black"/>
<path d="M361.464 362.297H352.195V371.565H361.464V362.297Z" fill="black"/>
<path d="M380.001 362.297H370.732V371.565H380.001V362.297Z" fill="black"/>
<path d="M9.26829 371.565H0V380.834H9.26829V371.565Z" fill="black"/>
<path d="M18.5359 371.565H9.26758V380.834H18.5359V371.565Z" fill="black"/>
<path d="M27.8054 371.565H18.5371V380.834H27.8054V371.565Z" fill="black"/>
<path d="M37.073 371.565H27.8047V380.834H37.073V371.565Z" fill="black"/>
<path d="M46.3406 371.565H37.0723V380.834H46.3406V371.565Z" fill="black"/>
<path d="M55.6101 371.565H46.3418V380.834H55.6101V371.565Z" fill="black"/>
<path d="M64.8777 371.565H55.6094V380.834H64.8777V371.565Z" fill="black"/>
<path d="M111.219 371.565H101.951V380.834H111.219V371.565Z" fill="black"/>
<path d="M120.487 371.565H111.219V380.834H120.487V371.565Z" fill="black"/>
<path d="M129.757 371.565H120.488V380.834H129.757V371.565Z" fill="black"/>
<path d="M148.292 371.565H139.023V380.834H148.292V371.565Z" fill="black"/>
<path d="M166.829 371.565H157.561V380.834H166.829V371.565Z" fill="black"/>
<path d="M185.366 371.565H176.098V380.834H185.366V371.565Z" fill="black"/>
<path d="M203.903 371.565H194.635V380.834H203.903V371.565Z" fill="black"/>
<path d="M222.438 371.565H213.17V380.834H222.438V371.565Z" fill="black"/>
<path d="M250.245 371.565H240.977V380.834H250.245V371.565Z" fill="black"/>
<path d="M278.05 371.565H268.781V380.834H278.05V371.565Z" fill="black"/>
<path d="M287.317 371.565H278.049V380.834H287.317V371.565Z" fill="black"/>
<path d="M296.585 371.565H287.316V380.834H296.585V371.565Z" fill="black"/>
<path d="M324.389 371.565H315.121V380.834H324.389V371.565Z" fill="black"/>
<path d="M352.196 371.565H342.928V380.834H352.196V371.565Z" fill="black"/>
<path d="M361.464 371.565H352.195V380.834H361.464V371.565Z" fill="black"/>
<path d="M370.731 371.565H361.463V380.834H370.731V371.565Z" fill="black"/>
</g>
<defs>
<clipPath id="clip0_2529_13131">
<rect width="380" height="380" fill="white" transform="translate(0 0.833496)"/>
</clipPath>
</defs>
</svg>
