<svg width="230" height="44" viewBox="0 0 230 44" fill="none" xmlns="http://www.w3.org/2000/svg">
<path fill-rule="evenodd" clip-rule="evenodd" d="M20.9662 22.156L0.867769 2.09668C0.636932 2.56227 0.5 3.1335 0.5 3.82601V40.4939C0.5 41.1942 0.640844 41.7772 0.879506 42.2428L20.9662 22.156Z" fill="#1A1F25"/>
<path fill-rule="evenodd" clip-rule="evenodd" d="M0.927734 1.96724C0.9354 1.94807 0.946899 1.93274 0.958397 1.91357C0.946899 1.93274 0.939233 1.95191 0.927734 1.96724Z" fill="#1A1F25"/>
<path fill-rule="evenodd" clip-rule="evenodd" d="M22.1297 20.9946L28.3192 14.805L4.71907 1.3969C4.05004 1.01347 3.42012 0.833496 2.85673 0.833496C2.57111 0.833496 2.30898 0.884353 2.06641 0.97434L22.1297 20.9946Z" fill="#1A1F25"/>
<path fill-rule="evenodd" clip-rule="evenodd" d="M37.0473 19.7653L29.8131 15.6533L23.3027 22.1637L29.8131 28.6584L37.0473 24.5464C39.3635 23.2357 39.3635 21.0799 37.0473 19.7653Z" fill="#1A1F25"/>
<path fill-rule="evenodd" clip-rule="evenodd" d="M22.1433 23.3306L2.12305 43.3586C2.83903 43.6012 3.735 43.4838 4.71703 42.9282L28.3328 29.5045L22.1433 23.3306Z" fill="#1A1F25"/>
<path fill-rule="evenodd" clip-rule="evenodd" d="M0.904297 42.3062C0.998197 42.4783 1.10384 42.6348 1.22512 42.7678C1.10384 42.627 0.990372 42.4783 0.904297 42.3062Z" fill="#1A1F25"/>
<path d="M193.975 8.79623H190.081V35.2214H193.975V8.79623Z" fill="#1A1F25"/>
<path fill-rule="evenodd" clip-rule="evenodd" d="M225.173 18.3155L220.708 29.7737H220.57L215.937 18.3155H211.738L218.689 34.3241L214.726 43.2355H218.788L229.5 18.3155H225.173Z" fill="#1A1F25"/>
<path fill-rule="evenodd" clip-rule="evenodd" d="M139.326 35.2214H143.23V8.79623H139.326V35.2214Z" fill="#1A1F25"/>
<path fill-rule="evenodd" clip-rule="evenodd" d="M66.491 20.5427V24.3554H75.5098C75.2391 26.5035 74.5302 28.0685 73.457 29.155C72.1425 30.4858 70.0897 31.9461 66.491 31.9461C60.9379 31.9461 56.6008 27.4156 56.6008 21.7987C56.6008 16.1817 60.9428 11.6512 66.491 11.6512C69.4841 11.6512 71.6699 12.8424 73.2847 14.3725L75.9431 11.6811C73.6883 9.50314 70.6952 7.8335 66.491 7.8335C58.89 7.8335 52.5 14.1034 52.5 21.7987C52.5 29.4939 58.89 35.7588 66.491 35.7588C70.5967 35.7588 73.6883 34.3982 76.1104 31.8414C78.5965 29.3195 79.3743 25.7809 79.3743 22.9201C79.3743 22.0379 79.3104 21.2205 79.1725 20.5377L66.491 20.5427Z" fill="#1A1F25"/>
<path fill-rule="evenodd" clip-rule="evenodd" d="M98.534 26.7732C98.534 31.7388 94.5424 35.7643 89.6185 35.7643C84.6947 35.7643 80.7031 31.7388 80.7031 26.7732C80.7031 21.8075 84.6947 17.782 89.6185 17.782C94.5424 17.782 98.534 21.8075 98.534 26.7732ZM117.98 26.7732C117.98 31.7388 113.988 35.7643 109.064 35.7643C104.14 35.7643 100.149 31.7388 100.149 26.7732C100.149 21.8075 104.14 17.782 109.064 17.782C113.988 17.782 117.98 21.8075 117.98 26.7732ZM89.6184 21.3253C86.9305 21.3253 84.6068 23.5382 84.6068 26.7728C84.6068 29.9726 86.9255 32.2253 89.6184 32.2253C92.3112 32.2253 94.6299 29.9775 94.6299 26.7728C94.6299 23.5382 92.3112 21.3253 89.6184 21.3253ZM109.064 21.3253C111.757 21.3253 114.076 23.5382 114.076 26.7728C114.076 29.9726 111.757 32.2253 109.064 32.2253C106.371 32.2253 104.052 29.9726 104.052 26.7728C104.052 23.5382 106.376 21.3253 109.064 21.3253Z" fill="#1A1F25"/>
<path fill-rule="evenodd" clip-rule="evenodd" d="M132.93 19.7907H132.797C131.921 18.7341 130.237 17.7772 128.125 17.7772C123.685 17.7772 119.614 21.7295 119.614 26.8032C119.614 31.842 123.685 35.7594 128.125 35.7594C130.242 35.7594 131.926 34.8075 132.797 33.721H132.93V35.0118C132.93 38.4508 131.114 40.2899 128.189 40.2899C125.802 40.2899 124.32 38.5554 123.714 37.0901L120.318 38.5206C121.292 40.9029 123.882 43.8335 128.189 43.8335C132.768 43.8335 136.632 41.1072 136.632 34.4686V18.3254H132.93V19.7907ZM128.46 32.2252C125.772 32.2252 123.517 29.9426 123.517 26.8126C123.517 23.6428 125.772 21.3302 128.465 21.3302C131.118 21.3302 133.206 23.6478 133.206 26.8126C133.201 29.9426 131.113 32.2202 128.46 32.2252Z" fill="#1A1F25"/>
<path fill-rule="evenodd" clip-rule="evenodd" d="M179.369 8.79623H170.035V35.2214H173.929V25.2085H179.369C183.687 25.2085 187.93 22.0437 187.93 16.9999C187.93 11.9611 183.687 8.79623 179.369 8.79623ZM179.467 21.5298H173.924V12.4739H179.467C182.381 12.4739 184.035 14.916 184.035 16.9993C184.03 19.0478 182.376 21.5298 179.467 21.5298Z" fill="#1A1F25"/>
<path fill-rule="evenodd" clip-rule="evenodd" d="M161.09 23.5037C160.351 21.4951 158.097 17.782 153.489 17.782C148.915 17.782 145.115 21.4303 145.115 26.7732C145.115 31.812 148.881 35.7643 153.927 35.7643C157.998 35.7643 160.351 33.2424 161.331 31.7771L158.303 29.7337C157.289 31.2338 155.916 32.2207 153.927 32.2207C151.943 32.2207 150.53 31.2986 149.624 29.4944L161.498 24.5204L161.09 23.5037ZM148.979 26.5042C148.88 23.0304 151.637 21.2611 153.626 21.2611C155.172 21.2611 156.486 22.0486 156.92 23.17L148.979 26.5042Z" fill="#1A1F25"/>
<path fill-rule="evenodd" clip-rule="evenodd" d="M203.545 17.7372C200.724 17.7372 197.805 18.9932 196.594 21.7842L200.05 23.2446C200.788 21.7843 202.167 21.3058 203.609 21.3058C205.622 21.3058 207.67 22.5319 207.705 24.7049V24.979C206.996 24.5703 205.49 23.9623 203.643 23.9623C199.912 23.9623 196.121 26.0356 196.121 29.9082C196.121 33.4468 199.178 35.7245 202.605 35.7245C205.219 35.7245 206.666 34.5333 207.572 33.1378H207.705V35.1763H211.466V25.0438C211.471 20.3538 208.01 17.7372 203.545 17.7372ZM203.072 32.2209C201.797 32.2209 200.015 31.573 200.015 29.9781C200.015 27.9397 202.231 27.1572 204.146 27.1572C205.854 27.1572 206.666 27.531 207.705 28.0394C207.405 30.4865 205.322 32.2209 203.072 32.2209Z" fill="#1A1F25"/>
</svg>
