<svg width="134" height="31" viewBox="0 0 134 31" fill="none" xmlns="http://www.w3.org/2000/svg">
<path d="M37.8809 29.9709V0.5H58.8401V5.79398H43.8574V14.8825H57.7431V20.1767H43.8574V29.9709H37.8809ZM61.6804 29.9709V0.5H67.437V29.9709H61.6804ZM78.5371 30.5C76.8673 30.5 75.417 30.2207 74.1869 29.6619C72.9565 29.1033 72.0043 28.3018 71.3305 27.2575C70.6567 26.2135 70.3199 25.0001 70.3199 23.6177C70.3199 22.2945 70.6129 21.1102 71.1988 20.0662C71.7847 19.0222 72.6926 18.147 73.9233 17.4414C75.1537 16.7355 76.7063 16.2355 78.5812 15.9413L86.4028 14.6617V19.0736L79.6797 20.2207C78.5371 20.4266 77.6876 20.7941 77.1307 21.3238C76.5743 21.853 76.2959 22.5443 76.2959 23.397C76.2959 24.2208 76.6108 24.8753 77.2408 25.3605C77.8705 25.846 78.6543 26.0884 79.5918 26.0884C80.7929 26.0884 81.8546 25.8311 82.7776 25.3162C83.7002 24.8014 84.4181 24.0883 84.9309 23.1768C85.4437 22.2648 85.6997 21.2647 85.6997 20.1767V14.0001C85.6997 12.9704 85.297 12.1103 84.4912 11.4192C83.686 10.7279 82.6237 10.3823 81.3057 10.3823C80.075 10.3823 78.984 10.713 78.0317 11.375C77.0798 12.0369 76.3838 12.9118 75.9446 14.0001L71.2426 11.7056C71.7113 10.4409 72.4511 9.34548 73.4619 8.41913C74.4722 7.49249 75.6659 6.7646 77.0434 6.23489C78.42 5.70575 79.914 5.44103 81.5253 5.44103C83.4881 5.44103 85.2162 5.80112 86.7105 6.52187C88.2043 7.24263 89.369 8.24237 90.2038 9.52196C91.0389 10.8013 91.4564 12.2939 91.4564 14.0001V29.9709H86.0075V25.8679L87.2376 25.7797C86.6227 26.8089 85.89 27.6693 85.0407 28.3606C84.1911 29.0516 83.2244 29.5814 82.1405 29.9489C81.0565 30.3164 79.8551 30.5 78.5371 30.5ZM105.764 30.2356C103.069 30.2356 100.982 29.4928 99.5024 28.0076C98.0228 26.5222 97.283 24.4267 97.283 21.7208V11.1322H93.1527V5.97046H93.5918C94.7636 5.97046 95.6721 5.66148 96.3163 5.04411C96.9608 4.42615 97.283 3.52921 97.283 2.35299V0.5H103.04V5.97046H108.532V11.1322H103.04V21.4121C103.04 22.2062 103.179 22.8827 103.457 23.4413C103.735 24.0001 104.175 24.4267 104.775 24.7209C105.376 25.015 106.145 25.1618 107.082 25.1618C107.287 25.1618 107.529 25.1475 107.807 25.1178C108.086 25.0884 108.357 25.0592 108.62 25.0295V29.9709C108.21 30.03 107.742 30.0885 107.214 30.1473C106.687 30.2059 106.203 30.2356 105.764 30.2356ZM122.664 30.5C120.204 30.5 118.051 29.9414 116.205 28.8238C114.359 27.7061 112.924 26.1915 111.899 24.2794C110.873 22.3678 110.36 20.2501 110.36 17.9263C110.36 15.5147 110.881 13.375 111.92 11.5075C112.961 9.63961 114.382 8.16184 116.183 7.07329C117.985 5.98502 119.999 5.44103 122.225 5.44103C124.1 5.44103 125.748 5.75001 127.169 6.36739C128.589 6.98534 129.798 7.83802 130.794 8.92628C131.79 10.0145 132.552 11.257 133.079 12.6543C133.606 14.0515 133.87 15.559 133.87 17.1764C133.87 17.5882 133.848 18.0148 133.804 18.456C133.76 18.8972 133.679 19.2795 133.562 19.6033H115.107V15.1912H130.311L127.586 17.2646C127.85 15.9116 127.784 14.706 127.388 13.6469C126.993 12.588 126.348 11.7499 125.455 11.1322C124.562 10.5148 123.485 10.2059 122.225 10.2059C121.024 10.2059 119.955 10.5071 119.017 11.1102C118.08 11.7133 117.369 12.5957 116.886 13.7574C116.403 14.919 116.22 16.3234 116.337 17.9705C116.22 19.4411 116.417 20.7427 116.93 21.8753C117.443 23.0075 118.204 23.8827 119.215 24.5001C120.226 25.1178 121.39 25.4268 122.708 25.4268C124.027 25.4268 125.147 25.1475 126.07 24.5884C126.993 24.0295 127.718 23.2796 128.245 22.3381L132.903 24.6326C132.434 25.7797 131.702 26.7946 130.706 27.677C129.71 28.5593 128.531 29.2501 127.169 29.7501C125.806 30.2501 124.305 30.5 122.664 30.5Z" fill="#1A1A1A"/>
<path d="M4.30332 9.14088H25.5771C26.7593 9.14088 27.835 8.65464 28.6154 7.87099C29.3959 7.08755 29.8804 6.00751 29.8804 4.82054C29.8804 3.63337 29.3959 2.55354 28.6154 1.76989C27.835 0.986446 26.7593 0.5 25.5771 0.5H0V4.82054C0 6.00751 0.484507 7.08755 1.26483 7.87099C2.04536 8.65464 3.12108 9.14088 4.30332 9.14088Z" fill="#1A1A1A"/>
<path fill-rule="evenodd" clip-rule="evenodd" d="M14.94 30.5002H29.88C29.88 25.5001 29.88 20.5002 29.88 15.5002C29.88 14.3133 29.3957 13.2332 28.6152 12.4498C27.8349 11.6661 26.7592 11.1797 25.5769 11.1797C24.3945 11.1797 23.3189 11.6661 22.5384 12.4498C21.7581 13.2332 21.2736 14.3133 21.2736 15.5002C21.2736 17.6199 21.2736 19.7395 21.2736 21.8593H14.9278C13.7502 21.8626 12.6794 22.3482 11.9015 23.129C11.1218 23.9118 10.6375 24.9907 10.6367 26.1766C10.6367 27.327 11.0918 28.4171 11.9015 29.2301C12.6821 30.0138 13.7576 30.5002 14.94 30.5002Z" fill="url(#paint0_linear_2241_9798)"/>
<path d="M14.9277 19.8208H14.9402H19.2433V15.5002C19.2433 14.3133 18.759 13.2332 17.9785 12.4498C17.1982 11.6661 16.1224 11.1797 14.9402 11.1797H4.30332C3.12088 11.1797 2.04536 11.6661 1.26483 12.4498C0.484507 13.2332 0 14.3133 0 15.5002C0 16.6874 0.484507 17.7672 1.26483 18.5509C2.04536 19.3343 3.12088 19.8208 4.30332 19.8208H14.9277Z" fill="#1A1A1A"/>
<path d="M4.44479 21.5752C3.22351 21.5752 2.11261 22.0776 1.30653 22.887C0.500453 23.6963 0 24.8116 0 26.0378V30.5001H4.44479C5.66587 30.5001 6.77676 29.9977 7.58284 29.1884C8.38831 28.3799 8.88856 27.2656 8.88938 26.0409V26.0378V26.0376V26.0345C8.88835 24.8098 8.38831 23.6954 7.58284 22.887C6.77676 22.0776 5.66587 21.5752 4.44479 21.5752Z" fill="#1A1A1A"/>
<defs>
<linearGradient id="paint0_linear_2241_9798" x1="13.4037" y1="27.6189" x2="27.1672" y2="14.1162" gradientUnits="userSpaceOnUse">
<stop stop-color="#66FFCC"/>
<stop offset="1" stop-color="#479AFF"/>
</linearGradient>
</defs>
</svg>
