<svg width="155" height="36" viewBox="0 0 155 36" fill="none" xmlns="http://www.w3.org/2000/svg">
<path d="M7.82698 1.70117H16.4017V5.27511H7.82698V16.6897L14.0694 15.3864L14.0762 19.4336L4.60976 21.6768H7.82698V35.9931H1.39253V3.0937L0 1.70117H1.39253H1.42683H7.82698ZM28.4063 31.4108V1.70803H22.013H21.9787H20.5861L21.9787 3.10056V33.3521C21.9787 34.8132 23.1654 36 24.6265 36H36.981V32.426H25.5457L28.4063 31.4108ZM90.1441 32.5701V21.6836H86.9268L96.3933 19.4405L96.3865 15.3932L90.1441 16.6966V5.27511H98.7188V1.70117H90.1441H83.7508H83.7165H82.324L83.7165 3.0937V36H84.3476H90.1441H98.7531V32.5701H90.1441ZM66.5122 1.70117H61.7104V5.13105H61.6829L61.7172 6.52358L63.1098 5.13105H66.5053V36H73.0221V5.13105H76.7127L78.1052 6.52358L78.1395 5.13105H78.1669V1.70117H73.0221H66.5122ZM52.9368 1.70117H57.5945V36H51.0778V21.6356L46.7355 23.1928L43.045 36H40.9871L50.5907 2.69584L49.5961 1.70117H50.8788H50.9886H51.0229H51.0778H52.9368ZM51.0778 18.0205V8.14934L47.9017 19.1593L51.0778 18.0205Z" fill="#111827"/>
<path d="M150.003 19.2073H110.971C108.501 19.2073 106.478 17.1837 106.478 14.7142V4.49314C106.478 2.02363 108.501 0 110.971 0H150.003C152.472 0 154.496 2.02363 154.496 4.49314V14.7142C154.496 17.1837 152.472 19.2073 150.003 19.2073Z" fill="#EFF6FF"/>
<path d="M120.732 4.77431C119.854 4.04031 118.646 3.67675 117.11 3.67675H112.486V15.5304H114.181V11.9428H117.11C118.646 11.9428 119.854 11.5792 120.732 10.8452C121.61 10.1112 122.056 9.10281 122.056 7.81318C122.049 6.51669 121.61 5.5083 120.732 4.77431ZM119.511 9.78193C118.948 10.2415 118.125 10.4679 117.055 10.4679H114.174V5.15159H117.055C118.125 5.15159 118.948 5.37797 119.511 5.83757C120.073 6.29717 120.354 6.95571 120.354 7.81318C120.354 8.66379 120.073 9.32233 119.511 9.78193ZM133.429 10.1455C133.882 9.50068 134.108 8.72553 134.108 7.80632C134.108 6.51668 133.669 5.5083 132.784 4.77431C131.906 4.04031 130.699 3.67675 129.162 3.67675H124.539V15.5304H126.233V11.9222H129.162C129.341 11.9222 129.595 11.9085 129.91 11.8879L132.469 15.5304H134.314L131.502 11.5517C132.332 11.2568 132.976 10.7903 133.429 10.1455ZM129.114 10.4816H126.233V5.14473H129.114C130.185 5.14473 131.008 5.3711 131.57 5.83071C132.133 6.29031 132.414 6.94885 132.414 7.80632C132.414 8.66379 132.133 9.32232 131.57 9.78879C131.001 10.2484 130.185 10.4816 129.114 10.4816ZM147.67 6.49611C147.128 5.5769 146.38 4.85662 145.42 4.32842C144.46 3.80022 143.39 3.53955 142.203 3.53955C141.009 3.53955 139.925 3.80022 138.972 4.32842C138.011 4.85662 137.257 5.5769 136.708 6.50297C136.159 7.42903 135.885 8.46485 135.885 9.60357C135.885 10.7423 136.159 11.7781 136.708 12.7042C137.257 13.6303 138.011 14.3574 138.972 14.8787C139.932 15.4069 141.009 15.6676 142.203 15.6676C143.39 15.6676 144.46 15.4069 145.42 14.8787C146.38 14.3505 147.128 13.6303 147.67 12.711C148.212 11.7918 148.479 10.756 148.479 9.60357C148.479 8.45114 148.212 7.41531 147.67 6.49611ZM146.188 11.929C145.79 12.6219 145.242 13.1706 144.549 13.5617C143.856 13.9595 143.074 14.1516 142.203 14.1516C141.332 14.1516 140.543 13.9527 139.843 13.5617C139.136 13.1638 138.581 12.6219 138.183 11.929C137.785 11.2362 137.579 10.461 137.579 9.60357C137.579 8.7461 137.778 7.97095 138.183 7.27812C138.581 6.58528 139.136 6.0365 139.843 5.6455C140.55 5.24763 141.338 5.05556 142.203 5.05556C143.074 5.05556 143.856 5.25449 144.549 5.6455C145.242 6.04336 145.79 6.58528 146.188 7.27812C146.586 7.97095 146.792 8.7461 146.792 9.60357C146.792 10.461 146.586 11.2362 146.188 11.929Z" fill="url(#paint0_linear_2783_5726)"/>
<defs>
<linearGradient id="paint0_linear_2783_5726" x1="112.483" y1="9.60193" x2="148.483" y2="9.60193" gradientUnits="userSpaceOnUse">
<stop stop-color="#2563EB"/>
<stop offset="1" stop-color="#67E7F9"/>
</linearGradient>
</defs>
</svg>
