<svg width="40" height="40" viewBox="0 0 40 40" fill="none" xmlns="http://www.w3.org/2000/svg">
<path d="M5.7607 11.521H34.2391C35.8217 11.521 37.2617 10.8727 38.3063 9.82787C39.3512 8.78329 39.9998 7.34326 39.9998 5.76065C39.9998 4.17777 39.3512 2.73802 38.3063 1.69317C37.2617 0.648587 35.8217 0 34.2391 0H0V5.76065C0 7.34326 0.648591 8.78329 1.69318 9.82787C2.73804 10.8727 4.17808 11.521 5.7607 11.521Z" fill="#1A1F25"/>
<path fill-rule="evenodd" clip-rule="evenodd" d="M20.0004 39.9992H40C40 33.3324 40 26.666 40 19.9995C40 18.4169 39.3517 16.9768 38.3069 15.9323C37.2623 14.8874 35.8222 14.2388 34.2396 14.2388C32.6567 14.2388 31.217 14.8874 30.1721 15.9323C29.1275 16.9768 28.4789 18.4169 28.4789 19.9995C28.4789 22.8256 28.4789 25.6518 28.4789 28.4782H19.984C18.4077 28.4825 16.9742 29.13 15.9329 30.1711C14.8892 31.2148 14.2408 32.6532 14.2397 34.2344C14.2397 35.7683 14.8489 37.2218 15.9329 38.3058C16.9778 39.3506 18.4176 39.9992 20.0004 39.9992Z" fill="url(#paint0_linear_1818_15668)"/>
<path d="M19.9832 25.7601H19.9999H25.7603V19.9995C25.7603 18.4169 25.112 16.9768 24.0671 15.9323C23.0225 14.8874 21.5825 14.2388 19.9999 14.2388H5.7607C4.1778 14.2388 2.73804 14.8874 1.69318 15.9323C0.648591 16.9768 0 18.4169 0 19.9995C0 21.5823 0.648591 23.0221 1.69318 24.067C2.73804 25.1115 4.1778 25.7601 5.7607 25.7601H19.9832Z" fill="#1A1F25"/>
<path d="M5.95007 28.1002C4.31519 28.1002 2.82808 28.7702 1.74901 29.8492C0.669937 30.9283 0 32.4154 0 34.0503V40H5.95007C7.58469 40 9.0718 39.3301 10.1509 38.251C11.2291 37.173 11.8988 35.6873 11.8999 34.0544V34.0503V34.05V34.0459C11.8985 32.4129 11.2291 30.9272 10.1509 29.8492C9.0718 28.7702 7.58469 28.1002 5.95007 28.1002Z" fill="#1A1F25"/>
<defs>
<linearGradient id="paint0_linear_1818_15668" x1="17.9438" y1="36.1575" x2="36.2961" y2="18.0807" gradientUnits="userSpaceOnUse">
<stop stop-color="#66FFCC"/>
<stop offset="1" stop-color="#479AFF"/>
</linearGradient>
</defs>
</svg>
