<svg width="19" height="19" viewBox="0 0 19 19" fill="none" xmlns="http://www.w3.org/2000/svg">
<g clip-path="url(#clip0_3519_5119)">
<path d="M6.12305 10.0566H0.556641C0.249227 10.0566 0 10.3059 0 10.6133V18.4062C0 18.7137 0.249227 18.9629 0.556641 18.9629H6.12305C6.43046 18.9629 6.67969 18.7137 6.67969 18.4062V10.6133C6.67969 10.3059 6.43046 10.0566 6.12305 10.0566Z" fill="white"/>
<path d="M18.4434 10.0566H17.7424C17.9619 10.6823 17.7961 11.3853 17.2963 11.8431L17.431 12.0045C18.0192 12.7096 17.9257 13.7635 17.2221 14.3535L15.3028 15.9645C14.598 16.5543 13.5424 16.4685 12.9467 15.7548L12.8165 15.5986C11.8685 16.3165 10.4874 15.8375 10.191 14.6823L9.00422 10.0566H8.34961C8.04234 10.0566 7.79297 10.306 7.79297 10.6133V18.4062C7.79297 18.7135 8.04234 18.9629 8.34961 18.9629H18.4434C18.7506 18.9629 19 18.7135 19 18.4062V10.6133C19 10.306 18.7506 10.0566 18.4434 10.0566Z" fill="white"/>
<path d="M3.89648 3.37695C3.58955 3.37695 3.33984 3.62666 3.33984 3.93359V4.49023H4.45312V3.93359C4.45312 3.62666 4.20342 3.37695 3.89648 3.37695Z" fill="white"/>
<path d="M7.79297 3.37695V5.60352C8.40683 5.60352 8.90625 5.1041 8.90625 4.49023C8.90625 3.87637 8.40683 3.37695 7.79297 3.37695Z" fill="white"/>
<path d="M18.4434 0.0371094H0.556641C0.249375 0.0371094 0 0.286484 0 0.59375V8.38672C0 8.69398 0.249375 8.94336 0.556641 8.94336H8.71848L8.49322 8.06572C8.13976 6.68737 9.56854 5.52581 10.8445 6.15051L16.5552 8.94336H18.4434C18.7506 8.94336 19 8.69398 19 8.38672V0.59375C19 0.286484 18.7506 0.0371094 18.4434 0.0371094ZM5.56641 6.16016C5.56641 6.46742 5.31703 6.7168 5.00977 6.7168C4.7025 6.7168 4.45312 6.46742 4.45312 6.16016V5.60352H3.33984V6.16016C3.33984 6.46742 3.09047 6.7168 2.7832 6.7168C2.47594 6.7168 2.22656 6.46742 2.22656 6.16016V3.93359C2.22656 3.01291 2.9758 2.26367 3.89648 2.26367C4.81717 2.26367 5.56641 3.01291 5.56641 3.93359V6.16016ZM7.79297 6.7168H7.23633C6.92906 6.7168 6.67969 6.46742 6.67969 6.16016V2.82031C6.67969 2.51305 6.92906 2.26367 7.23633 2.26367H7.79297C9.02055 2.26367 10.0195 3.26266 10.0195 4.49023C10.0195 5.71781 9.02055 6.7168 7.79297 6.7168ZM16.1426 6.16016H11.6895C11.3822 6.16016 11.1328 5.91078 11.1328 5.60352C11.1328 5.29625 11.3822 5.04688 11.6895 5.04688H16.1426C16.4498 5.04688 16.6992 5.29625 16.6992 5.60352C16.6992 5.91078 16.4498 6.16016 16.1426 6.16016ZM16.1426 3.93359H11.6895C11.3822 3.93359 11.1328 3.68422 11.1328 3.37695C11.1328 3.06969 11.3822 2.82031 11.6895 2.82031H16.1426C16.4498 2.82031 16.6992 3.06969 16.6992 3.37695C16.6992 3.68422 16.4498 3.93359 16.1426 3.93359Z" fill="white"/>
<path d="M16.4114 10.1127L10.3547 7.15053C9.92902 6.94235 9.45316 7.32973 9.57095 7.78892L11.2689 14.4054C11.3706 14.8016 11.8518 14.9565 12.1655 14.6937L12.9576 14.0302L13.8013 15.0416C13.9982 15.2776 14.3502 15.3098 14.5866 15.1114L16.5061 13.5007C16.7411 13.3035 16.7722 12.9533 16.5757 12.7178L15.7305 11.7045L16.5244 11.0394C16.8328 10.781 16.773 10.2895 16.4114 10.1127Z" fill="white"/>
</g>
<defs>
<clipPath id="clip0_3519_5119">
<rect width="19" height="19" fill="white"/>
</clipPath>
</defs>
</svg>
