<svg width="19" height="19" viewBox="0 0 19 19" fill="none" xmlns="http://www.w3.org/2000/svg">
<g clip-path="url(#clip0_3519_5087)">
<path d="M4.02246 10.6709V15.8263H8.94316V13.4244L7.18359 10.6709H4.02246Z" fill="white"/>
<path d="M4.02246 16.9395H8.94316V18.9999H4.02246V16.9395Z" fill="white"/>
<path d="M10.0566 16.9395H14.9774V18.9999H10.0566V16.9395Z" fill="white"/>
<path d="M10.0566 13.8184H14.9774V15.8263H10.0566V13.8184Z" fill="white"/>
<path d="M0 7.52344H2.90937V9.55763H0V7.52344Z" fill="white"/>
<path d="M4.02246 7.52344H6.93184V9.55763H4.02246V7.52344Z" fill="white"/>
<path d="M0 10.6709H2.90937V19H0V10.6709Z" fill="white"/>
<path d="M16.0908 13.8184H19.0002V19H16.0908V13.8184Z" fill="white"/>
<path d="M16.0908 7.52344H19.0002V12.7051H16.0908V7.52344Z" fill="white"/>
<path d="M8.95377 7.52344H8.04492V9.95162L9.80446 12.7051H14.977V7.99113L12.1993 10.7672L8.95377 7.52344Z" fill="white"/>
<path d="M12.2018 0C10.0988 0 8.39062 1.70822 8.39062 3.80787C8.39062 4.82541 8.78699 5.78194 9.50669 6.50119L12.2002 9.19318L14.8936 6.50123C15.6133 5.78194 16.0097 4.82541 16.0097 3.8079C16.0097 1.70822 14.3015 0 12.2018 0ZM12.2002 6.22695C10.8663 6.22695 9.78108 5.14176 9.78108 3.80787C9.78108 2.47397 10.8663 1.38878 12.2002 1.38878C13.5341 1.38878 14.6192 2.47401 14.6192 3.80787C14.6192 5.14176 13.534 6.22695 12.2002 6.22695Z" fill="white"/>
<path d="M12.1994 2.50195C11.4794 2.50195 10.8936 3.08776 10.8936 3.80776C10.8936 4.52775 11.4793 5.11356 12.1994 5.11356C12.9194 5.11356 13.5052 4.52779 13.5052 3.80776C13.5052 3.08776 12.9194 2.50195 12.1994 2.50195Z" fill="white"/>
</g>
<defs>
<clipPath id="clip0_3519_5087">
<rect width="19" height="19" fill="white"/>
</clipPath>
</defs>
</svg>
