<svg width="19" height="19" viewBox="0 0 19 19" fill="none" xmlns="http://www.w3.org/2000/svg">
<g clip-path="url(#clip0_3519_5006)">
<path d="M7.12512 10.2915C7.56289 10.2915 7.91673 10.6462 7.91673 11.0831V14.2499C7.91673 14.686 8.27144 15.0415 8.70849 15.0415H11.0835V3.16659C11.0835 2.49051 11.5141 1.88647 12.1617 1.66164L12.396 1.58322H8.70849C8.27144 1.58322 7.91673 1.93866 7.91673 2.37498V4.74995C7.91673 5.18685 7.56289 5.54156 7.12512 5.54156C6.68735 5.54156 6.33351 5.18685 6.33351 4.74995V2.37498C6.33351 1.06558 7.39909 0 8.70849 0H17.2188C17.2489 0 17.2741 0.013481 17.3034 0.0173948C17.3415 0.0142058 17.3779 0 17.4166 0C18.2899 0 19 0.71 19 1.58322V15.8331C19 16.5092 18.5693 17.1132 17.9218 17.338L13.1575 18.9262C12.996 18.976 12.8354 18.9998 12.6667 18.9998C11.7935 18.9998 11.0835 18.2897 11.0835 17.4164V16.6248H8.70849C7.39909 16.6248 6.33351 15.5593 6.33351 14.2499V11.0831C6.33351 10.6462 6.68735 10.2915 7.12512 10.2915Z" fill="white"/>
<path d="M0.231647 7.35677L3.39838 4.19018C3.62466 3.96376 3.96516 3.89563 4.26116 4.01826C4.55644 4.14104 4.74967 4.42994 4.74967 4.74986V7.12484H7.91625C8.3533 7.12484 8.70801 7.4794 8.70801 7.91645C8.70801 8.35349 8.3533 8.70806 7.91625 8.70806H4.74967V11.083C4.74967 11.403 4.55644 11.6919 4.26116 11.8146C3.96516 11.9373 3.62466 11.8691 3.39838 11.6429L0.231647 8.47613C-0.077836 8.16664 -0.077836 7.66625 0.231647 7.35677Z" fill="white"/>
</g>
<defs>
<clipPath id="clip0_3519_5006">
<rect width="19" height="19" fill="white" transform="matrix(-1 0 0 1 19 0)"/>
</clipPath>
</defs>
</svg>
