<svg width="19" height="19" viewBox="0 0 19 19" fill="none" xmlns="http://www.w3.org/2000/svg">
<path d="M14.3749 10.6644C14.4561 10.8616 14.4887 11.0753 14.47 11.2877C14.4513 11.5001 14.3819 11.7049 14.2675 11.8848C14.1532 12.0647 13.9972 12.2145 13.8129 12.3216C13.6285 12.4286 13.4211 12.4898 13.2081 12.5L5.92998 12.8628L7.28885 16.1426C7.38075 16.3167 7.40094 16.5198 7.34511 16.7086C7.28927 16.8973 7.16185 17.0568 6.99004 17.1529L5.75923 17.658C5.66595 17.6906 5.56689 17.7035 5.46836 17.6957C5.36984 17.6879 5.27402 17.6597 5.18701 17.6129C5.09999 17.566 5.02369 17.5016 4.96298 17.4236C4.90226 17.3456 4.85845 17.2558 4.83434 17.16L3.41144 13.6596L2.97034 13.8446C2.78683 13.9215 2.58994 13.9613 2.39099 13.9617C2.19205 13.9621 1.99498 13.9232 1.81114 13.8472C1.6273 13.7711 1.46033 13.6594 1.31983 13.5186C1.17933 13.3777 1.06808 13.2105 0.9925 13.0265L0.117414 10.8921C0.0404298 10.7081 0.000530902 10.5107 5.26232e-06 10.3112C-0.000520378 10.1118 0.0383376 9.91415 0.11435 9.72974C0.190363 9.54533 0.302035 9.37773 0.442962 9.23657C0.583888 9.09541 0.751296 8.98346 0.935583 8.90715L3.21935 7.96091L9.1244 2.58945C9.28171 2.44207 9.47263 2.33536 9.68058 2.27858C9.88852 2.2218 10.1072 2.21669 10.3176 2.26367C10.5279 2.31065 10.7236 2.40832 10.8877 2.54817C11.0517 2.68802 11.1791 2.86583 11.2588 3.06612L14.3749 10.6644ZM14.3393 6.26054C14.3927 6.39047 14.4834 6.50169 14.5998 6.58018C14.7163 6.65868 14.8534 6.70094 14.9939 6.70164C15.0891 6.69987 15.1831 6.68057 15.2713 6.64473L18.0674 5.48506C18.2417 5.41402 18.3807 5.27679 18.454 5.10344C18.5274 4.93009 18.529 4.73474 18.4587 4.56017C18.4235 4.473 18.3714 4.39366 18.3055 4.32673C18.2395 4.2598 18.1609 4.20661 18.0742 4.17023C17.9876 4.13384 17.8946 4.11499 17.8006 4.11476C17.7066 4.11453 17.6135 4.13292 17.5266 4.16887L14.7235 5.32854C14.637 5.36436 14.5584 5.41692 14.4922 5.4832C14.426 5.54948 14.3736 5.62817 14.3379 5.71476C14.3022 5.80135 14.2839 5.89414 14.2842 5.9878C14.2844 6.08146 14.3032 6.17414 14.3393 6.26054ZM18.3164 8.01783L15.2856 7.88265C15.0969 7.87511 14.9129 7.94282 14.7742 8.07091C14.6354 8.199 14.5532 8.37696 14.5457 8.56565C14.5381 8.75434 14.6058 8.9383 14.7339 9.07706C14.862 9.21582 15.04 9.29801 15.2287 9.30556L18.2523 9.44073H18.2879C18.4766 9.44073 18.6576 9.36578 18.791 9.23236C18.9244 9.09893 18.9994 8.91797 18.9994 8.72928C18.9994 8.54059 18.9244 8.35963 18.791 8.22621C18.6576 8.09279 18.4766 8.01783 18.2879 8.01783H18.3164ZM13.2935 4.56017C13.4802 4.55939 13.659 4.48529 13.7915 4.35385L15.9259 2.21949C16.0599 2.08553 16.1351 1.90382 16.1351 1.71436C16.1351 1.5249 16.0599 1.3432 15.9259 1.20923C15.7919 1.07526 15.6102 1 15.4208 1C15.2313 1 15.0496 1.07526 14.9156 1.20923L12.7813 3.34359C12.6809 3.4431 12.6125 3.57024 12.5847 3.70879C12.5569 3.84734 12.571 3.99104 12.6252 4.12155C12.6794 4.25206 12.7712 4.36348 12.889 4.4416C13.0067 4.51971 13.1451 4.56099 13.2864 4.56017H13.2935Z" fill="white"/>
</svg>
