<svg width="19" height="19" viewBox="0 0 19 19" fill="none" xmlns="http://www.w3.org/2000/svg">
<path d="M17.2917 0H1.70833C1.31733 0 1 0.304 1 0.678571V18.3214C1 18.696 1.31733 19 1.70833 19H17.2917C17.6827 19 18 18.696 18 18.3214V0.678571C18 0.304 17.6827 0 17.2917 0ZM3.125 7.80357C3.125 7.61629 3.28367 7.46429 3.47917 7.46429H8.4375C8.633 7.46429 8.79167 7.61629 8.79167 7.80357V13.9107C8.79167 14.098 8.633 14.25 8.4375 14.25H3.47917C3.28367 14.25 3.125 14.098 3.125 13.9107V7.80357ZM15.875 16.625C15.875 16.8123 15.7163 16.9643 15.5208 16.9643H3.47917C3.28367 16.9643 3.125 16.8123 3.125 16.625V15.9464C3.125 15.7591 3.28367 15.6071 3.47917 15.6071H15.5208C15.7163 15.6071 15.875 15.7591 15.875 15.9464V16.625ZM15.875 13.9107C15.875 14.098 15.7163 14.25 15.5208 14.25H10.5625C10.367 14.25 10.2083 14.098 10.2083 13.9107V13.2321C10.2083 13.0449 10.367 12.8929 10.5625 12.8929H15.5208C15.7163 12.8929 15.875 13.0449 15.875 13.2321V13.9107ZM15.875 11.1964C15.875 11.3837 15.7163 11.5357 15.5208 11.5357H10.5625C10.367 11.5357 10.2083 11.3837 10.2083 11.1964V10.5179C10.2083 10.3306 10.367 10.1786 10.5625 10.1786H15.5208C15.7163 10.1786 15.875 10.3306 15.875 10.5179V11.1964ZM15.875 8.48214C15.875 8.66943 15.7163 8.82143 15.5208 8.82143H10.5625C10.367 8.82143 10.2083 8.66943 10.2083 8.48214V7.80357C10.2083 7.61629 10.367 7.46429 10.5625 7.46429H15.5208C15.7163 7.46429 15.875 7.61629 15.875 7.80357V8.48214ZM15.875 5.08929C15.875 5.27657 15.7163 5.42857 15.5208 5.42857H3.47917C3.28367 5.42857 3.125 5.27657 3.125 5.08929V3.05357C3.125 2.86629 3.28367 2.71429 3.47917 2.71429H15.5208C15.7163 2.71429 15.875 2.86629 15.875 3.05357V5.08929Z" fill="white"/>
</svg>
