<svg width="19" height="19" viewBox="0 0 19 19" fill="none" xmlns="http://www.w3.org/2000/svg">
<path d="M15.0412 17.4166V0H3.95801V17.4166H1.58301V19H8.70801V17.4166H10.2912V19H17.4162V17.4166H15.0412ZM8.70801 15.8334H6.33301V14.25H8.70801V15.8334ZM8.70801 12.6666H6.33301V11.0834H8.70801V12.6666ZM8.70801 9.5H6.33301V7.91659H8.70801V9.5ZM8.70801 6.33341H6.33301V4.75H8.70801V6.33341ZM8.70801 3.16659H6.33301V1.58341H8.70801V3.16659ZM12.6662 15.8334H10.2912V14.25H12.6662V15.8334ZM12.6662 12.6666H10.2912V11.0834H12.6662V12.6666ZM12.6662 9.5H10.2912V7.91659H12.6662V9.5ZM12.6662 6.33341H10.2912V4.75H12.6662V6.33341ZM12.6662 3.16659H10.2912V1.58341H12.6662V3.16659Z" fill="white"/>
</svg>
