<svg width="19" height="19" viewBox="0 0 19 19" fill="none" xmlns="http://www.w3.org/2000/svg">
<g clip-path="url(#clip0_3519_5054)">
<path d="M18.1817 11.5821L16.4353 10.2165C16.4574 10.0059 16.4764 9.75969 16.4764 9.49922C16.4764 9.23875 16.4582 8.99257 16.4353 8.78197L18.1833 7.41557C18.5079 7.15907 18.5965 6.70385 18.3899 6.32466L16.5738 3.1825C16.3798 2.82785 15.9547 2.64575 15.5233 2.80487L13.4626 3.63215C13.0675 3.34715 12.6535 3.1065 12.2252 2.91412L11.9117 0.728346C11.8602 0.3135 11.4992 0 11.0725 0H7.43088C7.00416 0 6.64398 0.3135 6.59329 0.722L6.27901 2.91572C5.86416 3.10257 5.45648 3.34007 5.04401 3.63375L2.97776 2.8041C2.5906 2.65447 2.12747 2.82228 1.9351 3.17537L0.116662 6.32147C-0.0978673 6.68407 -0.00921307 7.1551 0.322508 7.41794L2.06891 8.78357C2.04119 9.05035 2.02776 9.28232 2.02776 9.50004C2.02776 9.71776 2.04123 9.94969 2.06891 10.2173L0.320912 11.5837C-0.00368377 11.841 -0.0915588 12.2962 0.115066 12.6746L1.93116 15.8167C2.12513 16.1706 2.54629 16.3542 2.98169 16.1943L5.04241 15.3671C5.43666 15.6513 5.85069 15.8919 6.27901 16.0851L6.59251 18.2701C6.64394 18.6865 7.00416 19 7.43166 19H11.0733C11.5 19 11.861 18.6865 11.9117 18.278L12.226 16.0851C12.6408 15.8975 13.0477 15.6607 13.461 15.3662L15.5272 16.1959C15.627 16.2347 15.7307 16.2545 15.8376 16.2545C16.1447 16.2545 16.4273 16.0867 16.5698 15.8254L18.3938 12.6667C18.5965 12.2962 18.5078 11.841 18.1817 11.5821ZM9.25169 12.6667C7.50529 12.6667 6.08504 11.2464 6.08504 9.5C6.08504 7.7536 7.50529 6.33335 9.25169 6.33335C10.9981 6.33335 12.4183 7.7536 12.4183 9.5C12.4183 11.2464 10.9981 12.6667 9.25169 12.6667Z" fill="white"/>
</g>
<defs>
<clipPath id="clip0_3519_5054">
<rect width="19" height="19" fill="white"/>
</clipPath>
</defs>
</svg>
