<svg width="19" height="19" viewBox="0 0 19 19" fill="none" xmlns="http://www.w3.org/2000/svg">
<g clip-path="url(#clip0_3519_5083)">
<path d="M17.3262 7.84058H15.9558V11.3813C15.9558 12.9153 14.7112 14.164 13.1787 14.1707V15.4543C13.1787 15.6404 13.086 15.8142 12.9314 15.9178C12.8382 15.9802 12.7298 16.0122 12.6208 16.0122C12.549 16.0122 12.4769 15.9984 12.4086 15.9702L8.03426 14.1708H8.01562V15.5235C8.01562 16.4464 8.76644 17.1972 9.68931 17.1972H10.0125V17.9634C10.0125 18.1495 10.1053 18.3234 10.2599 18.4269C10.3531 18.4894 10.4614 18.5213 10.5704 18.5213C10.6422 18.5213 10.7143 18.5075 10.7826 18.4794L13.8994 17.1972H17.3262C18.2491 17.1972 18.9999 16.4464 18.9999 15.5235V9.51426C18.9999 8.59139 18.2491 7.84058 17.3262 7.84058Z" fill="white"/>
<path d="M8.14457 13.055C8.2174 13.055 8.28948 13.0693 8.35683 13.097L12.063 14.6216V13.6129C12.063 13.3048 12.3128 13.055 12.6209 13.055H13.1663C14.0892 13.055 14.84 12.3042 14.84 11.3813V7.84062V2.1522C14.84 1.22933 14.0892 0.478516 13.1663 0.478516H1.67369C0.750816 0.478516 0 1.22933 0 2.1522V11.3813C0 12.3041 0.750816 13.0549 1.67369 13.0549L8.14457 13.055ZM4.1208 9.13933C4.1208 8.83122 4.37059 8.58143 4.6787 8.58143H10.1613C10.4694 8.58143 10.7192 8.83122 10.7192 9.13933C10.7192 9.44744 10.4694 9.69722 10.1613 9.69722H4.6787C4.37059 9.69722 4.1208 9.44744 4.1208 9.13933ZM4.6787 6.2524H10.1613C10.4694 6.2524 10.7192 6.50219 10.7192 6.8103C10.7192 7.11841 10.4694 7.3682 10.1613 7.3682H4.6787C4.37059 7.3682 4.1208 7.11841 4.1208 6.8103C4.1208 6.50219 4.37059 6.2524 4.6787 6.2524ZM4.1208 4.38401C4.1208 4.0759 4.37059 3.82611 4.6787 3.82611H10.1613C10.4694 3.82611 10.7192 4.0759 10.7192 4.38401C10.7192 4.69212 10.4694 4.94191 10.1613 4.94191H4.6787C4.37059 4.94191 4.1208 4.69212 4.1208 4.38401Z" fill="white"/>
</g>
<defs>
<clipPath id="clip0_3519_5083">
<rect width="19" height="19" fill="white"/>
</clipPath>
</defs>
</svg>
