<svg width="19" height="19" viewBox="0 0 19 19" fill="none" xmlns="http://www.w3.org/2000/svg">
<path d="M9.49955 9.32335C11.2952 9.32335 12.7511 7.55518 12.7511 5.3741C12.7511 3.19297 12.273 1.4248 9.49955 1.4248C6.726 1.4248 6.24805 3.19297 6.24805 5.3741C6.2481 7.55518 7.70388 9.32335 9.49955 9.32335Z" fill="white"/>
<path d="M15.6338 15.1938C15.5737 11.3942 15.0774 10.3116 11.2801 9.62622C11.2801 9.62622 10.7455 10.3073 9.49964 10.3073C8.25376 10.3073 7.71924 9.62622 7.71924 9.62622C3.96335 10.304 3.43685 11.3707 3.36765 15.0704C3.36202 15.3725 3.35943 15.3883 3.3584 15.3532C3.35859 15.419 3.35889 15.5405 3.35889 15.7524C3.35889 15.7524 4.26296 17.5749 9.49969 17.5749C14.7364 17.5749 15.6406 15.7524 15.6406 15.7524C15.6406 15.6163 15.6407 15.5215 15.6408 15.4572C15.6398 15.4789 15.6377 15.4368 15.6338 15.1938Z" fill="white"/>
<path d="M14.0125 8.61819C15.471 8.61819 16.6533 7.18213 16.6533 5.41068C16.6533 3.63918 16.2651 2.20312 14.0125 2.20312C13.6336 2.20312 13.3075 2.24389 13.0271 2.31999C13.5474 3.27913 13.6187 4.44411 13.6187 5.37403C13.6187 6.42693 13.3332 7.43217 12.8076 8.2645C13.1689 8.49011 13.5783 8.61819 14.0125 8.61819Z" fill="white"/>
<path d="M18.9941 13.3862C18.9451 10.3002 18.5422 9.42091 15.458 8.86426C15.458 8.86426 15.0239 9.41748 14.012 9.41748C13.9702 9.41748 13.9296 9.41621 13.8896 9.4144C14.5326 9.70427 15.1175 10.1079 15.5482 10.6985C16.2928 11.7195 16.464 13.0911 16.4993 15.1062C18.5743 14.6961 18.9995 13.8399 18.9995 13.8399C18.9995 13.7284 18.9995 13.6518 18.9997 13.5995C18.9989 13.6179 18.9972 13.5849 18.9941 13.3862Z" fill="white"/>
<path d="M4.98736 8.61814C5.42161 8.61814 5.8309 8.49006 6.19232 8.2645C5.6667 7.43217 5.38128 6.42693 5.38128 5.37402C5.38128 4.44406 5.45259 3.27908 5.97277 2.31999C5.69235 2.24389 5.36635 2.20312 4.98736 2.20312C2.73478 2.20312 2.34668 3.63918 2.34668 5.41068C2.34668 7.18208 3.52898 8.61814 4.98736 8.61814Z" fill="white"/>
<path d="M5.10997 9.4144C5.07013 9.41621 5.02956 9.41748 4.98762 9.41748C3.97573 9.41748 3.54157 8.86426 3.54157 8.86426C0.457544 9.42091 0.0544707 10.3002 0.00562815 13.3862C0.00244702 13.585 0.000831988 13.6179 0 13.5994C9.78809e-05 13.6518 0.000195762 13.7283 0.000195762 13.8399C0.000195762 13.8399 0.425488 14.6961 2.50027 15.1061C2.53575 13.0911 2.70685 11.7195 3.45157 10.6984C3.88225 10.1079 4.46704 9.70427 5.10997 9.4144Z" fill="white"/>
</svg>
