<svg width="60" height="60" viewBox="0 0 60 60" fill="none" xmlns="http://www.w3.org/2000/svg">
<path d="M30 58.75C45.8782 58.75 58.75 45.8782 58.75 30C58.75 14.1218 45.8782 1.25 30 1.25C14.1218 1.25 1.25 14.1218 1.25 30C1.25 45.8782 14.1218 58.75 30 58.75Z" fill="#CF4054"/>
<path d="M30 5.00022C45.1875 5.00022 57.5 15.634 57.5 28.7502H58.7187C58.3741 21.3653 55.1979 14.3969 49.8499 9.29261C44.5018 4.18828 37.393 1.34033 30 1.34033C22.607 1.34033 15.4982 4.18828 10.1501 9.29261C4.80207 14.3969 1.62586 21.3653 1.28125 28.7502H2.5C2.5 15.634 14.8125 5.00022 30 5.00022Z" fill="#F45269"/>
<path d="M57.5 28.75C57.5 41.8663 45.1875 52.5 30 52.5C14.8125 52.5 2.5 41.8663 2.5 28.75H1.28125C1.26375 29.165 1.25 29.5812 1.25 30C1.25 37.625 4.27901 44.9376 9.67068 50.3293C15.0624 55.721 22.375 58.75 30 58.75C37.625 58.75 44.9376 55.721 50.3293 50.3293C55.721 44.9376 58.75 37.625 58.75 30C58.75 29.5812 58.7362 29.165 58.7187 28.75H57.5Z" fill="#AE2D4C"/>
<path d="M46.6424 11.6576C47.0451 11.2549 46.9173 10.4741 46.3569 9.91371C45.7965 9.35331 45.0157 9.22549 44.613 9.62822C44.2103 10.0309 44.3381 10.8117 44.8985 11.3721C45.4589 11.9325 46.2397 12.0603 46.6424 11.6576Z" fill="#F6FAFD"/>
<path d="M38.3192 5.52124C38.5208 5.31963 38.4571 4.92904 38.1769 4.64884C37.8967 4.36864 37.5061 4.30493 37.3045 4.50654C37.1029 4.70815 37.1666 5.09873 37.4468 5.37893C37.727 5.65913 38.1176 5.72284 38.3192 5.52124Z" fill="#F6FAFD"/>
<path d="M43.9096 10.172C44.715 9.36652 44.459 7.80458 43.3377 6.68329C42.2164 5.562 40.6545 5.30596 39.849 6.11142C39.0436 6.91687 39.2996 8.47881 40.4209 9.6001C41.5422 10.7214 43.1041 10.9774 43.9096 10.172Z" fill="#F6FAFD"/>
<path d="M30 33.75C36.9036 33.75 42.5 32.6307 42.5 31.25C42.5 29.8693 36.9036 28.75 30 28.75C23.0964 28.75 17.5 29.8693 17.5 31.25C17.5 32.6307 23.0964 33.75 30 33.75Z" fill="#AE2D4C"/>
<path d="M49.3087 21.1252L48.1913 18.8877L42.0237 21.9714L38.365 23.8014L38.195 23.8864L38.2137 23.9239C37.9705 24.0862 37.7932 24.33 37.7137 24.6114C37.5748 25.1467 37.503 25.6972 37.5 26.2502C37.5 29.0539 39.1463 31.2502 41.25 31.2502C43.3537 31.2502 45 29.0539 45 26.2502C44.9988 25.3249 44.7926 24.4113 44.3962 23.5752L49.3087 21.1252Z" fill="#141E21"/>
<path d="M21.7902 23.9188L21.8089 23.8813L21.6389 23.7963L17.9802 21.9663L11.8089 18.8813L10.6914 21.1251L15.6039 23.5813C15.2084 24.4156 15.0023 25.3269 15.0002 26.2501C15.0002 29.0538 16.6464 31.2501 18.7502 31.2501C20.8539 31.2501 22.5002 29.0538 22.5002 26.2501C22.4988 25.6956 22.4282 25.1434 22.2902 24.6063C22.2107 24.3249 22.0334 24.0811 21.7902 23.9188Z" fill="#141E21"/>
<path d="M21.0743 24.9124C21.1917 25.3485 21.2506 25.7983 21.2493 26.2499C21.2493 28.3249 20.1243 29.9999 18.7493 29.9999C17.3743 29.9999 16.2493 28.3249 16.2493 26.2499C16.2272 25.6714 16.3196 25.0941 16.5213 24.5514C16.7229 24.0087 17.0298 23.5112 17.4243 23.0874L21.0743 24.9124Z" fill="#273941"/>
<path d="M43.75 26.2499C43.75 28.3249 42.625 29.9999 41.25 29.9999C39.875 29.9999 38.75 28.3249 38.75 26.2499C38.7487 25.7983 38.8076 25.3485 38.925 24.9124L42.575 23.0874C42.9695 23.5112 43.2764 24.0087 43.4781 24.5514C43.6797 25.0941 43.7721 25.6714 43.75 26.2499Z" fill="#273941"/>
<path d="M38.75 45H36.25C36.25 42.735 33.4625 40 30 40C26.5375 40 23.75 42.735 23.75 45H21.25C21.25 41.46 24.9913 37.5 30 37.5C35.0087 37.5 38.75 41.46 38.75 45Z" fill="#141E21"/>
</svg>
