<svg width="60" height="60" viewBox="0 0 60 60" fill="none" xmlns="http://www.w3.org/2000/svg">
<path d="M30 58.75C45.8782 58.75 58.75 45.8782 58.75 30C58.75 14.1218 45.8782 1.25 30 1.25C14.1218 1.25 1.25 14.1218 1.25 30C1.25 45.8782 14.1218 58.75 30 58.75Z" fill="#FFCE52"/>
<path d="M26.25 45.0175L23.75 45C23.75 41.0525 32.3938 40 37.5 40V42.5C30.1763 42.5 26.4338 44.3237 26.25 45.0175Z" fill="#273941"/>
<path d="M48.925 19.9C48.8725 19.8075 48.8075 19.7225 48.75 19.6325V21.25C48.75 21.913 48.4866 22.5489 48.0178 23.0178C47.5489 23.4866 46.9131 23.75 46.25 23.75C45.587 23.75 44.9511 23.4866 44.4822 23.0178C44.0134 22.5489 43.75 21.913 43.75 21.25V18.75H36.925C35.6825 20.1184 34.996 21.9016 35 23.75C35 25.7391 35.7902 27.6468 37.1967 29.0533C38.6032 30.4598 40.5109 31.25 42.5 31.25C44.4891 31.25 46.3968 30.4598 47.8033 29.0533C49.2098 27.6468 50 25.7391 50 23.75C50.0048 22.3919 49.6327 21.0591 48.925 19.9Z" fill="#F6FAFD"/>
<path d="M46.25 23.75C46.913 23.75 47.5489 23.4866 48.0178 23.0178C48.4866 22.5489 48.75 21.913 48.75 21.25V19.6325C48.5509 19.3194 48.3251 19.0241 48.075 18.75H43.75V21.25C43.75 21.913 44.0134 22.5489 44.4822 23.0178C44.9511 23.4866 45.587 23.75 46.25 23.75Z" fill="#141E21"/>
<path d="M23.925 19.9C23.8725 19.8075 23.8075 19.7225 23.75 19.6325V21.25C23.75 21.913 23.4866 22.5489 23.0178 23.0178C22.5489 23.4866 21.9131 23.75 21.25 23.75C20.587 23.75 19.9511 23.4866 19.4823 23.0178C19.0134 22.5489 18.75 21.913 18.75 21.25V18.75H11.925C10.6825 20.1184 9.99596 21.9016 10 23.75C10 25.7391 10.7902 27.6468 12.1967 29.0533C13.6032 30.4598 15.5109 31.25 17.5 31.25C19.4891 31.25 21.3968 30.4598 22.8033 29.0533C24.2098 27.6468 25 25.7391 25 23.75C25.0048 22.3919 24.6327 21.0591 23.925 19.9Z" fill="#F6FAFD"/>
<path d="M21.25 23.75C21.913 23.75 22.5489 23.4866 23.0178 23.0178C23.4866 22.5489 23.75 21.913 23.75 21.25V19.6325C23.5509 19.3194 23.3251 19.0241 23.075 18.75H18.75V21.25C18.75 21.913 19.0134 22.5489 19.4822 23.0178C19.9511 23.4866 20.587 23.75 21.25 23.75Z" fill="#141E21"/>
<path d="M30 5.00022C45.1875 5.00022 57.5 15.634 57.5 28.7502H58.7187C58.3741 21.3653 55.1979 14.3969 49.8499 9.29261C44.5018 4.18828 37.393 1.34033 30 1.34033C22.607 1.34033 15.4982 4.18828 10.1501 9.29261C4.80207 14.3969 1.62586 21.3653 1.28125 28.7502H2.5C2.5 15.634 14.8125 5.00022 30 5.00022Z" fill="#FFE369"/>
<path d="M57.5 28.75C57.5 41.8663 45.1875 52.5 30 52.5C14.8125 52.5 2.5 41.8663 2.5 28.75H1.28125C1.26375 29.165 1.25 29.5812 1.25 30C1.25 37.625 4.27901 44.9376 9.67068 50.3293C15.0624 55.721 22.375 58.75 30 58.75C37.625 58.75 44.9376 55.721 50.3293 50.3293C55.721 44.9376 58.75 37.625 58.75 30C58.75 29.5812 58.7362 29.165 58.7187 28.75H57.5Z" fill="#FFB32B"/>
<path d="M46.6424 11.6571C47.0451 11.2544 46.9173 10.4736 46.3569 9.91322C45.7965 9.35282 45.0157 9.225 44.613 9.62773C44.2103 10.0305 44.3381 10.8112 44.8985 11.3716C45.4589 11.932 46.2397 12.0599 46.6424 11.6571Z" fill="#F6FAFD"/>
<path d="M38.3192 5.52124C38.5208 5.31963 38.4571 4.92904 38.1769 4.64884C37.8967 4.36864 37.5061 4.30493 37.3045 4.50654C37.1029 4.70815 37.1666 5.09873 37.4468 5.37893C37.727 5.65913 38.1176 5.72284 38.3192 5.52124Z" fill="#F6FAFD"/>
<path d="M43.9086 10.1715C44.7141 9.36603 44.458 7.80409 43.3367 6.6828C42.2155 5.56151 40.6535 5.30547 39.8481 6.11093C39.0426 6.91638 39.2986 8.47832 40.4199 9.59962C41.5412 10.7209 43.1032 10.9769 43.9086 10.1715Z" fill="#F6FAFD"/>
<path d="M42.5003 31.2498C40.7324 31.2482 39.0219 30.6221 37.6706 29.482C36.3194 28.3418 35.4144 26.761 35.1153 25.0186C34.9256 26.0974 34.9745 27.2047 35.2585 28.2626C35.5426 29.3205 36.0549 30.3034 36.7595 31.1421C37.4641 31.9808 38.3439 32.655 39.3369 33.1172C40.33 33.5795 41.4123 33.8186 42.5077 33.8177C43.6031 33.8169 44.685 33.5761 45.6773 33.1124C46.6697 32.6486 47.5484 31.9731 48.2518 31.1333C48.9551 30.2936 49.4659 29.3099 49.7484 28.2516C50.0308 27.1932 50.078 26.0859 49.8866 25.0073C49.5899 26.7521 48.6857 28.3357 47.334 29.4781C45.9823 30.6204 44.2701 31.248 42.5003 31.2498Z" fill="#FBB40A"/>
<path d="M17.4994 31.2498C15.7314 31.2482 14.0209 30.6221 12.6697 29.482C11.3184 28.3418 10.4134 26.761 10.1144 25.0186C9.92461 26.0974 9.97348 27.2047 10.2575 28.2626C10.5416 29.3205 11.0539 30.3034 11.7585 31.1421C12.4631 31.9808 13.3429 32.655 14.336 33.1172C15.329 33.5795 16.4113 33.8186 17.5067 33.8177C18.6021 33.8169 19.684 33.5761 20.6764 33.1124C21.6687 32.6486 22.5475 31.9731 23.2508 31.1333C23.9541 30.2936 24.4649 29.3099 24.7474 28.2516C25.0298 27.1932 25.077 26.0859 24.8856 25.0073C24.5889 26.7521 23.6847 28.3357 22.333 29.4781C20.9813 30.6204 19.2692 31.248 17.4994 31.2498Z" fill="#FBB40A"/>
<path d="M43.75 18.75H48.075C48.3251 19.0241 48.551 19.3194 48.75 19.6325C48.8075 19.7225 48.875 19.8075 48.925 19.9C49.5331 20.9066 49.8894 22.0451 49.9638 23.2188C49.9863 22.9825 50 22.7425 50 22.5C50.0048 21.1419 49.6327 19.8091 48.925 18.65C48.8725 18.5575 48.8075 18.4725 48.75 18.3825C48.551 18.0694 48.3251 17.7741 48.075 17.5H36.925C35.6825 18.8684 34.996 20.6516 35 22.5C35.0003 22.7647 35.0144 23.0293 35.0425 23.2925C35.1346 21.6082 35.7987 20.0057 36.925 18.75H43.75Z" fill="#FBB40A"/>
<path d="M18.75 18.75H23.075C23.3251 19.0241 23.551 19.3194 23.75 19.6325C23.8075 19.7225 23.875 19.8075 23.925 19.9C24.5331 20.9066 24.8894 22.0451 24.9638 23.2188C24.9863 22.9825 25 22.7425 25 22.5C25.0048 21.1419 24.6327 19.8091 23.925 18.65C23.8725 18.5575 23.8075 18.4725 23.75 18.3825C23.551 18.0694 23.3251 17.7741 23.075 17.5H11.925C10.6825 18.8684 9.99596 20.6516 10 22.5C10.0003 22.7647 10.0144 23.0293 10.0425 23.2925C10.1346 21.6082 10.7987 20.0057 11.925 18.75H18.75Z" fill="#FBB40A"/>
</svg>
