<svg width="60" height="60" viewBox="0 0 60 60" fill="none" xmlns="http://www.w3.org/2000/svg">
<path d="M30 58.75C45.8782 58.75 58.75 45.8782 58.75 30C58.75 14.1218 45.8782 1.25 30 1.25C14.1218 1.25 1.25 14.1218 1.25 30C1.25 45.8782 14.1218 58.75 30 58.75Z" fill="#FFCE52"/>
<path d="M41.25 27.5C43.3211 27.5 45 25.2614 45 22.5C45 19.7386 43.3211 17.5 41.25 17.5C39.1789 17.5 37.5 19.7386 37.5 22.5C37.5 25.2614 39.1789 27.5 41.25 27.5Z" fill="#273941"/>
<path d="M18.75 27.5C20.8211 27.5 22.5 25.2614 22.5 22.5C22.5 19.7386 20.8211 17.5 18.75 17.5C16.6789 17.5 15 19.7386 15 22.5C15 25.2614 16.6789 27.5 18.75 27.5Z" fill="#273941"/>
<path d="M41.25 26.25C42.6307 26.25 43.75 24.5711 43.75 22.5C43.75 20.4289 42.6307 18.75 41.25 18.75C39.8693 18.75 38.75 20.4289 38.75 22.5C38.75 24.5711 39.8693 26.25 41.25 26.25Z" fill="#141E21"/>
<path d="M18.75 26.25C20.1307 26.25 21.25 24.5711 21.25 22.5C21.25 20.4289 20.1307 18.75 18.75 18.75C17.3693 18.75 16.25 20.4289 16.25 22.5C16.25 24.5711 17.3693 26.25 18.75 26.25Z" fill="#141E21"/>
<path d="M42.5 22.5C43.1904 22.5 43.75 21.9404 43.75 21.25C43.75 20.5596 43.1904 20 42.5 20C41.8096 20 41.25 20.5596 41.25 21.25C41.25 21.9404 41.8096 22.5 42.5 22.5Z" fill="#F6FAFD"/>
<path d="M20 22.5C20.6904 22.5 21.25 21.9404 21.25 21.25C21.25 20.5596 20.6904 20 20 20C19.3096 20 18.75 20.5596 18.75 21.25C18.75 21.9404 19.3096 22.5 20 22.5Z" fill="#F6FAFD"/>
<path d="M30 5.00022C45.1875 5.00022 57.5 15.634 57.5 28.7502H58.7187C58.3741 21.3653 55.1979 14.3969 49.8499 9.29261C44.5018 4.18828 37.393 1.34033 30 1.34033C22.607 1.34033 15.4982 4.18828 10.1501 9.29261C4.80207 14.3969 1.62586 21.3653 1.28125 28.7502H2.5C2.5 15.634 14.8125 5.00022 30 5.00022Z" fill="#FFE369"/>
<path d="M57.5 28.75C57.5 41.8663 45.1875 52.5 30 52.5C14.8125 52.5 2.5 41.8663 2.5 28.75H1.28125C1.26375 29.165 1.25 29.5812 1.25 30C1.25 37.625 4.27901 44.9376 9.67068 50.3293C15.0624 55.721 22.375 58.75 30 58.75C37.625 58.75 44.9376 55.721 50.3293 50.3293C55.721 44.9376 58.75 37.625 58.75 30C58.75 29.5812 58.7362 29.165 58.7187 28.75H57.5Z" fill="#FFB32B"/>
<path d="M20 40H40V42.5H20V40Z" fill="#273941"/>
<path d="M47.2664 12.2826C47.6691 11.8799 47.5413 11.0991 46.9809 10.5387C46.4205 9.97831 45.6397 9.85049 45.237 10.2532C44.8343 10.6559 44.9621 11.4367 45.5225 11.9971C46.0829 12.5575 46.8637 12.6853 47.2664 12.2826Z" fill="#F6FAFD"/>
<path d="M38.9422 6.14624C39.1439 5.94463 39.0801 5.55404 38.7999 5.27384C38.5197 4.99364 38.1292 4.92993 37.9275 5.13154C37.7259 5.33315 37.7896 5.72373 38.0698 6.00393C38.3501 6.28413 38.7406 6.34784 38.9422 6.14624Z" fill="#F6FAFD"/>
<path d="M44.5336 10.797C45.3391 9.99152 45.083 8.42958 43.9617 7.30829C42.8405 6.18699 41.2785 5.93096 40.4731 6.73642C39.6676 7.54187 39.9236 9.10381 41.0449 10.2251C42.1662 11.3464 43.7282 11.6024 44.5336 10.797Z" fill="#F6FAFD"/>
</svg>
