<svg width="60" height="60" viewBox="0 0 60 60" fill="none" xmlns="http://www.w3.org/2000/svg">
<path d="M30 58.75C45.8782 58.75 58.75 45.8782 58.75 30C58.75 14.1218 45.8782 1.25 30 1.25C14.1218 1.25 1.25 14.1218 1.25 30C1.25 45.8782 14.1218 58.75 30 58.75Z" fill="#FFCE52"/>
<path d="M30 48.75C21.04 48.75 13.75 42.5813 13.75 35H16.25C16.25 41.2025 22.4187 46.25 30 46.25C37.5813 46.25 43.75 41.2025 43.75 35H46.25C46.25 42.5813 38.96 48.75 30 48.75Z" fill="#273941"/>
<path d="M25 26.25H22.5C22.5 23.4925 20.8175 21.25 18.75 21.25C16.6825 21.25 15 23.4925 15 26.25H12.5C12.5 22.1137 15.3038 18.75 18.75 18.75C22.1962 18.75 25 22.1137 25 26.25Z" fill="#273941"/>
<path d="M47.5 26.25H45C45 23.4925 43.3175 21.25 41.25 21.25C39.1825 21.25 37.5 23.4925 37.5 26.25H35C35 22.1137 37.8038 18.75 41.25 18.75C44.6962 18.75 47.5 22.1137 47.5 26.25Z" fill="#273941"/>
<path d="M30 5.00022C45.1875 5.00022 57.5 15.634 57.5 28.7502H58.7187C58.3741 21.3653 55.1979 14.3969 49.8499 9.29261C44.5018 4.18828 37.393 1.34033 30 1.34033C22.607 1.34033 15.4982 4.18828 10.1501 9.29261C4.80207 14.3969 1.62586 21.3653 1.28125 28.7502H2.5C2.5 15.634 14.8125 5.00022 30 5.00022Z" fill="#FFE369"/>
<path d="M57.5 28.75C57.5 41.8663 45.1875 52.5 30 52.5C14.8125 52.5 2.5 41.8663 2.5 28.75H1.28125C1.26375 29.165 1.25 29.5812 1.25 30C1.25 37.625 4.27901 44.9376 9.67068 50.3293C15.0624 55.721 22.375 58.75 30 58.75C37.625 58.75 44.9376 55.721 50.3293 50.3293C55.721 44.9376 58.75 37.625 58.75 30C58.75 29.5812 58.7362 29.165 58.7187 28.75H57.5Z" fill="#FFB32B"/>
<path d="M47.2674 12.2821C47.6701 11.8794 47.5423 11.0986 46.9819 10.5382C46.4215 9.97782 45.6407 9.85 45.238 10.2527C44.8353 10.6555 44.9631 11.4362 45.5235 11.9966C46.0839 12.557 46.8647 12.6849 47.2674 12.2821Z" fill="#F6FAFD"/>
<path d="M38.9422 6.14624C39.1439 5.94463 39.0801 5.55404 38.7999 5.27384C38.5197 4.99364 38.1292 4.92993 37.9275 5.13154C37.7259 5.33315 37.7896 5.72373 38.0698 6.00393C38.3501 6.28413 38.7406 6.34784 38.9422 6.14624Z" fill="#F6FAFD"/>
<path d="M44.5336 10.7965C45.3391 9.99103 45.083 8.42909 43.9617 7.3078C42.8405 6.18651 41.2785 5.93047 40.4731 6.73593C39.6676 7.54138 39.9236 9.10332 41.0449 10.2246C42.1662 11.3459 43.7282 11.6019 44.5336 10.7965Z" fill="#F6FAFD"/>
</svg>
