<svg width="60" height="60" viewBox="0 0 60 60" fill="none" xmlns="http://www.w3.org/2000/svg">
<path d="M30 58.75C45.8782 58.75 58.75 45.8782 58.75 30C58.75 14.1218 45.8782 1.25 30 1.25C14.1218 1.25 1.25 14.1218 1.25 30C1.25 45.8782 14.1218 58.75 30 58.75Z" fill="#FFCE52"/>
<path d="M30 5.00022C45.1875 5.00022 57.5 15.634 57.5 28.7502H58.7187C58.3741 21.3653 55.1979 14.3969 49.8499 9.29261C44.5018 4.18828 37.393 1.34033 30 1.34033C22.607 1.34033 15.4982 4.18828 10.1501 9.29261C4.80207 14.3969 1.62586 21.3653 1.28125 28.7502H2.5C2.5 15.634 14.8125 5.00022 30 5.00022Z" fill="#FFE369"/>
<path d="M57.5 28.75C57.5 41.8663 45.1875 52.5 30 52.5C14.8125 52.5 2.5 41.8663 2.5 28.75H1.28125C1.26375 29.165 1.25 29.5813 1.25 30C1.25 37.625 4.27901 44.9376 9.67068 50.3293C15.0624 55.721 22.375 58.75 30 58.75C37.625 58.75 44.9376 55.721 50.3293 50.3293C55.721 44.9376 58.75 37.625 58.75 30C58.75 29.5813 58.7362 29.165 58.7188 28.75H57.5Z" fill="#FFB32B"/>
<path d="M47.2674 12.2821C47.6701 11.8794 47.5423 11.0986 46.9819 10.5382C46.4215 9.97782 45.6407 9.85 45.238 10.2527C44.8353 10.6555 44.9631 11.4362 45.5235 11.9966C46.0839 12.557 46.8647 12.6849 47.2674 12.2821Z" fill="#F6FAFD"/>
<path d="M38.9422 6.14624C39.1439 5.94463 39.0801 5.55404 38.7999 5.27384C38.5197 4.99364 38.1292 4.92993 37.9275 5.13154C37.7259 5.33315 37.7896 5.72373 38.0698 6.00393C38.3501 6.28413 38.7406 6.34784 38.9422 6.14624Z" fill="#F6FAFD"/>
<path d="M44.5336 10.7965C45.3391 9.99103 45.083 8.42909 43.9617 7.3078C42.8405 6.18651 41.2785 5.93047 40.4731 6.73593C39.6676 7.54138 39.9236 9.10332 41.0449 10.2246C42.1662 11.3459 43.7282 11.6019 44.5336 10.7965Z" fill="#F6FAFD"/>
<path d="M42.5004 48.75C42.5004 45.3 36.9129 42.5 30.0004 42.5C23.0879 42.5 17.5004 45.3 17.5004 48.75L17.3754 48.9125C15.5005 47.6995 13.9582 46.0374 12.8886 44.0772C11.819 42.1169 11.2559 39.9206 11.2504 37.6875C11.2074 37.0219 11.4288 36.3663 11.8665 35.8631C12.3042 35.3598 12.9228 35.0497 13.5879 35C15.9379 36.35 21.5754 36.25 30.0004 36.25C38.4254 36.25 44.0629 36.35 46.4004 35C47.0676 35.0468 47.6892 35.3557 48.1295 35.8592C48.5698 36.3628 48.793 37.02 48.7504 37.6875C48.7449 39.9206 48.1818 42.1169 47.1122 44.0772C46.0425 46.0374 44.5003 47.6995 42.6254 48.9125L42.5004 48.75Z" fill="#273941"/>
<path d="M42.5 48.75L42.625 48.9125C38.8705 51.3447 34.4725 52.5945 30 52.5C25.5275 52.5945 21.1295 51.3447 17.375 48.9125L17.5 48.75C17.5 45.3 23.0875 42.5 30 42.5C36.9125 42.5 42.5 45.3 42.5 48.75Z" fill="#AE2D4C"/>
<path d="M20.6249 11.2498C21.3982 11.2416 22.1647 11.3941 22.8758 11.6977C23.587 12.0013 24.2273 12.4494 24.7562 13.0135C25.285 13.5776 25.6909 14.2455 25.9481 14.9748C26.2052 15.704 26.308 16.4787 26.2499 17.2498C26.2499 26.2498 16.8749 31.2498 14.9999 31.2498C14.0999 31.2498 4.52494 26.6248 3.78744 18.2623C3.76244 17.9248 3.74994 17.5873 3.74994 17.2498C3.64825 15.8927 4.04749 14.5454 4.87212 13.4628C5.69675 12.3802 6.88958 11.6373 8.22494 11.3748C8.60224 11.2894 8.98809 11.2475 9.37494 11.2498C12.1874 11.2498 14.0624 13.2498 14.9999 16.2498C15.9374 13.2498 17.8124 11.2498 20.6249 11.2498Z" fill="#CF4054"/>
<path d="M56.2501 17.2498C56.2501 17.5832 56.2376 17.9207 56.2126 18.2623C55.5501 26.6248 46.8001 31.2498 45.0001 31.2498C44.0626 31.2498 33.7501 26.2498 33.7501 17.2498C33.6921 16.4787 33.7949 15.704 34.052 14.9748C34.3092 14.2455 34.715 13.5776 35.2439 13.0135C35.7728 12.4494 36.4131 12.0013 37.1242 11.6977C37.8354 11.3941 38.6019 11.2416 39.3751 11.2498C42.1876 11.2498 44.0626 13.2498 45.0001 16.2498C45.9376 13.2498 47.8126 11.2498 50.6251 11.2498C51.012 11.2475 51.3978 11.2894 51.7751 11.3748C53.1105 11.6373 54.3033 12.3802 55.128 13.4628C55.9526 14.5454 56.3518 15.8927 56.2501 17.2498Z" fill="#CF4054"/>
<path d="M13.5879 37.5C15.9379 38.85 21.5754 38.75 30.0004 38.75C38.4254 38.75 44.0629 38.85 46.4004 37.5C46.9341 37.526 47.4439 37.7287 47.8497 38.0763C48.2555 38.4239 48.5341 38.8966 48.6416 39.42C48.7142 38.8454 48.7505 38.2667 48.7504 37.6875C48.793 37.02 48.5698 36.3628 48.1295 35.8592C47.6892 35.3557 47.0676 35.0468 46.4004 35C44.0629 36.35 38.4254 36.25 30.0004 36.25C21.5754 36.25 15.9379 36.35 13.5879 35C12.9228 35.0497 12.3042 35.3598 11.8665 35.8631C11.4288 36.3663 11.2074 37.0219 11.2504 37.6875C11.2502 38.2663 11.2865 38.8445 11.3591 39.4187C11.4652 38.897 11.7417 38.4254 12.1452 38.078C12.5487 37.7307 13.0562 37.5273 13.5879 37.5Z" fill="#141E21"/>
<path d="M41.9137 46.8574C38.3079 48.9826 34.1849 50.0701 30 49.9999C25.8151 50.0701 21.6921 48.9826 18.0863 46.8574C17.7132 47.4189 17.5097 48.0759 17.5 48.7499L17.375 48.9124C21.1295 51.3447 25.5275 52.5944 30 52.4999C34.4725 52.5944 38.8705 51.3447 42.625 48.9124L42.5 48.7499C42.4903 48.0759 42.2868 47.4189 41.9137 46.8574Z" fill="#8A293D"/>
<path d="M45 31.25C44.1125 31.25 34.8363 26.7625 33.8488 18.6487C33.7888 19.0129 33.7558 19.3809 33.75 19.75C33.75 28.75 44.0625 33.75 45 33.75C46.8 33.75 55.55 29.125 56.2125 20.7625C56.2375 20.4208 56.25 20.0833 56.25 19.75C56.2492 19.3704 56.2199 18.9914 56.1625 18.6162C55.2812 26.75 46.7738 31.25 45 31.25Z" fill="#FBB40A"/>
<path d="M15 31.25C14.1125 31.25 4.83625 26.7625 3.84875 18.6487C3.78878 19.0129 3.75578 19.3809 3.75 19.75C3.75 28.75 14.0625 33.75 15 33.75C16.8 33.75 25.55 29.125 26.2125 20.7625C26.2375 20.4208 26.25 20.0833 26.25 19.75C26.2492 19.3704 26.2199 18.9914 26.1625 18.6162C25.2812 26.75 16.7738 31.25 15 31.25Z" fill="#FBB40A"/>
<path d="M50.6249 11.2498C47.8124 11.2498 45.9374 13.2498 44.9999 16.2498C45.7287 13.9998 47.1874 12.4998 49.3749 12.4998C49.9648 12.4829 50.5516 12.5888 51.0984 12.8106C51.6452 13.0325 52.1399 13.3655 52.5512 13.7885C52.9625 14.2116 53.2815 14.7155 53.4878 15.2683C53.6942 15.8211 53.7834 16.4107 53.7499 16.9998C53.7499 23.7498 46.4587 27.4998 44.9999 27.4998C44.2999 27.4998 36.8524 24.0311 36.2787 17.7586C36.2599 17.5086 36.2499 17.2523 36.2499 16.9998C36.1857 15.9658 36.5053 14.9444 37.1475 14.1313C37.7896 13.3183 38.7091 12.7707 39.7299 12.5936C40.0239 12.5292 40.3241 12.4978 40.6249 12.4998C42.8124 12.4998 44.2712 13.9998 44.9999 16.2498C44.0624 13.2498 42.1874 11.2498 39.3749 11.2498C38.9881 11.2475 38.6022 11.2894 38.2249 11.3748C36.8896 11.6373 35.6968 12.3802 34.8721 13.4628C34.0475 14.5454 33.6482 15.8927 33.7499 17.2498C33.7499 17.5832 33.7624 17.9207 33.7874 18.2623C34.5249 26.6248 44.0999 31.2498 44.9999 31.2498C46.8749 31.2498 56.2499 26.2498 56.2499 17.2498C56.308 16.4787 56.2052 15.704 55.9481 14.9748C55.6909 14.2455 55.285 13.5776 54.7562 13.0135C54.2273 12.4494 53.587 12.0013 52.8758 11.6977C52.1647 11.3941 51.3982 11.2416 50.6249 11.2498Z" fill="#AE2D4C"/>
<path d="M20.6249 11.2498C17.8124 11.2498 15.9374 13.2498 14.9999 16.2498C15.7287 13.9998 17.1874 12.4998 19.3749 12.4998C19.9648 12.4829 20.5516 12.5888 21.0984 12.8106C21.6452 13.0325 22.1399 13.3655 22.5512 13.7885C22.9625 14.2116 23.2815 14.7155 23.4878 15.2683C23.6942 15.8211 23.7834 16.4107 23.7499 16.9998C23.7499 23.7498 16.4587 27.4998 14.9999 27.4998C14.2999 27.4998 6.85244 24.0311 6.27869 17.7586C6.25994 17.5061 6.24994 17.2498 6.24994 16.9998C6.18574 15.9658 6.50532 14.9444 7.14746 14.1313C7.7896 13.3183 8.70915 12.7707 9.72994 12.5936C10.0239 12.5292 10.3241 12.4978 10.6249 12.4998C12.8124 12.4998 14.2712 13.9998 14.9999 16.2498C14.0624 13.2498 12.1874 11.2498 9.37494 11.2498C8.98809 11.2475 8.60224 11.2894 8.22494 11.3748C6.88958 11.6373 5.69675 12.3802 4.87212 13.4628C4.04749 14.5454 3.64825 15.8927 3.74994 17.2498C3.74994 17.5832 3.76244 17.9207 3.78744 18.2623C4.52494 26.6248 14.0999 31.2498 14.9999 31.2498C16.8749 31.2498 26.2499 26.2498 26.2499 17.2498C26.308 16.4787 26.2052 15.704 25.9481 14.9748C25.6909 14.2455 25.285 13.5776 24.7562 13.0135C24.2273 12.4494 23.587 12.0013 22.8758 11.6977C22.1647 11.3941 21.3982 11.2416 20.6249 11.2498Z" fill="#AE2D4C"/>
<path d="M53.5154 17.2851C53.9182 16.8823 53.7903 16.1016 53.2299 15.5412C52.6695 14.9807 51.8888 14.8529 51.486 15.2557C51.0833 15.6584 51.2111 16.4392 51.7715 16.9996C52.3319 17.56 53.1127 17.6878 53.5154 17.2851Z" fill="#F6FAFD"/>
<path d="M51.4413 14.9026C51.6429 14.701 51.5792 14.3104 51.299 14.0302C51.0188 13.75 50.6282 13.6863 50.4266 13.8879C50.225 14.0895 50.2887 14.4801 50.5689 14.7603C50.8491 15.0405 51.2397 15.1042 51.4413 14.9026Z" fill="#F6FAFD"/>
<path d="M23.5125 17.2748C23.9152 16.8721 23.7874 16.0913 23.227 15.5309C22.6666 14.9705 21.8858 14.8427 21.4831 15.2454C21.0804 15.6481 21.2082 16.4289 21.7686 16.9893C22.329 17.5497 23.1098 17.6775 23.5125 17.2748Z" fill="#F6FAFD"/>
<path d="M21.4374 14.8914C21.639 14.6897 21.5753 14.2992 21.2951 14.019C21.0149 13.7388 20.6243 13.675 20.4227 13.8767C20.2211 14.0783 20.2848 14.4688 20.565 14.749C20.8452 15.0292 21.2358 15.093 21.4374 14.8914Z" fill="#F6FAFD"/>
</svg>
