<svg width="50" height="50" viewBox="0 0 50 50" fill="none" xmlns="http://www.w3.org/2000/svg">
<path d="M46.8516 27.6563L43.75 25.8594V22.6562H44.5313C44.7385 22.6562 44.9372 22.5739 45.0837 22.4274C45.2302 22.2809 45.3125 22.0822 45.3125 21.875V12.5C45.3125 11.464 44.901 10.4704 44.1684 9.73786C43.4358 9.0053 42.4423 8.59375 41.4063 8.59375H33.5938V5.46875C33.5938 4.43275 33.1822 3.43918 32.4496 2.70661C31.7171 1.97405 30.7235 1.5625 29.6875 1.5625H17.1875C16.1515 1.5625 15.1579 1.97405 14.4254 2.70661C13.6928 3.43918 13.2813 4.43275 13.2813 5.46875V8.59375H5.46875C4.43275 8.59375 3.43918 9.0053 2.70661 9.73786C1.97405 10.4704 1.5625 11.464 1.5625 12.5V21.875C1.5625 22.0822 1.64481 22.2809 1.79132 22.4274C1.93784 22.5739 2.13655 22.6562 2.34375 22.6562H3.125V36.7188C3.12685 37.3398 3.37438 37.9348 3.81352 38.374C4.25265 38.8131 4.84772 39.0606 5.46875 39.0625H18.75V47.6562C18.75 47.8634 18.8323 48.0622 18.9788 48.2087C19.1253 48.3552 19.3241 48.4375 19.5313 48.4375H42.9688C43.176 48.4375 43.3747 48.3552 43.5212 48.2087C43.6677 48.0622 43.75 47.8634 43.75 47.6562V32.5234L44.2969 32.8438C44.7365 33.0577 45.2236 33.1557 45.7117 33.1284C46.1999 33.101 46.673 32.9493 47.0859 32.6875C47.5192 32.4146 47.8724 32.0316 48.1093 31.5777C48.3463 31.1238 48.4586 30.6151 48.4347 30.1036C48.4109 29.5921 48.2518 29.096 47.9737 28.6661C47.6956 28.2362 47.3083 27.8877 46.8516 27.6563ZM14.8438 5.46875C14.8456 4.84772 15.0931 4.25265 15.5323 3.81352C15.9714 3.37438 16.5665 3.12685 17.1875 3.125H29.6875C30.3085 3.12685 30.9036 3.37438 31.3427 3.81352C31.7819 4.25265 32.0294 4.84772 32.0313 5.46875V8.59375H31.25V5.46875C31.2488 5.05473 31.0837 4.65802 30.791 4.36526C30.4982 4.0725 30.1015 3.90749 29.6875 3.90625H17.1875C16.7735 3.90749 16.3768 4.0725 16.084 4.36526C15.7913 4.65802 15.6262 5.05473 15.625 5.46875V8.59375H14.8438V5.46875ZM29.6875 5.46875V8.59375H17.1875V5.46875H29.6875ZM3.125 21.0938V12.5C3.12685 11.879 3.37438 11.2839 3.81352 10.8448C4.25265 10.4056 4.84772 10.1581 5.46875 10.1562H41.4063C42.0273 10.1581 42.6223 10.4056 43.0615 10.8448C43.5006 11.2839 43.7481 11.879 43.75 12.5V21.0938H35.5078L31.6406 18.8516C31.5208 18.7862 31.3865 18.7519 31.25 18.7519C31.1135 18.7519 30.9792 18.7862 30.8594 18.8516L26.9922 21.0938H16.4063V19.5312C16.405 19.1172 16.24 18.7205 15.9472 18.4278C15.6545 18.135 15.2578 17.97 14.8438 17.9688H13.2813C12.8672 17.97 12.4705 18.135 12.1778 18.4278C11.885 18.7205 11.72 19.1172 11.7188 19.5312V21.0938H3.125ZM42.1875 22.6562V24.9531L38.2109 22.6562H42.1875ZM14.8438 19.5312V24.2188H13.2813V19.5312H14.8438ZM18.75 37.5H5.46875C5.26155 37.5 5.06284 37.4177 4.91632 37.2712C4.76981 37.1247 4.6875 36.9259 4.6875 36.7188V22.6562H11.7188V24.2188C11.72 24.6328 11.885 25.0295 12.1778 25.3222C12.4705 25.615 12.8672 25.78 13.2813 25.7812H14.8438C15.2578 25.78 15.6545 25.615 15.9472 25.3222C16.24 25.0295 16.405 24.6328 16.4063 24.2188V22.6562H24.2891L15.7031 27.625C15.2122 27.864 14.7981 28.236 14.5081 28.6987C14.2181 29.1614 14.0637 29.6961 14.0625 30.2422C14.0633 30.7305 14.1878 31.2106 14.4244 31.6378C14.6609 32.0649 15.0018 32.4252 15.4153 32.685C15.8287 32.9448 16.3013 33.0956 16.7888 33.1233C17.2763 33.1511 17.7629 33.0549 18.2031 32.8438C18.2254 32.8365 18.2465 32.826 18.2656 32.8125L18.75 32.5312V37.5ZM28.125 46.875H23.4375V35.9375H28.125V46.875ZM42.1875 46.875H29.6875V35.1562C29.6875 34.9491 29.6052 34.7503 29.4587 34.6038C29.3122 34.4573 29.1135 34.375 28.9063 34.375H22.6563C22.4491 34.375 22.2503 34.4573 22.1038 34.6038C21.9573 34.7503 21.875 34.9491 21.875 35.1562V46.875H20.3125V31.6016L31.25 25.125L42.1875 31.6016V46.875ZM46.2578 31.3672C46.0774 31.4835 45.8711 31.5536 45.6572 31.5713C45.4433 31.589 45.2283 31.5538 45.0313 31.4688L31.6484 23.5469C31.5278 23.4754 31.3902 23.4376 31.25 23.4376C31.1098 23.4376 30.9722 23.4754 30.8516 23.5469L17.5 31.4531C17.2971 31.5448 17.0743 31.584 16.8523 31.5671C16.6302 31.5502 16.416 31.4778 16.2293 31.3564C16.0426 31.235 15.8894 31.0687 15.7838 30.8726C15.6782 30.6765 15.6236 30.4571 15.625 30.2344C15.6294 29.9748 15.7073 29.7217 15.8498 29.5046C15.9922 29.2875 16.1933 29.1152 16.4297 29.0078L31.25 20.4375L46.125 29.0391C46.3501 29.1492 46.5398 29.3204 46.6724 29.5332C46.805 29.7459 46.8752 29.9915 46.875 30.2422C46.8772 30.4669 46.8217 30.6884 46.7136 30.8854C46.6055 31.0824 46.4485 31.2483 46.2578 31.3672Z" fill="#2563EB"/>
<path d="M31.25 36.7188V42.9688C31.25 43.176 31.3323 43.3747 31.4788 43.5212C31.6253 43.6677 31.824 43.75 32.0312 43.75H39.8438C40.051 43.75 40.2497 43.6677 40.3962 43.5212C40.5427 43.3747 40.625 43.176 40.625 42.9688V36.7188C40.625 36.5115 40.5427 36.3128 40.3962 36.1663C40.2497 36.0198 40.051 35.9375 39.8438 35.9375H32.0312C31.824 35.9375 31.6253 36.0198 31.4788 36.1663C31.3323 36.3128 31.25 36.5115 31.25 36.7188ZM32.8125 37.5H39.0625V42.1875H32.8125V37.5Z" fill="#2563EB"/>
<path d="M28.9062 29.6875C28.9062 30.1511 29.0437 30.6042 29.3012 30.9896C29.5588 31.3751 29.9248 31.6755 30.3531 31.8528C30.7814 32.0302 31.2526 32.0767 31.7072 31.9862C32.1619 31.8958 32.5795 31.6726 32.9073 31.3448C33.2351 31.017 33.4583 30.5994 33.5487 30.1447C33.6392 29.6901 33.5927 29.2189 33.4153 28.7906C33.238 28.3623 32.9376 27.9963 32.5521 27.7387C32.1667 27.4812 31.7136 27.3438 31.25 27.3438C30.6284 27.3438 30.0323 27.5907 29.5927 28.0302C29.1532 28.4698 28.9062 29.0659 28.9062 29.6875ZM32.0313 29.6875C32.0313 29.842 31.9854 29.9931 31.8996 30.1215C31.8137 30.25 31.6917 30.3502 31.549 30.4093C31.4062 30.4684 31.2491 30.4839 31.0976 30.4537C30.946 30.4236 30.8068 30.3492 30.6976 30.2399C30.5883 30.1307 30.5139 29.9915 30.4838 29.8399C30.4536 29.6884 30.4691 29.5313 30.5282 29.3885C30.5874 29.2458 30.6875 29.1238 30.816 29.0379C30.9444 28.9521 31.0955 28.9063 31.25 28.9063C31.4572 28.9063 31.6559 28.9886 31.8024 29.1351C31.9489 29.2816 32.0313 29.4803 32.0313 29.6875Z" fill="#2563EB"/>
</svg>
