<svg width="30" height="30" viewBox="0 0 30 30" fill="none" xmlns="http://www.w3.org/2000/svg">
<g clip-path="url(#clip0_2838_9644)">
<path d="M28.1109 16.5938L26.25 15.5156V13.5938H26.7188C26.8431 13.5938 26.9623 13.5444 27.0502 13.4565C27.1381 13.3685 27.1875 13.2493 27.1875 13.125V7.5C27.1875 6.8784 26.9406 6.28226 26.501 5.84272C26.0615 5.40318 25.4654 5.15625 24.8438 5.15625H20.1563V3.28125C20.1563 2.65965 19.9093 2.06351 19.4698 1.62397C19.0302 1.18443 18.4341 0.9375 17.8125 0.9375H10.3125C9.6909 0.9375 9.09476 1.18443 8.65522 1.62397C8.21568 2.06351 7.96875 2.65965 7.96875 3.28125V5.15625H3.28125C2.65965 5.15625 2.06351 5.40318 1.62397 5.84272C1.18443 6.28226 0.9375 6.8784 0.9375 7.5V13.125C0.9375 13.2493 0.986886 13.3685 1.07479 13.4565C1.1627 13.5444 1.28193 13.5938 1.40625 13.5938H1.875V22.0312C1.87611 22.4039 2.02463 22.7609 2.28811 23.0244C2.55159 23.2879 2.90863 23.4364 3.28125 23.4375H11.25V28.5938C11.25 28.7181 11.2994 28.8373 11.3873 28.9252C11.4752 29.0131 11.5944 29.0625 11.7188 29.0625H25.7813C25.9056 29.0625 26.0248 29.0131 26.1127 28.9252C26.2006 28.8373 26.25 28.7181 26.25 28.5938V19.5141L26.5781 19.7063C26.8419 19.8346 27.1341 19.8934 27.427 19.877C27.7199 19.8606 28.0038 19.7696 28.2516 19.6125C28.5115 19.4488 28.7234 19.219 28.8656 18.9466C29.0078 18.6743 29.0751 18.3691 29.0608 18.0622C29.0465 17.7552 28.9511 17.4576 28.7842 17.1997C28.6173 16.9417 28.385 16.7326 28.1109 16.5938ZM8.90625 3.28125C8.90736 2.90863 9.05588 2.55159 9.31936 2.28811C9.58284 2.02463 9.93988 1.87611 10.3125 1.875H17.8125C18.1851 1.87611 18.5422 2.02463 18.8056 2.28811C19.0691 2.55159 19.2176 2.90863 19.2188 3.28125V5.15625H18.75V3.28125C18.7493 3.03284 18.6502 2.79481 18.4746 2.61916C18.2989 2.4435 18.0609 2.34449 17.8125 2.34375H10.3125C10.0641 2.34449 9.82606 2.4435 9.65041 2.61916C9.47475 2.79481 9.37574 3.03284 9.375 3.28125V5.15625H8.90625V3.28125ZM17.8125 3.28125V5.15625H10.3125V3.28125H17.8125ZM1.875 12.6562V7.5C1.87611 7.12738 2.02463 6.77034 2.28811 6.50686C2.55159 6.24338 2.90863 6.09486 3.28125 6.09375H24.8438C25.2164 6.09486 25.5734 6.24338 25.8369 6.50686C26.1004 6.77034 26.2489 7.12738 26.25 7.5V12.6562H21.3047L18.9844 11.3109C18.9125 11.2717 18.8319 11.2512 18.75 11.2512C18.6681 11.2512 18.5875 11.2717 18.5156 11.3109L16.1953 12.6562H9.84375V11.7188C9.84301 11.4703 9.744 11.2323 9.56834 11.0567C9.39269 10.881 9.15466 10.782 8.90625 10.7812H7.96875C7.72034 10.782 7.48231 10.881 7.30666 11.0567C7.131 11.2323 7.03199 11.4703 7.03125 11.7188V12.6562H1.875ZM25.3125 13.5938V14.9719L22.9266 13.5938H25.3125ZM8.90625 11.7188V14.5312H7.96875V11.7188H8.90625ZM11.25 22.5H3.28125C3.15693 22.5 3.0377 22.4506 2.94979 22.3627C2.86189 22.2748 2.8125 22.1556 2.8125 22.0312V13.5938H7.03125V14.5312C7.03199 14.7797 7.131 15.0177 7.30666 15.1933C7.48231 15.369 7.72034 15.468 7.96875 15.4688H8.90625C9.15466 15.468 9.39269 15.369 9.56834 15.1933C9.744 15.0177 9.84301 14.7797 9.84375 14.5312V13.5938H14.5734L9.42188 16.575C9.1273 16.7184 8.87888 16.9416 8.70486 17.2192C8.53085 17.4968 8.43821 17.8177 8.4375 18.1453C8.43799 18.4383 8.51269 18.7264 8.65462 18.9827C8.79655 19.239 9.0011 19.4551 9.24917 19.611C9.49724 19.7669 9.78076 19.8573 10.0733 19.874C10.3658 19.8907 10.6577 19.8329 10.9219 19.7063C10.9352 19.7019 10.9479 19.6956 10.9594 19.6875L11.25 19.5187V22.5ZM16.875 28.125H14.0625V21.5625H16.875V28.125ZM25.3125 28.125H17.8125V21.0938C17.8125 20.9694 17.7631 20.8502 17.6752 20.7623C17.5873 20.6744 17.4681 20.625 17.3438 20.625H13.5938C13.4694 20.625 13.3502 20.6744 13.2623 20.7623C13.1744 20.8502 13.125 20.9694 13.125 21.0938V28.125H12.1875V18.9609L18.75 15.075L25.3125 18.9609V28.125ZM27.7547 18.8203C27.6464 18.8901 27.5227 18.9321 27.3943 18.9428C27.266 18.9534 27.137 18.9323 27.0188 18.8812L18.9891 14.1281C18.9167 14.0852 18.8341 14.0626 18.75 14.0626C18.6659 14.0626 18.5833 14.0852 18.5109 14.1281L10.5 18.8719C10.3782 18.9269 10.2446 18.9504 10.1114 18.9403C9.97814 18.9301 9.8496 18.8867 9.73757 18.8138C9.62554 18.741 9.53362 18.6412 9.47027 18.5236C9.40691 18.4059 9.37415 18.2742 9.375 18.1406C9.37763 17.9848 9.42439 17.833 9.50985 17.7027C9.59531 17.5725 9.71597 17.4691 9.85781 17.4047L18.75 12.2625L27.675 17.4234C27.8101 17.4895 27.9239 17.5923 28.0034 17.7199C28.083 17.8475 28.1251 17.9949 28.125 18.1453C28.1263 18.2801 28.093 18.413 28.0281 18.5313C27.9633 18.6495 27.8691 18.749 27.7547 18.8203Z" fill="#4BA5F8"/>
<path d="M18.75 22.0313V25.7813C18.75 25.9056 18.7994 26.0248 18.8873 26.1127C18.9752 26.2006 19.0944 26.25 19.2188 26.25H23.9062C24.0306 26.25 24.1498 26.2006 24.2377 26.1127C24.3256 26.0248 24.375 25.9056 24.375 25.7813V22.0313C24.375 21.9069 24.3256 21.7877 24.2377 21.6998C24.1498 21.6119 24.0306 21.5625 23.9062 21.5625H19.2188C19.0944 21.5625 18.9752 21.6119 18.8873 21.6998C18.7994 21.7877 18.75 21.9069 18.75 22.0313ZM19.6875 22.5H23.4375V25.3125H19.6875V22.5Z" fill="#4BA5F8"/>
<path d="M17.3438 17.8125C17.3438 18.0906 17.4262 18.3625 17.5807 18.5938C17.7353 18.825 17.9549 19.0053 18.2119 19.1117C18.4688 19.2181 18.7516 19.246 19.0243 19.1917C19.2971 19.1375 19.5477 19.0035 19.7444 18.8069C19.941 18.6102 20.075 18.3596 20.1292 18.0868C20.1835 17.8141 20.1556 17.5313 20.0492 17.2744C19.9428 17.0174 19.7625 16.7978 19.5313 16.6432C19.3 16.4887 19.0281 16.4062 18.75 16.4062C18.377 16.4062 18.0194 16.5544 17.7556 16.8181C17.4919 17.0819 17.3438 17.4395 17.3438 17.8125ZM19.2188 17.8125C19.2188 17.9052 19.1913 17.9958 19.1398 18.0729C19.0882 18.15 19.015 18.2101 18.9294 18.2456C18.8437 18.2811 18.7495 18.2903 18.6586 18.2722C18.5676 18.2542 18.4841 18.2095 18.4185 18.144C18.353 18.0784 18.3083 17.9949 18.2903 17.904C18.2722 17.813 18.2815 17.7188 18.3169 17.6331C18.3524 17.5475 18.4125 17.4743 18.4896 17.4228C18.5667 17.3712 18.6573 17.3438 18.75 17.3438C18.8743 17.3438 18.9936 17.3931 19.0815 17.481C19.1694 17.569 19.2188 17.6882 19.2188 17.8125Z" fill="#4BA5F8"/>
</g>
<defs>
<clipPath id="clip0_2838_9644">
<rect width="30" height="30" fill="white"/>
</clipPath>
</defs>
</svg>
