<svg width="30" height="30" viewBox="0 0 30 30" fill="none" xmlns="http://www.w3.org/2000/svg">
<g clip-path="url(#clip0_2838_9627)">
<path d="M6.44043 11.0303C5.42271 11.0303 4.59473 11.8583 4.59473 12.876C4.59473 13.8937 5.42271 14.7217 6.44043 14.7217C7.45814 14.7217 8.28613 13.8937 8.28613 12.876C8.28613 11.8583 7.45814 11.0303 6.44043 11.0303ZM6.44043 13.8428C5.90734 13.8428 5.47363 13.4091 5.47363 12.876C5.47363 12.3429 5.90734 11.9092 6.44043 11.9092C6.97351 11.9092 7.40722 12.3429 7.40722 12.876C7.40722 13.4091 6.97351 13.8428 6.44043 13.8428Z" fill="#4BA5F8"/>
<path d="M5.76562 6.391H20.5311C20.7115 6.391 20.8822 6.31219 20.9993 6.17479C21.1163 6.03756 21.167 5.85691 21.1385 5.67896C20.9771 4.67455 20.1205 3.94559 19.1017 3.94559C18.9649 3.94559 18.8301 3.95883 18.6981 3.98508C18.3136 3.17215 17.4903 2.63549 16.562 2.63549C16.3479 2.63549 16.1371 2.66402 15.9344 2.71969C15.7577 1.1908 14.4555 0 12.8805 0C11.5158 0 10.3247 0.911074 9.93831 2.18385C9.82482 2.16873 9.71015 2.16111 9.59507 2.16111C8.45261 2.16111 7.46941 2.89172 7.12464 3.9467C6.13698 3.97945 5.31585 4.69775 5.15818 5.67891C5.12964 5.85674 5.18033 6.03744 5.29728 6.17467C5.41447 6.31219 5.58515 6.391 5.76562 6.391ZM7.19501 4.82449C7.25847 4.82449 7.32427 4.83012 7.39042 4.84119C7.5055 4.86041 7.62357 4.83316 7.71861 4.76537C7.81359 4.69746 7.87763 4.59463 7.89667 4.47943C8.03454 3.64541 8.74874 3.04008 9.59501 3.04008C9.77829 3.04008 9.95958 3.0692 10.1338 3.12668C10.2576 3.16746 10.3932 3.15117 10.5038 3.08232C10.6144 3.01336 10.6888 2.89887 10.7067 2.76979C10.8564 1.69178 11.791 0.878906 12.8805 0.878906C14.0911 0.878906 15.0759 1.86404 15.0759 3.07494C15.0759 3.1626 15.0703 3.25324 15.0593 3.34441C15.0386 3.51492 15.1191 3.68186 15.2655 3.77174C15.4117 3.86162 15.5971 3.85816 15.7398 3.76272C15.9827 3.60029 16.2671 3.51445 16.5621 3.51445C17.2448 3.51445 17.8372 3.97635 18.0025 4.6377C18.0342 4.76438 18.1205 4.87043 18.2381 4.92703C18.3557 4.98363 18.4924 4.98504 18.6112 4.93096C18.766 4.86035 18.931 4.82455 19.1017 4.82455C19.5767 4.82455 19.9902 5.10023 20.1784 5.51215H6.11841C6.30661 5.10012 6.72005 4.82449 7.19501 4.82449Z" fill="#4BA5F8"/>
<path d="M28.623 27.246H28.3252V24.8144C28.3252 24.5716 28.1285 24.3749 27.8858 24.3749H23.935V23.293C25.1143 23.1453 26.1568 22.5352 26.9129 21.5373C27.8368 20.3177 28.3252 18.5442 28.3252 16.4085C28.3252 14.3974 27.8981 12.2215 27.1532 10.4389C27.0596 10.2149 26.5784 10.2029 26.5784 10.2029C26.5784 10.2029 26.2487 10.5538 26.3423 10.7778C27.0439 12.4571 27.4464 14.5095 27.4464 16.4085C27.4464 18.351 27.0196 19.941 26.2124 21.0066C25.6182 21.7908 24.8385 22.2667 23.935 22.4058V17.3708H24.3975C24.616 17.3708 24.8214 17.2857 24.9756 17.1313L25.5071 16.5998C25.6788 16.4282 25.6788 16.15 25.5071 15.9783C25.3355 15.8068 25.0573 15.8068 24.8856 15.9783L24.3721 16.492H23.935V12.608C23.935 12.3653 23.7383 12.1686 23.4955 12.1686C23.2528 12.1686 23.056 12.3653 23.056 12.608V13.2966H22.9057L22.3679 12.7589C22.1964 12.5873 21.9181 12.5873 21.7465 12.759C21.5749 12.9306 21.5749 13.2088 21.7465 13.3804L22.2964 13.9303C22.4546 14.0884 22.6648 14.1755 22.8884 14.1755H23.056V18.5389H22.1781C22.0935 18.5389 22.0137 18.4938 21.9701 18.4212L21.3821 17.4435C21.2569 17.2355 20.9868 17.1684 20.779 17.2934C20.571 17.4185 20.5039 17.6885 20.629 17.8965L21.217 18.8742C21.4186 19.2095 21.7869 19.4177 22.1781 19.4177H23.056V22.4355C22.0441 22.3525 21.1732 21.8637 20.5239 21.0066C19.7166 19.941 19.2899 18.3511 19.2899 16.4085C19.2899 14.3556 19.7692 12.0996 20.5721 10.3737C21.3761 8.64521 22.3952 7.65387 23.3681 7.65387C24.2347 7.65387 24.9598 8.41939 25.4154 9.06164C26 10 26.2422 10.5383 26.3423 10.7778C26.6189 11.1012 26.5784 10.2029 26.5784 10.2029C26.5784 10.2029 27.2833 10.83 27.1532 10.4389C27.0371 10.0899 26.5949 9.20504 26.1323 8.55305C25.3069 7.38979 24.3511 6.7749 23.3681 6.7749C20.531 6.7749 18.411 11.861 18.411 16.4085C18.411 18.5442 18.8994 20.3177 19.8234 21.5373C20.6334 22.6065 21.7724 23.2305 23.0561 23.3176V24.3749H16.172V21.9288L16.2374 21.9671C16.4396 22.0857 16.67 22.1484 16.9035 22.1484C17.3698 22.1484 17.8059 21.8987 18.0415 21.4969C18.2197 21.1931 18.2689 20.8382 18.1801 20.4974C18.0912 20.1566 17.875 19.8708 17.5713 19.6927L16.2811 18.936V16.3183C16.2811 16.0755 16.0844 15.8788 15.8416 15.8788H15.4224V14.7216H15.8649C16.1077 14.7216 16.3043 14.5249 16.3043 14.2822C16.3043 14.0394 16.1077 13.8427 15.8649 13.8427H10.8642V12.1761C10.9043 12.1799 10.9445 12.1823 10.9849 12.1823C11.4785 12.1823 11.9268 11.9105 12.1548 11.4729C12.4906 10.8282 12.2393 10.0305 11.5947 9.69463L7.04964 7.32686C6.6682 7.12805 6.21281 7.12811 5.83142 7.32686L4.72171 7.90494L5.12783 8.68441L6.23753 8.10633C6.36468 8.04006 6.51644 8.04006 6.64359 8.10633L11.1886 10.4741C11.4035 10.5861 11.4873 10.852 11.3753 11.0668C11.2993 11.2128 11.1496 11.3034 10.9849 11.3034C10.9141 11.3034 10.846 11.2867 10.7826 11.2536L10.6396 11.1791C10.6339 11.1759 10.6281 11.173 10.6222 11.17L6.64359 9.09732C6.51632 9.03105 6.36474 9.03105 6.23748 9.09732L2.26171 11.1686C2.25433 11.1722 2.24695 11.1759 2.23974 11.18L2.09853 11.2535C1.88367 11.3655 1.61771 11.2818 1.50574 11.0668C1.39376 10.8519 1.47755 10.586 1.69242 10.474L3.30913 9.63176C3.42714 9.57027 5.12783 8.68441 5.12783 8.68441L4.72171 7.90494C4.72171 7.90494 3.00888 8.79708 2.90302 8.85228L1.28636 9.69457C0.641654 10.0304 0.390404 10.8281 0.726264 11.4729C0.98056 11.961 1.49964 12.2234 2.01662 12.1763V18.8924L0.651967 19.6927C0.348217 19.8708 0.132006 20.1566 0.0431776 20.4974C-0.0456505 20.8381 0.00356825 21.1931 0.181693 21.4968C0.549369 22.1239 1.35872 22.3349 1.98579 21.9671L2.05119 21.9288V27.246H1.37736C0.6181 27.246 0.000404184 27.8637 0.000404184 28.623C0.000404184 29.3822 0.6181 29.9999 1.37736 29.9999H18.3063V29.121H1.37736C1.10273 29.121 0.87931 28.8976 0.87931 28.623C0.87931 28.3484 1.10273 28.1249 1.37736 28.1249H28.623C28.8976 28.1249 29.1211 28.3484 29.1211 28.623C29.1211 28.8976 28.8977 29.121 28.623 29.121H18.3063V29.9999H28.623C29.3823 29.9999 30 29.3822 30 28.623C30 27.8637 29.3823 27.246 28.623 27.246ZM12.5669 16.7578H15.4022V18.4206L12.5669 16.7578ZM14.5435 15.8788H13.0546V14.7216H14.5435V15.8788ZM12.1757 14.7216V15.8788H11.0925C11.0849 15.8788 11.0776 15.8796 11.0702 15.88L10.8642 15.7591V14.7216H12.1757ZM2.89552 11.8294L6.44056 9.98262L9.98531 11.8293V15.2437L9.77859 15.1225C9.36726 14.8813 8.85615 14.8814 8.44476 15.1225L2.89558 18.3769L2.89552 11.8294ZM1.54124 21.2089C1.33218 21.3315 1.06242 21.2612 0.939838 21.0522C0.880482 20.9509 0.864076 20.8327 0.893666 20.719C0.923256 20.6055 0.995326 20.5103 1.09658 20.4509L8.88925 15.8806C9.02636 15.8001 9.19675 15.8001 9.33392 15.8806L17.1267 20.4509C17.2279 20.5103 17.3 20.6055 17.3296 20.719C17.3592 20.8326 17.3428 20.9509 17.2834 21.0522C17.2048 21.1862 17.0593 21.2695 16.9035 21.2695C16.825 21.2695 16.7505 21.2491 16.682 21.2089L9.33398 16.8995C9.26537 16.8592 9.18855 16.8391 9.11167 16.8391C9.0348 16.8391 8.95798 16.8593 8.88937 16.8995L1.54124 21.2089ZM2.93003 21.4133L9.11162 17.788L15.2932 21.4133V27.246H8.84794V22.2363C8.84794 21.8647 8.54566 21.5624 8.17412 21.5624H5.1273C4.75576 21.5624 4.45347 21.8647 4.45347 22.2363V27.246H2.93003V21.4133ZM5.33238 27.246V22.4413H7.96904V27.246H5.33238ZM16.172 27.246V25.2538H27.4463V27.246H16.172Z" fill="#4BA5F8"/>
<path d="M10.3408 25.2832H13.3876C13.7592 25.2832 14.0615 24.9809 14.0615 24.6094V22.2363C14.0615 21.8648 13.7592 21.5625 13.3876 21.5625H10.3408C9.96928 21.5625 9.66699 21.8648 9.66699 22.2363V24.6094C9.66705 24.9809 9.96928 25.2832 10.3408 25.2832ZM13.1826 24.4043H12.3037V22.4414H13.1826V24.4043ZM10.5459 22.4414H11.4248V24.4043H10.5459V22.4414Z" fill="#4BA5F8"/>
</g>
<defs>
<clipPath id="clip0_2838_9627">
<rect width="30" height="30" fill="white"/>
</clipPath>
</defs>
</svg>
