<svg width="50" height="50" viewBox="0 0 50 50" fill="none" xmlns="http://www.w3.org/2000/svg">
<path d="M10.7334 18.3838C9.03721 18.3838 7.65723 19.7638 7.65723 21.46C7.65723 23.1562 9.03721 24.5361 10.7334 24.5361C12.4296 24.5361 13.8096 23.1562 13.8096 21.46C13.8096 19.7638 12.4296 18.3838 10.7334 18.3838ZM10.7334 23.0713C9.84492 23.0713 9.12207 22.3484 9.12207 21.46C9.12207 20.5715 9.84492 19.8486 10.7334 19.8486C11.6219 19.8486 12.3447 20.5715 12.3447 21.46C12.3447 22.3484 11.6219 23.0713 10.7334 23.0713Z" fill="#2563EB"/>
<path d="M9.60936 10.6517H34.2184C34.5192 10.6517 34.8036 10.5203 34.9988 10.2913C35.1938 10.0626 35.2783 9.76152 35.2308 9.46494C34.9619 7.79092 33.5342 6.57598 31.8361 6.57598C31.6081 6.57598 31.3835 6.59805 31.1636 6.6418C30.5227 5.28691 29.1505 4.39248 27.6033 4.39248C27.2465 4.39248 26.8951 4.44004 26.5573 4.53281C26.2629 1.98467 24.0926 0 21.4676 0C19.1931 0 17.2079 1.51846 16.5639 3.63975C16.3747 3.61455 16.1836 3.60186 15.9918 3.60186C14.0877 3.60186 12.449 4.81953 11.8744 6.57783C10.2283 6.63242 8.85975 7.82959 8.59696 9.46484C8.5494 9.76123 8.63388 10.0624 8.8288 10.2911C9.02411 10.5203 9.30858 10.6517 9.60936 10.6517ZM11.9917 8.04082C12.0974 8.04082 12.2071 8.0502 12.3174 8.06865C12.5092 8.10068 12.7059 8.05527 12.8643 7.94229C13.0226 7.8291 13.1294 7.65771 13.1611 7.46572C13.3909 6.07568 14.5812 5.0668 15.9917 5.0668C16.2972 5.0668 16.5993 5.11533 16.8897 5.21113C17.096 5.2791 17.322 5.25195 17.5063 5.13721C17.6907 5.02227 17.8146 4.83145 17.8445 4.61631C18.094 2.81963 19.6516 1.46484 21.4676 1.46484C23.4851 1.46484 25.1265 3.10674 25.1265 5.1249C25.1265 5.271 25.1172 5.42207 25.0988 5.57402C25.0643 5.8582 25.1985 6.13643 25.4425 6.28623C25.6862 6.43604 25.9951 6.43027 26.233 6.27119C26.6379 6.00049 27.1118 5.85742 27.6035 5.85742C28.7414 5.85742 29.7286 6.62725 30.0042 7.72949C30.057 7.94063 30.2009 8.11738 30.3968 8.21172C30.5929 8.30605 30.8206 8.3084 31.0186 8.21826C31.2767 8.10059 31.5517 8.04092 31.8362 8.04092C32.6278 8.04092 33.317 8.50039 33.6306 9.18691H10.1974C10.511 8.5002 11.2001 8.04082 11.9917 8.04082Z" fill="#2563EB"/>
<path d="M47.7051 45.4102H47.2087V41.3574C47.2087 40.9529 46.8809 40.625 46.4763 40.625H39.8916V38.8218C41.8571 38.5756 43.5947 37.5587 44.8548 35.8956C46.3947 33.863 47.2087 30.9071 47.2087 27.3476C47.2087 23.9957 46.4968 20.3694 45.2554 17.3983C45.0993 17.025 44.2973 17.0049 44.2973 17.0049C44.2973 17.0049 43.7478 17.5898 43.9039 17.9631C45.0731 20.7619 45.7439 24.1825 45.7439 27.3477C45.7439 30.5852 45.0327 33.2352 43.6873 35.0112C42.6971 36.3182 41.3975 37.1113 39.8917 37.3432V28.9515H40.6625C41.0267 28.9515 41.3689 28.8097 41.6261 28.5524L42.5119 27.6665C42.7979 27.3804 42.7979 26.9167 42.5119 26.6307C42.2258 26.3447 41.7621 26.3447 41.4761 26.6307L40.6201 27.4867H39.8916V21.0135C39.8916 20.6089 39.5638 20.2811 39.1592 20.2811C38.7546 20.2811 38.4268 20.6089 38.4268 21.0135V22.1612H38.1762L37.2799 21.265C36.9939 20.979 36.5302 20.9789 36.2441 21.2651C35.9581 21.5511 35.9581 22.0149 36.2442 22.3008L37.1606 23.2172C37.4243 23.4808 37.7747 23.626 38.1474 23.626H38.4268V30.8983H36.9635C36.8225 30.8983 36.6895 30.8231 36.6168 30.7022L35.6368 29.0727C35.4282 28.7259 34.9779 28.6141 34.6317 28.8225C34.285 29.031 34.1731 29.4809 34.3816 29.8276L35.3616 31.4571C35.6977 32.0159 36.3114 32.363 36.9635 32.363H38.4268V37.3927C36.7401 37.2542 35.2887 36.4396 34.2064 35.0112C32.8609 33.2352 32.1498 30.5853 32.1498 27.3477C32.1498 23.9262 32.9487 20.1661 34.2868 17.2896C35.6268 14.4088 37.3254 12.7566 38.9469 12.7566C40.3912 12.7566 41.5997 14.0324 42.3591 15.1029C43.3333 16.6668 43.7371 17.564 43.9039 17.9631C44.3647 18.5021 44.2973 17.0049 44.2973 17.0049C44.2973 17.0049 45.4722 18.0502 45.2554 17.3983C45.0619 16.8167 44.3249 15.3419 43.5538 14.2552C42.1781 12.3164 40.5851 11.2916 38.9469 11.2916C34.2183 11.2916 30.6851 19.7685 30.6851 27.3476C30.6851 30.9071 31.499 33.863 33.039 35.8956C34.3891 37.6776 36.2873 38.7177 38.4268 38.8627V40.625H26.9534V36.5481L27.0623 36.6119C27.3993 36.8096 27.7833 36.9141 28.1725 36.9141C28.9497 36.9141 29.6765 36.498 30.0691 35.8282C30.3661 35.3219 30.4481 34.7304 30.3001 34.1624C30.152 33.5945 29.7917 33.1182 29.2854 32.8213L27.1351 31.5602V27.1973C27.1351 26.7927 26.8073 26.4649 26.4027 26.4649H25.704V24.5362H26.4415C26.8461 24.5362 27.1739 24.2083 27.1739 23.8037C27.1739 23.3991 26.8461 23.0713 26.4415 23.0713H18.1069V20.2937C18.1738 20.2999 18.2409 20.304 18.3081 20.304C19.1308 20.304 19.878 19.851 20.258 19.1217C20.8177 18.0471 20.3989 16.7176 19.3245 16.1578L11.7494 12.2115C11.1137 11.8802 10.3547 11.8803 9.71903 12.2115L7.86952 13.175L8.54638 14.4741L10.3959 13.5107C10.6078 13.4002 10.8607 13.4002 11.0726 13.5107L18.6477 17.457C19.0058 17.6436 19.1455 18.0867 18.9589 18.4448C18.8321 18.6881 18.5827 18.8392 18.3081 18.8392C18.1902 18.8392 18.0767 18.8113 17.971 18.7561L17.7327 18.632C17.7232 18.6266 17.7135 18.6218 17.7037 18.6168L11.0726 15.1623C10.8605 15.0519 10.6079 15.0519 10.3958 15.1623L3.76952 18.6144C3.75722 18.6205 3.74491 18.6267 3.7329 18.6334L3.49755 18.756C3.13944 18.9426 2.69618 18.8031 2.50956 18.4448C2.32294 18.0866 2.46259 17.6435 2.82069 17.4569L5.51522 16.0531C5.7119 15.9506 8.54638 14.4741 8.54638 14.4741L7.86952 13.175C7.86952 13.175 5.01479 14.6619 4.83837 14.7539L2.14394 16.1577C1.06942 16.7174 0.650674 18.047 1.21044 19.1217C1.63427 19.9352 2.4994 20.3724 3.36103 20.294V31.4874L1.08661 32.8213C0.580361 33.1182 0.22001 33.5945 0.0719627 34.1624C-0.0760842 34.7303 0.00594708 35.3219 0.302822 35.8281C0.915615 36.8733 2.26454 37.225 3.30966 36.6119L3.41864 36.5481V45.4102H2.2956C1.03017 45.4102 0.000673641 46.4397 0.000673641 47.7051C0.000673641 48.9705 1.03017 50 2.2956 50H30.5105V48.5352H2.2956C1.83788 48.5352 1.46552 48.1628 1.46552 47.7051C1.46552 47.2474 1.83788 46.875 2.2956 46.875H47.7051C48.1627 46.875 48.5351 47.2474 48.5351 47.7051C48.5351 48.1628 48.1628 48.5352 47.7051 48.5352H30.5105V50H47.7051C48.9705 50 50 48.9705 50 47.7051C50 46.4397 48.9705 45.4102 47.7051 45.4102ZM20.9448 27.9297H25.6703V30.7011L20.9448 27.9297ZM24.2392 26.4649H21.7577V24.5362H24.2392V26.4649ZM20.2929 24.5362V26.4649H18.4875C18.4749 26.4649 18.4627 26.4661 18.4503 26.4667L18.1069 26.2654V24.5362H20.2929ZM4.82587 19.7158L10.7343 16.6378L16.6422 19.7155V25.4063L16.2976 25.2042C15.6121 24.8023 14.7602 24.8025 14.0746 25.2042L4.82597 30.6283L4.82587 19.7158ZM2.56874 35.3484C2.2203 35.5526 1.77069 35.4355 1.5664 35.0871C1.46747 34.9183 1.44013 34.7212 1.48944 34.5319C1.53876 34.3426 1.65888 34.1839 1.82763 34.0849L14.8154 26.4678C15.0439 26.3336 15.3279 26.3336 15.5565 26.4678L28.5444 34.0849C28.7132 34.1839 28.8333 34.3426 28.8827 34.5319C28.932 34.7211 28.9047 34.9183 28.8057 35.0871C28.6747 35.3105 28.4321 35.4492 28.1726 35.4492C28.0417 35.4492 27.9176 35.4153 27.8034 35.3484L15.5566 28.1659C15.4423 28.0988 15.3142 28.0654 15.1861 28.0654C15.058 28.0654 14.93 28.0989 14.8156 28.1659L2.56874 35.3484ZM4.88339 35.689L15.186 29.6468L25.4887 35.689V45.4102H14.7466V37.0606C14.7466 36.4413 14.2428 35.9375 13.6235 35.9375H8.5455C7.92626 35.9375 7.42245 36.4413 7.42245 37.0606V45.4102H4.88339V35.689ZM8.88729 45.4102V37.4024H13.2817V45.4102H8.88729ZM26.9534 45.4102V42.0899H45.7438V45.4102H26.9534Z" fill="#2563EB"/>
<path d="M17.2354 42.1387H22.3134C22.9326 42.1387 23.4364 41.6349 23.4364 41.0156V37.0605C23.4364 36.4413 22.9326 35.9375 22.3134 35.9375H17.2354C16.6161 35.9375 16.1123 36.4413 16.1123 37.0605V41.0156C16.1124 41.6349 16.6161 42.1387 17.2354 42.1387ZM21.9717 40.6738H20.5068V37.4023H21.9717V40.6738ZM17.5771 37.4023H19.042V40.6738H17.5771V37.4023Z" fill="#2563EB"/>
</svg>
