<svg width="30" height="30" viewBox="0 0 30 30" fill="none" xmlns="http://www.w3.org/2000/svg">
<g clip-path="url(#clip0_2838_9651)">
<path d="M29.5 28.9999H27.4691C27.4904 28.8356 27.5 28.6679 27.5 28.4999C27.5 27.0886 26.6879 25.8874 25.5001 25.3311V8.49996C25.5001 8.19996 25.3001 7.99998 25.0001 7.99998H17.5001V0.49998C17.5001 0.19998 17.3001 1.28724e-08 17.0001 1.28724e-08H3.5001C3.19998 -5.85809e-05 3 0.199922 3 0.499922V28.9999H0.49998C0.19998 28.9999 0 29.1999 0 29.4999C0 29.7999 0.19998 29.9999 0.49998 29.9999H3.49998H4.99998H17H26.85H29.5C29.8 29.9999 30 29.7999 30 29.5C30 29.1999 29.8 28.9999 29.5 28.9999ZM24.5 25.0352C24.3368 25.0124 24.17 24.9999 24 24.9999C23.6225 24.9999 23.2523 25.0642 22.9025 25.1843C22.8154 25.0682 22.6749 24.9999 22.5 24.9999C22.2 24.9999 22 25.1999 22 25.4999V25.6531C21.8105 25.7896 21.6343 25.9454 21.4744 26.1185C21.4492 26.1452 21.4243 26.1723 21.4 26.1998C20.9857 25.6819 20.452 25.3073 19.8486 25.1249C19.762 25.0454 19.6425 24.9998 19.5 24.9998C19.4443 24.9998 19.392 25.0068 19.3438 25.02C19.2309 25.0068 19.1162 24.9998 19 24.9998C18.6867 24.9998 18.3338 25.0405 18.0479 25.1566C18.0125 25.1685 17.9774 25.1808 17.9426 25.194C17.5971 24.9131 17.1929 24.7109 16.7671 24.5996C16.7626 24.5984 16.7579 24.5975 16.7535 24.5963C16.7163 24.5867 16.6791 24.5777 16.6416 24.5695C16.6113 24.5628 16.5806 24.557 16.5499 24.5513C16.5366 24.5488 16.5233 24.5462 16.51 24.5439C16.4778 24.5383 16.4455 24.5334 16.413 24.5289C16.3985 24.5269 16.3839 24.525 16.3693 24.5232C16.3395 24.5195 16.3096 24.5161 16.2795 24.5133C16.2575 24.5113 16.2355 24.5098 16.2134 24.5082C16.1899 24.5065 16.1664 24.5046 16.1426 24.5035C16.0951 24.5012 16.0476 24.4998 16 24.4998C15.9632 24.4998 15.9267 24.5006 15.8904 24.5019C15.8666 24.5027 15.8429 24.5042 15.8191 24.5055C15.8096 24.5061 15.8 24.5065 15.7905 24.5072C15.335 24.5374 14.8875 24.666 14.5 24.8937V8.99994H17H24.5V25.0352ZM4.00002 0.999961H16.5V7.99998H14C13.7 7.99998 13.5 8.19996 13.5 8.49996V24.05C13.2445 23.7944 12.9499 23.5783 12.6292 23.4091C12.6009 23.394 12.5723 23.3794 12.5436 23.3651C12.5323 23.3595 12.5211 23.3537 12.5098 23.3483C12.1529 23.1752 11.7646 23.0616 11.3589 23.0191C11.3532 23.0185 11.3474 23.0181 11.3417 23.0175C11.2946 23.0128 11.2472 23.0091 11.1997 23.0064C11.1871 23.0056 11.1745 23.0048 11.1618 23.0042C11.1081 23.0017 11.0542 23 11 23C10.2558 23 9.56643 23.2447 9 23.656V23.5C9 23.2 8.80002 23 8.50002 23C8.20002 23 8.00004 23.2 8.00004 23.5V24.5C8.00004 24.575 8.01252 24.6438 8.03596 24.7047C7.79045 25.1093 7.62129 25.5654 7.55004 26.0501C6.97441 26.1159 6.44807 26.323 6.00006 26.6327V26.5001C6.00006 26.2001 5.80008 26.0001 5.50008 26.0001C5.20008 26.0001 5.0001 26.2001 5.0001 26.5001V27.5001C5.0001 27.5584 5.00789 27.6129 5.0223 27.6629C4.77439 28.0639 4.6057 28.5176 4.53621 29H4.00014V0.999961H4.00002ZM7.77246 27.0103C7.78236 27.0094 7.79238 27.0088 7.80234 27.0081C7.82871 27.006 7.85508 27.004 7.88168 27.0028C7.92088 27.001 7.96031 26.9999 8.00004 26.9999C8.30004 26.9999 8.50002 26.7999 8.50002 26.4999C8.50002 25.0999 9.6 23.9999 11 23.9999C12.25 23.9999 13.3 24.8999 13.45 26.1499C13.4838 26.2851 13.5641 26.3965 13.6739 26.4706C13.6808 26.4755 13.6879 26.48 13.6951 26.4845C13.7029 26.4893 13.7105 26.4941 13.7186 26.4984C13.737 26.5086 13.7562 26.5179 13.7763 26.526C13.777 26.5263 13.7777 26.5266 13.7785 26.5269C13.8014 26.536 13.8253 26.5437 13.85 26.5499C13.85 26.5499 13.85 26.5499 13.8501 26.5499C13.8799 26.5598 13.9137 26.5636 13.9494 26.5625C14.1138 26.5649 14.2666 26.475 14.35 26.3501C14.35 26.35 14.3501 26.35 14.3501 26.35L14.4001 26.3C14.8001 25.8 15.3501 25.5 16.0001 25.5C16.3378 25.5 16.6752 25.5946 16.9781 25.7714C16.3816 26.3322 16.0434 27.0633 16.0041 27.8455C16.0015 27.8966 16.0001 27.9482 16.0001 28C16.0001 28.3477 16.058 28.6809 16.1724 29H5.55C5.78402 27.9235 6.67523 27.11 7.77246 27.0103ZM17.3528 28.9999C17.1618 28.6768 17.05 28.2949 17.05 27.9499C17.05 27.397 17.268 26.8989 17.6426 26.5348C17.7142 26.4684 17.7906 26.4071 17.8712 26.3516C17.9493 26.3522 18.0279 26.3359 18.1 26.2999C19.2 25.6999 20.5 26.2499 20.9 27.3499C20.95 27.4999 21.1 27.6499 21.35 27.6499C21.3975 27.6499 21.45 27.6348 21.5027 27.608C21.6282 27.5874 21.7274 27.4953 21.8 27.3499C21.9938 26.9382 22.2938 26.6095 22.659 26.379C22.7378 26.357 22.8054 26.3181 22.8593 26.2653C23.2027 26.0927 23.592 25.9999 24.0001 25.9999C25.4 25.9999 26.5001 27.0999 26.5001 28.4999C26.5001 28.6499 26.5001 28.8499 26.4501 28.9999H17.3528Z" fill="#4BA5F8"/>
<path d="M16.5 13C16.2 13 16 13.2 16 13.5V14.5C16 14.8 16.2 15 16.5 15C16.8 15 17 14.8 17 14.5V13.5C17 13.2 16.8 13 16.5 13Z" fill="#4BA5F8"/>
<path d="M16.5 22C16.2 22 16 22.2 16 22.5V23.5C16 23.8 16.2 24 16.5 24C16.8 24 17 23.8 17 23.5V22.5C17 22.2 16.8 22 16.5 22Z" fill="#4BA5F8"/>
<path d="M16.5 16C16.2 16 16 16.2 16 16.5V17.5C16 17.8 16.2 18 16.5 18C16.8 18 17 17.8 17 17.5V16.5C17 16.2 16.8 16 16.5 16Z" fill="#4BA5F8"/>
<path d="M16.5 19C16.2 19 16 19.2 16 19.5V20.5C16 20.8 16.2 21 16.5 21C16.8 21 17 20.8 17 20.5V19.5C17 19.2 16.8 19 16.5 19Z" fill="#4BA5F8"/>
<path d="M16.5 10C16.2 10 16 10.2 16 10.5V11.5C16 11.8 16.2 12 16.5 12C16.8 12 17 11.8 17 11.5V10.5C17 10.2 16.8 10 16.5 10Z" fill="#4BA5F8"/>
<path d="M19.5 15C19.8 15 20 14.8 20 14.5V13.5C20 13.2 19.8 13 19.5 13C19.2 13 19 13.2 19 13.5V14.5C19 14.8 19.2 15 19.5 15Z" fill="#4BA5F8"/>
<path d="M19.5 12C19.8 12 20 11.8 20 11.5V10.5C20 10.2 19.8 10 19.5 10C19.2 10 19 10.2 19 10.5V11.5C19 11.8 19.2 12 19.5 12Z" fill="#4BA5F8"/>
<path d="M19.5 18C19.8 18 20 17.8 20 17.5V16.5C20 16.2 19.8 16 19.5 16C19.2 16 19 16.2 19 16.5V17.5C19 17.8 19.2 18 19.5 18Z" fill="#4BA5F8"/>
<path d="M19.5 21C19.8 21 20 20.8 20 20.5V19.5C20 19.2 19.8 19 19.5 19C19.2 19 19 19.2 19 19.5V20.5C19 20.8 19.2 21 19.5 21Z" fill="#4BA5F8"/>
<path d="M19.5 24C19.8 24 20 23.8 20 23.5V22.5C20 22.2 19.8 22 19.5 22C19.2 22 19 22.2 19 22.5V23.5C19 23.8 19.2 24 19.5 24Z" fill="#4BA5F8"/>
<path d="M22.5 18C22.8 18 23 17.8 23 17.5V16.5C23 16.2 22.8 16 22.5 16C22.2 16 22 16.2 22 16.5V17.5C22 17.8 22.2 18 22.5 18Z" fill="#4BA5F8"/>
<path d="M22.5 15C22.8 15 23 14.8 23 14.5V13.5C23 13.2 22.8 13 22.5 13C22.2 13 22 13.2 22 13.5V14.5C22 14.8 22.2 15 22.5 15Z" fill="#4BA5F8"/>
<path d="M22.5 24C22.8 24 23 23.8 23 23.5V22.5C23 22.2 22.8 22 22.5 22C22.2 22 22 22.2 22 22.5V23.5C22 23.8 22.2 24 22.5 24Z" fill="#4BA5F8"/>
<path d="M22.5 21C22.8 21 23 20.8 23 20.5V19.5C23 19.2 22.8 19 22.5 19C22.2 19 22 19.2 22 19.5V20.5C22 20.8 22.2 21 22.5 21Z" fill="#4BA5F8"/>
<path d="M22.5 12C22.8 12 23 11.8 23 11.5V10.5C23 10.2 22.8 10 22.5 10C22.2 10 22 10.2 22 10.5V11.5C22 11.8 22.2 12 22.5 12Z" fill="#4BA5F8"/>
<path d="M5.49998 19C5.79998 19 5.99996 18.8 5.99996 18.5V17.5C5.99996 17.2 5.79998 17 5.49998 17C5.19998 17 5 17.2 5 17.5V18.5C4.99994 18.7999 5.19998 19 5.49998 19Z" fill="#4BA5F8"/>
<path d="M5.49998 22C5.79998 22 5.99996 21.8 5.99996 21.5V20.5C5.99996 20.2 5.79998 20 5.49998 20C5.19998 20 5 20.2 5 20.5V21.5C4.99994 21.7999 5.19998 22 5.49998 22Z" fill="#4BA5F8"/>
<path d="M5.49998 25C5.79998 25 5.99996 24.8 5.99996 24.5V23.5C5.99996 23.2 5.79998 23 5.49998 23C5.19998 23 5 23.2 5 23.5V24.5C4.99994 24.7999 5.19998 25 5.49998 25Z" fill="#4BA5F8"/>
<path d="M5.49998 3.99998C5.79998 3.99998 5.99996 3.8 5.99996 3.5V2.49998C5.99996 2.19998 5.79998 2 5.49998 2C5.19998 2 5 2.19998 5 2.49998V3.5C4.99994 3.79994 5.19998 3.99998 5.49998 3.99998Z" fill="#4BA5F8"/>
<path d="M5.49998 6.99998C5.79998 6.99998 5.99996 6.8 5.99996 6.5V5.49998C5.99996 5.19998 5.79998 5 5.49998 5C5.19998 5 5 5.19998 5 5.49998V6.5C4.99994 6.79994 5.19998 6.99998 5.49998 6.99998Z" fill="#4BA5F8"/>
<path d="M5.49998 9.99998C5.79998 9.99998 5.99996 9.8 5.99996 9.5V8.49998C5.99996 8.19998 5.79998 8 5.49998 8C5.19998 8 5 8.19998 5 8.49998V9.5C4.99994 9.79994 5.19998 9.99998 5.49998 9.99998Z" fill="#4BA5F8"/>
<path d="M5.49998 13C5.79998 13 5.99996 12.8 5.99996 12.5V11.5C5.99996 11.2 5.79998 11 5.49998 11C5.19998 11 5 11.2 5 11.5V12.5C4.99994 12.7999 5.19998 13 5.49998 13Z" fill="#4BA5F8"/>
<path d="M5.49998 16C5.79998 16 5.99996 15.8 5.99996 15.5V14.5C5.99996 14.2 5.79998 14 5.49998 14C5.19998 14 5 14.2 5 14.5V15.5C4.99994 15.7999 5.19998 16 5.49998 16Z" fill="#4BA5F8"/>
<path d="M8.49998 6.99998C8.79998 6.99998 8.99996 6.8 8.99996 6.5V5.49998C8.99996 5.19998 8.79998 5 8.49998 5C8.19998 5 8 5.19998 8 5.49998V6.5C7.99994 6.79994 8.19998 6.99998 8.49998 6.99998Z" fill="#4BA5F8"/>
<path d="M8.49998 3.99998C8.79998 3.99998 8.99996 3.8 8.99996 3.5V2.49998C8.99996 2.19998 8.79998 2 8.49998 2C8.19998 2 8 2.19998 8 2.49998V3.5C7.99994 3.79994 8.19998 3.99998 8.49998 3.99998Z" fill="#4BA5F8"/>
<path d="M8.49998 13C8.79998 13 8.99996 12.8 8.99996 12.5V11.5C8.99996 11.2 8.79998 11 8.49998 11C8.19998 11 8 11.2 8 11.5V12.5C7.99994 12.7999 8.19998 13 8.49998 13Z" fill="#4BA5F8"/>
<path d="M8.49998 9.99998C8.79998 9.99998 8.99996 9.8 8.99996 9.5V8.49998C8.99996 8.19998 8.79998 8 8.49998 8C8.19998 8 8 8.19998 8 8.49998V9.5C7.99994 9.79994 8.19998 9.99998 8.49998 9.99998Z" fill="#4BA5F8"/>
<path d="M8.49998 16C8.79998 16 8.99996 15.8 8.99996 15.5V14.5C8.99996 14.2 8.79998 14 8.49998 14C8.19998 14 8 14.2 8 14.5V15.5C7.99994 15.7999 8.19998 16 8.49998 16Z" fill="#4BA5F8"/>
<path d="M8.49998 19C8.79998 19 8.99996 18.8 8.99996 18.5V17.5C8.99996 17.2 8.79998 17 8.49998 17C8.19998 17 8 17.2 8 17.5V18.5C7.99994 18.7999 8.19998 19 8.49998 19Z" fill="#4BA5F8"/>
<path d="M8.49998 22C8.79998 22 8.99996 21.8 8.99996 21.5V20.5C8.99996 20.2 8.79998 20 8.49998 20C8.19998 20 8 20.2 8 20.5V21.5C7.99994 21.7999 8.19998 22 8.49998 22Z" fill="#4BA5F8"/>
<path d="M11.5 9.99998C11.8 9.99998 12 9.8 12 9.5V8.49998C12 8.19998 11.8 8 11.5 8C11.2 8 11 8.19998 11 8.49998V9.5C10.9999 9.79994 11.2 9.99998 11.5 9.99998Z" fill="#4BA5F8"/>
<path d="M11.5 6.99998C11.8 6.99998 12 6.8 12 6.5V5.49998C12 5.19998 11.8 5 11.5 5C11.2 5 11 5.19998 11 5.49998V6.5C10.9999 6.79994 11.2 6.99998 11.5 6.99998Z" fill="#4BA5F8"/>
<path d="M11.5 3.99998C11.8 3.99998 12 3.8 12 3.5V2.49998C12 2.19998 11.8 2 11.5 2C11.2 2 11 2.19998 11 2.49998V3.5C10.9999 3.79994 11.2 3.99998 11.5 3.99998Z" fill="#4BA5F8"/>
<path d="M11.5 22C11.8 22 12 21.8 12 21.5V20.5C12 20.2 11.8 20 11.5 20C11.2 20 11 20.2 11 20.5V21.5C10.9999 21.7999 11.2 22 11.5 22Z" fill="#4BA5F8"/>
<path d="M11.5 19C11.8 19 12 18.8 12 18.5V17.5C12 17.2 11.8 17 11.5 17C11.2 17 11 17.2 11 17.5V18.5C10.9999 18.7999 11.2 19 11.5 19Z" fill="#4BA5F8"/>
<path d="M11.5 16C11.8 16 12 15.8 12 15.5V14.5C12 14.2 11.8 14 11.5 14C11.2 14 11 14.2 11 14.5V15.5C10.9999 15.7999 11.2 16 11.5 16Z" fill="#4BA5F8"/>
<path d="M11.5 13C11.8 13 12 12.8 12 12.5V11.5C12 11.2 11.8 11 11.5 11C11.2 11 11 11.2 11 11.5V12.5C10.9999 12.7999 11.2 13 11.5 13Z" fill="#4BA5F8"/>
<path d="M14.5 6.99998C14.8 6.99998 15 6.8 15 6.5V5.49998C15 5.19998 14.8 5 14.5 5C14.2 5 14 5.19998 14 5.49998V6.5C13.9999 6.79994 14.2 6.99998 14.5 6.99998Z" fill="#4BA5F8"/>
<path d="M14.5 3.99998C14.8 3.99998 15 3.8 15 3.5V2.49998C15 2.19998 14.8 2 14.5 2C14.2 2 14 2.19998 14 2.49998V3.5C13.9999 3.79994 14.2 3.99998 14.5 3.99998Z" fill="#4BA5F8"/>
</g>
<defs>
<clipPath id="clip0_2838_9651">
<rect width="30" height="30" fill="white"/>
</clipPath>
</defs>
</svg>
