<svg width="161" height="161" viewBox="0 0 161 161" fill="none" xmlns="http://www.w3.org/2000/svg">
<g clip-path="url(#clip0_1411_4036)">
<path d="M158.141 155.546H147.273C147.388 154.667 147.439 153.769 147.439 152.87C147.439 145.319 143.093 138.891 136.737 135.914V45.8525C136.737 44.2473 135.667 43.1772 134.062 43.1772H93.9302V3.04546C93.9302 1.44019 92.8601 0.370117 91.2549 0.370117H19.0177C17.4118 0.369804 16.3418 1.43988 16.3418 3.04515V155.546H2.96441C1.35914 155.546 0.289062 156.616 0.289062 158.221C0.289062 159.826 1.35914 160.897 2.96441 160.897H19.0171H27.0434H91.2542H143.961H158.141C159.746 160.897 160.816 159.827 160.816 158.221C160.816 156.616 159.746 155.546 158.141 155.546ZM131.386 134.331C130.513 134.209 129.62 134.142 128.711 134.142C126.691 134.142 124.71 134.486 122.838 135.129C122.372 134.508 121.62 134.142 120.684 134.142C119.079 134.142 118.009 135.212 118.009 136.817V137.637C116.995 138.368 116.052 139.201 115.197 140.128C115.061 140.271 114.928 140.415 114.798 140.563C112.581 137.791 109.726 135.787 106.497 134.811C106.033 134.385 105.394 134.142 104.632 134.142C104.333 134.142 104.054 134.179 103.796 134.25C103.192 134.179 102.578 134.142 101.956 134.142C100.279 134.142 98.3914 134.359 96.8617 134.98C96.6723 135.044 96.4842 135.11 96.298 135.181C94.4491 133.678 92.2867 132.596 90.0079 132C89.9838 131.994 89.959 131.989 89.9352 131.982C89.7364 131.931 89.537 131.883 89.3367 131.839C89.1743 131.803 89.01 131.772 88.846 131.742C88.7748 131.728 88.7037 131.714 88.6322 131.702C88.4601 131.672 88.2873 131.646 88.1133 131.622C88.0355 131.611 87.9578 131.601 87.8797 131.591C87.7201 131.572 87.5599 131.553 87.3988 131.538C87.2812 131.527 87.1633 131.519 87.0454 131.511C86.9194 131.502 86.7936 131.492 86.6667 131.486C86.4124 131.474 86.1581 131.466 85.9035 131.466C85.7066 131.466 85.5113 131.47 85.3169 131.477C85.1896 131.482 85.0627 131.49 84.9357 131.497C84.8849 131.5 84.8335 131.502 84.7827 131.506C82.3453 131.667 79.9506 132.355 77.8769 133.574V48.5279H91.2542H131.386V134.331ZM21.6928 5.7208H88.5789V43.1772H75.2015C73.5963 43.1772 72.5262 44.2473 72.5262 45.8525V129.059C71.1589 127.692 69.5828 126.535 67.8668 125.63C67.7154 125.549 67.5624 125.471 67.4088 125.394C67.3483 125.364 67.2884 125.333 67.2275 125.304C65.3182 124.378 63.2404 123.77 61.0692 123.543C61.0388 123.54 61.0081 123.538 60.9773 123.534C60.7253 123.509 60.4719 123.49 60.2173 123.475C60.1499 123.471 60.0825 123.467 60.0148 123.463C59.7273 123.45 59.4389 123.441 59.1488 123.441C55.167 123.441 51.478 124.75 48.4471 126.951V126.116C48.4471 124.511 47.3771 123.441 45.7718 123.441C44.1665 123.441 43.0965 124.511 43.0965 126.116V131.467C43.0965 131.869 43.1632 132.236 43.2887 132.562C41.975 134.727 41.0698 137.168 40.6886 139.761C37.6084 140.113 34.792 141.222 32.3948 142.879V142.169C32.3948 140.564 31.3247 139.494 29.7194 139.494C28.1142 139.494 27.0441 140.564 27.0441 142.169V147.52C27.0441 147.833 27.0858 148.124 27.1629 148.392C25.8364 150.537 24.9337 152.965 24.5619 155.546H21.6934V5.7208H21.6928ZM41.8787 144.899C41.9317 144.895 41.9853 144.892 42.0386 144.888C42.1797 144.877 42.3208 144.866 42.4631 144.859C42.6729 144.85 42.8839 144.844 43.0965 144.844C44.7017 144.844 45.7718 143.774 45.7718 142.168C45.7718 134.677 51.6577 128.791 59.1492 128.791C65.8377 128.791 71.4561 133.607 72.2588 140.295C72.4397 141.019 72.8692 141.615 73.4567 142.012C73.4937 142.038 73.5317 142.062 73.5702 142.086C73.6116 142.112 73.6527 142.137 73.6957 142.161C73.7944 142.215 73.8973 142.265 74.0045 142.308C74.0086 142.309 74.0123 142.311 74.0164 142.313C74.139 142.362 74.2669 142.403 74.3989 142.436C74.3992 142.436 74.3992 142.436 74.3995 142.436C74.5588 142.489 74.7397 142.509 74.931 142.503C75.8104 142.516 76.6284 142.035 77.0746 141.367C77.0746 141.366 77.0749 141.366 77.0752 141.366L77.3426 141.099C79.4831 138.423 82.4259 136.818 85.9042 136.818C87.7107 136.818 89.5163 137.324 91.137 138.27C87.9456 141.271 86.1359 145.183 85.9255 149.369C85.9114 149.642 85.9042 149.918 85.9042 150.195C85.9042 152.056 86.2136 153.839 86.8259 155.546H29.9865C31.2388 149.786 36.0076 145.433 41.8787 144.899ZM93.142 155.546C92.1199 153.817 91.522 151.773 91.522 149.927C91.522 146.969 92.6883 144.303 94.693 142.355C95.0762 142 95.4847 141.672 95.9161 141.375C96.334 141.378 96.7545 141.291 97.1404 141.098C103.026 137.888 109.983 140.831 112.123 146.717C112.39 147.519 113.193 148.322 114.531 148.322C114.785 148.322 115.066 148.241 115.348 148.097C116.019 147.987 116.55 147.495 116.939 146.717C117.976 144.514 119.581 142.755 121.535 141.522C121.957 141.404 122.319 141.196 122.607 140.913C124.444 139.99 126.528 139.493 128.711 139.493C136.202 139.493 142.088 145.379 142.088 152.87C142.088 153.673 142.088 154.743 141.821 155.546H93.142Z" fill="#2563EB"/>
<path d="M88.5777 69.9307C86.9724 69.9307 85.9023 71.0007 85.9023 72.606V77.957C85.9023 79.5623 86.9724 80.6324 88.5777 80.6324C90.183 80.6324 91.253 79.5623 91.253 77.957V72.606C91.253 71.0007 90.183 69.9307 88.5777 69.9307Z" fill="#2563EB"/>
<path d="M88.5777 118.088C86.9724 118.088 85.9023 119.158 85.9023 120.764V126.115C85.9023 127.72 86.9724 128.79 88.5777 128.79C90.183 128.79 91.253 127.72 91.253 126.115V120.764C91.253 119.158 90.183 118.088 88.5777 118.088Z" fill="#2563EB"/>
<path d="M88.5777 85.9834C86.9724 85.9834 85.9023 87.0535 85.9023 88.6587V94.0097C85.9023 95.615 86.9724 96.6851 88.5777 96.6851C90.183 96.6851 91.253 95.615 91.253 94.0097V88.6587C91.253 87.0535 90.183 85.9834 88.5777 85.9834Z" fill="#2563EB"/>
<path d="M88.5777 102.036C86.9724 102.036 85.9023 103.106 85.9023 104.711V110.062C85.9023 111.667 86.9724 112.737 88.5777 112.737C90.183 112.737 91.253 111.667 91.253 110.062V104.711C91.253 103.106 90.183 102.036 88.5777 102.036Z" fill="#2563EB"/>
<path d="M88.5777 53.8779C86.9724 53.8779 85.9023 54.948 85.9023 56.5533V61.9043C85.9023 63.5095 86.9724 64.5796 88.5777 64.5796C90.183 64.5796 91.253 63.5095 91.253 61.9043V56.5533C91.253 54.948 90.183 53.8779 88.5777 53.8779Z" fill="#2563EB"/>
<path d="M104.63 80.6324C106.236 80.6324 107.306 79.5623 107.306 77.957V72.606C107.306 71.0007 106.236 69.9307 104.63 69.9307C103.025 69.9307 101.955 71.0007 101.955 72.606V77.957C101.955 79.5623 103.025 80.6324 104.63 80.6324Z" fill="#2563EB"/>
<path d="M104.63 64.5796C106.236 64.5796 107.306 63.5095 107.306 61.9043V56.5533C107.306 54.948 106.236 53.8779 104.63 53.8779C103.025 53.8779 101.955 54.948 101.955 56.5533V61.9043C101.955 63.5095 103.025 64.5796 104.63 64.5796Z" fill="#2563EB"/>
<path d="M104.63 96.6851C106.236 96.6851 107.306 95.615 107.306 94.0097V88.6587C107.306 87.0535 106.236 85.9834 104.63 85.9834C103.025 85.9834 101.955 87.0535 101.955 88.6587V94.0097C101.955 95.615 103.025 96.6851 104.63 96.6851Z" fill="#2563EB"/>
<path d="M104.63 112.737C106.236 112.737 107.306 111.667 107.306 110.062V104.711C107.306 103.106 106.236 102.036 104.63 102.036C103.025 102.036 101.955 103.106 101.955 104.711V110.062C101.955 111.667 103.025 112.737 104.63 112.737Z" fill="#2563EB"/>
<path d="M104.63 128.79C106.236 128.79 107.306 127.72 107.306 126.115V120.764C107.306 119.158 106.236 118.088 104.63 118.088C103.025 118.088 101.955 119.158 101.955 120.764V126.115C101.955 127.72 103.025 128.79 104.63 128.79Z" fill="#2563EB"/>
<path d="M120.683 96.6851C122.288 96.6851 123.358 95.615 123.358 94.0097V88.6587C123.358 87.0535 122.288 85.9834 120.683 85.9834C119.078 85.9834 118.008 87.0535 118.008 88.6587V94.0097C118.008 95.615 119.078 96.6851 120.683 96.6851Z" fill="#2563EB"/>
<path d="M120.683 80.6324C122.288 80.6324 123.358 79.5623 123.358 77.957V72.606C123.358 71.0007 122.288 69.9307 120.683 69.9307C119.078 69.9307 118.008 71.0007 118.008 72.606V77.957C118.008 79.5623 119.078 80.6324 120.683 80.6324Z" fill="#2563EB"/>
<path d="M120.683 128.79C122.288 128.79 123.358 127.72 123.358 126.115V120.764C123.358 119.158 122.288 118.088 120.683 118.088C119.078 118.088 118.008 119.158 118.008 120.764V126.115C118.008 127.72 119.078 128.79 120.683 128.79Z" fill="#2563EB"/>
<path d="M120.683 112.737C122.288 112.737 123.358 111.667 123.358 110.062V104.711C123.358 103.106 122.288 102.036 120.683 102.036C119.078 102.036 118.008 103.106 118.008 104.711V110.062C118.008 111.667 119.078 112.737 120.683 112.737Z" fill="#2563EB"/>
<path d="M120.683 64.5796C122.288 64.5796 123.358 63.5095 123.358 61.9043V56.5533C123.358 54.948 122.288 53.8779 120.683 53.8779C119.078 53.8779 118.008 54.948 118.008 56.5533V61.9043C118.008 63.5095 119.078 64.5796 120.683 64.5796Z" fill="#2563EB"/>
<path d="M29.7203 102.037C31.3255 102.037 32.3956 100.967 32.3956 99.3613V94.0103C32.3956 92.405 31.3255 91.335 29.7203 91.335C28.115 91.335 27.0449 92.405 27.0449 94.0103V99.3613C27.0446 100.966 28.115 102.037 29.7203 102.037Z" fill="#2563EB"/>
<path d="M29.7203 118.089C31.3255 118.089 32.3956 117.019 32.3956 115.414V110.063C32.3956 108.457 31.3255 107.387 29.7203 107.387C28.115 107.387 27.0449 108.457 27.0449 110.063V115.414C27.0446 117.019 28.115 118.089 29.7203 118.089Z" fill="#2563EB"/>
<path d="M29.7203 134.142C31.3255 134.142 32.3956 133.072 32.3956 131.466V126.115C32.3956 124.51 31.3255 123.44 29.7203 123.44C28.115 123.44 27.0449 124.51 27.0449 126.115V131.466C27.0446 133.071 28.115 134.142 29.7203 134.142Z" fill="#2563EB"/>
<path d="M29.7203 21.773C31.3255 21.773 32.3956 20.7029 32.3956 19.0976V13.7466C32.3956 12.1414 31.3255 11.0713 29.7203 11.0713C28.115 11.0713 27.0449 12.1414 27.0449 13.7466V19.0976C27.0446 20.7026 28.115 21.773 29.7203 21.773Z" fill="#2563EB"/>
<path d="M29.7203 37.8257C31.3255 37.8257 32.3956 36.7556 32.3956 35.1504V29.7994C32.3956 28.1941 31.3255 27.124 29.7203 27.124C28.115 27.124 27.0449 28.1941 27.0449 29.7994V35.1504C27.0446 36.7553 28.115 37.8257 29.7203 37.8257Z" fill="#2563EB"/>
<path d="M29.7203 53.8785C31.3255 53.8785 32.3956 52.8084 32.3956 51.2031V45.8521C32.3956 44.2468 31.3255 43.1768 29.7203 43.1768C28.115 43.1768 27.0449 44.2468 27.0449 45.8521V51.2031C27.0446 52.8081 28.115 53.8785 29.7203 53.8785Z" fill="#2563EB"/>
<path d="M29.7203 69.9312C31.3255 69.9312 32.3956 68.8611 32.3956 67.2558V61.9048C32.3956 60.2996 31.3255 59.2295 29.7203 59.2295C28.115 59.2295 27.0449 60.2996 27.0449 61.9048V67.2558C27.0446 68.8608 28.115 69.9312 29.7203 69.9312Z" fill="#2563EB"/>
<path d="M29.7203 85.9839C31.3255 85.9839 32.3956 84.9138 32.3956 83.3086V77.9576C32.3956 76.3523 31.3255 75.2822 29.7203 75.2822C28.115 75.2822 27.0449 76.3523 27.0449 77.9576V83.3086C27.0446 84.9135 28.115 85.9839 29.7203 85.9839Z" fill="#2563EB"/>
<path d="M45.773 37.8257C47.3783 37.8257 48.4483 36.7556 48.4483 35.1504V29.7994C48.4483 28.1941 47.3783 27.124 45.773 27.124C44.1677 27.124 43.0977 28.1941 43.0977 29.7994V35.1504C43.0973 36.7553 44.1677 37.8257 45.773 37.8257Z" fill="#2563EB"/>
<path d="M45.773 21.773C47.3783 21.773 48.4483 20.7029 48.4483 19.0976V13.7466C48.4483 12.1414 47.3783 11.0713 45.773 11.0713C44.1677 11.0713 43.0977 12.1414 43.0977 13.7466V19.0976C43.0973 20.7026 44.1677 21.773 45.773 21.773Z" fill="#2563EB"/>
<path d="M45.773 69.9312C47.3783 69.9312 48.4483 68.8611 48.4483 67.2558V61.9048C48.4483 60.2996 47.3783 59.2295 45.773 59.2295C44.1677 59.2295 43.0977 60.2996 43.0977 61.9048V67.2558C43.0973 68.8608 44.1677 69.9312 45.773 69.9312Z" fill="#2563EB"/>
<path d="M45.773 53.8785C47.3783 53.8785 48.4483 52.8084 48.4483 51.2031V45.8521C48.4483 44.2468 47.3783 43.1768 45.773 43.1768C44.1677 43.1768 43.0977 44.2468 43.0977 45.8521V51.2031C43.0973 52.8081 44.1677 53.8785 45.773 53.8785Z" fill="#2563EB"/>
<path d="M45.773 85.9839C47.3783 85.9839 48.4483 84.9138 48.4483 83.3086V77.9576C48.4483 76.3523 47.3783 75.2822 45.773 75.2822C44.1677 75.2822 43.0977 76.3523 43.0977 77.9576V83.3086C43.0973 84.9135 44.1677 85.9839 45.773 85.9839Z" fill="#2563EB"/>
<path d="M45.773 102.037C47.3783 102.037 48.4483 100.967 48.4483 99.3613V94.0103C48.4483 92.405 47.3783 91.335 45.773 91.335C44.1677 91.335 43.0977 92.405 43.0977 94.0103V99.3613C43.0973 100.966 44.1677 102.037 45.773 102.037Z" fill="#2563EB"/>
<path d="M45.773 118.089C47.3783 118.089 48.4483 117.019 48.4483 115.414V110.063C48.4483 108.457 47.3783 107.387 45.773 107.387C44.1677 107.387 43.0977 108.457 43.0977 110.063V115.414C43.0973 117.019 44.1677 118.089 45.773 118.089Z" fill="#2563EB"/>
<path d="M61.8257 53.8785C63.431 53.8785 64.5011 52.8084 64.5011 51.2031V45.8521C64.5011 44.2468 63.431 43.1768 61.8257 43.1768C60.2205 43.1768 59.1504 44.2468 59.1504 45.8521V51.2031C59.1501 52.8081 60.2205 53.8785 61.8257 53.8785Z" fill="#2563EB"/>
<path d="M61.8257 37.8257C63.431 37.8257 64.5011 36.7556 64.5011 35.1504V29.7994C64.5011 28.1941 63.431 27.124 61.8257 27.124C60.2205 27.124 59.1504 28.1941 59.1504 29.7994V35.1504C59.1501 36.7553 60.2205 37.8257 61.8257 37.8257Z" fill="#2563EB"/>
<path d="M61.8257 21.773C63.431 21.773 64.5011 20.7029 64.5011 19.0976V13.7466C64.5011 12.1414 63.431 11.0713 61.8257 11.0713C60.2205 11.0713 59.1504 12.1414 59.1504 13.7466V19.0976C59.1501 20.7026 60.2205 21.773 61.8257 21.773Z" fill="#2563EB"/>
<path d="M61.8257 118.089C63.431 118.089 64.5011 117.019 64.5011 115.414V110.063C64.5011 108.457 63.431 107.387 61.8257 107.387C60.2205 107.387 59.1504 108.457 59.1504 110.063V115.414C59.1501 117.019 60.2205 118.089 61.8257 118.089Z" fill="#2563EB"/>
<path d="M61.8257 102.037C63.431 102.037 64.5011 100.967 64.5011 99.3613V94.0103C64.5011 92.405 63.431 91.335 61.8257 91.335C60.2205 91.335 59.1504 92.405 59.1504 94.0103V99.3613C59.1501 100.966 60.2205 102.037 61.8257 102.037Z" fill="#2563EB"/>
<path d="M61.8257 85.9839C63.431 85.9839 64.5011 84.9138 64.5011 83.3086V77.9576C64.5011 76.3523 63.431 75.2822 61.8257 75.2822C60.2205 75.2822 59.1504 76.3523 59.1504 77.9576V83.3086C59.1501 84.9135 60.2205 85.9839 61.8257 85.9839Z" fill="#2563EB"/>
<path d="M61.8257 69.9312C63.431 69.9312 64.5011 68.8611 64.5011 67.2558V61.9048C64.5011 60.2996 63.431 59.2295 61.8257 59.2295C60.2205 59.2295 59.1504 60.2996 59.1504 61.9048V67.2558C59.1501 68.8608 60.2205 69.9312 61.8257 69.9312Z" fill="#2563EB"/>
<path d="M77.8785 37.8257C79.4837 37.8257 80.5538 36.7556 80.5538 35.1504V29.7994C80.5538 28.1941 79.4837 27.124 77.8785 27.124C76.2732 27.124 75.2031 28.1941 75.2031 29.7994V35.1504C75.2028 36.7553 76.2732 37.8257 77.8785 37.8257Z" fill="#2563EB"/>
<path d="M77.8785 21.773C79.4837 21.773 80.5538 20.7029 80.5538 19.0976V13.7466C80.5538 12.1414 79.4837 11.0713 77.8785 11.0713C76.2732 11.0713 75.2031 12.1414 75.2031 13.7466V19.0976C75.2028 20.7026 76.2732 21.773 77.8785 21.773Z" fill="#2563EB"/>
</g>
<defs>
<clipPath id="clip0_1411_4036">
<rect width="160.527" height="160.527" fill="white" transform="translate(0.290039 0.370117)"/>
</clipPath>
</defs>
</svg>
