<svg width="50" height="50" viewBox="0 0 50 50" fill="none" xmlns="http://www.w3.org/2000/svg">
<path d="M48.6888 20.6496C48.8344 20.7644 49.0116 20.8234 49.1902 20.8234C49.3105 20.8234 49.4313 20.7966 49.5436 20.7422C49.8228 20.6068 50 20.3237 50 20.0135V15.6938C50 15.4457 49.8863 15.2112 49.6914 15.0576L36.5057 4.66898C35.581 3.94036 34.2893 3.94047 33.3646 4.66898L28.4017 8.57913V7.05451C28.4017 6.60721 28.0391 6.24458 27.5918 6.24458H24.1361C23.6888 6.24458 23.3261 6.60721 23.3261 7.05451V12.5782L20.1791 15.0576C19.9841 15.2112 19.8704 15.4457 19.8704 15.6938V20.0135C19.8704 20.3237 20.0476 20.6068 20.3268 20.7422C20.6058 20.8776 20.9379 20.8418 21.1816 20.6498L21.5983 20.3215V28.2141L14.0435 22.262C13.1188 21.5333 11.8271 21.5333 10.9024 22.262L0.308639 30.6084C0.113715 30.7618 0 30.9964 0 31.2446V35.5642C0 35.8745 0.177214 36.1575 0.456371 36.2929C0.568682 36.3475 0.689525 36.3742 0.809827 36.3742C0.988337 36.3742 1.16555 36.3152 1.31123 36.2004L1.72786 35.8721V44.2575H0.809935C0.362635 44.2575 0 44.6202 0 45.0675C0 45.5148 0.362635 45.8774 0.809935 45.8774H49.1901C49.6374 45.8774 50 45.5148 50 45.0675C50 44.6202 49.6374 44.2575 49.1901 44.2575H48.2721V20.3214L48.6888 20.6496ZM24.946 7.86444H26.7819V9.85548L24.946 11.3019V7.86444ZM21.4903 16.0868L34.3672 5.94144C34.7016 5.67794 35.1689 5.67794 35.5033 5.94144L48.3801 16.0868V18.3441L35.4365 8.14619C35.2895 8.03032 35.1124 7.97244 34.9352 7.97244C34.758 7.97244 34.581 8.03032 34.4339 8.14619L21.4903 18.3441V16.0868ZM1.61987 31.6375L11.905 23.5342C12.2394 23.2707 12.7067 23.2707 13.0411 23.5342L21.5983 30.2762V32.5337L12.9743 25.739C12.6802 25.5072 12.2658 25.5072 11.9718 25.739L1.61987 33.895V31.6375ZM3.34773 34.5959L12.473 27.4063L21.5983 34.596V44.2576H18.0346V34.7004C18.0346 34.2531 17.6719 33.8905 17.2246 33.8905H7.72138C7.27408 33.8905 6.91145 34.2531 6.91145 34.7004V44.2576H3.34773V34.5959ZM8.53132 38.966H16.4147V40.8018H8.53132V38.966ZM16.4147 37.3461H8.53132V35.5102H16.4147V37.3461ZM8.53132 42.4217H16.4147V44.2575H8.53132V42.4217ZM31.9654 38.2127C31.9475 38.2115 31.9295 38.21 31.9114 38.21C31.6987 38.21 31.4892 38.2964 31.3391 38.4476C31.1879 38.5977 31.1015 38.8072 31.1015 39.0199C31.1015 39.2327 31.1879 39.4422 31.3391 39.5923C31.4892 39.7435 31.6987 39.8299 31.9114 39.8299C31.9295 39.8299 31.9475 39.8284 31.9654 39.8272V44.2575H28.4017V33.7824H31.9654V38.2127ZM46.6523 44.2575H33.5853V32.9724C33.5853 32.5251 33.2227 32.1625 32.7754 32.1625H27.5918C27.1445 32.1625 26.7819 32.5251 26.7819 32.9724V44.2575H23.2181V19.0451L34.9352 9.81347L46.6523 19.0451V44.2575Z" fill="#2563EB"/>
<path d="M37.0951 40.6939H42.2787C42.726 40.6939 43.0886 40.3313 43.0886 39.884V32.9725C43.0886 32.5252 42.726 32.1626 42.2787 32.1626H37.0951C36.6478 32.1626 36.2852 32.5252 36.2852 32.9725V39.884C36.2852 40.3313 36.6478 40.6939 37.0951 40.6939ZM37.905 39.074V36.3743H41.4687V39.074H37.905ZM41.4687 33.7825V34.7544H37.905V33.7825H41.4687Z" fill="#2563EB"/>
<path d="M37.0951 28.5987H42.2787C42.726 28.5987 43.0886 28.2361 43.0886 27.7888V20.8773C43.0886 20.43 42.726 20.0674 42.2787 20.0674H37.0951C36.6478 20.0674 36.2852 20.43 36.2852 20.8773V27.7888C36.2852 28.2361 36.6478 28.5987 37.0951 28.5987ZM37.905 26.9788V24.279H41.4687V26.9788H37.905ZM41.4687 21.6873V22.6592H37.905V21.6873H41.4687Z" fill="#2563EB"/>
<path d="M32.7757 20.0674H27.5922C27.1449 20.0674 26.7822 20.43 26.7822 20.8773V27.7888C26.7822 28.2361 27.1449 28.5987 27.5922 28.5987H32.7757C33.223 28.5987 33.5857 28.2361 33.5857 27.7888V20.8773C33.5857 20.43 33.223 20.0674 32.7757 20.0674ZM31.9658 21.6873V22.6592H28.4021V21.6873H31.9658ZM28.4021 26.9788V24.279H31.9658V26.9788H28.4021Z" fill="#2563EB"/>
</svg>
