<svg width="30" height="30" viewBox="0 0 30 30" fill="none" xmlns="http://www.w3.org/2000/svg">
<g clip-path="url(#clip0_2838_9636)">
<path d="M29.2123 12.3899C29.2997 12.4588 29.406 12.4941 29.5131 12.4941C29.5853 12.4941 29.6578 12.4781 29.7252 12.4454C29.8927 12.3642 29.999 12.1943 29.999 12.0082V9.41639C29.999 9.26749 29.9308 9.12682 29.8138 9.03468L21.9025 2.80149C21.3476 2.36432 20.5726 2.36438 20.0178 2.80149L17.0401 5.14758V4.2328C17.0401 3.96442 16.8225 3.74684 16.5541 3.74684H14.4807C14.2123 3.74684 13.9947 3.96442 13.9947 4.2328V7.54699L12.1065 9.03468C11.9895 9.12682 11.9213 9.26749 11.9213 9.41639V12.0082C11.9213 12.1943 12.0276 12.3642 12.1951 12.4454C12.3625 12.5267 12.5618 12.5052 12.708 12.39L12.958 12.193V16.9286L8.42514 13.3573C7.8703 12.9201 7.09529 12.9201 6.54045 13.3573L0.184207 18.3651C0.0672524 18.4572 -0.000976562 18.5979 -0.000976562 18.7468V21.3386C-0.000976562 21.5248 0.105352 21.6946 0.272846 21.7759C0.340233 21.8086 0.412738 21.8246 0.48492 21.8246C0.592026 21.8246 0.698354 21.7892 0.785762 21.7203L1.03574 21.5234V26.5546H0.484985C0.216604 26.5546 -0.000976562 26.7722 -0.000976562 27.0406C-0.000976562 27.309 0.216604 27.5265 0.484985 27.5265H29.5131C29.7814 27.5265 29.999 27.309 29.999 27.0406C29.999 26.7722 29.7814 26.5546 29.5131 26.5546H28.9623V12.1929L29.2123 12.3899ZM14.9666 4.71876H16.0681V5.91339L14.9666 6.78125V4.71876ZM12.8932 9.65218L20.6193 3.56496C20.82 3.40686 21.1004 3.40686 21.301 3.56496L29.0271 9.65218V11.0066L21.2609 4.88781C21.1727 4.81829 21.0665 4.78356 20.9601 4.78356C20.8538 4.78356 20.7476 4.81829 20.6594 4.88781L12.8932 11.0066V9.65218ZM0.970946 18.9826L7.142 14.1206C7.34267 13.9625 7.62304 13.9625 7.82371 14.1206L12.958 18.1658V19.5203L7.7836 15.4435C7.60717 15.3044 7.35848 15.3044 7.18211 15.4435L0.970946 20.3371V18.9826ZM2.00766 20.7576L7.48282 16.4439L12.958 20.7577V26.5547H10.8198V20.8203C10.8198 20.552 10.6022 20.3344 10.3338 20.3344H4.63185C4.36347 20.3344 4.14589 20.552 4.14589 20.8203V26.5547H2.00766V20.7576ZM5.11781 23.3797H9.84784V24.4812H5.11781V23.3797ZM9.84784 22.4077H5.11781V21.3062H9.84784V22.4077ZM5.11781 25.4531H9.84784V26.5546H5.11781V25.4531ZM19.1783 22.9277C19.1675 22.927 19.1567 22.9261 19.1459 22.9261C19.0182 22.9261 18.8925 22.9779 18.8025 23.0687C18.7118 23.1587 18.6599 23.2844 18.6599 23.4121C18.6599 23.5397 18.7118 23.6654 18.8025 23.7555C18.8925 23.8462 19.0182 23.898 19.1459 23.898C19.1567 23.898 19.1675 23.8971 19.1783 23.8964V26.5546H17.0401V20.2695H19.1783V22.9277ZM27.9904 26.5546H20.1502V19.7836C20.1502 19.5152 19.9326 19.2976 19.6642 19.2976H16.5541C16.2857 19.2976 16.0681 19.5152 16.0681 19.7836V26.5546H13.9299V11.4272L20.9601 5.88818L27.9904 11.4272V26.5546Z" fill="#4BA5F8"/>
<path d="M22.2565 24.4166H25.3666C25.635 24.4166 25.8526 24.1991 25.8526 23.9307V19.7838C25.8526 19.5154 25.635 19.2979 25.3666 19.2979H22.2565C21.9881 19.2979 21.7705 19.5154 21.7705 19.7838V23.9307C21.7705 24.1991 21.9881 24.4166 22.2565 24.4166ZM22.7424 23.4447V21.8248H24.8807V23.4447H22.7424ZM24.8807 20.2698V20.8529H22.7424V20.2698H24.8807Z" fill="#4BA5F8"/>
<path d="M22.2565 17.1593H25.3666C25.635 17.1593 25.8526 16.9417 25.8526 16.6734V12.5265C25.8526 12.2581 25.635 12.0405 25.3666 12.0405H22.2565C21.9881 12.0405 21.7705 12.2581 21.7705 12.5265V16.6734C21.7705 16.9417 21.9881 17.1593 22.2565 17.1593ZM22.7424 16.1874V14.5675H24.8807V16.1874H22.7424ZM24.8807 13.0124V13.5956H22.7424V13.0124H24.8807Z" fill="#4BA5F8"/>
<path d="M19.6645 12.0405H16.5543C16.2859 12.0405 16.0684 12.2581 16.0684 12.5265V16.6734C16.0684 16.9417 16.2859 17.1593 16.5543 17.1593H19.6645C19.9329 17.1593 20.1504 16.9417 20.1504 16.6734V12.5265C20.1504 12.2581 19.9329 12.0405 19.6645 12.0405ZM19.1785 13.0124V13.5956H17.0403V13.0124H19.1785ZM17.0403 16.1874V14.5675H19.1785V16.1874H17.0403Z" fill="#4BA5F8"/>
</g>
<defs>
<clipPath id="clip0_2838_9636">
<rect width="30" height="30" fill="white"/>
</clipPath>
</defs>
</svg>
