<svg width="50" height="50" viewBox="0 0 50 50" fill="none" xmlns="http://www.w3.org/2000/svg">
<path d="M0.999991 48.5C0.999991 47.875 1.52042 47.75 1.87499 47.75H8.12501V43.2207C8.12501 43.2207 8.12501 43.2207 7.62501 43.0957C7.12501 42.9707 6.25001 42.5 5.75001 41.875C5.25001 41.25 5.12501 40.5 5.00001 39.75V35C5.00001 33.156 6.28885 32.0862 7.50001 30.875L5.12504 28.375C4.89959 28.1495 4.86777 27.6661 5.16117 27.4072C5.4357 27.165 5.92776 27.1777 6.12501 27.375C6.32226 27.5723 8.25001 29.5 8.25001 29.5L12.875 20.375C13.4096 19.0386 14.8884 18.375 16.25 18.375H33.25C34.7349 18.375 35.8812 19.1353 36.625 20.375L41.25 29.5L43.375 27.375C43.671 27.079 44.0989 27.0989 44.375 27.375C44.6512 27.6511 44.6411 28.1089 44.375 28.375C44.1089 28.6411 42 30.875 42 30.875C43.2344 32.1094 44.5 33.1482 44.5 35V39.5C44.5 40.25 44.25 41 43.875 41.625C43.375 42.25 42.625 42.9707 42.125 43.0957C41.625 43.2207 41.625 43.2207 41.625 43.2207V47.75H47.875C48.2385 47.75 48.75 47.9128 48.75 48.5C48.75 49.125 48.2296 49.25 47.875 49.25C47.875 49.25 2.27482 49.25 1.87499 49.25C1.47516 49.25 0.999991 49.125 0.999991 48.5ZM33.125 47.75H40.375V43.2207H33.125V47.75ZM18.375 47.75H31.5V43.2207H18.375V47.75ZM9.62501 47.75H16.875V43.2207H9.62501V47.75ZM6.25004 35V39.625C6.25004 40.7692 7.59634 41.825 8.75001 41.825H41.125C42.2692 41.825 43.25 40.7787 43.25 39.625V35C43.25 33.5719 41.6583 32.5333 40.75 31.625H8.75004C7.8523 32.5227 6.25004 33.5811 6.25004 35ZM16.25 19.875C15.513 19.875 14.7037 20.4651 14.3639 21.125L9.86388 30.125H40L35.5 21.125C35.2661 20.4234 34.4591 19.875 33.75 19.875H16.25Z" fill="#2563EB"/>
<path d="M35.25 38.1381H38.25C38.8651 38.1381 39.375 37.4221 39.375 36.8815C39.375 36.3294 38.8579 35.625 38.25 35.625H35.25C34.6349 35.625 34.125 36.341 34.125 36.8815C34.125 37.4336 34.6421 38.1381 35.25 38.1381Z" fill="#2563EB"/>
<path d="M11.75 38.1381H14.75C15.3651 38.1381 15.875 37.4221 15.875 36.8815C15.875 36.3294 15.3579 35.625 14.75 35.625H11.75C11.1349 35.625 10.625 36.341 10.625 36.8815C10.625 37.4336 11.1421 38.1381 11.75 38.1381Z" fill="#2563EB"/>
<path fill-rule="evenodd" clip-rule="evenodd" d="M27.3999 3.17579C25.9531 2.18587 24.0469 2.18587 22.6001 3.17579L1.67352 17.494C1.33167 17.7279 0.86493 17.6404 0.63103 17.2985C0.39713 16.9567 0.484644 16.4899 0.826497 16.256L21.7531 1.93783C23.7105 0.598522 26.2895 0.598521 28.2469 1.93783L49.1735 16.256C49.5154 16.4899 49.6029 16.9567 49.369 17.2985C49.1351 17.6404 48.6684 17.7279 48.3265 17.494L27.3999 3.17579Z" fill="#2563EB"/>
</svg>
