<svg width="30" height="30" viewBox="0 0 30 30" fill="none" xmlns="http://www.w3.org/2000/svg">
<g clip-path="url(#clip0_2838_9697)">
<path d="M28.7258 29.5501V29.6001C28.8365 29.6001 28.9786 29.5808 29.0947 29.508C29.2143 29.433 29.3008 29.3043 29.3008 29.1001C29.3008 28.9065 29.2152 28.7786 29.0976 28.7012C28.9828 28.6256 28.8409 28.6001 28.7258 28.6001H25.0258V25.9715L25.0259 25.9715L25.0263 25.9714L25.0268 25.9713L25.0272 25.9712L25.0277 25.9711L25.0282 25.9709L25.0286 25.9708L25.0291 25.9707L25.0296 25.9706L25.03 25.9705L25.0305 25.9704L25.031 25.9702L25.0315 25.9701L25.0319 25.97L25.0324 25.9699L25.0329 25.9697L25.0334 25.9696L25.0339 25.9695L25.0344 25.9694L25.0349 25.9692L25.0355 25.9691L25.036 25.969L25.0365 25.9689L25.037 25.9687L25.0375 25.9686L25.0381 25.9685L25.0386 25.9683L25.0392 25.9682L25.0397 25.9681L25.0402 25.9679L25.0408 25.9678L25.0413 25.9676L25.0419 25.9675L25.0425 25.9674L25.043 25.9672L25.0436 25.9671L25.0442 25.9669L25.0448 25.9668L25.0453 25.9666L25.0459 25.9665L25.0465 25.9664L25.0471 25.9662L25.0477 25.9661L25.0483 25.9659L25.0489 25.9657L25.0495 25.9656L25.0501 25.9654L25.0508 25.9653L25.0514 25.9651L25.052 25.965L25.0526 25.9648L25.0533 25.9647L25.0539 25.9645L25.0545 25.9643L25.0552 25.9642L25.0558 25.964L25.0565 25.9639L25.0572 25.9637L25.0578 25.9635L25.0585 25.9634L25.0592 25.9632L25.0598 25.963L25.0605 25.9629L25.0612 25.9627L25.0619 25.9625L25.0626 25.9623L25.0633 25.9622L25.064 25.962L25.0647 25.9618L25.0654 25.9616L25.0661 25.9615L25.0668 25.9613L25.0676 25.9611L25.0683 25.9609L25.069 25.9607L25.0697 25.9605L25.0705 25.9604L25.0712 25.9602L25.072 25.96L25.0727 25.9598L25.0735 25.9596L25.0743 25.9594L25.075 25.9592L25.0758 25.959L25.0766 25.9588L25.0774 25.9586L25.0782 25.9584L25.0789 25.9582L25.0797 25.958L25.0805 25.9578L25.0813 25.9576L25.0822 25.9574L25.083 25.9572L25.0838 25.957L25.0846 25.9568L25.0854 25.9566L25.0863 25.9564L25.0871 25.9562L25.088 25.956L25.0888 25.9558L25.0897 25.9556L25.0905 25.9554L25.0914 25.9551L25.0922 25.9549L25.0931 25.9547L25.094 25.9545L25.0949 25.9543L25.0958 25.954L25.0966 25.9538L25.0975 25.9536L25.0984 25.9534L25.0993 25.9531L25.1003 25.9529L25.1012 25.9527L25.1021 25.9525L25.103 25.9522L25.104 25.952L25.1049 25.9518L25.1058 25.9515L25.1068 25.9513L25.1077 25.951L25.1087 25.9508L25.1096 25.9506L25.1106 25.9503L25.1116 25.9501L25.1126 25.9498L25.1135 25.9496L25.1145 25.9493L25.1155 25.9491L25.1165 25.9489L25.1175 25.9486L25.1185 25.9483L25.1195 25.9481L25.1205 25.9478L25.1216 25.9476L25.1226 25.9473L25.1236 25.9471L25.1247 25.9468L25.1257 25.9466L25.1268 25.9463L25.1278 25.946L25.1289 25.9458L25.1299 25.9455L25.131 25.9452L25.1321 25.945L25.1332 25.9447L25.1342 25.9444L25.1353 25.9441L25.1364 25.9439L25.1375 25.9436L25.1386 25.9433L25.1398 25.943L25.1409 25.9428L25.142 25.9425L25.1431 25.9422L25.1443 25.9419L25.1454 25.9416L25.1466 25.9413L25.1477 25.9411L25.1489 25.9408L25.15 25.9405L25.1512 25.9402L25.1524 25.9399L25.1536 25.9396L25.1547 25.9393L25.1559 25.939L25.1571 25.9387L25.1583 25.9384L25.1595 25.9381L25.1608 25.9378L25.162 25.9375L25.1632 25.9372L25.1644 25.9369L25.1657 25.9366L25.1669 25.9363L25.1682 25.9359L25.1694 25.9356L25.1707 25.9353L25.1719 25.935L25.1732 25.9347L25.1745 25.9344L25.1758 25.934L25.1771 25.9337L25.1784 25.9334L25.1797 25.9331L25.181 25.9327L25.1823 25.9324L25.1836 25.9321L25.1849 25.9317L25.1863 25.9314L25.1876 25.9311L25.1889 25.9307L25.1903 25.9304L25.1916 25.9301L25.193 25.9297L25.1944 25.9294L25.1957 25.929L25.1971 25.9287L25.1985 25.9284L25.1999 25.928L25.2013 25.9277L25.2027 25.9273L25.2041 25.927L25.2055 25.9266L25.2069 25.9262L25.2084 25.9259L25.2098 25.9255L25.2112 25.9252L25.2127 25.9248L25.2141 25.9244L25.2156 25.9241L25.2171 25.9237L25.2185 25.9233L25.22 25.923L25.2215 25.9226L25.223 25.9222L25.2245 25.9219L25.226 25.9215L25.2275 25.9211L25.229 25.9207L25.2305 25.9203L25.2321 25.92L25.2336 25.9196L25.2351 25.9192L25.2367 25.9188L25.2383 25.9184L25.2398 25.918L25.2414 25.9176L25.243 25.9172L25.2445 25.9168L25.2461 25.9164L25.2477 25.916L25.2493 25.9156L25.2509 25.9152L25.2525 25.9148L25.2542 25.9144L25.2558 25.914L25.2574 25.9136L25.2591 25.9132L25.2607 25.9128L25.2624 25.9124L25.264 25.912L25.2657 25.9116L25.2674 25.9111L25.269 25.9107L25.2707 25.9103L25.2724 25.9099L25.2741 25.9095L25.2758 25.909L25.2775 25.9086L25.2793 25.9082L25.281 25.9077L25.2827 25.9073L25.2845 25.9069L25.2862 25.9064L25.288 25.906C25.4504 25.8654 25.6456 25.7314 25.8338 25.5664C26.0238 25.3998 26.2133 25.1957 26.3649 25.0063L26.3652 25.0066L26.3687 25.0008C26.5974 24.6196 26.7508 24.1608 26.7508 23.7001V21.0001C26.7508 19.977 26.1186 19.3567 25.4565 18.7072C25.3946 18.6465 25.3325 18.5856 25.2706 18.524L25.2919 18.5015L25.4374 18.3475C25.5585 18.2193 25.7216 18.0468 25.8898 17.8693C26.2264 17.5139 26.582 17.1396 26.6612 17.0604C26.8399 16.8817 26.8469 16.5754 26.6612 16.3897C26.4769 16.2054 26.1885 16.1916 25.9905 16.3897L24.7642 17.6159L22.0204 12.2024L22.0205 12.2024L22.0187 12.1993C21.5647 11.4427 20.8617 10.975 19.9508 10.975H9.75083C8.92213 10.975 8.01185 11.3785 7.68023 12.2044L4.93741 17.6159L4.93625 17.6148L4.8036 17.4821L4.39306 17.0716L3.71118 16.3897C3.63898 16.3175 3.5202 16.2843 3.40339 16.2858C3.28534 16.2874 3.15783 16.3245 3.06444 16.4069C2.96369 16.4958 2.9203 16.6219 2.91994 16.7421C2.91959 16.8613 2.96153 16.9811 3.04001 17.0599C3.04017 17.0601 3.04033 17.0602 3.04049 17.0604L4.43096 18.5241C4.37234 18.5824 4.31332 18.6404 4.25437 18.6982C3.59821 19.3425 2.95082 19.9781 2.95082 21.0001V23.85H2.95013L2.9515 23.8583L2.95241 23.8637C3.02679 24.31 3.10364 24.7711 3.41178 25.1563C3.56644 25.3496 3.77766 25.5175 3.98713 25.6464C4.19641 25.7751 4.40742 25.8669 4.5637 25.906L4.56545 25.9064L4.5672 25.9069L4.56894 25.9073L4.57067 25.9077L4.5724 25.9082L4.57412 25.9086L4.57584 25.909L4.57754 25.9095L4.57924 25.9099L4.58094 25.9103L4.58262 25.9107L4.5843 25.9111L4.58597 25.9116L4.58764 25.912L4.5893 25.9124L4.59095 25.9128L4.5926 25.9132L4.59424 25.9136L4.59587 25.914L4.5975 25.9144L4.59912 25.9148L4.60073 25.9152L4.60234 25.9156L4.60394 25.916L4.60553 25.9164L4.60712 25.9168L4.6087 25.9172L4.61027 25.9176L4.61184 25.918L4.6134 25.9184L4.61496 25.9188L4.61651 25.9192L4.61805 25.9196L4.61958 25.92L4.62111 25.9203L4.62263 25.9207L4.62415 25.9211L4.62566 25.9215L4.62716 25.9219L4.62866 25.9222L4.63015 25.9226L4.63164 25.923L4.63311 25.9233L4.63459 25.9237L4.63605 25.9241L4.63751 25.9244L4.63896 25.9248L4.64041 25.9252L4.64185 25.9255L4.64329 25.9259L4.64471 25.9262L4.64614 25.9266L4.64755 25.927L4.64896 25.9273L4.65036 25.9277L4.65176 25.928L4.65315 25.9284L4.65454 25.9287L4.65592 25.929L4.65729 25.9294L4.65866 25.9297L4.66002 25.9301L4.66137 25.9304L4.66272 25.9307L4.66406 25.9311L4.6654 25.9314L4.66673 25.9317L4.66806 25.9321L4.66938 25.9324L4.67069 25.9327L4.672 25.9331L4.6733 25.9334L4.67459 25.9337L4.67588 25.934L4.67717 25.9344L4.67844 25.9347L4.67971 25.935L4.68098 25.9353L4.68224 25.9356L4.6835 25.9359L4.68474 25.9363L4.68599 25.9366L4.68722 25.9369L4.68845 25.9372L4.68968 25.9375L4.6909 25.9378L4.69211 25.9381L4.69332 25.9384L4.69452 25.9387L4.69572 25.939L4.69691 25.9393L4.6981 25.9396L4.69928 25.9399L4.70045 25.9402L4.70162 25.9405L4.70279 25.9408L4.70394 25.9411L4.70509 25.9413L4.70624 25.9416L4.70738 25.9419L4.70852 25.9422L4.70965 25.9425L4.71077 25.9428L4.71189 25.943L4.713 25.9433L4.71411 25.9436L4.71522 25.9439L4.71631 25.9441L4.7174 25.9444L4.71849 25.9447L4.71957 25.945L4.72065 25.9452L4.72172 25.9455L4.72278 25.9458L4.72384 25.946L4.7249 25.9463L4.72594 25.9466L4.72699 25.9468L4.72803 25.9471L4.72906 25.9473L4.73009 25.9476L4.73111 25.9478L4.73213 25.9481L4.73314 25.9483L4.73415 25.9486L4.73515 25.9489L4.73614 25.9491L4.73714 25.9493L4.73812 25.9496L4.7391 25.9498L4.74008 25.9501L4.74105 25.9503L4.74202 25.9506L4.74298 25.9508L4.74393 25.951L4.74488 25.9513L4.74583 25.9515L4.74677 25.9518L4.7477 25.952L4.74863 25.9522L4.74956 25.9525L4.75048 25.9527L4.7514 25.9529L4.75231 25.9531L4.75321 25.9534L4.75411 25.9536L4.75501 25.9538L4.7559 25.954L4.75678 25.9543L4.75767 25.9545L4.75854 25.9547L4.75941 25.9549L4.76028 25.9551L4.76114 25.9554L4.762 25.9556L4.76285 25.9558L4.7637 25.956L4.76454 25.9562L4.76538 25.9564L4.76621 25.9566L4.76704 25.9568L4.76787 25.957L4.76868 25.9572L4.7695 25.9574L4.77031 25.9576L4.77111 25.9578L4.77191 25.958L4.77271 25.9582L4.7735 25.9584L4.77429 25.9586L4.77507 25.9588L4.77585 25.959L4.77662 25.9592L4.77739 25.9594L4.77815 25.9596L4.77891 25.9598L4.77967 25.96L4.78042 25.9602L4.78116 25.9604L4.7819 25.9605L4.78264 25.9607L4.78337 25.9609L4.7841 25.9611L4.78482 25.9613L4.78554 25.9615L4.78626 25.9616L4.78697 25.9618L4.78767 25.962L4.78838 25.9622L4.78907 25.9623L4.78977 25.9625L4.79046 25.9627L4.79114 25.9629L4.79182 25.963L4.7925 25.9632L4.79317 25.9634L4.79384 25.9635L4.7945 25.9637L4.79516 25.9639L4.79581 25.964L4.79646 25.9642L4.79711 25.9643L4.79775 25.9645L4.79839 25.9647L4.79902 25.9648L4.79965 25.965L4.80028 25.9651L4.8009 25.9653L4.80152 25.9654L4.80213 25.9656L4.80274 25.9657L4.80335 25.9659L4.80395 25.9661L4.80455 25.9662L4.80514 25.9664L4.80573 25.9665L4.80632 25.9666L4.8069 25.9668L4.80748 25.9669L4.80805 25.9671L4.80862 25.9672L4.80918 25.9674L4.80975 25.9675L4.8103 25.9676L4.81086 25.9678L4.81141 25.9679L4.81196 25.9681L4.8125 25.9682L4.81304 25.9683L4.81357 25.9685L4.8141 25.9686L4.81463 25.9687L4.81516 25.9689L4.81568 25.969L4.81619 25.9691L4.8167 25.9692L4.81721 25.9694L4.81772 25.9695L4.81822 25.9696L4.81872 25.9697L4.81921 25.9699L4.8197 25.97L4.82019 25.9701L4.82067 25.9702L4.82115 25.9704L4.82163 25.9705L4.8221 25.9706L4.82257 25.9707L4.82304 25.9708L4.8235 25.9709L4.82396 25.9711L4.82441 25.9712L4.82486 25.9713L4.82531 25.9714L4.82576 25.9715L4.82582 25.9715V28.6001H1.12581C1.01511 28.6001 0.873004 28.6193 0.756973 28.6921C0.637345 28.7671 0.550812 28.8958 0.550812 29.1001C0.550812 29.3025 0.629038 29.4317 0.746159 29.5076C0.859443 29.5811 1.0023 29.6001 1.12581 29.6001H1.12753H1.12986H1.13281H1.13637H1.14055H1.14533H1.15072H1.15671H1.16331H1.1705H1.17829H1.18667H1.19565H1.20521H1.21536H1.22609H1.23741H1.24931H1.26178H1.27482H1.28844H1.30263H1.31739H1.33271H1.34859H1.36503H1.38203H1.39959H1.41769H1.43635H1.45556H1.47531H1.4956H1.51643H1.53781H1.55971H1.58215H1.60512H1.62862H1.65265H1.67719H1.70226H1.72785H1.75395H1.78057H1.8077H1.83533H1.86348H1.89212H1.92127H1.95092H1.98106H2.0117H2.04283H2.07445H2.10655H2.13914H2.17221H2.20576H2.23979H2.2743H2.30927H2.34472H2.38063H2.417H2.45384H2.49114H2.5289H2.56711H2.60577H2.64489H2.68445H2.72446H2.76491H2.8058H2.84713H2.8889H2.9311H2.97372H3.01678H3.06027H3.10417H3.1485H3.19325H3.23841H3.28398H3.32997H3.37637H3.42317H3.47038H3.51799H3.56599H3.6144H3.6632H3.71239H3.76197H3.81193H3.86228H3.91302H3.96413H4.01562H4.06748H4.11972H4.17233H4.2253H4.27864H4.33234H4.3864H4.44082H4.4956H4.55073H4.6062H4.66203H4.7182H4.77472H4.83157H4.88877H4.94629H5.00416H5.06235H5.12087H5.17972H5.23889H5.29839H5.3582H5.41832H5.47877H5.53952H5.60058H5.66195H5.72362H5.7856H5.84787H5.91044H5.97331H6.03646H6.09991H6.16364H6.22766H6.29196H6.35654H6.4214H6.48653H6.55194H6.61761H6.68356H6.74976H6.81623H6.88296H6.94995H7.0172H7.08469H7.15244H7.22044H7.28868H7.35716H7.42589H7.49485H7.56405H7.63348H7.70315H7.77304H7.84316H7.9135H7.98407H8.05485H8.12585H8.19706H8.26849H8.34012H8.41196H8.484H8.55625H8.6287H8.70134H8.77418H8.84721H8.92043H8.99383H9.06743H9.1412H9.21515H9.28928H9.36359H9.43807H9.51272H9.58754H9.66252H9.73766H9.81297H9.88843H9.96405H10.0398H10.1157H10.1918H10.268H10.3444H10.4209H10.4975H10.5743H10.6512H10.7283H10.8054H10.8827H10.9601H11.0377H11.1153H11.1931H11.271H11.349H11.4271H11.5053H11.5837H11.6621H11.7406H11.8192H11.898H11.9768H12.0557H12.1346H12.2137H12.2929H12.3721H12.4514H12.5308H12.6103H12.6898H12.7694H12.8491H12.9288H13.0086H13.0884H13.1683H13.2483H13.3283H13.4083H13.4884H13.5686H13.6487H13.729H13.8092H13.8895H13.9698H14.0502H14.1306H14.211H14.2914H14.3718H14.4523H14.5328H14.6133H14.6937H14.7743H14.8548H14.9353H15.0158H15.0963H15.1768H15.2573H15.3378H15.4182H15.4987H15.5791H15.6595H15.7399H15.8203H15.9007H15.981H16.0613H16.1415H16.2217H16.3019H16.382H16.4621H16.5421H16.6221H16.7021H16.782H16.8618H16.9416H17.0213H17.1009H17.1805H17.26H17.3395H17.4188H17.4981H17.5773H17.6565H17.7355H17.8145H17.8933H17.9721H18.0508H18.1294H18.2079H18.2863H18.3646H18.4428H18.5209H18.5989H18.6767H18.7545H18.8321H18.9096H18.987H19.0643H19.1414H19.2184H19.2953H19.372H19.4486H19.5251H19.6014H19.6776H19.7536H19.8295H19.9053H19.9808H20.0563H20.1315H20.2066H20.2816H20.3563H20.4309H20.5054H20.5796H20.6537H20.7276H20.8014H20.8749H20.9483H21.0214H21.0944H21.1672H21.2398H21.3122H21.3844H21.4564H21.5282H21.5998H21.6711H21.7423H21.8132H21.884H21.9545H22.0248H22.0948H22.1646H22.2343H22.3036H22.3728H22.4417H22.5103H22.5788H22.6469H22.7149H22.7826H22.85H22.9172H22.9841H23.0508H23.1172H23.1833H23.2492H23.3148H23.3801H23.4452H23.51H23.5745H23.6387H23.7026H23.7663H23.8297H23.8928H23.9556H24.0181H24.0802H24.1421H24.2037H24.265H24.326H24.3867H24.4471H24.5071H24.5668H24.6262H24.6853H24.7441H24.8025H24.8606H24.9184H24.9759H25.033H25.0897H25.1462H25.2023H25.258H25.3134H25.3684H25.4231H25.4774H25.5314H25.585H25.6383H25.6911H25.7437H25.7958H25.8476H25.899H25.95H26.0006H26.0509H26.1007H26.1502H26.1993H26.248H26.2963H26.3442H26.3917H26.4388H26.4855H26.5318H26.5777H26.6232H26.6682H26.7129H26.7571H26.8009H26.8443H26.8872H26.9297H26.9718H27.0135H27.0547H27.0955H27.1358H27.1757H27.2152H27.2542H27.2927H27.3308H27.3684H27.4056H27.4423H27.4786H27.5144H27.5497H27.5846H27.619H27.6529H27.6863H27.7192H27.7517H27.7837H27.8152H27.8462H27.8767H27.9067H27.9362H27.9653H27.9938H28.0218H28.0493H28.0763H28.1028H28.1288H28.1542H28.1791H28.2036H28.2275H28.2508H28.2737H28.296H28.3177H28.339H28.3597H28.3798H28.3994H28.4185H28.437H28.455H28.4724H28.4893H28.5056H28.5213H28.5365H28.5511H28.5651H28.5786H28.5915H28.6038H28.6156H28.6267H28.6373H28.6473H28.6567H28.6656H28.6738H28.6814H28.6885H28.6949H28.7008H28.706H28.7106H28.7146H28.718H28.7208H28.723H28.7246H28.7255C28.7257 29.6001 28.7258 29.6001 28.7258 29.5501ZM21.2534 12.6909L21.2529 12.691L21.2561 12.6974L23.9199 18.0251H6.00005L8.6636 12.6979C8.66366 12.6978 8.66371 12.6977 8.66376 12.6976C8.76145 12.5081 8.92769 12.3268 9.12381 12.1929C9.32023 12.0588 9.54249 11.975 9.75085 11.975H20.2508C20.4514 11.975 20.6689 12.0529 20.854 12.1831C21.039 12.3132 21.1873 12.4926 21.2534 12.6909ZM24.1758 25.9825V28.6001H19.9258V25.9825H24.1758ZM18.8508 25.9825V28.6001H11.0758V25.9825H18.8508ZM10.0758 25.9825V28.6001H5.82583V25.9825H10.0758ZM3.80084 23.7751V21.0001C3.80084 20.5938 4.03033 20.2341 4.33555 19.9043C4.48767 19.7399 4.65683 19.5847 4.82259 19.4362C4.85078 19.411 4.87891 19.3859 4.90684 19.361C5.03657 19.2452 5.16215 19.1332 5.27148 19.0251H24.4302C24.5419 19.1356 24.6697 19.2494 24.8013 19.3665C24.828 19.3902 24.8549 19.4141 24.8818 19.4382C25.0479 19.5865 25.2168 19.741 25.3685 19.9046C25.6728 20.2328 25.9008 20.5909 25.9008 21.0001V23.7751C25.9008 24.4417 25.3327 25.0451 24.6758 25.0451H5.25082C4.91884 25.0451 4.55491 24.8925 4.27356 24.6543C3.99193 24.4159 3.80084 24.0987 3.80084 23.7751ZM21.1508 22.9329H22.9508C23.1552 22.9329 23.3368 22.8144 23.4652 22.6595C23.5936 22.5046 23.6758 22.3052 23.6758 22.129C23.6758 21.9492 23.5925 21.7498 23.4634 21.5957C23.3344 21.4416 23.1529 21.3251 22.9508 21.3251H21.1508C20.9465 21.3251 20.7649 21.4436 20.6364 21.5985C20.5081 21.7534 20.4258 21.9528 20.4258 22.129C20.4258 22.3087 20.5092 22.5082 20.6382 22.6622C20.7672 22.8163 20.9488 22.9329 21.1508 22.9329ZM7.05083 22.9329H8.85083C9.0552 22.9329 9.2368 22.8144 9.36521 22.6595C9.49359 22.5046 9.57583 22.3052 9.57583 22.129C9.57583 21.9492 9.49246 21.7498 9.36343 21.5957C9.23442 21.4416 9.05285 21.3251 8.85083 21.3251H7.05083C6.84645 21.3251 6.66485 21.4436 6.53644 21.5985C6.40806 21.7534 6.32583 21.9528 6.32583 22.129C6.32583 22.3087 6.40919 22.5082 6.53822 22.6622C6.66724 22.8163 6.8488 22.9329 7.05083 22.9329ZM13.5891 1.94679C14.4402 1.36448 15.5615 1.36448 16.4125 1.94679L28.9685 10.5377C29.1964 10.6936 29.5076 10.6353 29.6635 10.4074C29.8194 10.1795 29.7611 9.86833 29.5332 9.7124L16.9772 1.12148C15.7857 0.30625 14.2159 0.306251 13.0244 1.12148L0.468482 9.7124C0.24058 9.86833 0.182237 10.1795 0.338171 10.4074C0.494104 10.6353 0.805264 10.6936 1.03317 10.5377L13.5891 1.94679Z" fill="#4BA5F8" stroke="#4BA5F8" stroke-width="0.1" stroke-linecap="round"/>
</g>
<defs>
<clipPath id="clip0_2838_9697">
<rect width="30" height="30" fill="white"/>
</clipPath>
</defs>
</svg>
